<svg width="18" height="19" viewBox="0 0 18 19" fill="none" xmlns="http://www.w3.org/2000/svg">
<path d="M9.9 6.8C9.9 6.30294 9.49706 5.9 9 5.9C8.50294 5.9 8.1 6.30294 8.1 6.8V8.6H6.3C5.80294 8.6 5.4 9.00294 5.4 9.5C5.4 9.99706 5.80294 10.4 6.3 10.4H8.1V12.2C8.1 12.6971 8.50294 13.1 9 13.1C9.49706 13.1 9.9 12.6971 9.9 12.2V10.4H11.7C12.1971 10.4 12.6 9.99706 12.6 9.5C12.6 9.00294 12.1971 8.6 11.7 8.6H9.9V6.8Z" fill="white"/>
<path fill-rule="evenodd" clip-rule="evenodd" d="M9 0.5C4.02944 0.5 0 4.52944 0 9.5C0 14.4706 4.02944 18.5 9 18.5C13.9706 18.5 18 14.4706 18 9.5C18 4.52944 13.9706 0.5 9 0.5ZM1.8 9.5C1.8 5.52355 5.02355 2.3 9 2.3C12.9764 2.3 16.2 5.52355 16.2 9.5C16.2 13.4764 12.9764 16.7 9 16.7C5.02355 16.7 1.8 13.4764 1.8 9.5Z" fill="white"/>
</svg>
