<svg width="49" height="23" viewBox="0 0 49 23" fill="none" xmlns="http://www.w3.org/2000/svg">
<path d="M2.59941 8.49121L5.42007 0.77847H7.00669L9.82735 8.49121H8.32887L7.71185 6.70626H4.70388L4.07585 8.49121H2.59941ZM5.08952 5.60444H7.32622L6.20236 2.39815L5.08952 5.60444ZM13.7513 8.62343C13.0241 8.62343 12.3887 8.45816 11.8451 8.12761C11.3016 7.79706 10.8792 7.33797 10.578 6.75034C10.2769 6.15535 10.1263 5.46488 10.1263 4.67891C10.1263 3.8856 10.2806 3.18778 10.5891 2.58546C10.9049 1.97578 11.3493 1.502 11.9223 1.16411C12.5026 0.818871 13.1894 0.646252 13.9827 0.646252C14.8862 0.646252 15.6354 0.862944 16.2304 1.29633C16.8254 1.72971 17.211 2.32836 17.3873 3.09229H15.8117C15.6942 2.73236 15.4811 2.45324 15.1726 2.25491C14.8641 2.04924 14.4675 1.9464 13.9827 1.9464C13.2114 1.9464 12.6164 2.19247 12.1977 2.68462C11.779 3.16942 11.5697 3.83786 11.5697 4.68993C11.5697 5.54201 11.7754 6.2031 12.1867 6.67321C12.6054 7.13597 13.171 7.36735 13.8835 7.36735C14.5813 7.36735 15.1065 7.18005 15.4591 6.80543C15.819 6.42346 16.0357 5.92397 16.1092 5.30695H14.159V4.2492H17.5305V8.49121H16.2304L16.1202 7.47754C15.8705 7.84481 15.5583 8.12761 15.1837 8.32594C14.809 8.52427 14.3316 8.62343 13.7513 8.62343ZM18.9016 8.49121V0.77847H23.9369V1.91335H20.3119V4.02884H23.6064V5.13066H20.3119V7.35634H23.9369V8.49121H18.9016ZM25.2715 8.49121V0.77847H26.6818L30.3068 6.21044V0.77847H31.7172V8.49121H30.3068L26.6818 3.07026V8.49121H25.2715ZM36.7051 8.62343C35.9265 8.62343 35.2581 8.45816 34.6998 8.12761C34.1416 7.78972 33.7118 7.32328 33.4107 6.7283C33.1095 6.12597 32.9589 5.43182 32.9589 4.64586C32.9589 3.85989 33.1095 3.16575 33.4107 2.56342C33.7118 1.96109 34.1416 1.49098 34.6998 1.15309C35.2581 0.815198 35.9265 0.646252 36.7051 0.646252C37.6307 0.646252 38.3872 0.877635 38.9749 1.3404C39.5699 1.79582 39.9408 2.43855 40.0877 3.26858H38.5341C38.4387 2.84989 38.233 2.52302 37.9171 2.28796C37.6086 2.04556 37.1973 1.92436 36.6831 1.92436C35.9706 1.92436 35.4123 2.16676 35.0083 2.65156C34.6043 3.13637 34.4023 3.80113 34.4023 4.64586C34.4023 5.49059 34.6043 6.15535 35.0083 6.64015C35.4123 7.11761 35.9706 7.35634 36.6831 7.35634C37.1973 7.35634 37.6086 7.24615 37.9171 7.02579C38.233 6.79808 38.4387 6.4859 38.5341 6.08924H40.0877C39.9408 6.88255 39.5699 7.50325 38.9749 7.95132C38.3872 8.39939 37.6307 8.62343 36.7051 8.62343ZM42.9323 8.49121V5.74768L40.343 0.77847H41.9407L43.6485 4.33735L45.3453 0.77847H46.9209L44.3426 5.74768V8.49121H42.9323ZM0.975514 22.4912V14.7785H4.07163C4.87228 14.7785 5.48196 14.9658 5.90065 15.3404C6.32669 15.7077 6.53971 16.1815 6.53971 16.7617C6.53971 17.2465 6.40749 17.6359 6.14305 17.9297C5.88596 18.2161 5.5701 18.4108 5.19548 18.5136C5.63621 18.6018 5.99981 18.8222 6.28629 19.1747C6.57276 19.52 6.716 19.924 6.716 20.3867C6.716 20.9964 6.49563 21.4996 6.0549 21.8962C5.61418 22.2929 4.98981 22.4912 4.18181 22.4912H0.975514ZM2.38584 18.0178H3.86228C4.25894 18.0178 4.56377 17.926 4.77679 17.7424C4.98981 17.5587 5.09632 17.298 5.09632 16.9601C5.09632 16.6369 4.98981 16.3835 4.77679 16.1998C4.57112 16.0088 4.25894 15.9133 3.84025 15.9133H2.38584V18.0178ZM2.38584 21.3453H3.96145C4.38014 21.3453 4.70334 21.2498 4.93105 21.0588C5.1661 20.8605 5.28363 20.5851 5.28363 20.2325C5.28363 19.8726 5.16243 19.5898 4.92003 19.3841C4.67763 19.1784 4.35076 19.0756 3.93941 19.0756H2.38584V21.3453ZM7.36607 22.4912L10.1867 14.7785H11.7734L14.594 22.4912H13.0955L12.4785 20.7063H9.47055L8.84251 22.4912H7.36607ZM9.85618 19.6044H12.0929L10.969 16.3981L9.85618 19.6044ZM15.5875 22.4912V14.7785H16.9979L20.6229 20.2104V14.7785H22.0332V22.4912H20.6229L16.9979 17.0703V22.4912H15.5875ZM23.5284 22.4912V14.7785H24.9387V17.8966L27.7924 14.7785H29.5333L26.6906 17.8415L29.6104 22.4912H27.8806L25.6769 18.9213L24.9387 19.7256V22.4912H23.5284ZM30.5762 22.4912V14.7785H31.9865V22.4912H30.5762ZM33.4814 22.4912V14.7785H34.8917L38.5167 20.2104V14.7785H39.927V22.4912H38.5167L34.8917 17.0703V22.4912H33.4814ZM44.7938 22.6234C44.0666 22.6234 43.4312 22.4582 42.8876 22.1276C42.3441 21.7971 41.9217 21.338 41.6205 20.7503C41.3194 20.1554 41.1688 19.4649 41.1688 18.6789C41.1688 17.8856 41.323 17.1878 41.6316 16.5855C41.9474 15.9758 42.3918 15.502 42.9648 15.1641C43.545 14.8189 44.2318 14.6463 45.0252 14.6463C45.9287 14.6463 46.6779 14.8629 47.2729 15.2963C47.8679 15.7297 48.2535 16.3284 48.4298 17.0923H46.8542C46.7367 16.7324 46.5236 16.4532 46.2151 16.2549C45.9066 16.0492 45.51 15.9464 45.0252 15.9464C44.2539 15.9464 43.6589 16.1925 43.2402 16.6846C42.8215 17.1694 42.6122 17.8379 42.6122 18.6899C42.6122 19.542 42.8178 20.2031 43.2292 20.6732C43.6479 21.136 44.2135 21.3674 44.926 21.3674C45.6238 21.3674 46.149 21.18 46.5016 20.8054C46.8615 20.4235 47.0782 19.924 47.1517 19.307H45.2015V18.2492H48.573V22.4912H47.2729L47.1627 21.4775C46.9129 21.8448 46.6008 22.1276 46.2261 22.3259C45.8515 22.5243 45.3741 22.6234 44.7938 22.6234Z" fill="#38C216"/>
</svg>
