<svg width="20" height="20" viewBox="0 0 20 20" fill="none" xmlns="http://www.w3.org/2000/svg">
<path fill-rule="evenodd" clip-rule="evenodd" d="M5.77546 16.4683L9.52547 12.0933C9.63334 11.9674 9.78679 11.8896 9.95206 11.8768C10.1173 11.8641 10.2809 11.9176 10.4067 12.0255C10.431 12.0463 10.4537 12.069 10.4745 12.0933L14.2245 16.4683C14.4492 16.7303 14.4188 17.1249 14.1567 17.3495C14.0435 17.4466 13.8992 17.5 13.75 17.5H6.25C5.90482 17.5 5.625 17.2202 5.625 16.875C5.625 16.7258 5.67837 16.5815 5.77546 16.4683ZM10 13.4604L12.3911 16.25H7.60889L10 13.4604Z" fill="#667185"/>
<path d="M16.6919 14.1919C16.5089 14.375 16.25 14.375 16.25 14.375H15C14.6548 14.375 14.375 14.6548 14.375 15C14.375 15.3452 14.6548 15.625 15 15.625H16.25C17.0267 15.625 17.5758 15.0758 17.5758 15.0758C18.125 14.5267 18.125 13.75 18.125 13.75V5C18.125 4.22335 17.5758 3.67417 17.5758 3.67417C17.0267 3.125 16.25 3.125 16.25 3.125H3.75C2.97335 3.125 2.42417 3.67417 2.42417 3.67417C1.875 4.22335 1.875 5 1.875 5V13.75C1.875 14.5267 2.42417 15.0758 2.42417 15.0758C2.97335 15.625 3.75 15.625 3.75 15.625H5C5.34518 15.625 5.625 15.3452 5.625 15C5.625 14.6548 5.34518 14.375 5 14.375H3.75C3.49112 14.375 3.30806 14.1919 3.30806 14.1919C3.125 14.0089 3.125 13.75 3.125 13.75V5C3.125 4.74112 3.30806 4.55806 3.30806 4.55806C3.49112 4.375 3.75 4.375 3.75 4.375H16.25C16.5089 4.375 16.6919 4.55806 16.6919 4.55806C16.875 4.74112 16.875 5 16.875 5V13.75C16.875 14.0089 16.6919 14.1919 16.6919 14.1919Z" fill="#667185"/>
</svg>
