<svg width="22" height="22" viewBox="0 0 22 22" fill="none" xmlns="http://www.w3.org/2000/svg">
<path fill-rule="evenodd" clip-rule="evenodd" d="M11 6.0501C9.39544 6.0501 7.8566 6.68751 6.722 7.8221C5.58741 8.9567 4.95 10.4955 4.95 12.1001C4.95 13.7047 5.58741 15.2435 6.722 16.3781C7.8566 17.5127 9.39544 18.1501 11 18.1501C12.6046 18.1501 14.1434 17.5127 15.278 16.3781C16.4126 15.2435 17.05 13.7047 17.05 12.1001C17.05 10.4955 16.4126 8.9567 15.278 7.8221C14.1434 6.68751 12.6046 6.0501 11 6.0501ZM2.75 12.1001C2.75 9.91206 3.61919 7.81364 5.16637 6.26647C6.71354 4.71929 8.81196 3.8501 11 3.8501C13.188 3.8501 15.2865 4.71929 16.8336 6.26647C18.3808 7.81364 19.25 9.91206 19.25 12.1001C19.25 14.2881 18.3808 16.3866 16.8336 17.9337C15.2865 19.4809 13.188 20.3501 11 20.3501C8.81196 20.3501 6.71354 19.4809 5.16637 17.9337C3.61919 16.3866 2.75 14.2881 2.75 12.1001Z" fill="#667085" fill-opacity="0.7"/>
<path fill-rule="evenodd" clip-rule="evenodd" d="M3.07231 20.0277C3.27859 20.2339 3.55833 20.3497 3.85001 20.3497C4.14169 20.3497 4.42143 20.2339 4.62771 20.0277L6.27771 18.3777C6.38277 18.2762 6.46657 18.1548 6.52422 18.0206C6.58187 17.8864 6.61222 17.742 6.61348 17.596C6.61475 17.4499 6.58692 17.3051 6.53161 17.1699C6.4763 17.0347 6.39463 16.9119 6.29134 16.8086C6.18806 16.7053 6.06524 16.6237 5.93006 16.5683C5.79487 16.513 5.65002 16.4852 5.50397 16.4865C5.35791 16.4877 5.21357 16.5181 5.07936 16.5757C4.94516 16.6334 4.82378 16.7172 4.72231 16.8223L3.07231 18.4723C2.86609 18.6785 2.75024 18.9583 2.75024 19.25C2.75024 19.5416 2.86609 19.8214 3.07231 20.0277ZM15.7223 16.8223C15.9286 16.616 16.2083 16.5002 16.5 16.5002C16.7917 16.5002 17.0714 16.616 17.2777 16.8223L18.9277 18.4723C19.1281 18.6797 19.239 18.9576 19.2365 19.246C19.2339 19.5344 19.1183 19.8103 18.9143 20.0143C18.7104 20.2182 18.4345 20.3339 18.146 20.3364C17.8576 20.3389 17.5798 20.228 17.3723 20.0277L15.7223 18.3777C15.5161 18.1714 15.4002 17.8916 15.4002 17.6C15.4002 17.3083 15.5161 17.0285 15.7223 16.8223ZM11 7.69995C11.2917 7.69995 11.5715 7.81584 11.7778 8.02213C11.9841 8.22842 12.1 8.50821 12.1 8.79995V12.1C12.1 12.3917 11.9841 12.6715 11.7778 12.8778C11.5715 13.0841 11.2917 13.2 11 13.2C10.7083 13.2 10.4285 13.0841 10.2222 12.8778C10.0159 12.6715 9.90001 12.3917 9.90001 12.1V8.79995C9.90001 8.50821 10.0159 8.22842 10.2222 8.02213C10.4285 7.81584 10.7083 7.69995 11 7.69995Z" fill="#667085" fill-opacity="0.7"/>
<path fill-rule="evenodd" clip-rule="evenodd" d="M15.4 12.1C15.4 12.3917 15.2841 12.6715 15.0778 12.8778C14.8715 13.0841 14.5917 13.2 14.3 13.2H11C10.7083 13.2 10.4285 13.0841 10.2222 12.8778C10.0159 12.6715 9.90001 12.3917 9.90001 12.1C9.90001 11.8082 10.0159 11.5285 10.2222 11.3222C10.4285 11.1159 10.7083 11 11 11H14.3C14.5917 11 14.8715 11.1159 15.0778 11.3222C15.2841 11.5285 15.4 11.8082 15.4 12.1ZM6.96521 3.48918L2.83141 7.43598C2.83141 7.43598 2.74671 7.35898 2.62241 7.21818C2.33971 6.89698 1.85571 6.24908 1.71931 5.45708C1.59501 4.73768 1.75781 3.89838 2.61911 3.07558C3.48041 2.25388 4.32521 2.12958 5.03911 2.28688C5.82341 2.45958 6.44821 2.97328 6.75621 3.27028C6.89151 3.40008 6.96521 3.48918 6.96521 3.48918ZM15.0348 3.48918L19.1686 7.43598C19.1686 7.43598 19.2533 7.35898 19.3776 7.21818C19.6603 6.89698 20.1443 6.24908 20.2807 5.45708C20.405 4.73768 20.2422 3.89838 19.3809 3.07558C18.5196 2.25388 17.6748 2.12958 16.9609 2.28688C16.1766 2.45958 15.5518 2.97328 15.2438 3.27028C15.1085 3.40008 15.0348 3.48918 15.0348 3.48918Z" fill="#667085" fill-opacity="0.7"/>
</svg>
