<svg width="270" height="175" viewBox="0 0 270 175" fill="none" xmlns="http://www.w3.org/2000/svg">
<mask id="mask0_1572_12638" style="mask-type:alpha" maskUnits="userSpaceOnUse" x="0" y="35" width="270" height="140">
<rect y="35.8491" width="270" height="138.213" fill="#D9D9D9"/>
</mask>
<g mask="url(#mask0_1572_12638)">
<mask id="path-2-inside-1_1572_12638" fill="white">
<path d="M-0.000171433 173.985C-0.000169609 153.121 4.88942 132.547 14.2764 113.914C23.6634 95.281 37.2865 79.107 54.053 66.6895L88.4513 113.135C78.9426 120.178 71.2166 129.35 65.893 139.917C60.5694 150.485 57.7964 162.153 57.7964 173.985L-0.000171433 173.985Z"/>
</mask>
<path d="M-0.000171433 173.985C-0.000169609 153.121 4.88942 132.547 14.2764 113.914C23.6634 95.281 37.2865 79.107 54.053 66.6895L88.4513 113.135C78.9426 120.178 71.2166 129.35 65.893 139.917C60.5694 150.485 57.7964 162.153 57.7964 173.985L-0.000171433 173.985Z" stroke="#F0E5FC" stroke-width="75.1123" mask="url(#path-2-inside-1_1572_12638)"/>
<mask id="path-3-inside-2_1572_12638" fill="white">
<path d="M56.4968 64.6354C77.6047 49.437 102.692 40.7347 128.678 39.5976C154.663 38.4605 180.415 44.9381 202.77 58.2347L173.224 107.908C160.546 100.368 145.941 96.694 131.204 97.3389C116.467 97.9838 102.24 102.919 90.2688 111.538L56.4968 64.6354Z"/>
</mask>
<path d="M56.4968 64.6354C77.6047 49.437 102.692 40.7347 128.678 39.5976C154.663 38.4605 180.415 44.9381 202.77 58.2347L173.224 107.908C160.546 100.368 145.941 96.694 131.204 97.3389C116.467 97.9838 102.24 102.919 90.2688 111.538L56.4968 64.6354Z" stroke="#C893FD" stroke-width="75.1123" mask="url(#path-3-inside-2_1572_12638)"/>
<path d="M202.659 90.5497L206.671 83.8594C210.38 86.9017 213.99 90.163 217.357 93.523L200.748 105.262C199.574 104.133 198.374 103.028 197.151 101.953L202.659 90.5497Z" stroke="#C893FD" stroke-width="37.5561"/>
<mask id="path-5-inside-3_1572_12638" fill="white">
<path d="M246.514 99.5485C261.445 121.271 269.612 146.927 269.987 173.284L212.196 174.104C211.984 159.157 207.352 144.607 198.884 132.287L246.514 99.5485Z"/>
</mask>
<path d="M246.514 99.5485C261.445 121.271 269.612 146.927 269.987 173.284L212.196 174.104C211.984 159.157 207.352 144.607 198.884 132.287L246.514 99.5485Z" stroke="#C6D2FD" stroke-width="75.1123" mask="url(#path-5-inside-3_1572_12638)"/>
</g>
<path fill-rule="evenodd" clip-rule="evenodd" d="M104.804 0C99.3889 0 94.9991 4.38971 94.9991 9.8047V32.6445C94.9991 38.0594 99.3889 42.4492 104.804 42.4492H126.411L134.016 48.9788C134.582 49.4641 135.416 49.4641 135.982 48.9788L143.587 42.4492H165.194C170.609 42.4492 174.999 38.0595 174.999 32.6445V9.80471C174.999 4.38972 170.609 0 165.194 0H104.804Z" fill="#1E1B39"/>
<path d="M115.934 27.8308C115.054 27.8308 114.27 27.6795 113.583 27.3771C112.899 27.0707 112.359 26.6503 111.962 26.1161C111.569 25.5779 111.367 24.9573 111.355 24.2542H113.924C113.94 24.5488 114.036 24.808 114.213 25.0319C114.394 25.2519 114.633 25.4228 114.932 25.5446C115.23 25.6663 115.566 25.7272 115.939 25.7272C116.328 25.7272 116.672 25.6585 116.971 25.521C117.269 25.3835 117.503 25.193 117.672 24.9494C117.841 24.7059 117.925 24.425 117.925 24.1068C117.925 23.7847 117.835 23.4999 117.654 23.2525C117.477 23.0011 117.222 22.8047 116.888 22.6632C116.558 22.5218 116.165 22.4511 115.71 22.4511H114.584V20.5774H115.71C116.095 20.5774 116.434 20.5106 116.729 20.3771C117.028 20.2435 117.259 20.0589 117.424 19.8232C117.589 19.5836 117.672 19.3047 117.672 18.9865C117.672 18.684 117.599 18.4189 117.454 18.191C117.312 17.9593 117.112 17.7786 116.853 17.6489C116.597 17.5193 116.299 17.4545 115.957 17.4545C115.611 17.4545 115.295 17.5173 115.009 17.643C114.722 17.7648 114.492 17.9396 114.319 18.1675C114.146 18.3953 114.054 18.6624 114.042 18.9688H111.597C111.609 18.2735 111.807 17.6607 112.192 17.1304C112.577 16.6001 113.095 16.1857 113.748 15.8872C114.404 15.5847 115.144 15.4334 115.969 15.4334C116.802 15.4334 117.53 15.5847 118.155 15.8872C118.78 16.1896 119.265 16.5982 119.61 17.1127C119.96 17.6234 120.133 18.1969 120.129 18.8333C120.133 19.5089 119.923 20.0726 119.498 20.5244C119.078 20.9761 118.53 21.2629 117.854 21.3846V21.4789C118.742 21.5928 119.418 21.9012 119.881 22.404C120.349 22.9029 120.581 23.5274 120.577 24.2777C120.581 24.9652 120.382 25.576 119.982 26.1102C119.585 26.6444 119.037 27.0648 118.338 27.3712C117.638 27.6776 116.837 27.8308 115.934 27.8308ZM124.822 26.0159L124.757 26.6641C124.706 27.1826 124.608 27.6992 124.463 28.2138C124.321 28.7323 124.172 29.2017 124.015 29.622C123.862 30.0423 123.738 30.3723 123.644 30.6119H122.017C122.076 30.3801 122.157 30.0561 122.259 29.6397C122.361 29.2272 122.457 28.7637 122.548 28.2491C122.638 27.7345 122.695 27.2101 122.719 26.6759L122.748 26.0159H124.822ZM126.911 25.5446V23.5353L131.949 15.5984H133.681V18.3796H132.656L129.48 23.4057V23.4999H136.639V25.5446H126.911ZM132.703 27.6658V24.9318L132.75 24.042V15.5984H135.142V27.6658H132.703ZM142.746 27.8308C141.914 27.8308 141.171 27.6776 140.519 27.3712C139.871 27.0648 139.356 26.6425 138.975 26.1043C138.594 25.5662 138.396 24.9494 138.38 24.2542H140.855C140.882 24.7216 141.079 25.1007 141.444 25.3914C141.809 25.682 142.243 25.8274 142.746 25.8274C143.147 25.8274 143.501 25.739 143.807 25.5622C144.117 25.3815 144.359 25.1321 144.532 24.8139C144.708 24.4918 144.797 24.1226 144.797 23.7062C144.797 23.2819 144.706 22.9088 144.526 22.5866C144.349 22.2645 144.103 22.0131 143.789 21.8324C143.475 21.6517 143.116 21.5594 142.711 21.5555C142.357 21.5555 142.014 21.6282 141.68 21.7735C141.35 21.9189 141.093 22.1172 140.908 22.3686L138.639 21.9621L139.211 15.5984H146.588V17.6843H141.314L141.002 20.707H141.073C141.285 20.4085 141.605 20.161 142.033 19.9646C142.462 19.7682 142.941 19.67 143.471 19.67C144.198 19.67 144.846 19.8409 145.415 20.1826C145.985 20.5244 146.435 20.9938 146.765 21.5909C147.095 22.184 147.258 22.8675 147.254 23.6414C147.258 24.4545 147.069 25.1773 146.688 25.8097C146.311 26.4382 145.783 26.9332 145.103 27.2946C144.428 27.652 143.642 27.8308 142.746 27.8308ZM153.765 27.9309C152.751 27.927 151.879 27.6776 151.149 27.1826C150.422 26.6877 149.862 25.9708 149.469 25.0319C149.08 24.0931 148.888 22.9638 148.892 21.6439C148.892 20.3279 149.086 19.2065 149.475 18.2794C149.868 17.3524 150.428 16.6473 151.155 16.1641C151.885 15.677 152.755 15.4334 153.765 15.4334C154.774 15.4334 155.642 15.677 156.369 16.1641C157.1 16.6512 157.662 17.3583 158.054 18.2853C158.447 19.2084 158.642 20.3279 158.638 21.6439C158.638 22.9677 158.441 24.099 158.048 25.0378C157.66 25.9767 157.102 26.6935 156.375 27.1885C155.648 27.6834 154.778 27.9309 153.765 27.9309ZM153.765 25.8156C154.456 25.8156 155.008 25.468 155.421 24.7727C155.833 24.0774 156.037 23.0345 156.033 21.6439C156.033 20.7286 155.939 19.9666 155.751 19.3577C155.566 18.7488 155.303 18.2912 154.961 17.9848C154.623 17.6784 154.224 17.5252 153.765 17.5252C153.077 17.5252 152.527 17.8689 152.115 18.5563C151.703 19.2438 151.494 20.273 151.49 21.6439C151.49 22.5709 151.583 23.3448 151.767 23.9654C151.956 24.5822 152.221 25.0457 152.563 25.356C152.905 25.6624 153.305 25.8156 153.765 25.8156Z" fill="white"/>
</svg>
