<svg width="20" height="20" viewBox="0 0 20 20" fill="none" xmlns="http://www.w3.org/2000/svg">
<path d="M4.55806 5.44194L14.5581 15.4419C14.6753 15.5592 14.8342 15.625 15 15.625C15.1658 15.625 15.3247 15.5592 15.4419 15.4419C15.5592 15.3247 15.625 15.1658 15.625 15C15.625 14.9892 15.6247 14.9784 15.6242 14.9677C15.6162 14.8133 15.5512 14.6674 15.4419 14.5581L5.44218 4.55829C5.32496 4.44108 5.16576 4.375 5 4.375C4.83424 4.375 4.67527 4.44085 4.55806 4.55806C4.44085 4.67527 4.375 4.83424 4.375 5C4.375 5.16576 4.44085 5.32473 4.55806 5.44194Z" fill="#D92D20"/>
<path d="M14.375 14.375L6.875 14.375C6.52982 14.375 6.25 14.6548 6.25 15C6.25 15.3452 6.52982 15.625 6.875 15.625L15 15.625C15.3452 15.625 15.625 15.3452 15.625 15L15.625 6.875C15.625 6.52982 15.3452 6.25 15 6.25C14.6548 6.25 14.375 6.52982 14.375 6.875L14.375 14.375Z" fill="#D92D20"/>
</svg>
