<svg width="18" height="18" viewBox="0 0 18 18" fill="none" xmlns="http://www.w3.org/2000/svg">
<path d="M2.8125 9.5625H15.1875C15.4982 9.5625 15.75 9.31066 15.75 9C15.75 8.68934 15.4982 8.4375 15.1875 8.4375H2.8125C2.50184 8.4375 2.25 8.68934 2.25 9C2.25 9.31066 2.50184 9.5625 2.8125 9.5625Z" fill="#667185"/>
<path d="M14.392 9L9.72725 13.6648C9.62176 13.7702 9.5625 13.9133 9.5625 14.0625C9.5625 14.2117 9.62176 14.3548 9.72725 14.4602C9.83274 14.5657 9.97582 14.625 10.125 14.625C10.2742 14.625 10.4173 14.5657 10.5227 14.4602L15.5852 9.39775C15.8049 9.17808 15.8049 8.82192 15.5852 8.60225L10.5227 3.53975C10.4173 3.43426 10.2742 3.375 10.125 3.375C9.97582 3.375 9.83274 3.43426 9.72725 3.53975C9.62176 3.64524 9.5625 3.78832 9.5625 3.9375C9.5625 4.08668 9.62176 4.22976 9.72725 4.33525L14.392 9Z" fill="#667185"/>
</svg>
