<svg width="18" height="18" viewBox="0 0 18 18" fill="none" xmlns="http://www.w3.org/2000/svg">
<path d="M15.1875 8.4375H2.8125C2.50184 8.4375 2.25 8.68934 2.25 9C2.25 9.31066 2.50184 9.5625 2.8125 9.5625H15.1875C15.4982 9.5625 15.75 9.31066 15.75 9C15.75 8.68934 15.4982 8.4375 15.1875 8.4375Z" fill="#667185"/>
<path d="M8.27254 4.33546C8.37803 4.22997 8.4375 4.08668 8.4375 3.9375C8.4375 3.78832 8.37824 3.64524 8.27275 3.53975L8.26789 3.53496C8.16285 3.4326 8.02166 3.375 7.875 3.375C7.72582 3.375 7.58274 3.43426 7.47725 3.53975L2.41475 8.60225C2.30926 8.70774 2.25 8.85082 2.25 9C2.25 9.14918 2.30926 9.29226 2.41475 9.39775L7.47725 14.4602C7.58274 14.5657 7.72582 14.625 7.875 14.625C8.02418 14.625 8.16726 14.5657 8.27275 14.4602C8.37824 14.3548 8.4375 14.2117 8.4375 14.0625C8.4375 13.9133 8.37824 13.7702 8.27275 13.6648L3.608 9L8.27254 4.33546Z" fill="#667185"/>
</svg>
