<svg width="18" height="16" viewBox="0 0 18 16" fill="none" xmlns="http://www.w3.org/2000/svg">
<path d="M0.26516 8.81908L0.265974 8.82018L4.98965 14.8374C5.34352 15.2881 5.9159 15.2864 6.26815 14.8334C6.62036 14.3805 6.619 13.6478 6.26512 13.197L3.09365 9.15715L17.096 9.15715C17.5953 9.15715 18 8.63909 18 8C18 7.3609 17.5953 6.84285 17.096 6.84285L3.09369 6.84285L6.26508 2.80301C6.61896 2.35219 6.62031 1.61954 6.26811 1.16657C5.91586 0.71349 5.34343 0.711927 4.9896 1.16264L0.265926 7.17981L0.265116 7.18091C-0.0889435 7.63324 -0.0878143 8.36826 0.26516 8.81908Z" fill="#1A1A1A" fill-opacity="0.8"/>
</svg>
