<svg width="12" height="12" viewBox="0 0 12 12" fill="none" xmlns="http://www.w3.org/2000/svg">
<path d="M1.44194 11.4419L11.4419 1.44194C11.5592 1.32473 11.625 1.16576 11.625 1C11.625 0.83424 11.5592 0.675269 11.4419 0.558058C11.3247 0.440848 11.1658 0.375 11 0.375C10.9892 0.375 10.9784 0.375279 10.9677 0.375837C10.8133 0.383835 10.6674 0.448755 10.5581 0.558058L0.558293 10.5578C0.441082 10.675 0.375 10.8342 0.375 11C0.375 11.1658 0.440848 11.3247 0.558058 11.4419C0.675269 11.5592 0.83424 11.625 1 11.625C1.16576 11.625 1.32473 11.5592 1.44194 11.4419Z" fill="#50B848"/>
<path d="M10.375 1.625V9.125C10.375 9.47018 10.6548 9.75 11 9.75C11.3452 9.75 11.625 9.47018 11.625 9.125V1C11.625 0.654822 11.3452 0.375 11 0.375H2.875C2.52982 0.375 2.25 0.654822 2.25 1C2.25 1.34518 2.52982 1.625 2.875 1.625H10.375Z" fill="#50B848"/>
</svg>
