<svg width="14" height="11" viewBox="0 0 14 11" fill="none" xmlns="http://www.w3.org/2000/svg">
<path d="M0.206228 6.1171L0.206861 6.11795L3.88083 10.798C4.15607 11.1486 4.60125 11.1473 4.87523 10.7949C5.14916 10.4426 5.14811 9.87278 4.87287 9.52213L2.40617 6.38003L13.2969 6.38003C13.6852 6.38003 14 5.9771 14 5.48003C14 4.98296 13.6852 4.58002 13.2969 4.58002L2.4062 4.58002L4.87283 1.43793C5.14807 1.08729 5.14913 0.517447 4.87519 0.16514C4.60122 -0.187257 4.156 -0.188471 3.88079 0.162081L0.206825 4.84211L0.206194 4.84296C-0.0691853 5.19477 -0.0683069 5.76646 0.206228 6.1171Z" fill="#667085" fill-opacity="0.6"/>
</svg>
