<svg width="26" height="26" viewBox="0 0 26 26" fill="none" xmlns="http://www.w3.org/2000/svg">
<rect x="0.5" y="0.5" width="25" height="25" rx="2" fill="#36AAD9"/>
<path d="M17.5453 16.5512H8.83317C7.15893 16.5512 5.80287 15.1952 5.80287 13.5209C5.80287 11.8467 7.15893 10.4906 8.83317 10.4906H18.3029C18.8052 10.4906 19.2869 10.6902 19.6421 11.0453C19.9973 11.4005 20.1968 11.8822 20.1968 12.3846C20.1968 12.8869 19.9973 13.3686 19.6421 13.7238C19.2869 14.079 18.8052 14.2785 18.3029 14.2785H10.3483C9.93166 14.2785 9.59075 13.9376 9.59075 13.5209C9.59075 13.1042 9.93166 12.7633 10.3483 12.7633H17.5453V11.627H10.3483C9.84602 11.627 9.36429 11.8265 9.0091 12.1817C8.65392 12.5369 8.45438 13.0186 8.45438 13.5209C8.45438 14.0232 8.65392 14.5049 9.0091 14.8601C9.36429 15.2153 9.84602 15.4149 10.3483 15.4149H18.3029C19.9771 15.4149 21.3332 14.0588 21.3332 12.3846C21.3332 10.7103 19.9771 9.35425 18.3029 9.35425H8.83317C6.53014 9.35425 4.6665 11.2179 4.6665 13.5209C4.6665 15.8239 6.53014 17.6876 8.83317 17.6876H17.5453V16.5512Z" fill="white"/>
</svg>
