<svg width="1302" height="342" viewBox="0 0 1302 342" fill="none" xmlns="http://www.w3.org/2000/svg">
<path d="M17.0601 328.985H18.5076L21.9112 337.298H22.0286L25.4322 328.985H26.8797V339H25.7451V331.391H25.6473L22.5176 339H21.4222L18.2925 331.391H18.1947V339H17.0601V328.985ZM30.5484 339H29.2769L32.9543 328.985H34.2062L37.8837 339H36.6122L33.6194 330.569H33.5412L30.5484 339ZM31.0178 335.088H36.1428V336.164H31.0178V335.088ZM38.3872 328.985H39.776L42.5536 333.66H42.671L45.4486 328.985H46.8374L43.2187 334.873V339H42.0059V334.873L38.3872 328.985ZM57.0808 339.137C56.67 339.13 56.2593 339.052 55.8485 338.902C55.4377 338.752 55.0628 338.5 54.7237 338.144C54.3847 337.786 54.1125 337.301 53.9071 336.692C53.7017 336.079 53.599 335.31 53.599 334.384C53.599 333.497 53.6821 332.711 53.8484 332.027C54.0147 331.339 54.2559 330.76 54.5721 330.291C54.8884 329.818 55.2698 329.459 55.7164 329.215C56.1663 328.97 56.6733 328.848 57.2373 328.848C57.798 328.848 58.2968 328.96 58.7337 329.185C59.1738 329.407 59.5324 329.717 59.8095 330.114C60.0867 330.512 60.266 330.97 60.3475 331.489H59.1543C59.0434 331.039 58.8282 330.665 58.5088 330.369C58.1893 330.072 57.7654 329.924 57.2373 329.924C56.4614 329.924 55.8501 330.261 55.4035 330.936C54.9601 331.611 54.7368 332.558 54.7335 333.777H54.8118C54.9943 333.5 55.2111 333.264 55.4622 333.068C55.7164 332.869 55.9968 332.716 56.3033 332.608C56.6097 332.501 56.9341 332.447 57.2764 332.447C57.8502 332.447 58.3751 332.591 58.8511 332.877C59.327 333.161 59.7085 333.554 59.9954 334.056C60.2823 334.555 60.4257 335.127 60.4257 335.772C60.4257 336.392 60.2872 336.959 60.01 337.474C59.7329 337.986 59.3433 338.394 58.8413 338.697C58.3425 338.997 57.7557 339.143 57.0808 339.137ZM57.0808 338.061C57.4916 338.061 57.86 337.958 58.186 337.753C58.5153 337.548 58.7745 337.272 58.9635 336.927C59.1559 336.581 59.2521 336.196 59.2521 335.772C59.2521 335.358 59.1592 334.982 58.9733 334.643C58.7908 334.301 58.5381 334.028 58.2153 333.826C57.8958 333.624 57.5307 333.523 57.1199 333.523C56.8102 333.523 56.5217 333.585 56.2544 333.709C55.987 333.829 55.7523 333.996 55.5502 334.208C55.3513 334.42 55.1948 334.662 55.0807 334.936C54.9666 335.207 54.9096 335.492 54.9096 335.792C54.9096 336.19 55.0025 336.561 55.1883 336.907C55.3774 337.253 55.6349 337.531 55.961 337.743C56.2902 337.955 56.6635 338.061 57.0808 338.061Z" fill="#615E83"/>
<path d="M97.0089 328.985H98.4564L101.86 337.298H101.977L105.381 328.985H106.828V339H105.694V331.391H105.596L102.466 339H101.371L98.2412 331.391H98.1434V339H97.0089V328.985ZM110.497 339H109.226L112.903 328.985H114.155L117.832 339H116.561L113.568 330.569H113.49L110.497 339ZM110.967 335.088H116.092V336.164H110.967V335.088ZM118.336 328.985H119.725L122.502 333.66H122.62L125.397 328.985H126.786L123.167 334.873V339H121.955V334.873L118.336 328.985ZM134.017 339L138.497 330.139V330.061H133.333V328.985H139.749V330.119L135.289 339H134.017Z" fill="#615E83"/>
<path d="M176.132 328.985H178.743L181.501 335.714H181.619L184.377 328.985H186.988V339H184.934V332.481H184.851L182.259 338.951H180.861L178.269 332.457H178.186V339H176.132V328.985ZM191.285 339H189.016L192.473 328.985H195.202L198.655 339H196.386L193.877 331.273H193.799L191.285 339ZM191.143 335.063H196.503V336.716H191.143V335.063ZM199.078 328.985H201.449L203.733 333.298H203.831L206.115 328.985H208.486L204.833 335.459V339H202.73V335.459L199.078 328.985ZM218.16 339.137C217.407 339.137 216.737 339.015 216.15 338.77C215.566 338.522 215.108 338.185 214.776 337.758C214.443 337.331 214.277 336.847 214.277 336.305C214.277 335.888 214.372 335.505 214.561 335.156C214.753 334.804 215.014 334.512 215.343 334.281C215.672 334.046 216.041 333.896 216.448 333.831V333.763C215.914 333.655 215.48 333.396 215.148 332.985C214.815 332.571 214.649 332.09 214.649 331.542C214.649 331.024 214.8 330.563 215.104 330.159C215.407 329.751 215.822 329.431 216.351 329.2C216.882 328.965 217.485 328.848 218.16 328.848C218.835 328.848 219.436 328.965 219.964 329.2C220.496 329.435 220.913 329.756 221.216 330.163C221.52 330.568 221.673 331.027 221.676 331.542C221.673 332.093 221.503 332.574 221.167 332.985C220.832 333.396 220.401 333.655 219.876 333.763V333.831C220.277 333.896 220.641 334.046 220.967 334.281C221.296 334.512 221.557 334.804 221.749 335.156C221.945 335.505 222.044 335.888 222.048 336.305C222.044 336.847 221.876 337.331 221.544 337.758C221.211 338.185 220.752 338.522 220.165 338.77C219.581 339.015 218.913 339.137 218.16 339.137ZM218.16 337.582C218.496 337.582 218.789 337.522 219.04 337.401C219.291 337.277 219.487 337.107 219.627 336.892C219.77 336.674 219.842 336.423 219.842 336.139C219.842 335.849 219.769 335.593 219.622 335.371C219.475 335.147 219.277 334.97 219.026 334.843C218.774 334.713 218.486 334.648 218.16 334.648C217.837 334.648 217.549 334.713 217.294 334.843C217.04 334.97 216.84 335.147 216.693 335.371C216.549 335.593 216.478 335.849 216.478 336.139C216.478 336.423 216.548 336.674 216.688 336.892C216.828 337.107 217.025 337.277 217.28 337.401C217.534 337.522 217.827 337.582 218.16 337.582ZM218.16 333.107C218.44 333.107 218.69 333.05 218.908 332.936C219.127 332.822 219.298 332.664 219.422 332.462C219.545 332.26 219.607 332.027 219.607 331.762C219.607 331.502 219.545 331.273 219.422 331.078C219.298 330.879 219.128 330.724 218.913 330.613C218.698 330.499 218.447 330.442 218.16 330.442C217.876 330.442 217.625 330.499 217.407 330.613C217.188 330.724 217.017 330.879 216.893 331.078C216.773 331.273 216.712 331.502 216.712 331.762C216.712 332.027 216.774 332.26 216.898 332.462C217.022 332.664 217.193 332.822 217.412 332.936C217.63 333.05 217.88 333.107 218.16 333.107Z" fill="#615E83"/>
<path d="M258.219 328.985H259.667L263.07 337.298H263.188L266.591 328.985H268.039V339H266.904V331.391H266.806L263.677 339H262.581L259.451 331.391H259.354V339H258.219V328.985ZM271.707 339H270.436L274.113 328.985H275.365L279.043 339H277.771L274.778 330.569H274.7L271.707 339ZM272.177 335.088H277.302V336.164H272.177V335.088ZM279.546 328.985H280.935L283.713 333.66H283.83L286.608 328.985H287.996L284.378 334.873V339H283.165V334.873L279.546 328.985ZM298.103 328.848C298.514 328.851 298.924 328.929 299.335 329.083C299.746 329.236 300.121 329.49 300.46 329.846C300.799 330.198 301.071 330.678 301.277 331.288C301.482 331.898 301.585 332.662 301.585 333.582C301.585 334.472 301.5 335.262 301.33 335.953C301.164 336.641 300.923 337.222 300.607 337.694C300.294 338.167 299.912 338.526 299.462 338.77C299.016 339.015 298.51 339.137 297.946 339.137C297.386 339.137 296.885 339.026 296.445 338.804C296.008 338.579 295.65 338.268 295.369 337.87C295.092 337.469 294.914 337.005 294.836 336.477H296.029C296.137 336.936 296.351 337.316 296.67 337.616C296.993 337.913 297.418 338.061 297.946 338.061C298.719 338.061 299.329 337.724 299.775 337.049C300.225 336.374 300.45 335.42 300.45 334.188H300.372C300.189 334.462 299.973 334.698 299.722 334.897C299.471 335.096 299.192 335.249 298.885 335.357C298.579 335.464 298.253 335.518 297.907 335.518C297.333 335.518 296.807 335.376 296.328 335.093C295.852 334.806 295.47 334.413 295.183 333.914C294.9 333.412 294.758 332.838 294.758 332.193C294.758 331.58 294.895 331.019 295.169 330.511C295.446 329.999 295.834 329.591 296.333 329.288C296.835 328.985 297.425 328.838 298.103 328.848ZM298.103 329.924C297.692 329.924 297.322 330.026 296.993 330.232C296.667 330.434 296.408 330.708 296.215 331.053C296.026 331.396 295.932 331.776 295.932 332.193C295.932 332.61 296.023 332.99 296.205 333.332C296.391 333.671 296.644 333.942 296.963 334.144C297.286 334.343 297.653 334.442 298.064 334.442C298.373 334.442 298.662 334.382 298.929 334.261C299.197 334.138 299.43 333.97 299.629 333.758C299.831 333.543 299.989 333.3 300.103 333.029C300.217 332.755 300.274 332.47 300.274 332.173C300.274 331.782 300.18 331.415 299.991 331.073C299.805 330.731 299.547 330.454 299.218 330.242C298.892 330.03 298.52 329.924 298.103 329.924Z" fill="#615E83"/>
<path d="M336.406 328.985H337.853L341.257 337.298H341.374L344.778 328.985H346.225V339H345.091V331.391H344.993L341.863 339H340.768L337.638 331.391H337.54V339H336.406V328.985ZM349.894 339H348.623L352.3 328.985H353.552L357.229 339H355.958L352.965 330.569H352.887L349.894 339ZM350.363 335.088H355.488V336.164H350.363V335.088ZM357.733 328.985H359.122L361.899 333.66H362.017L364.794 328.985H366.183L362.564 334.873V339H361.352V334.873L357.733 328.985ZM376.622 328.985V339H375.409V330.256H375.351L372.905 331.88V330.648L375.409 328.985H376.622ZM383.595 339.137C382.859 339.137 382.231 338.936 381.713 338.535C381.194 338.131 380.798 337.546 380.524 336.78C380.25 336.01 380.113 335.081 380.113 333.992C380.113 332.91 380.25 331.986 380.524 331.22C380.801 330.45 381.199 329.863 381.717 329.459C382.239 329.052 382.865 328.848 383.595 328.848C384.326 328.848 384.95 329.052 385.468 329.459C385.99 329.863 386.388 330.45 386.661 331.22C386.939 331.986 387.077 332.91 387.077 333.992C387.077 335.081 386.94 336.01 386.666 336.78C386.392 337.546 385.996 338.131 385.478 338.535C384.96 338.936 384.332 339.137 383.595 339.137ZM383.595 338.061C384.326 338.061 384.893 337.709 385.297 337.005C385.701 336.301 385.903 335.296 385.903 333.992C385.903 333.125 385.811 332.387 385.625 331.777C385.442 331.168 385.178 330.703 384.833 330.383C384.49 330.064 384.078 329.904 383.595 329.904C382.872 329.904 382.306 330.261 381.898 330.975C381.491 331.686 381.287 332.692 381.287 333.992C381.287 334.86 381.378 335.596 381.561 336.203C381.744 336.809 382.006 337.27 382.348 337.587C382.694 337.903 383.11 338.061 383.595 338.061Z" fill="#615E83"/>
<path d="M417.783 328.985H419.23L422.634 337.298H422.751L426.155 328.985H427.602V339H426.468V331.391H426.37L423.24 339H422.145L419.015 331.391H418.917V339H417.783V328.985ZM431.271 339H430L433.677 328.985H434.929L438.606 339H437.335L434.342 330.569H434.264L431.271 339ZM431.741 335.088H436.866V336.164H431.741V335.088ZM439.11 328.985H440.499L443.276 333.66H443.394L446.171 328.985H447.56L443.941 334.873V339H442.729V334.873L439.11 328.985ZM457.999 328.985V339H456.786V330.256H456.728L454.283 331.88V330.648L456.786 328.985H457.999ZM465.227 328.985V339H464.014V330.256H463.955L461.51 331.88V330.648L464.014 328.985H465.227Z" fill="#615E83"/>
<path d="M498.073 328.985H499.52L502.924 337.298H503.041L506.445 328.985H507.892V339H506.758V331.391H506.66L503.53 339H502.435L499.305 331.391H499.207V339H498.073V328.985ZM511.561 339H510.289L513.967 328.985H515.219L518.896 339H517.625L514.632 330.569H514.554L511.561 339ZM512.03 335.088H517.155V336.164H512.03V335.088ZM519.4 328.985H520.789L523.566 333.66H523.684L526.461 328.985H527.85L524.231 334.873V339H523.018V334.873L519.4 328.985ZM538.289 328.985V339H537.076V330.256H537.017L534.572 331.88V330.648L537.076 328.985H538.289ZM541.996 339V338.12L545.301 334.501C545.689 334.077 546.009 333.709 546.26 333.396C546.511 333.08 546.697 332.783 546.817 332.506C546.941 332.225 547.003 331.932 547.003 331.626C547.003 331.273 546.918 330.969 546.749 330.711C546.583 330.454 546.354 330.255 546.064 330.114C545.774 329.974 545.448 329.904 545.086 329.904C544.701 329.904 544.366 329.984 544.079 330.144C543.795 330.3 543.575 330.52 543.419 330.804C543.265 331.088 543.189 331.42 543.189 331.802H542.035C542.035 331.215 542.17 330.7 542.441 330.256C542.711 329.813 543.08 329.467 543.546 329.22C544.015 328.972 544.542 328.848 545.125 328.848C545.712 328.848 546.232 328.972 546.685 329.22C547.138 329.467 547.494 329.802 547.751 330.222C548.009 330.643 548.138 331.11 548.138 331.626C548.138 331.994 548.071 332.354 547.937 332.706C547.807 333.055 547.579 333.445 547.252 333.875C546.93 334.302 546.481 334.824 545.908 335.44L543.658 337.846V337.924H548.314V339H541.996Z" fill="#615E83"/>
<path d="M578.674 328.985H580.121L583.525 337.298H583.642L587.046 328.985H588.493V339H587.359V331.391H587.261L584.131 339H583.036L579.906 331.391H579.808V339H578.674V328.985ZM592.162 339H590.891L594.568 328.985H595.82L599.497 339H598.226L595.233 330.569H595.155L592.162 339ZM592.631 335.088H597.756V336.164H592.631V335.088ZM600.001 328.985H601.39L604.167 333.66H604.285L607.062 328.985H608.451L604.832 334.873V339H603.62V334.873L600.001 328.985ZM618.89 328.985V339H617.677V330.256H617.619L615.174 331.88V330.648L617.677 328.985H618.89ZM625.981 339.137C625.335 339.137 624.76 339.026 624.254 338.804C623.752 338.583 623.353 338.275 623.056 337.88C622.763 337.482 622.603 337.021 622.577 336.496H623.809C623.835 336.819 623.946 337.098 624.142 337.332C624.338 337.564 624.593 337.743 624.91 337.87C625.226 337.998 625.576 338.061 625.961 338.061C626.391 338.061 626.773 337.986 627.105 337.836C627.438 337.686 627.699 337.478 627.888 337.21C628.077 336.943 628.171 336.633 628.171 336.281C628.171 335.913 628.08 335.588 627.898 335.308C627.715 335.024 627.448 334.803 627.096 334.643C626.744 334.483 626.313 334.403 625.805 334.403H625.003V333.327H625.805C626.202 333.327 626.551 333.256 626.851 333.112C627.154 332.969 627.391 332.767 627.56 332.506C627.733 332.245 627.819 331.939 627.819 331.586C627.819 331.247 627.744 330.952 627.594 330.701C627.444 330.45 627.233 330.255 626.959 330.114C626.688 329.974 626.369 329.904 626 329.904C625.655 329.904 625.329 329.968 625.022 330.095C624.719 330.219 624.471 330.4 624.279 330.638C624.087 330.872 623.982 331.156 623.966 331.489H622.792C622.812 330.964 622.97 330.504 623.267 330.11C623.563 329.712 623.951 329.402 624.43 329.18C624.913 328.959 625.443 328.848 626.02 328.848C626.639 328.848 627.171 328.973 627.614 329.224C628.057 329.472 628.398 329.8 628.636 330.207C628.874 330.615 628.993 331.055 628.993 331.528C628.993 332.092 628.845 332.573 628.548 332.97C628.255 333.368 627.855 333.644 627.35 333.797V333.875C627.982 333.979 628.476 334.248 628.832 334.682C629.187 335.112 629.365 335.645 629.365 336.281C629.365 336.825 629.216 337.315 628.92 337.748C628.626 338.178 628.225 338.517 627.717 338.765C627.208 339.013 626.629 339.137 625.981 339.137Z" fill="#615E83"/>
<path d="M659.39 328.985H660.837L664.241 337.298H664.358L667.762 328.985H669.21V339H668.075V331.391H667.977L664.847 339H663.752L660.622 331.391H660.524V339H659.39V328.985ZM672.878 339H671.607L675.284 328.985H676.536L680.214 339H678.942L675.949 330.569H675.871L672.878 339ZM673.348 335.088H678.473V336.164H673.348V335.088ZM680.717 328.985H682.106L684.883 333.66H685.001L687.778 328.985H689.167L685.549 334.873V339H684.336V334.873L680.717 328.985ZM699.606 328.985V339H698.393V330.256H698.335L695.89 331.88V330.648L698.393 328.985H699.606ZM703.078 336.946V335.949L707.479 328.985H708.203V330.53H707.714L704.389 335.792V335.87H710.316V336.946H703.078ZM707.792 339V336.643V336.178V328.985H708.946V339H707.792Z" fill="#615E83"/>
<path d="M739.434 328.985H740.881L744.285 337.298H744.402L747.806 328.985H749.253V339H748.119V331.391H748.021L744.891 339H743.796L740.666 331.391H740.568V339H739.434V328.985ZM752.922 339H751.651L755.328 328.985H756.58L760.257 339H758.986L755.993 330.569H755.915L752.922 339ZM753.392 335.088H758.517V336.164H753.392V335.088ZM760.761 328.985H762.15L764.927 333.66H765.045L767.822 328.985H769.211L765.592 334.873V339H764.38V334.873L760.761 328.985ZM779.65 328.985V339H778.437V330.256H778.379L775.934 331.88V330.648L778.437 328.985H779.65ZM786.486 339.137C785.913 339.137 785.396 339.023 784.936 338.795C784.477 338.566 784.108 338.253 783.831 337.856C783.554 337.458 783.402 337.005 783.376 336.496H784.55C784.596 336.949 784.801 337.324 785.166 337.621C785.535 337.914 785.975 338.061 786.486 338.061C786.897 338.061 787.262 337.965 787.582 337.773C787.905 337.58 788.157 337.316 788.34 336.98C788.526 336.641 788.619 336.258 788.619 335.831C788.619 335.394 788.522 335.005 788.33 334.662C788.141 334.317 787.88 334.045 787.548 333.846C787.215 333.647 786.835 333.546 786.408 333.543C786.102 333.539 785.787 333.587 785.464 333.684C785.142 333.779 784.876 333.901 784.667 334.051L783.533 333.914L784.139 328.985H789.342V330.061H785.156L784.804 333.014H784.863C785.068 332.851 785.326 332.716 785.636 332.608C785.945 332.501 786.268 332.447 786.604 332.447C787.217 332.447 787.763 332.594 788.242 332.887C788.725 333.177 789.103 333.575 789.377 334.08C789.654 334.586 789.792 335.163 789.792 335.812C789.792 336.451 789.649 337.021 789.362 337.523C789.078 338.022 788.687 338.416 788.188 338.707C787.689 338.993 787.122 339.137 786.486 339.137Z" fill="#615E83"/>
<path d="M821.109 328.985H822.556L825.96 337.298H826.077L829.481 328.985H830.928V339H829.794V331.391H829.696L826.566 339H825.471L822.341 331.391H822.243V339H821.109V328.985ZM834.597 339H833.326L837.003 328.985H838.255L841.932 339H840.661L837.668 330.569H837.59L834.597 339ZM835.067 335.088H840.191V336.164H835.067V335.088ZM842.436 328.985H843.825L846.602 333.66H846.72L849.497 328.985H850.886L847.267 334.873V339H846.055V334.873L842.436 328.985ZM861.325 328.985V339H860.112V330.256H860.054L857.609 331.88V330.648L860.112 328.985H861.325ZM868.357 339.137C867.946 339.13 867.535 339.052 867.125 338.902C866.714 338.752 866.339 338.5 866 338.144C865.661 337.786 865.389 337.301 865.183 336.692C864.978 336.079 864.875 335.31 864.875 334.384C864.875 333.497 864.958 332.711 865.125 332.027C865.291 331.339 865.532 330.76 865.848 330.291C866.165 329.818 866.546 329.459 866.993 329.215C867.443 328.97 867.95 328.848 868.514 328.848C869.074 328.848 869.573 328.96 870.01 329.185C870.45 329.407 870.809 329.717 871.086 330.114C871.363 330.512 871.542 330.97 871.624 331.489H870.431C870.32 331.039 870.104 330.665 869.785 330.369C869.466 330.072 869.042 329.924 868.514 329.924C867.738 329.924 867.126 330.261 866.68 330.936C866.236 331.611 866.013 332.558 866.01 333.777H866.088C866.271 333.5 866.487 333.264 866.738 333.068C866.993 332.869 867.273 332.716 867.58 332.608C867.886 332.501 868.21 332.447 868.553 332.447C869.126 332.447 869.651 332.591 870.127 332.877C870.603 333.161 870.985 333.554 871.272 334.056C871.559 334.555 871.702 335.127 871.702 335.772C871.702 336.392 871.563 336.959 871.286 337.474C871.009 337.986 870.62 338.394 870.118 338.697C869.619 338.997 869.032 339.143 868.357 339.137ZM868.357 338.061C868.768 338.061 869.136 337.958 869.462 337.753C869.792 337.548 870.051 337.272 870.24 336.927C870.432 336.581 870.528 336.196 870.528 335.772C870.528 335.358 870.435 334.982 870.25 334.643C870.067 334.301 869.814 334.028 869.492 333.826C869.172 333.624 868.807 333.523 868.396 333.523C868.086 333.523 867.798 333.585 867.531 333.709C867.263 333.829 867.029 333.996 866.826 334.208C866.628 334.42 866.471 334.662 866.357 334.936C866.243 335.207 866.186 335.492 866.186 335.792C866.186 336.19 866.279 336.561 866.465 336.907C866.654 337.253 866.911 337.531 867.237 337.743C867.566 337.955 867.94 338.061 868.357 338.061Z" fill="#615E83"/>
<path d="M901.237 328.985H902.684L906.088 337.298H906.205L909.609 328.985H911.056V339H909.922V331.391H909.824L906.694 339H905.599L902.469 331.391H902.371V339H901.237V328.985ZM914.725 339H913.454L917.131 328.985H918.383L922.06 339H920.789L917.796 330.569H917.718L914.725 339ZM915.195 335.088H920.32V336.164H915.195V335.088ZM922.564 328.985H923.953L926.73 333.66H926.848L929.625 328.985H931.014L927.395 334.873V339H926.183V334.873L922.564 328.985ZM941.453 328.985V339H940.24V330.256H940.182L937.737 331.88V330.648L940.24 328.985H941.453ZM945.473 339L949.952 330.139V330.061H944.788V328.985H951.204V330.119L946.744 339H945.473Z" fill="#615E83"/>
<path d="M16.9345 301.861C16.0925 301.861 15.3752 301.631 14.7828 301.173C14.1904 300.711 13.7377 300.042 13.4247 299.167C13.1118 298.287 12.9553 297.226 12.9553 295.981C12.9553 294.744 13.1118 293.688 13.4247 292.812C13.7414 291.933 14.196 291.262 14.7884 290.8C15.3845 290.335 16.0999 290.102 16.9345 290.102C17.7691 290.102 18.4826 290.335 19.075 290.8C19.6712 291.262 20.1257 291.933 20.4387 292.812C20.7554 293.688 20.9137 294.744 20.9137 295.981C20.9137 297.226 20.7573 298.287 20.4443 299.167C20.1313 300.042 19.6786 300.711 19.0862 301.173C18.4938 301.631 17.7766 301.861 16.9345 301.861ZM16.9345 300.631C17.7691 300.631 18.4174 300.229 18.8794 299.424C19.3414 298.619 19.5724 297.472 19.5724 295.981C19.5724 294.99 19.4662 294.146 19.2539 293.449C19.0452 292.753 18.7434 292.222 18.3485 291.857C17.9573 291.491 17.4859 291.309 16.9345 291.309C16.1074 291.309 15.4609 291.717 14.9952 292.533C14.5295 293.345 14.2966 294.495 14.2966 295.981C14.2966 296.972 14.4009 297.814 14.6096 298.507C14.8182 299.2 15.1181 299.728 15.5094 300.089C15.9043 300.45 16.3794 300.631 16.9345 300.631Z" fill="#615E83"/>
<path d="M7.2104 243.997V255.443H5.82438V245.451H5.75731L2.96291 247.306V245.898L5.82438 243.997H7.2104ZM10.7034 255.443V243.997H12.0894V249.094H18.1924V243.997H19.5784V255.443H18.1924V250.324H12.0894V255.443H10.7034Z" fill="#615E83"/>
<path d="M2.00604 205.248V204.242L5.78407 200.106C6.22745 199.622 6.59259 199.201 6.87948 198.843C7.16637 198.482 7.37875 198.143 7.5166 197.826C7.65819 197.506 7.72898 197.17 7.72898 196.82C7.72898 196.418 7.6321 196.069 7.43836 195.775C7.24834 195.481 6.98753 195.253 6.65593 195.093C6.32432 194.933 5.95174 194.853 5.53816 194.853C5.09851 194.853 4.71475 194.944 4.38687 195.127C4.06272 195.306 3.81122 195.557 3.63238 195.881C3.45726 196.205 3.36971 196.585 3.36971 197.021H2.05075C2.05075 196.351 2.20537 195.762 2.51462 195.255C2.82387 194.749 3.24489 194.354 3.77769 194.07C4.31421 193.787 4.91594 193.646 5.58287 193.646C6.25353 193.646 6.84781 193.787 7.3657 194.07C7.8836 194.354 8.28972 194.735 8.58406 195.216C8.87841 195.697 9.02558 196.231 9.02558 196.82C9.02558 197.241 8.9492 197.653 8.79644 198.055C8.64741 198.454 8.38659 198.899 8.01401 199.391C7.64514 199.879 7.13284 200.475 6.47708 201.179L3.90623 203.929V204.019H9.22678V205.248H2.00604ZM11.7362 205.248V193.802H13.1222V198.899H19.2252V193.802H20.6112V205.248H19.2252V200.129H13.1222V205.248H11.7362Z" fill="#615E83"/>
<path d="M5.38168 156.543C4.64395 156.543 3.98634 156.417 3.40883 156.163C2.83504 155.91 2.37862 155.558 2.03957 155.107C1.70424 154.652 1.52167 154.125 1.49186 153.525H2.90024C2.93005 153.894 3.05673 154.213 3.28028 154.481C3.50384 154.745 3.79632 154.95 4.15773 155.096C4.51914 155.241 4.91967 155.314 5.35932 155.314C5.85114 155.314 6.28706 155.228 6.6671 155.057C7.04714 154.885 7.34521 154.647 7.56131 154.341C7.77741 154.036 7.88546 153.682 7.88546 153.279C7.88546 152.858 7.78114 152.488 7.57249 152.167C7.36384 151.843 7.05832 151.59 6.65592 151.407C6.25353 151.225 5.76171 151.133 5.18048 151.133H4.26391V149.904H5.18048C5.63503 149.904 6.0337 149.822 6.37648 149.658C6.72299 149.494 6.99312 149.263 7.18686 148.965C7.38433 148.667 7.48307 148.316 7.48307 147.914C7.48307 147.527 7.39737 147.189 7.22598 146.903C7.05459 146.616 6.81241 146.392 6.49944 146.232C6.19019 146.072 5.82505 145.992 5.40403 145.992C5.00909 145.992 4.6365 146.064 4.28627 146.209C3.93976 146.351 3.6566 146.558 3.43677 146.83C3.21694 147.098 3.09772 147.422 3.07909 147.802H1.73777C1.76013 147.202 1.94083 146.677 2.27989 146.226C2.61894 145.772 3.06232 145.418 3.61002 145.164C4.16145 144.911 4.76691 144.784 5.42639 144.784C6.1343 144.784 6.74162 144.928 7.24834 145.215C7.75506 145.498 8.14441 145.872 8.4164 146.338C8.68839 146.804 8.82438 147.307 8.82438 147.847C8.82438 148.492 8.65485 149.041 8.3158 149.496C7.98047 149.95 7.52405 150.265 6.94654 150.44V150.53C7.66936 150.649 8.23383 150.956 8.63995 151.452C9.04607 151.944 9.24913 152.553 9.24913 153.279C9.24913 153.902 9.0796 154.46 8.74055 154.956C8.40522 155.448 7.94694 155.835 7.3657 156.118C6.78447 156.402 6.12312 156.543 5.38168 156.543ZM11.7362 156.387V144.941H13.1222V150.038H19.2252V144.941H20.6112V156.387H19.2252V151.267H13.1222V156.387H11.7362Z" fill="#615E83"/>
<path d="M5.53677 106.348C4.88101 106.348 4.29046 106.217 3.76511 105.957C3.23977 105.696 2.81874 105.338 2.50204 104.884C2.18534 104.429 2.01209 103.911 1.98228 103.33H3.3236C3.37576 103.848 3.61049 104.276 4.02779 104.615C4.44881 104.951 4.9518 105.118 5.53677 105.118C6.00623 105.118 6.42352 105.008 6.78866 104.789C7.15752 104.569 7.44628 104.267 7.65493 103.883C7.8673 103.496 7.97349 103.058 7.97349 102.57C7.97349 102.071 7.86357 101.625 7.64375 101.234C7.42765 100.839 7.12958 100.528 6.74954 100.301C6.3695 100.074 5.93543 99.958 5.44735 99.9543C5.09711 99.9506 4.73757 100.005 4.36871 100.116C3.99984 100.224 3.69619 100.364 3.45773 100.536L2.16113 100.379L2.85414 94.7455H8.80063V95.9751H4.01661L3.61422 99.3507H3.68128C3.91601 99.1644 4.21036 99.0098 4.56431 98.8868C4.91827 98.7639 5.28713 98.7024 5.6709 98.7024C6.37136 98.7024 6.99545 98.8701 7.54315 99.2054C8.09458 99.537 8.52678 99.9916 8.83975 100.569C9.15645 101.147 9.3148 101.806 9.3148 102.548C9.3148 103.278 9.15086 103.93 8.82299 104.504C8.49883 105.074 8.05173 105.524 7.48167 105.856C6.91161 106.184 6.26331 106.348 5.53677 106.348ZM11.7362 106.191V94.7455H13.1222V99.8425H19.2252V94.7455H20.6112V106.191H19.2252V101.072H13.1222V106.191H11.7362Z" fill="#615E83"/>
<path d="M9.62638 49.1498V60.5957H8.24035V50.6029H8.17329L5.37888 52.4584V51.05L8.24035 49.1498H9.62638ZM13.1194 60.5957V49.1498H14.5054V54.8281H14.6395L19.7812 49.1498H21.592L16.7856 54.3139L21.592 60.5957H19.9154L15.9361 55.2752L14.5054 56.8847V60.5957H13.1194Z" fill="#615E83"/>
<path d="M3.38926 15V13.994L7.1673 9.8583C7.61068 9.37393 7.97581 8.95291 8.26271 8.59522C8.5496 8.23381 8.76197 7.89476 8.89983 7.57806C9.04141 7.25764 9.11221 6.92231 9.11221 6.57208C9.11221 6.16968 9.01533 5.82131 8.82159 5.52697C8.63157 5.23262 8.37076 5.00535 8.03915 4.84513C7.70755 4.68492 7.33496 4.60481 6.92139 4.60481C6.48174 4.60481 6.09797 4.6961 5.7701 4.87867C5.44595 5.05751 5.19445 5.309 5.01561 5.63316C4.84049 5.95731 4.75293 6.33735 4.75293 6.77327H3.43398C3.43398 6.10262 3.5886 5.51393 3.89785 5.00721C4.20709 4.50049 4.62812 4.10555 5.16092 3.82238C5.69744 3.53921 6.29917 3.39763 6.9661 3.39763C7.63676 3.39763 8.23104 3.53921 8.74893 3.82238C9.26683 4.10555 9.67295 4.48745 9.96729 4.96809C10.2616 5.44873 10.4088 5.98339 10.4088 6.57208C10.4088 6.9931 10.3324 7.40481 10.1797 7.8072C10.0306 8.20587 9.76982 8.65111 9.39723 9.14293C9.02837 9.63102 8.51607 10.2272 7.86031 10.9313L5.28946 13.681V13.7705H10.61V15H3.38926ZM13.1194 15V3.55412H14.5054V9.23235H14.6395L19.7812 3.55412H21.592L16.7856 8.71818L21.592 15H19.9154L15.9361 9.67945L14.5054 11.289V15H13.1194Z" fill="#615E83"/>
<line x1="35.3915" y1="301.705" x2="1301.26" y2="301.705" stroke="#E5E5EF" stroke-width="1.47545" stroke-linecap="round"/>
<line x1="35.3915" y1="255.235" x2="1301.26" y2="255.235" stroke="#E5E5EF" stroke-width="1.47545" stroke-linecap="round" stroke-dasharray="3.93 6.89"/>
<line x1="35.3912" y1="208.762" x2="1301.26" y2="208.762" stroke="#E5E5EF" stroke-width="1.47545" stroke-linecap="round" stroke-dasharray="3.93 6.89"/>
<line x1="35.3915" y1="162.289" x2="1301.26" y2="162.289" stroke="#E5E5EF" stroke-width="1.47545" stroke-linecap="round" stroke-dasharray="3.93 6.89"/>
<line x1="35.3915" y1="116.7" x2="1301.26" y2="116.7" stroke="#E5E5EF" stroke-width="1.47545" stroke-linecap="round" stroke-dasharray="3.93 6.89"/>
<line x1="35.3915" y1="69.3424" x2="1301.26" y2="69.3424" stroke="#E5E5EF" stroke-width="1.47545" stroke-linecap="round" stroke-dasharray="3.93 6.89"/>
<rect x="921.582" width="9.81391" height="163.039" rx="2.95089" fill="#E5E5EF"/>
<rect x="921.582" y="168.77" width="9.81391" height="132.204" rx="2.95089" fill="#36AAD9"/>
<rect x="840.8" width="9.81391" height="202.561" rx="2.95089" fill="#E5E5EF"/>
<rect x="840.8" y="208.291" width="9.81391" height="92.6823" rx="2.95089" fill="#36AAD9"/>
<rect x="760.017" width="9.81391" height="265.286" rx="2.95089" fill="#E5E5EF"/>
<rect x="760.017" y="271.016" width="9.81391" height="29.9573" rx="2.95089" fill="#36AAD9"/>
<rect x="679.235" width="9.81391" height="202.561" rx="2.95089" fill="#E5E5EF"/>
<rect x="679.235" y="208.291" width="9.81391" height="92.6823" rx="2.95089" fill="#36AAD9"/>
<rect x="598.452" width="9.81391" height="257.881" rx="2.95089" fill="#E5E5EF"/>
<rect x="598.452" y="263.611" width="9.81391" height="37.3619" rx="2.95089" fill="#36AAD9"/>
<rect x="517.669" width="9.81391" height="228.242" rx="2.95089" fill="#E5E5EF"/>
<rect x="517.669" y="233.973" width="9.81391" height="67.001" rx="2.95089" fill="#36AAD9"/>
<rect x="436.887" width="9.81391" height="163.039" rx="2.95089" fill="#E5E5EF"/>
<rect x="436.887" y="168.77" width="9.81391" height="132.204" rx="2.95089" fill="#36AAD9"/>
<rect x="356.104" width="9.81391" height="207.848" rx="2.95089" fill="#E5E5EF"/>
<rect x="356.104" y="213.578" width="9.81391" height="87.3949" rx="2.95089" fill="#36AAD9"/>
<rect x="275.321" width="9.81391" height="265.286" rx="2.95089" fill="#E5E5EF"/>
<rect x="275.321" y="271.016" width="9.81391" height="29.9573" rx="2.95089" fill="#36AAD9"/>
<rect x="194.538" width="9.81391" height="163.039" rx="2.95089" fill="#E5E5EF"/>
<rect x="194.538" y="168.77" width="9.81391" height="132.204" rx="2.95089" fill="#36AAD9"/>
<rect x="113.756" width="9.81391" height="202.561" rx="2.95089" fill="#E5E5EF"/>
<rect x="113.756" y="208.291" width="9.81391" height="92.6823" rx="2.95089" fill="#36AAD9"/>
<rect x="34.6537" width="9.81391" height="265.286" rx="2.95089" fill="#E5E5EF"/>
<rect x="34.6537" y="271.016" width="9.81391" height="29.9573" rx="2.95089" fill="#36AAD9"/>
<rect x="1244.74" width="9.81391" height="207.848" rx="2.95089" fill="#E5E5EF"/>
<rect x="1244.74" y="213.578" width="9.81391" height="87.3949" rx="2.95089" fill="#36AAD9"/>
<rect x="1163.96" width="9.81391" height="265.286" rx="2.95089" fill="#E5E5EF"/>
<rect x="1163.96" y="271.016" width="9.81391" height="29.9573" rx="2.95089" fill="#36AAD9"/>
<rect x="1083.18" width="9.81391" height="163.039" rx="2.95089" fill="#E5E5EF"/>
<rect x="1083.18" y="168.77" width="9.81391" height="132.204" rx="2.95089" fill="#36AAD9"/>
<rect x="1002.4" width="9.81391" height="202.561" rx="2.95089" fill="#E5E5EF"/>
<rect x="1002.4" y="208.291" width="9.81391" height="92.6823" rx="2.95089" fill="#36AAD9"/>
<path d="M983.428 328.985H984.875L988.279 337.298H988.396L991.8 328.985H993.247V339H992.113V331.391H992.015L988.885 339H987.79L984.66 331.391H984.562V339H983.428V328.985ZM996.916 339H995.644L999.322 328.985H1000.57L1004.25 339H1002.98L999.987 330.569H999.909L996.916 339ZM997.385 335.088H1002.51V336.164H997.385V335.088ZM1004.75 328.985H1006.14L1008.92 333.66H1009.04L1011.82 328.985H1013.2L1009.59 334.873V339H1008.37V334.873L1004.75 328.985ZM1023.64 328.985V339H1022.43V330.256H1022.37L1019.93 331.88V330.648L1022.43 328.985H1023.64ZM1030.56 339.137C1029.89 339.137 1029.29 339.018 1028.78 338.78C1028.27 338.539 1027.87 338.208 1027.58 337.787C1027.29 337.363 1027.15 336.881 1027.15 336.34C1027.15 335.916 1027.23 335.525 1027.4 335.166C1027.57 334.804 1027.81 334.503 1028.1 334.261C1028.4 334.017 1028.73 333.862 1029.09 333.797V333.738C1028.61 333.614 1028.23 333.345 1027.95 332.931C1027.66 332.514 1027.52 332.04 1027.53 331.508C1027.52 331 1027.65 330.545 1027.91 330.144C1028.17 329.743 1028.53 329.427 1028.99 329.195C1029.45 328.964 1029.97 328.848 1030.56 328.848C1031.14 328.848 1031.66 328.964 1032.11 329.195C1032.57 329.427 1032.93 329.743 1033.19 330.144C1033.45 330.545 1033.59 331 1033.59 331.508C1033.59 332.04 1033.44 332.514 1033.16 332.931C1032.87 333.345 1032.49 333.614 1032.03 333.738V333.797C1032.39 333.862 1032.71 334.017 1033 334.261C1033.29 334.503 1033.53 334.804 1033.7 335.166C1033.87 335.525 1033.96 335.916 1033.96 336.34C1033.96 336.881 1033.81 337.363 1033.52 337.787C1033.24 338.208 1032.84 338.539 1032.32 338.78C1031.82 339.018 1031.23 339.137 1030.56 339.137ZM1030.56 338.061C1031.01 338.061 1031.4 337.988 1031.73 337.841C1032.06 337.694 1032.32 337.487 1032.49 337.22C1032.67 336.953 1032.77 336.64 1032.77 336.281C1032.77 335.903 1032.67 335.569 1032.48 335.279C1032.28 334.988 1032.02 334.76 1031.69 334.594C1031.36 334.428 1030.98 334.345 1030.56 334.345C1030.13 334.345 1029.75 334.428 1029.41 334.594C1029.08 334.76 1028.82 334.988 1028.63 335.279C1028.44 335.569 1028.34 335.903 1028.35 336.281C1028.34 336.64 1028.43 336.953 1028.61 337.22C1028.79 337.487 1029.04 337.694 1029.38 337.841C1029.71 337.988 1030.1 338.061 1030.56 338.061ZM1030.56 333.308C1030.92 333.308 1031.23 333.236 1031.51 333.093C1031.79 332.949 1032.01 332.749 1032.17 332.491C1032.33 332.234 1032.41 331.932 1032.42 331.586C1032.41 331.247 1032.33 330.952 1032.18 330.701C1032.02 330.447 1031.8 330.251 1031.53 330.114C1031.25 329.974 1030.93 329.904 1030.56 329.904C1030.18 329.904 1029.86 329.974 1029.58 330.114C1029.3 330.251 1029.08 330.447 1028.93 330.701C1028.77 330.952 1028.7 331.247 1028.7 331.586C1028.7 331.932 1028.77 332.234 1028.93 332.491C1029.09 332.749 1029.31 332.949 1029.59 333.093C1029.87 333.236 1030.19 333.308 1030.56 333.308Z" fill="#615E83"/>
<path d="M1063.19 328.985H1064.64L1068.04 337.298H1068.16L1071.56 328.985H1073.01V339H1071.87V331.391H1071.78L1068.65 339H1067.55L1064.42 331.391H1064.32V339H1063.19V328.985ZM1076.68 339H1075.41L1079.08 328.985H1080.34L1084.01 339H1082.74L1079.75 330.569H1079.67L1076.68 339ZM1077.15 335.088H1082.27V336.164H1077.15V335.088ZM1084.52 328.985H1085.9L1088.68 333.66H1088.8L1091.58 328.985H1092.97L1089.35 334.873V339H1088.13V334.873L1084.52 328.985ZM1103.41 328.985V339H1102.19V330.256H1102.13L1099.69 331.88V330.648L1102.19 328.985H1103.41ZM1110.3 328.848C1110.71 328.851 1111.12 328.929 1111.53 329.083C1111.94 329.236 1112.32 329.49 1112.66 329.846C1113 330.198 1113.27 330.678 1113.47 331.288C1113.68 331.898 1113.78 332.662 1113.78 333.582C1113.78 334.472 1113.7 335.262 1113.53 335.953C1113.36 336.641 1113.12 337.222 1112.8 337.694C1112.49 338.167 1112.11 338.526 1111.66 338.77C1111.21 339.015 1110.71 339.137 1110.14 339.137C1109.58 339.137 1109.08 339.026 1108.64 338.804C1108.21 338.579 1107.85 338.268 1107.57 337.87C1107.29 337.469 1107.11 337.005 1107.03 336.477H1108.23C1108.33 336.936 1108.55 337.316 1108.87 337.616C1109.19 337.913 1109.62 338.061 1110.14 338.061C1110.92 338.061 1111.53 337.724 1111.97 337.049C1112.42 336.374 1112.65 335.42 1112.65 334.188H1112.57C1112.39 334.462 1112.17 334.698 1111.92 334.897C1111.67 335.096 1111.39 335.249 1111.08 335.357C1110.78 335.464 1110.45 335.518 1110.1 335.518C1109.53 335.518 1109 335.376 1108.53 335.093C1108.05 334.806 1107.67 334.413 1107.38 333.914C1107.1 333.412 1106.96 332.838 1106.96 332.193C1106.96 331.58 1107.09 331.019 1107.37 330.511C1107.64 329.999 1108.03 329.591 1108.53 329.288C1109.03 328.985 1109.62 328.838 1110.3 328.848ZM1110.3 329.924C1109.89 329.924 1109.52 330.026 1109.19 330.232C1108.86 330.434 1108.61 330.708 1108.41 331.053C1108.22 331.396 1108.13 331.776 1108.13 332.193C1108.13 332.61 1108.22 332.99 1108.4 333.332C1108.59 333.671 1108.84 333.942 1109.16 334.144C1109.48 334.343 1109.85 334.442 1110.26 334.442C1110.57 334.442 1110.86 334.382 1111.13 334.261C1111.39 334.138 1111.63 333.97 1111.83 333.758C1112.03 333.543 1112.19 333.3 1112.3 333.029C1112.41 332.755 1112.47 332.47 1112.47 332.173C1112.47 331.782 1112.38 331.415 1112.19 331.073C1112 330.731 1111.74 330.454 1111.42 330.242C1111.09 330.03 1110.72 329.924 1110.3 329.924Z" fill="#615E83"/>
<path d="M1144 328.985H1145.44L1148.85 337.298H1148.97L1152.37 328.985H1153.82V339H1152.68V331.391H1152.58L1149.45 339H1148.36L1145.23 331.391H1145.13V339H1144V328.985ZM1157.48 339H1156.21L1159.89 328.985H1161.14L1164.82 339H1163.55L1160.56 330.569H1160.48L1157.48 339ZM1157.95 335.088H1163.08V336.164H1157.95V335.088ZM1165.32 328.985H1166.71L1169.49 333.66H1169.61L1172.39 328.985H1173.77L1170.16 334.873V339H1168.94V334.873L1165.32 328.985ZM1180.69 339V338.12L1184 334.501C1184.39 334.077 1184.71 333.709 1184.96 333.396C1185.21 333.08 1185.39 332.783 1185.51 332.506C1185.64 332.225 1185.7 331.932 1185.7 331.626C1185.7 331.273 1185.61 330.969 1185.45 330.711C1185.28 330.454 1185.05 330.255 1184.76 330.114C1184.47 329.974 1184.14 329.904 1183.78 329.904C1183.4 329.904 1183.06 329.984 1182.78 330.144C1182.49 330.3 1182.27 330.52 1182.12 330.804C1181.96 331.088 1181.89 331.42 1181.89 331.802H1180.73C1180.73 331.215 1180.87 330.7 1181.14 330.256C1181.41 329.813 1181.78 329.467 1182.24 329.22C1182.71 328.972 1183.24 328.848 1183.82 328.848C1184.41 328.848 1184.93 328.972 1185.38 329.22C1185.83 329.467 1186.19 329.802 1186.45 330.222C1186.71 330.643 1186.83 331.11 1186.83 331.626C1186.83 331.994 1186.77 332.354 1186.63 332.706C1186.5 333.055 1186.27 333.445 1185.95 333.875C1185.63 334.302 1185.18 334.824 1184.6 335.44L1182.35 337.846V337.924H1187.01V339H1180.69ZM1193.12 339.137C1192.39 339.137 1191.76 338.936 1191.24 338.535C1190.72 338.131 1190.33 337.546 1190.05 336.78C1189.78 336.01 1189.64 335.081 1189.64 333.992C1189.64 332.91 1189.78 331.986 1190.05 331.22C1190.33 330.45 1190.73 329.863 1191.24 329.459C1191.77 329.052 1192.39 328.848 1193.12 328.848C1193.85 328.848 1194.48 329.052 1195 329.459C1195.52 329.863 1195.92 330.45 1196.19 331.22C1196.47 331.986 1196.6 332.91 1196.6 333.992C1196.6 335.081 1196.47 336.01 1196.19 336.78C1195.92 337.546 1195.52 338.131 1195.01 338.535C1194.49 338.936 1193.86 339.137 1193.12 339.137ZM1193.12 338.061C1193.85 338.061 1194.42 337.709 1194.82 337.005C1195.23 336.301 1195.43 335.296 1195.43 333.992C1195.43 333.125 1195.34 332.387 1195.15 331.777C1194.97 331.168 1194.71 330.703 1194.36 330.383C1194.02 330.064 1193.61 329.904 1193.12 329.904C1192.4 329.904 1191.83 330.261 1191.43 330.975C1191.02 331.686 1190.81 332.692 1190.81 333.992C1190.81 334.86 1190.91 335.596 1191.09 336.203C1191.27 336.809 1191.53 337.27 1191.88 337.587C1192.22 337.903 1192.64 338.061 1193.12 338.061Z" fill="#615E83"/>
<path d="M1225.36 328.985H1226.81L1230.22 337.298H1230.33L1233.74 328.985H1235.18V339H1234.05V331.391H1233.95L1230.82 339H1229.73L1226.6 331.391H1226.5V339H1225.36V328.985ZM1238.85 339H1237.58L1241.26 328.985H1242.51L1246.19 339H1244.92L1241.92 330.569H1241.85L1238.85 339ZM1239.32 335.088H1244.45V336.164H1239.32V335.088ZM1246.69 328.985H1248.08L1250.86 333.66H1250.98L1253.75 328.985H1255.14L1251.52 334.873V339H1250.31V334.873L1246.69 328.985ZM1262.06 339V338.12L1265.37 334.501C1265.75 334.077 1266.07 333.709 1266.32 333.396C1266.57 333.08 1266.76 332.783 1266.88 332.506C1267.01 332.225 1267.07 331.932 1267.07 331.626C1267.07 331.273 1266.98 330.969 1266.81 330.711C1266.65 330.454 1266.42 330.255 1266.13 330.114C1265.84 329.974 1265.51 329.904 1265.15 329.904C1264.77 329.904 1264.43 329.984 1264.14 330.144C1263.86 330.3 1263.64 330.52 1263.48 330.804C1263.33 331.088 1263.25 331.42 1263.25 331.802H1262.1C1262.1 331.215 1262.23 330.7 1262.5 330.256C1262.78 329.813 1263.14 329.467 1263.61 329.22C1264.08 328.972 1264.61 328.848 1265.19 328.848C1265.78 328.848 1266.3 328.972 1266.75 329.22C1267.2 329.467 1267.56 329.802 1267.82 330.222C1268.07 330.643 1268.2 331.11 1268.2 331.626C1268.2 331.994 1268.13 332.354 1268 332.706C1267.87 333.055 1267.64 333.445 1267.32 333.875C1266.99 334.302 1266.55 334.824 1265.97 335.44L1263.72 337.846V337.924H1268.38V339H1262.06ZM1274.74 328.985V339H1273.53V330.256H1273.47L1271.03 331.88V330.648L1273.53 328.985H1274.74Z" fill="#615E83"/>
</svg>
