<svg width="26" height="27" viewBox="0 0 26 27" fill="none" xmlns="http://www.w3.org/2000/svg">
<path fill-rule="evenodd" clip-rule="evenodd" d="M21.1048 11.6867C21.1048 11.6867 21.1048 15.9012 22.4275 18.1858C22.4275 18.1858 22.6453 18.5631 22.6457 18.9978C22.6457 18.9978 22.6461 19.4324 22.4295 19.8092C22.4295 19.8092 22.2128 20.186 21.8369 20.4043C21.8369 20.4043 21.4611 20.6227 21.0265 20.6242L4.97671 20.6242C4.97671 20.6242 4.5392 20.6227 4.16336 20.4043C4.16336 20.4043 3.78752 20.186 3.57085 19.8092C3.57085 19.8092 3.35419 19.4324 3.35458 18.9978C3.35458 18.9978 3.35496 18.5631 3.57229 18.1867C3.57229 18.1867 4.89546 15.9012 4.89546 11.6867C4.89546 11.6867 4.89546 10.0746 5.5124 8.58516C5.5124 8.58516 6.12933 7.09575 7.26927 5.95581C7.26927 5.95581 8.40922 4.81586 9.89862 4.19893C9.89862 4.19893 11.388 3.582 13.0002 3.582C13.0002 3.582 14.6123 3.582 16.1017 4.19893C16.1017 4.19893 17.5911 4.81586 18.731 5.95581C18.731 5.95581 19.871 7.09575 20.4879 8.58516C20.4879 8.58516 21.1048 10.0746 21.1048 11.6867ZM21.0207 18.9992C21.0207 18.9992 19.4798 16.3369 19.4798 11.6867C19.4798 11.6867 19.4798 10.3978 18.9866 9.20702C18.9866 9.20702 18.4934 8.01623 17.582 7.10486C17.582 7.10486 16.6706 6.19347 15.4798 5.70024C15.4798 5.70024 14.289 5.207 13.0002 5.207C13.0002 5.207 11.7113 5.207 10.5205 5.70024C10.5205 5.70024 9.32971 6.19347 8.41832 7.10486C8.41832 7.10486 7.50694 8.01624 7.0137 9.20702C7.0137 9.20702 6.52046 10.3978 6.52046 11.6867C6.52046 11.6867 6.52046 16.3377 4.97958 18.9992H21.0207Z" fill="#667085"/>
<path d="M17.0626 20.6243V19.8118C17.0626 19.363 16.6989 18.9993 16.2501 18.9993C15.8014 18.9993 15.4376 19.363 15.4376 19.8118V20.6243C15.4376 21.6339 14.7237 22.3478 14.7237 22.3478C14.0098 23.0618 13.0001 23.0618 13.0001 23.0618C11.9905 23.0618 11.2766 22.3478 11.2766 22.3478C10.5626 21.6339 10.5626 20.6243 10.5626 20.6243V19.8118C10.5626 19.363 10.1989 18.9993 9.75014 18.9993C9.30141 18.9993 8.93764 19.363 8.93764 19.8118V20.6243C8.93764 22.307 10.1275 23.4969 10.1275 23.4969C11.3174 24.6868 13.0001 24.6868 13.0001 24.6868C14.6829 24.6868 15.8728 23.4969 15.8728 23.4969C17.0626 22.307 17.0626 20.6243 17.0626 20.6243Z" fill="#667085"/>
<path d="M21.758 7.38564C21.8952 7.66204 22.1775 7.83755 22.4861 7.83755C22.4953 7.83755 22.5045 7.83739 22.5137 7.83708C22.6297 7.83314 22.7435 7.8044 22.8474 7.7528C23.1238 7.61559 23.2986 7.33364 23.2986 7.02505C23.2986 7.01586 23.2985 7.00666 23.2981 6.99747C23.2942 6.88148 23.2655 6.76769 23.2139 6.66374C21.7825 3.78079 19.0604 2.06221 19.0604 2.06221C18.9306 1.98026 18.7803 1.93677 18.6267 1.93677L18.6241 1.93677C18.5647 1.93696 18.5055 1.94367 18.4476 1.95676C18.2374 2.00428 18.0547 2.13334 17.9397 2.31556C17.8577 2.44538 17.8142 2.59575 17.8142 2.74927L17.8142 2.75189C17.8144 2.81129 17.8211 2.87048 17.8342 2.92842C17.8817 3.1386 18.0108 3.3213 18.193 3.43633C20.5291 4.91096 21.758 7.38564 21.758 7.38564Z" fill="#667085"/>
<path d="M4.24191 7.38634C5.47062 4.91132 7.80724 3.43633 7.80724 3.43633C7.98946 3.3213 8.11853 3.1386 8.16604 2.92842C8.17933 2.86963 8.18603 2.80954 8.18603 2.74927L8.18585 2.73182C8.18268 2.58427 8.13938 2.44036 8.0606 2.31556C7.94557 2.13334 7.76287 2.00428 7.55268 1.95676C7.49389 1.94347 7.43381 1.93677 7.37354 1.93677L7.35609 1.93695C7.20854 1.94012 7.06463 1.98342 6.93983 2.06221C4.21778 3.78049 2.78641 6.66376 2.78641 6.66376C2.73066 6.77604 2.70166 6.89969 2.70166 7.02505L2.70177 7.03838C2.70675 7.34212 2.88077 7.61772 3.15287 7.7528C3.26515 7.80854 3.38881 7.83755 3.51416 7.83755L3.51941 7.83753C3.60575 7.83697 3.69145 7.82266 3.77329 7.79512C3.97753 7.72639 4.1461 7.57935 4.24191 7.38634Z" fill="#667085"/>
</svg>
