<svg width="48" height="41" viewBox="0 0 48 41" fill="none" xmlns="http://www.w3.org/2000/svg">
<rect x="0.745605" y="0.876953" width="46.3158" height="39.2982" rx="10.5263" fill="#0F60FF"/>
<path d="M29.9403 23.9492C29.9403 24.9113 29.5034 25.7603 28.6294 26.4965C27.7555 27.2326 26.4855 27.7245 24.8193 27.9723C23.6677 28.14 22.2425 28.2274 20.5437 28.2347C18.8448 28.242 16.9296 28.2456 14.7978 28.2456C14.4875 28.2456 13.6912 28.242 12.4089 28.2347C11.1266 28.2347 10.1628 28.2311 9.51758 28.2238C9.51758 27.8083 9.51758 26.7734 9.51758 25.119C9.52575 23.4645 9.52983 21.9741 9.52983 20.6476C9.52983 19.5544 9.52575 18.1223 9.51758 16.3512C9.51758 14.5729 9.51758 13.6509 9.51758 13.5853C9.58292 13.5926 10.2935 13.5817 11.6493 13.5525C13.0133 13.5234 14.026 13.5088 14.6876 13.5088C16.2312 13.5088 17.8729 13.5343 19.6126 13.5853C21.3522 13.629 22.7366 13.7384 23.7657 13.9133C25.1624 14.1538 26.2445 14.5875 27.0123 15.2142C27.78 15.8337 28.1639 16.5225 28.1639 17.2805C28.1639 17.8562 27.9475 18.4028 27.5146 18.9203C27.0899 19.4305 26.2364 19.8897 24.9541 20.2978V20.3197C25.534 20.3925 26.0281 20.4764 26.4365 20.5711C26.8449 20.6586 27.2614 20.7825 27.6861 20.9428C28.4375 21.2343 29.0011 21.6716 29.3768 22.2547C29.7525 22.8305 29.9403 23.3953 29.9403 23.9492ZM22.8101 22.8341C22.8101 22.579 22.7162 22.3567 22.5283 22.1672C22.3487 21.9777 22.1118 21.8465 21.8178 21.7737C21.3767 21.6643 20.9439 21.5915 20.5192 21.555C20.1026 21.5186 19.6697 21.5004 19.2205 21.5004C19.0898 21.5004 18.9673 21.504 18.853 21.5113C18.7468 21.5113 18.6406 21.5113 18.5345 21.5113L17.9709 20.0026C18.2813 19.9808 18.6284 19.948 19.0123 19.9042C19.4043 19.8532 19.7718 19.7767 20.1149 19.6746C20.4661 19.5726 20.7233 19.4305 20.8867 19.2483C21.05 19.0588 21.1317 18.8037 21.1317 18.483C21.1317 18.2935 21.0174 18.0785 20.7887 17.838C20.56 17.5975 20.2415 17.4262 19.8331 17.3242C19.4247 17.2222 18.9551 17.1602 18.4242 17.1383C17.9015 17.1165 17.5217 17.1055 17.2848 17.1055C17.195 17.1055 17.0112 17.1092 16.7335 17.1165C16.4558 17.1238 16.2271 17.131 16.0475 17.1383C16.0475 17.787 16.0434 18.2644 16.0352 18.5705C16.0352 18.8693 16.0352 19.5107 16.0352 20.4946C16.0352 21.3546 16.0352 22.1855 16.0352 22.9872C16.0434 23.7816 16.0475 24.2152 16.0475 24.2881C16.1945 24.2954 16.4313 24.3027 16.758 24.31C17.0929 24.31 17.4604 24.31 17.8606 24.31C19.0286 24.31 19.8249 24.2918 20.2496 24.2553C20.6825 24.2189 21.0419 24.1751 21.3277 24.1241C21.8913 24.0294 22.2792 23.8617 22.4916 23.6212C22.7039 23.3807 22.8101 23.1183 22.8101 22.8341Z" fill="white"/>
<path d="M38.2834 28.2238H31.5575C31.5493 27.801 31.5493 26.8609 31.5575 25.4032C31.5656 23.9456 31.5697 22.2693 31.5697 20.3743C31.5697 19.507 31.5656 18.4648 31.5575 17.2477C31.5575 16.0232 31.5575 14.8025 31.5575 13.5853H38.2834C38.2834 14.5255 38.2793 15.5969 38.2711 16.7994C38.2711 17.9947 38.2711 19.1863 38.2711 20.3743C38.2711 22.2401 38.2752 23.7889 38.2834 25.0206C38.2915 26.2523 38.2915 27.32 38.2834 28.2238Z" fill="white"/>
</svg>
