<svg width="24" height="24" viewBox="0 0 24 24" fill="none" xmlns="http://www.w3.org/2000/svg">
<path d="M11.3625 14.8032C12.3688 14.1347 13.1331 13.1601 13.5424 12.0235C13.9516 10.8869 13.9841 9.64869 13.635 8.49218C13.2859 7.33568 12.5737 6.3223 11.6039 5.60201C10.634 4.88172 9.45806 4.4928 8.25001 4.4928C7.04196 4.4928 5.866 4.88172 4.89617 5.60201C3.92633 6.3223 3.21416 7.33568 2.86503 8.49218C2.51591 9.64869 2.54838 10.8869 2.95766 12.0235C3.36693 13.1601 4.13125 14.1347 5.13751 14.8032C3.42092 15.4344 1.93883 16.5763 0.890635 18.0751C0.80876 18.1862 0.760027 18.3183 0.750072 18.456C0.740118 18.5937 0.769349 18.7314 0.834385 18.8532C0.898652 18.9742 0.994453 19.0755 1.11163 19.1465C1.22882 19.2175 1.36302 19.2554 1.50001 19.2563H15C15.137 19.2554 15.2712 19.2175 15.3884 19.1465C15.5056 19.0755 15.6014 18.9742 15.6656 18.8532C15.7307 18.7314 15.7599 18.5937 15.7499 18.456C15.74 18.3183 15.6913 18.1862 15.6094 18.0751C14.5612 16.5763 13.0791 15.4344 11.3625 14.8032Z" fill="#36AAD9"/>
<path d="M23.2594 18.0751C22.2052 16.5781 20.7208 15.437 19.0031 14.8032C20.0126 14.1373 20.7801 13.1633 21.1915 12.0261C21.6029 10.8889 21.6362 9.64934 21.2865 8.4917C20.9368 7.33406 20.2227 6.32024 19.2505 5.60105C18.2783 4.88185 17.0999 4.49571 15.8906 4.50007C15.3745 4.5028 14.8609 4.57213 14.3625 4.70632C14.2454 4.74148 14.1384 4.80404 14.0504 4.88883C13.9623 4.97361 13.8958 5.07816 13.8562 5.19382C13.8185 5.30852 13.809 5.43064 13.8286 5.54979C13.8482 5.66894 13.8963 5.7816 13.9687 5.87819C14.8166 7.01742 15.3037 8.38455 15.3672 9.80326C15.4307 11.222 15.0677 12.6271 14.325 13.8376C14.2297 13.9984 14.1972 14.1887 14.2335 14.3721C14.2698 14.5554 14.3725 14.7189 14.5219 14.8313C14.8031 15.0501 15.075 15.2751 15.3375 15.5063L15.3844 15.5532C16.3851 16.4792 17.1969 17.5903 17.775 18.8251C17.8343 18.9541 17.9295 19.0634 18.0492 19.1398C18.1688 19.2163 18.308 19.2567 18.45 19.2563H22.6406C22.7776 19.2554 22.9118 19.2175 23.029 19.1465C23.1462 19.0755 23.242 18.9742 23.3062 18.8532C23.3705 18.7317 23.4001 18.5948 23.3918 18.4576C23.3836 18.3203 23.3377 18.188 23.2594 18.0751Z" fill="#36AAD9"/>
</svg>
