<svg width="24" height="24" viewBox="0 0 24 24" fill="none" xmlns="http://www.w3.org/2000/svg">
<path d="M17.0719 19.7625C17.1652 19.8716 17.2252 20.0052 17.2449 20.1473C17.2645 20.2895 17.243 20.4343 17.1828 20.5646C17.1226 20.6949 17.0262 20.8052 16.9052 20.8824C16.7842 20.9596 16.6436 21.0004 16.5 21H7.50002C7.35649 21.0004 7.21586 20.9596 7.09484 20.8824C6.97382 20.8052 6.87749 20.6949 6.81727 20.5646C6.75706 20.4343 6.7355 20.2895 6.75516 20.1473C6.77481 20.0052 6.83485 19.8716 6.92814 19.7625L11.4281 14.5125C11.4986 14.4295 11.5862 14.3629 11.6849 14.3172C11.7837 14.2714 11.8912 14.2478 12 14.2478C12.1088 14.2478 12.2164 14.2714 12.3151 14.3172C12.4139 14.3629 12.5015 14.4295 12.5719 14.5125L17.0719 19.7625ZM19.5 3.75002H4.50002C4.2042 3.74878 3.91106 3.80613 3.63752 3.91876C3.36397 4.0314 3.11544 4.19708 2.90626 4.40626C2.69708 4.61544 2.5314 4.86397 2.41876 5.13752C2.30613 5.41106 2.24878 5.7042 2.25002 6.00002V16.5C2.24878 16.7958 2.30613 17.089 2.41876 17.3625C2.5314 17.6361 2.69708 17.8846 2.90626 18.0938C3.11544 18.303 3.36397 18.4686 3.63752 18.5813C3.91106 18.6939 4.2042 18.7513 4.50002 18.75H5.65314C5.70657 18.7489 5.75918 18.7366 5.80761 18.714C5.85603 18.6914 5.89921 18.659 5.93439 18.6188L10.2938 13.5375C10.5041 13.2904 10.7656 13.0919 11.0602 12.9558C11.3548 12.8197 11.6755 12.7492 12 12.7492C12.3245 12.7492 12.6452 12.8197 12.9398 12.9558C13.2344 13.0919 13.4959 13.2904 13.7063 13.5375L18.0656 18.6188C18.1008 18.659 18.144 18.6914 18.1924 18.714C18.2409 18.7366 18.2935 18.7489 18.3469 18.75H19.5C19.7958 18.7513 20.089 18.6939 20.3625 18.5813C20.6361 18.4686 20.8846 18.303 21.0938 18.0938C21.303 17.8846 21.4686 17.6361 21.5813 17.3625C21.6939 17.089 21.7513 16.7958 21.75 16.5V6.00002C21.7513 5.7042 21.6939 5.41106 21.5813 5.13752C21.4686 4.86397 21.303 4.61544 21.0938 4.40626C20.8846 4.19708 20.6361 4.0314 20.3625 3.91876C20.089 3.80613 19.7958 3.74878 19.5 3.75002Z" fill="#36AAD9"/>
</svg>
