<svg width="20" height="21" viewBox="0 0 20 21" fill="none" xmlns="http://www.w3.org/2000/svg">
<g clip-path="url(#clip0_40_273)">
<path d="M17.5776 2.33894H16.6708V0.827637H15.1595V2.33894H5.18501V0.827637H3.67372V2.33894H2.76694C1.51695 2.33894 0.5 3.3559 0.5 4.6059V17.9054C0.5 19.1554 1.51695 20.1724 2.76694 20.1724H17.5776C18.8276 20.1724 19.8446 19.1554 19.8446 17.9054V4.6059C19.8446 3.3559 18.8276 2.33894 17.5776 2.33894ZM18.3333 17.9054C18.3333 18.3221 17.9943 18.6611 17.5776 18.6611H2.76694C2.35028 18.6611 2.01129 18.3221 2.01129 17.9054V7.93078H18.3333V17.9054ZM18.3333 6.41947H2.01129V4.6059C2.01129 4.18924 2.35028 3.85025 2.76694 3.85025H3.67372V5.36156H5.18501V3.85025H15.1595V5.36156H16.6708V3.85025H17.5776C17.9943 3.85025 18.3333 4.18924 18.3333 4.6059V6.41947Z" fill="#36AAD9"/>
<path d="M4.88312 9.51807H3.37183V11.0294H4.88312V9.51807Z" fill="#36AAD9"/>
<path d="M7.90503 9.51782H6.39374V11.0291H7.90503V9.51782Z" fill="#36AAD9"/>
<path d="M10.9283 9.51807H9.41705V11.0294H10.9283V9.51807Z" fill="#36AAD9"/>
<path d="M13.9505 9.51807H12.4392V11.0294H13.9505V9.51807Z" fill="#36AAD9"/>
<path d="M16.9728 9.51807H15.4615V11.0294H16.9728V9.51807Z" fill="#36AAD9"/>
<path d="M4.88312 12.5405H3.37183V14.0518H4.88312V12.5405Z" fill="#36AAD9"/>
<path d="M7.90503 12.5403H6.39374V14.0516H7.90503V12.5403Z" fill="#36AAD9"/>
<path d="M10.9283 12.5405H9.41705V14.0518H10.9283V12.5405Z" fill="#36AAD9"/>
<path d="M13.9505 12.5403H12.4392V14.0516H13.9505V12.5403Z" fill="#36AAD9"/>
<path d="M4.88312 15.5626H3.37183V17.0739H4.88312V15.5626Z" fill="#36AAD9"/>
<path d="M7.90503 15.563H6.39374V17.0743H7.90503V15.563Z" fill="#36AAD9"/>
<path d="M10.9283 15.5626H9.41705V17.0739H10.9283V15.5626Z" fill="#36AAD9"/>
<path d="M13.9505 15.5626H12.4392V17.0739H13.9505V15.5626Z" fill="#36AAD9"/>
<path d="M16.9727 12.5399H15.4614V14.0512H16.9727V12.5399Z" fill="#36AAD9"/>
</g>
<defs>
<clipPath id="clip0_40_273">
<rect width="19.3446" height="19.3447" fill="white" transform="translate(0.5 0.827637)"/>
</clipPath>
</defs>
</svg>
