<svg width="15" height="12" viewBox="0 0 15 12" fill="none" xmlns="http://www.w3.org/2000/svg">
<path d="M11.7127 7.76517C11.793 7.83549 11.9019 7.875 12.0154 7.875C12.129 7.875 12.2379 7.83549 12.3182 7.76517C12.3984 7.69484 12.4435 7.59946 12.4435 7.5C12.4435 7.40054 12.3984 7.30516 12.3182 7.23483L8.03718 3.48484C7.87 3.33839 7.59894 3.33839 7.43176 3.48484L3.15079 7.23483C3.0705 7.30516 3.0254 7.40054 3.0254 7.5C3.0254 7.59946 3.0705 7.69484 3.15079 7.76516C3.23107 7.83549 3.33996 7.875 3.4535 7.875C3.56704 7.875 3.67593 7.83549 3.75621 7.76516L7.73447 4.28033L11.7127 7.76517Z" fill="#667085"/>
</svg>
