<svg width="960" height="342" viewBox="0 0 960 342" fill="none" xmlns="http://www.w3.org/2000/svg">
<path d="M17.0601 329.035H18.5076L21.9112 337.348H22.0286L25.4322 329.035H26.8797V339.05H25.7451V331.441H25.6473L22.5176 339.05H21.4222L18.2925 331.441H18.1947V339.05H17.0601V329.035ZM30.5484 339.05H29.2769L32.9543 329.035H34.2062L37.8837 339.05H36.6122L33.6194 330.619H33.5412L30.5484 339.05ZM31.0178 335.138H36.1428V336.213H31.0178V335.138ZM38.3872 329.035H39.776L42.5536 333.71H42.671L45.4486 329.035H46.8374L43.2187 334.922V339.05H42.0059V334.922L38.3872 329.035ZM57.0808 339.187C56.67 339.18 56.2593 339.102 55.8485 338.952C55.4377 338.802 55.0628 338.549 54.7237 338.194C54.3847 337.835 54.1125 337.351 53.9071 336.742C53.7017 336.129 53.599 335.359 53.599 334.433C53.599 333.547 53.6821 332.761 53.8484 332.076C54.0147 331.388 54.2559 330.81 54.5721 330.34C54.8884 329.868 55.2698 329.509 55.7164 329.264C56.1663 329.02 56.6733 328.898 57.2373 328.898C57.798 328.898 58.2968 329.01 58.7337 329.235C59.1738 329.457 59.5324 329.766 59.8095 330.164C60.0867 330.562 60.266 331.02 60.3475 331.538H59.1543C59.0434 331.088 58.8282 330.715 58.5088 330.418C58.1893 330.122 57.7654 329.973 57.2373 329.973C56.4614 329.973 55.8501 330.311 55.4035 330.986C54.9601 331.661 54.7368 332.608 54.7335 333.827H54.8118C54.9943 333.55 55.2111 333.313 55.4622 333.118C55.7164 332.919 55.9968 332.766 56.3033 332.658C56.6097 332.551 56.9341 332.497 57.2764 332.497C57.8502 332.497 58.3751 332.64 58.8511 332.927C59.327 333.211 59.7085 333.604 59.9954 334.106C60.2823 334.604 60.4257 335.177 60.4257 335.822C60.4257 336.442 60.2872 337.009 60.01 337.524C59.7329 338.036 59.3433 338.443 58.8413 338.746C58.3425 339.046 57.7557 339.193 57.0808 339.187ZM57.0808 338.111C57.4916 338.111 57.86 338.008 58.186 337.803C58.5153 337.597 58.7745 337.322 58.9635 336.976C59.1559 336.631 59.2521 336.246 59.2521 335.822C59.2521 335.408 59.1592 335.032 58.9733 334.693C58.7908 334.35 58.5381 334.078 58.2153 333.876C57.8958 333.674 57.5307 333.573 57.1199 333.573C56.8102 333.573 56.5217 333.635 56.2544 333.758C55.987 333.879 55.7523 334.045 55.5502 334.257C55.3513 334.469 55.1948 334.712 55.0807 334.986C54.9666 335.257 54.9096 335.542 54.9096 335.842C54.9096 336.239 55.0025 336.611 55.1883 336.957C55.3774 337.302 55.6349 337.581 55.961 337.793C56.2902 338.005 56.6635 338.111 57.0808 338.111Z" fill="#615E83"/>
<path d="M97.0089 329.034H98.4564L101.86 337.348H101.977L105.381 329.034H106.828V339.05H105.694V331.44H105.596L102.466 339.05H101.371L98.2412 331.44H98.1434V339.05H97.0089V329.034ZM110.497 339.05H109.226L112.903 329.034H114.155L117.832 339.05H116.561L113.568 330.619H113.49L110.497 339.05ZM110.967 335.137H116.092V336.213H110.967V335.137ZM118.336 329.034H119.725L122.502 333.709H122.62L125.397 329.034H126.786L123.167 334.922V339.05H121.955V334.922L118.336 329.034ZM134.017 339.05L138.497 330.189V330.11H133.333V329.034H139.749V330.169L135.289 339.05H134.017Z" fill="#615E83"/>
<path d="M176.132 329.034H178.743L181.501 335.763H181.619L184.377 329.034H186.988V339.05H184.934V332.531H184.851L182.259 339.001H180.861L178.269 332.506H178.186V339.05H176.132V329.034ZM191.285 339.05H189.016L192.473 329.034H195.202L198.655 339.05H196.386L193.877 331.323H193.799L191.285 339.05ZM191.143 335.113H196.503V336.766H191.143V335.113ZM199.078 329.034H201.449L203.733 333.348H203.831L206.115 329.034H208.486L204.833 335.509V339.05H202.73V335.509L199.078 329.034ZM218.16 339.186C217.407 339.186 216.737 339.064 216.15 338.82C215.566 338.572 215.108 338.235 214.776 337.807C214.443 337.38 214.277 336.896 214.277 336.355C214.277 335.938 214.372 335.555 214.561 335.206C214.753 334.854 215.014 334.562 215.343 334.331C215.672 334.096 216.041 333.946 216.448 333.881V333.812C215.914 333.705 215.48 333.445 215.148 333.035C214.815 332.621 214.649 332.14 214.649 331.592C214.649 331.074 214.8 330.612 215.104 330.208C215.407 329.801 215.822 329.481 216.351 329.25C216.882 329.015 217.485 328.897 218.16 328.897C218.835 328.897 219.436 329.015 219.964 329.25C220.496 329.484 220.913 329.805 221.216 330.213C221.52 330.617 221.673 331.077 221.676 331.592C221.673 332.143 221.503 332.624 221.167 333.035C220.832 333.445 220.401 333.705 219.876 333.812V333.881C220.277 333.946 220.641 334.096 220.967 334.331C221.296 334.562 221.557 334.854 221.749 335.206C221.945 335.555 222.044 335.938 222.048 336.355C222.044 336.896 221.876 337.38 221.544 337.807C221.211 338.235 220.752 338.572 220.165 338.82C219.581 339.064 218.913 339.186 218.16 339.186ZM218.16 337.631C218.496 337.631 218.789 337.571 219.04 337.45C219.291 337.327 219.487 337.157 219.627 336.942C219.77 336.723 219.842 336.472 219.842 336.189C219.842 335.899 219.769 335.643 219.622 335.421C219.475 335.196 219.277 335.02 219.026 334.893C218.774 334.762 218.486 334.697 218.16 334.697C217.837 334.697 217.549 334.762 217.294 334.893C217.04 335.02 216.84 335.196 216.693 335.421C216.549 335.643 216.478 335.899 216.478 336.189C216.478 336.472 216.548 336.723 216.688 336.942C216.828 337.157 217.025 337.327 217.28 337.45C217.534 337.571 217.827 337.631 218.16 337.631ZM218.16 333.157C218.44 333.157 218.69 333.1 218.908 332.986C219.127 332.872 219.298 332.713 219.422 332.511C219.545 332.309 219.607 332.076 219.607 331.812C219.607 331.551 219.545 331.323 219.422 331.127C219.298 330.929 219.128 330.774 218.913 330.663C218.698 330.549 218.447 330.492 218.16 330.492C217.876 330.492 217.625 330.549 217.407 330.663C217.188 330.774 217.017 330.929 216.893 331.127C216.773 331.323 216.712 331.551 216.712 331.812C216.712 332.076 216.774 332.309 216.898 332.511C217.022 332.713 217.193 332.872 217.412 332.986C217.63 333.1 217.88 333.157 218.16 333.157Z" fill="#615E83"/>
<path d="M258.219 329.034H259.667L263.07 337.348H263.188L266.591 329.034H268.039V339.05H266.904V331.44H266.806L263.677 339.05H262.581L259.451 331.44H259.354V339.05H258.219V329.034ZM271.707 339.05H270.436L274.113 329.034H275.365L279.043 339.05H277.771L274.778 330.619H274.7L271.707 339.05ZM272.177 335.137H277.302V336.213H272.177V335.137ZM279.546 329.034H280.935L283.713 333.709H283.83L286.608 329.034H287.996L284.378 334.922V339.05H283.165V334.922L279.546 329.034ZM298.103 328.897C298.514 328.901 298.924 328.979 299.335 329.132C299.746 329.285 300.121 329.54 300.46 329.895C300.799 330.247 301.071 330.728 301.277 331.338C301.482 331.947 301.585 332.712 301.585 333.631C301.585 334.521 301.5 335.312 301.33 336.003C301.164 336.691 300.923 337.271 300.607 337.744C300.294 338.217 299.912 338.575 299.462 338.82C299.016 339.064 298.51 339.186 297.946 339.186C297.386 339.186 296.885 339.076 296.445 338.854C296.008 338.629 295.65 338.318 295.369 337.92C295.092 337.519 294.914 337.054 294.836 336.526H296.029C296.137 336.986 296.351 337.366 296.67 337.666C296.993 337.962 297.418 338.111 297.946 338.111C298.719 338.111 299.329 337.773 299.775 337.098C300.225 336.424 300.45 335.47 300.45 334.238H300.372C300.189 334.511 299.973 334.748 299.722 334.947C299.471 335.146 299.192 335.299 298.885 335.406C298.579 335.514 298.253 335.568 297.907 335.568C297.333 335.568 296.807 335.426 296.328 335.142C295.852 334.855 295.47 334.463 295.183 333.964C294.9 333.462 294.758 332.888 294.758 332.242C294.758 331.629 294.895 331.069 295.169 330.56C295.446 330.048 295.834 329.641 296.333 329.338C296.835 329.034 297.425 328.888 298.103 328.897ZM298.103 329.973C297.692 329.973 297.322 330.076 296.993 330.281C296.667 330.484 296.408 330.757 296.215 331.103C296.026 331.445 295.932 331.825 295.932 332.242C295.932 332.66 296.023 333.039 296.205 333.382C296.391 333.721 296.644 333.991 296.963 334.194C297.286 334.392 297.653 334.492 298.064 334.492C298.373 334.492 298.662 334.432 298.929 334.311C299.197 334.187 299.43 334.019 299.629 333.807C299.831 333.592 299.989 333.349 300.103 333.079C300.217 332.805 300.274 332.52 300.274 332.223C300.274 331.832 300.18 331.465 299.991 331.123C299.805 330.78 299.547 330.503 299.218 330.291C298.892 330.079 298.52 329.973 298.103 329.973Z" fill="#615E83"/>
<path d="M336.406 329.034H337.853L341.257 337.348H341.374L344.778 329.034H346.225V339.05H345.091V331.44H344.993L341.863 339.05H340.768L337.638 331.44H337.54V339.05H336.406V329.034ZM349.894 339.05H348.623L352.3 329.034H353.552L357.229 339.05H355.958L352.965 330.619H352.887L349.894 339.05ZM350.363 335.137H355.488V336.213H350.363V335.137ZM357.733 329.034H359.122L361.899 333.709H362.017L364.794 329.034H366.183L362.564 334.922V339.05H361.352V334.922L357.733 329.034ZM376.622 329.034V339.05H375.409V330.306H375.351L372.905 331.929V330.697L375.409 329.034H376.622ZM383.595 339.186C382.859 339.186 382.231 338.986 381.713 338.585C381.194 338.181 380.798 337.596 380.524 336.829C380.25 336.06 380.113 335.131 380.113 334.042C380.113 332.96 380.25 332.035 380.524 331.269C380.801 330.5 381.199 329.913 381.717 329.509C382.239 329.101 382.865 328.897 383.595 328.897C384.326 328.897 384.95 329.101 385.468 329.509C385.99 329.913 386.388 330.5 386.661 331.269C386.939 332.035 387.077 332.96 387.077 334.042C387.077 335.131 386.94 336.06 386.666 336.829C386.392 337.596 385.996 338.181 385.478 338.585C384.96 338.986 384.332 339.186 383.595 339.186ZM383.595 338.111C384.326 338.111 384.893 337.759 385.297 337.054C385.701 336.35 385.903 335.346 385.903 334.042C385.903 333.175 385.811 332.436 385.625 331.827C385.442 331.217 385.178 330.753 384.833 330.433C384.49 330.114 384.078 329.954 383.595 329.954C382.872 329.954 382.306 330.311 381.898 331.025C381.491 331.735 381.287 332.741 381.287 334.042C381.287 334.909 381.378 335.646 381.561 336.252C381.744 336.859 382.006 337.32 382.348 337.636C382.694 337.953 383.11 338.111 383.595 338.111Z" fill="#615E83"/>
<path d="M417.783 329.034H419.23L422.634 337.348H422.751L426.155 329.034H427.602V339.05H426.468V331.44H426.37L423.24 339.05H422.145L419.015 331.44H418.917V339.05H417.783V329.034ZM431.271 339.05H430L433.677 329.034H434.929L438.606 339.05H437.335L434.342 330.619H434.264L431.271 339.05ZM431.741 335.137H436.866V336.213H431.741V335.137ZM439.11 329.034H440.499L443.276 333.709H443.394L446.171 329.034H447.56L443.941 334.922V339.05H442.729V334.922L439.11 329.034ZM457.999 329.034V339.05H456.786V330.306H456.728L454.283 331.929V330.697L456.786 329.034H457.999ZM465.227 329.034V339.05H464.014V330.306H463.955L461.51 331.929V330.697L464.014 329.034H465.227Z" fill="#615E83"/>
<path d="M498.073 329.034H499.52L502.924 337.348H503.041L506.445 329.034H507.892V339.05H506.758V331.44H506.66L503.53 339.05H502.435L499.305 331.44H499.207V339.05H498.073V329.034ZM511.561 339.05H510.289L513.967 329.034H515.219L518.896 339.05H517.625L514.632 330.619H514.554L511.561 339.05ZM512.03 335.137H517.155V336.213H512.03V335.137ZM519.4 329.034H520.789L523.566 333.709H523.684L526.461 329.034H527.85L524.231 334.922V339.05H523.018V334.922L519.4 329.034ZM538.289 329.034V339.05H537.076V330.306H537.017L534.572 331.929V330.697L537.076 329.034H538.289ZM541.996 339.05V338.169L545.301 334.551C545.689 334.127 546.009 333.758 546.26 333.445C546.511 333.129 546.697 332.832 546.817 332.555C546.941 332.275 547.003 331.982 547.003 331.675C547.003 331.323 546.918 331.018 546.749 330.761C546.583 330.503 546.354 330.304 546.064 330.164C545.774 330.024 545.448 329.954 545.086 329.954C544.701 329.954 544.366 330.034 544.079 330.193C543.795 330.35 543.575 330.57 543.419 330.854C543.265 331.137 543.189 331.47 543.189 331.851H542.035C542.035 331.264 542.17 330.749 542.441 330.306C542.711 329.862 543.08 329.517 543.546 329.269C544.015 329.021 544.542 328.897 545.125 328.897C545.712 328.897 546.232 329.021 546.685 329.269C547.138 329.517 547.494 329.851 547.751 330.272C548.009 330.692 548.138 331.16 548.138 331.675C548.138 332.044 548.071 332.404 547.937 332.756C547.807 333.105 547.579 333.494 547.252 333.925C546.93 334.352 546.481 334.873 545.908 335.489L543.658 337.895V337.974H548.314V339.05H541.996Z" fill="#615E83"/>
<path d="M578.674 329.034H580.121L583.525 337.348H583.642L587.046 329.034H588.493V339.05H587.359V331.44H587.261L584.131 339.05H583.036L579.906 331.44H579.808V339.05H578.674V329.034ZM592.162 339.05H590.891L594.568 329.034H595.82L599.497 339.05H598.226L595.233 330.619H595.155L592.162 339.05ZM592.631 335.137H597.756V336.213H592.631V335.137ZM600.001 329.034H601.39L604.167 333.709H604.285L607.062 329.034H608.451L604.832 334.922V339.05H603.62V334.922L600.001 329.034ZM618.89 329.034V339.05H617.677V330.306H617.619L615.174 331.929V330.697L617.677 329.034H618.89ZM625.981 339.186C625.335 339.186 624.76 339.076 624.254 338.854C623.752 338.632 623.353 338.324 623.056 337.93C622.763 337.532 622.603 337.071 622.577 336.546H623.809C623.835 336.869 623.946 337.147 624.142 337.382C624.338 337.613 624.593 337.793 624.91 337.92C625.226 338.047 625.576 338.111 625.961 338.111C626.391 338.111 626.773 338.036 627.105 337.886C627.438 337.736 627.699 337.527 627.888 337.26C628.077 336.992 628.171 336.683 628.171 336.331C628.171 335.962 628.08 335.638 627.898 335.357C627.715 335.074 627.448 334.852 627.096 334.692C626.744 334.533 626.313 334.453 625.805 334.453H625.003V333.377H625.805C626.202 333.377 626.551 333.305 626.851 333.162C627.154 333.018 627.391 332.816 627.56 332.555C627.733 332.295 627.819 331.988 627.819 331.636C627.819 331.297 627.744 331.002 627.594 330.751C627.444 330.5 627.233 330.304 626.959 330.164C626.688 330.024 626.369 329.954 626 329.954C625.655 329.954 625.329 330.017 625.022 330.144C624.719 330.268 624.471 330.449 624.279 330.687C624.087 330.922 623.982 331.206 623.966 331.538H622.792C622.812 331.013 622.97 330.554 623.267 330.159C623.563 329.761 623.951 329.452 624.43 329.23C624.913 329.008 625.443 328.897 626.02 328.897C626.639 328.897 627.171 329.023 627.614 329.274C628.057 329.522 628.398 329.849 628.636 330.257C628.874 330.664 628.993 331.105 628.993 331.577C628.993 332.141 628.845 332.622 628.548 333.02C628.255 333.418 627.855 333.693 627.35 333.846V333.925C627.982 334.029 628.476 334.298 628.832 334.732C629.187 335.162 629.365 335.695 629.365 336.331C629.365 336.875 629.216 337.364 628.92 337.798C628.626 338.228 628.225 338.567 627.717 338.815C627.208 339.063 626.629 339.186 625.981 339.186Z" fill="#615E83"/>
<path d="M659.39 329.034H660.837L664.241 337.348H664.358L667.762 329.034H669.21V339.05H668.075V331.44H667.977L664.847 339.05H663.752L660.622 331.44H660.524V339.05H659.39V329.034ZM672.878 339.05H671.607L675.284 329.034H676.536L680.214 339.05H678.942L675.949 330.619H675.871L672.878 339.05ZM673.348 335.137H678.473V336.213H673.348V335.137ZM680.717 329.034H682.106L684.883 333.709H685.001L687.778 329.034H689.167L685.549 334.922V339.05H684.336V334.922L680.717 329.034ZM699.606 329.034V339.05H698.393V330.306H698.335L695.89 331.929V330.697L698.393 329.034H699.606ZM703.078 336.996V335.998L707.479 329.034H708.203V330.58H707.714L704.389 335.842V335.92H710.316V336.996H703.078ZM707.792 339.05V336.692V336.228V329.034H708.946V339.05H707.792Z" fill="#615E83"/>
<path d="M739.434 329.034H740.881L744.285 337.348H744.402L747.806 329.034H749.253V339.05H748.119V331.44H748.021L744.891 339.05H743.796L740.666 331.44H740.568V339.05H739.434V329.034ZM752.922 339.05H751.651L755.328 329.034H756.58L760.257 339.05H758.986L755.993 330.619H755.915L752.922 339.05ZM753.392 335.137H758.517V336.213H753.392V335.137ZM760.761 329.034H762.15L764.927 333.709H765.045L767.822 329.034H769.211L765.592 334.922V339.05H764.38V334.922L760.761 329.034ZM779.65 329.034V339.05H778.437V330.306H778.379L775.934 331.929V330.697L778.437 329.034H779.65ZM786.486 339.186C785.913 339.186 785.396 339.072 784.936 338.844C784.477 338.616 784.108 338.303 783.831 337.905C783.554 337.508 783.402 337.054 783.376 336.546H784.55C784.596 336.999 784.801 337.374 785.166 337.671C785.535 337.964 785.975 338.111 786.486 338.111C786.897 338.111 787.262 338.014 787.582 337.822C787.905 337.63 788.157 337.366 788.34 337.03C788.526 336.691 788.619 336.308 788.619 335.881C788.619 335.444 788.522 335.054 788.33 334.712C788.141 334.366 787.88 334.094 787.548 333.895C787.215 333.696 786.835 333.595 786.408 333.592C786.102 333.589 785.787 333.636 785.464 333.734C785.142 333.828 784.876 333.951 784.667 334.101L783.533 333.964L784.139 329.034H789.342V330.11H785.156L784.804 333.064H784.863C785.068 332.901 785.326 332.766 785.636 332.658C785.945 332.55 786.268 332.497 786.604 332.497C787.217 332.497 787.763 332.643 788.242 332.937C788.725 333.227 789.103 333.625 789.377 334.13C789.654 334.635 789.792 335.212 789.792 335.861C789.792 336.5 789.649 337.071 789.362 337.573C789.078 338.072 788.687 338.466 788.188 338.756C787.689 339.043 787.122 339.186 786.486 339.186Z" fill="#615E83"/>
<path d="M821.109 329.034H822.556L825.96 337.348H826.077L829.481 329.034H830.928V339.05H829.794V331.44H829.696L826.566 339.05H825.471L822.341 331.44H822.243V339.05H821.109V329.034ZM834.597 339.05H833.326L837.003 329.034H838.255L841.932 339.05H840.661L837.668 330.619H837.59L834.597 339.05ZM835.067 335.137H840.191V336.213H835.067V335.137ZM842.436 329.034H843.825L846.602 333.709H846.72L849.497 329.034H850.886L847.267 334.922V339.05H846.055V334.922L842.436 329.034ZM861.325 329.034V339.05H860.112V330.306H860.054L857.609 331.929V330.697L860.112 329.034H861.325ZM868.357 339.186C867.946 339.18 867.535 339.102 867.125 338.952C866.714 338.802 866.339 338.549 866 338.194C865.661 337.835 865.389 337.351 865.183 336.741C864.978 336.128 864.875 335.359 864.875 334.433C864.875 333.546 864.958 332.761 865.125 332.076C865.291 331.388 865.532 330.81 865.848 330.34C866.165 329.867 866.546 329.509 866.993 329.264C867.443 329.02 867.95 328.897 868.514 328.897C869.074 328.897 869.573 329.01 870.01 329.235C870.45 329.457 870.809 329.766 871.086 330.164C871.363 330.562 871.542 331.02 871.624 331.538H870.431C870.32 331.088 870.104 330.715 869.785 330.418C869.466 330.122 869.042 329.973 868.514 329.973C867.738 329.973 867.126 330.311 866.68 330.986C866.236 331.66 866.013 332.608 866.01 333.827H866.088C866.271 333.55 866.487 333.313 866.738 333.118C866.993 332.919 867.273 332.766 867.58 332.658C867.886 332.55 868.21 332.497 868.553 332.497C869.126 332.497 869.651 332.64 870.127 332.927C870.603 333.211 870.985 333.603 871.272 334.106C871.559 334.604 871.702 335.177 871.702 335.822C871.702 336.441 871.563 337.009 871.286 337.524C871.009 338.036 870.62 338.443 870.118 338.746C869.619 339.046 869.032 339.193 868.357 339.186ZM868.357 338.111C868.768 338.111 869.136 338.008 869.462 337.803C869.792 337.597 870.051 337.322 870.24 336.976C870.432 336.631 870.528 336.246 870.528 335.822C870.528 335.408 870.435 335.031 870.25 334.692C870.067 334.35 869.814 334.078 869.492 333.876C869.172 333.674 868.807 333.573 868.396 333.573C868.086 333.573 867.798 333.634 867.531 333.758C867.263 333.879 867.029 334.045 866.826 334.257C866.628 334.469 866.471 334.712 866.357 334.986C866.243 335.256 866.186 335.542 866.186 335.842C866.186 336.239 866.279 336.611 866.465 336.957C866.654 337.302 866.911 337.581 867.237 337.793C867.566 338.005 867.94 338.111 868.357 338.111Z" fill="#615E83"/>
<path d="M901.237 329.034H902.684L906.088 337.348H906.205L909.609 329.034H911.056V339.05H909.922V331.44H909.824L906.694 339.05H905.599L902.469 331.44H902.371V339.05H901.237V329.034ZM914.725 339.05H913.454L917.131 329.034H918.383L922.06 339.05H920.789L917.796 330.619H917.718L914.725 339.05ZM915.195 335.137H920.32V336.213H915.195V335.137ZM922.564 329.034H923.953L926.73 333.709H926.848L929.625 329.034H931.014L927.395 334.922V339.05H926.183V334.922L922.564 329.034ZM941.453 329.034V339.05H940.24V330.306H940.182L937.737 331.929V330.697L940.24 329.034H941.453ZM945.473 339.05L949.952 330.189V330.11H944.788V329.034H951.204V330.169L946.744 339.05H945.473Z" fill="#615E83"/>
<path d="M16.9345 301.861C16.0925 301.861 15.3752 301.632 14.7828 301.173C14.1904 300.711 13.7377 300.042 13.4247 299.167C13.1118 298.288 12.9553 297.226 12.9553 295.981C12.9553 294.744 13.1118 293.688 13.4247 292.812C13.7414 291.933 14.196 291.262 14.7884 290.8C15.3845 290.335 16.0999 290.102 16.9345 290.102C17.7691 290.102 18.4826 290.335 19.075 290.8C19.6712 291.262 20.1257 291.933 20.4387 292.812C20.7554 293.688 20.9137 294.744 20.9137 295.981C20.9137 297.226 20.7573 298.288 20.4443 299.167C20.1313 300.042 19.6786 300.711 19.0862 301.173C18.4938 301.632 17.7766 301.861 16.9345 301.861ZM16.9345 300.631C17.7691 300.631 18.4174 300.229 18.8794 299.424C19.3414 298.619 19.5724 297.472 19.5724 295.981C19.5724 294.99 19.4662 294.146 19.2539 293.45C19.0452 292.753 18.7434 292.222 18.3485 291.857C17.9573 291.492 17.4859 291.309 16.9345 291.309C16.1074 291.309 15.4609 291.717 14.9952 292.533C14.5295 293.345 14.2966 294.495 14.2966 295.981C14.2966 296.972 14.4009 297.814 14.6096 298.507C14.8182 299.2 15.1181 299.728 15.5094 300.089C15.9043 300.45 16.3794 300.631 16.9345 300.631Z" fill="#615E83"/>
<path d="M7.2104 243.997V255.443H5.82438V245.451H5.75731L2.96291 247.306V245.898L5.82438 243.997H7.2104ZM10.7034 255.443V243.997H12.0894V249.094H18.1924V243.997H19.5784V255.443H18.1924V250.324H12.0894V255.443H10.7034Z" fill="#615E83"/>
<path d="M2.00604 205.248V204.242L5.78407 200.106C6.22745 199.622 6.59259 199.201 6.87948 198.843C7.16637 198.482 7.37875 198.143 7.5166 197.826C7.65819 197.505 7.72898 197.17 7.72898 196.82C7.72898 196.417 7.6321 196.069 7.43836 195.775C7.24834 195.48 6.98753 195.253 6.65593 195.093C6.32432 194.933 5.95174 194.853 5.53816 194.853C5.09851 194.853 4.71475 194.944 4.38687 195.126C4.06272 195.305 3.81122 195.557 3.63238 195.881C3.45726 196.205 3.36971 196.585 3.36971 197.021H2.05075C2.05075 196.35 2.20537 195.762 2.51462 195.255C2.82387 194.748 3.24489 194.353 3.77769 194.07C4.31421 193.787 4.91594 193.645 5.58287 193.645C6.25353 193.645 6.84781 193.787 7.3657 194.07C7.8836 194.353 8.28972 194.735 8.58406 195.216C8.87841 195.697 9.02558 196.231 9.02558 196.82C9.02558 197.241 8.9492 197.653 8.79644 198.055C8.64741 198.454 8.38659 198.899 8.01401 199.391C7.64514 199.879 7.13284 200.475 6.47708 201.179L3.90623 203.929V204.018H9.22678V205.248H2.00604ZM11.7362 205.248V193.802H13.1222V198.899H19.2252V193.802H20.6112V205.248H19.2252V200.128H13.1222V205.248H11.7362Z" fill="#615E83"/>
<path d="M5.38168 156.543C4.64395 156.543 3.98634 156.417 3.40883 156.163C2.83504 155.91 2.37862 155.558 2.03957 155.107C1.70424 154.653 1.52167 154.125 1.49186 153.525H2.90024C2.93005 153.894 3.05673 154.213 3.28028 154.481C3.50384 154.746 3.79632 154.951 4.15773 155.096C4.51914 155.241 4.91967 155.314 5.35932 155.314C5.85114 155.314 6.28706 155.228 6.6671 155.057C7.04714 154.885 7.34521 154.647 7.56131 154.341C7.77741 154.036 7.88546 153.682 7.88546 153.28C7.88546 152.859 7.78114 152.488 7.57249 152.167C7.36384 151.843 7.05832 151.59 6.65592 151.407C6.25353 151.225 5.76171 151.133 5.18048 151.133H4.26391V149.904H5.18048C5.63503 149.904 6.0337 149.822 6.37648 149.658C6.72299 149.494 6.99312 149.263 7.18686 148.965C7.38433 148.667 7.48307 148.317 7.48307 147.914C7.48307 147.527 7.39737 147.19 7.22598 146.903C7.05459 146.616 6.81241 146.392 6.49944 146.232C6.19019 146.072 5.82505 145.992 5.40403 145.992C5.00909 145.992 4.6365 146.064 4.28627 146.21C3.93976 146.351 3.6566 146.558 3.43677 146.83C3.21694 147.098 3.09772 147.423 3.07909 147.803H1.73777C1.76013 147.203 1.94083 146.677 2.27989 146.227C2.61894 145.772 3.06232 145.418 3.61002 145.165C4.16145 144.911 4.76691 144.785 5.42639 144.785C6.1343 144.785 6.74162 144.928 7.24834 145.215C7.75506 145.498 8.14441 145.873 8.4164 146.338C8.68839 146.804 8.82438 147.307 8.82438 147.847C8.82438 148.492 8.65485 149.041 8.3158 149.496C7.98047 149.951 7.52405 150.265 6.94654 150.44V150.53C7.66936 150.649 8.23383 150.957 8.63995 151.452C9.04607 151.944 9.24913 152.553 9.24913 153.28C9.24913 153.902 9.0796 154.461 8.74055 154.956C8.40522 155.448 7.94694 155.836 7.3657 156.119C6.78447 156.402 6.12312 156.543 5.38168 156.543ZM11.7362 156.387V144.941H13.1222V150.038H19.2252V144.941H20.6112V156.387H19.2252V151.268H13.1222V156.387H11.7362Z" fill="#615E83"/>
<path d="M5.53677 106.348C4.88101 106.348 4.29046 106.217 3.76511 105.957C3.23977 105.696 2.81874 105.338 2.50204 104.884C2.18534 104.429 2.01209 103.911 1.98228 103.33H3.3236C3.37576 103.848 3.61049 104.276 4.02779 104.615C4.44881 104.951 4.9518 105.118 5.53677 105.118C6.00623 105.118 6.42352 105.008 6.78866 104.789C7.15752 104.569 7.44628 104.267 7.65493 103.883C7.8673 103.496 7.97349 103.058 7.97349 102.57C7.97349 102.071 7.86357 101.625 7.64375 101.234C7.42765 100.839 7.12958 100.528 6.74954 100.301C6.3695 100.074 5.93543 99.958 5.44735 99.9543C5.09711 99.9506 4.73757 100.005 4.36871 100.116C3.99984 100.224 3.69619 100.364 3.45773 100.536L2.16113 100.379L2.85414 94.7455H8.80063V95.9751H4.01661L3.61422 99.3507H3.68128C3.91601 99.1644 4.21036 99.0098 4.56431 98.8868C4.91827 98.7639 5.28713 98.7024 5.6709 98.7024C6.37136 98.7024 6.99545 98.8701 7.54315 99.2054C8.09458 99.537 8.52678 99.9916 8.83975 100.569C9.15645 101.147 9.3148 101.806 9.3148 102.548C9.3148 103.278 9.15086 103.93 8.82299 104.504C8.49883 105.074 8.05173 105.524 7.48167 105.856C6.91161 106.184 6.26331 106.348 5.53677 106.348ZM11.7362 106.191V94.7455H13.1222V99.8425H19.2252V94.7455H20.6112V106.191H19.2252V101.072H13.1222V106.191H11.7362Z" fill="#615E83"/>
<path d="M9.62638 49.1498V60.5957H8.24035V50.6029H8.17329L5.37888 52.4584V51.05L8.24035 49.1498H9.62638ZM13.1194 60.5957V49.1498H14.5054V54.8281H14.6395L19.7812 49.1498H21.592L16.7856 54.3139L21.592 60.5957H19.9154L15.9361 55.2752L14.5054 56.8847V60.5957H13.1194Z" fill="#615E83"/>
<path d="M3.38926 15V13.994L7.1673 9.8583C7.61068 9.37393 7.97581 8.95291 8.26271 8.59522C8.5496 8.23381 8.76197 7.89476 8.89983 7.57806C9.04141 7.25764 9.11221 6.92231 9.11221 6.57208C9.11221 6.16968 9.01533 5.82131 8.82159 5.52697C8.63157 5.23262 8.37076 5.00535 8.03915 4.84513C7.70755 4.68492 7.33496 4.60481 6.92139 4.60481C6.48174 4.60481 6.09797 4.6961 5.7701 4.87867C5.44595 5.05751 5.19445 5.309 5.01561 5.63316C4.84049 5.95731 4.75293 6.33735 4.75293 6.77327H3.43398C3.43398 6.10262 3.5886 5.51393 3.89785 5.00721C4.20709 4.50049 4.62812 4.10555 5.16092 3.82238C5.69744 3.53921 6.29917 3.39763 6.9661 3.39763C7.63676 3.39763 8.23104 3.53921 8.74893 3.82238C9.26683 4.10555 9.67295 4.48745 9.96729 4.96809C10.2616 5.44873 10.4088 5.98339 10.4088 6.57208C10.4088 6.9931 10.3324 7.40481 10.1797 7.8072C10.0306 8.20587 9.76982 8.65111 9.39723 9.14293C9.02837 9.63102 8.51607 10.2272 7.86031 10.9313L5.28946 13.681V13.7705H10.61V15H3.38926ZM13.1194 15V3.55412H14.5054V9.23235H14.6395L19.7812 3.55412H21.592L16.7856 8.71818L21.592 15H19.9154L15.9361 9.67945L14.5054 11.289V15H13.1194Z" fill="#615E83"/>
<line x1="35.3915" y1="301.705" x2="959.262" y2="301.705" stroke="#E5E5EF" stroke-width="1.47545" stroke-linecap="round"/>
<line x1="35.3915" y1="255.235" x2="959.262" y2="255.235" stroke="#E5E5EF" stroke-width="1.47545" stroke-linecap="round" stroke-dasharray="3.93 6.89"/>
<line x1="35.3913" y1="208.762" x2="959.262" y2="208.762" stroke="#E5E5EF" stroke-width="1.47545" stroke-linecap="round" stroke-dasharray="3.93 6.89"/>
<line x1="35.3915" y1="162.289" x2="959.262" y2="162.289" stroke="#E5E5EF" stroke-width="1.47545" stroke-linecap="round" stroke-dasharray="3.93 6.89"/>
<line x1="35.3915" y1="116.7" x2="959.262" y2="116.7" stroke="#E5E5EF" stroke-width="1.47545" stroke-linecap="round" stroke-dasharray="3.93 6.89"/>
<line x1="35.3915" y1="69.3426" x2="959.262" y2="69.3426" stroke="#E5E5EF" stroke-width="1.47545" stroke-linecap="round" stroke-dasharray="3.93 6.89"/>
<rect x="921.582" width="9.81391" height="163.039" rx="2.95089" fill="#E5E5EF"/>
<rect x="921.582" y="168.77" width="9.81391" height="132.204" rx="2.95089" fill="#36AAD9"/>
<rect x="840.8" width="9.81391" height="202.561" rx="2.95089" fill="#E5E5EF"/>
<rect x="840.8" y="208.292" width="9.81391" height="92.6823" rx="2.95089" fill="#36AAD9"/>
<rect x="760.017" width="9.81391" height="265.286" rx="2.95089" fill="#E5E5EF"/>
<rect x="760.017" y="271.016" width="9.81391" height="29.9573" rx="2.95089" fill="#36AAD9"/>
<rect x="679.235" width="9.81391" height="202.561" rx="2.95089" fill="#E5E5EF"/>
<rect x="679.235" y="208.292" width="9.81391" height="92.6823" rx="2.95089" fill="#36AAD9"/>
<rect x="598.452" width="9.81391" height="257.881" rx="2.95089" fill="#E5E5EF"/>
<rect x="598.452" y="263.612" width="9.81391" height="37.3619" rx="2.95089" fill="#36AAD9"/>
<rect x="517.669" width="9.81391" height="228.242" rx="2.95089" fill="#E5E5EF"/>
<rect x="517.669" y="233.973" width="9.81391" height="67.001" rx="2.95089" fill="#36AAD9"/>
<rect x="436.887" width="9.81391" height="163.039" rx="2.95089" fill="#E5E5EF"/>
<rect x="436.887" y="168.769" width="9.81391" height="132.204" rx="2.95089" fill="#36AAD9"/>
<rect x="356.104" width="9.81391" height="207.848" rx="2.95089" fill="#E5E5EF"/>
<rect x="356.104" y="213.578" width="9.81391" height="87.3949" rx="2.95089" fill="#36AAD9"/>
<rect x="275.321" width="9.81391" height="265.286" rx="2.95089" fill="#E5E5EF"/>
<rect x="275.321" y="271.016" width="9.81391" height="29.9573" rx="2.95089" fill="#36AAD9"/>
<rect x="194.538" width="9.81391" height="163.039" rx="2.95089" fill="#E5E5EF"/>
<rect x="194.538" y="168.769" width="9.81391" height="132.204" rx="2.95089" fill="#36AAD9"/>
<rect x="113.756" width="9.81391" height="202.561" rx="2.95089" fill="#E5E5EF"/>
<rect x="113.756" y="208.292" width="9.81391" height="92.6823" rx="2.95089" fill="#36AAD9"/>
<rect x="34.6537" width="9.81391" height="265.286" rx="2.95089" fill="#E5E5EF"/>
<rect x="34.6537" y="271.016" width="9.81391" height="29.9573" rx="2.95089" fill="#36AAD9"/>
</svg>
