<svg width="20" height="20" viewBox="0 0 20 20" fill="none" xmlns="http://www.w3.org/2000/svg">
<path fill-rule="evenodd" clip-rule="evenodd" d="M1.875 4.375C1.875 4.375 1.875 3.85723 2.24112 3.49112C2.24112 3.49112 2.60723 3.125 3.125 3.125H16.875C16.875 3.125 17.3928 3.125 17.7589 3.49112C17.7589 3.49112 18.125 3.85723 18.125 4.375V15.625C18.125 15.625 18.125 16.1428 17.7589 16.5089C17.7589 16.5089 17.3928 16.875 16.875 16.875H3.125C3.125 16.875 2.60723 16.875 2.24112 16.5089C2.24112 16.5089 1.875 16.1428 1.875 15.625V4.375ZM3.125 4.375V15.625H16.875V4.375H3.125Z" fill="#667185"/>
<path d="M5.9375 8.125H14.0625C14.4077 8.125 14.6875 7.84518 14.6875 7.5C14.6875 7.15482 14.4077 6.875 14.0625 6.875H5.9375C5.59232 6.875 5.3125 7.15482 5.3125 7.5C5.3125 7.84518 5.59232 8.125 5.9375 8.125Z" fill="#667185"/>
<path d="M5.9375 10.625H14.0625C14.4077 10.625 14.6875 10.3452 14.6875 10C14.6875 9.65482 14.4077 9.375 14.0625 9.375H5.9375C5.59232 9.375 5.3125 9.65482 5.3125 10C5.3125 10.3452 5.59232 10.625 5.9375 10.625Z" fill="#667185"/>
<path d="M5.9375 13.125H14.0625C14.4077 13.125 14.6875 12.8452 14.6875 12.5C14.6875 12.1548 14.4077 11.875 14.0625 11.875H5.9375C5.59232 11.875 5.3125 12.1548 5.3125 12.5C5.3125 12.8452 5.59232 13.125 5.9375 13.125Z" fill="#667185"/>
</svg>
