<svg width="24" height="25" viewBox="0 0 24 25" fill="none" xmlns="http://www.w3.org/2000/svg">
<path fill-rule="evenodd" clip-rule="evenodd" d="M12 21.5469C16.9706 21.5469 21 17.5174 21 12.5469C21 7.57631 16.9706 3.54688 12 3.54688C7.02944 3.54688 3 7.57631 3 12.5469C3 17.5174 7.02944 21.5469 12 21.5469ZM15.6754 11.2843C16.0827 10.9113 16.1105 10.2788 15.7375 9.87147C15.3644 9.46419 14.7319 9.43641 14.3246 9.80942L10.6325 13.1909L9.6754 12.3143C9.26812 11.9412 8.63557 11.969 8.26255 12.3763C7.88954 12.7836 7.91732 13.4161 8.3246 13.7892L9.95712 15.2843C10.3393 15.6344 10.9257 15.6344 11.3079 15.2843L15.6754 11.2843Z" fill="#50B848"/>
</svg>
