<svg width="20" height="20" viewBox="0 0 20 20" fill="none" xmlns="http://www.w3.org/2000/svg">
<g clip-path="url(#clip0_289_3517)">
<path d="M12.4235 1.61353C16.7959 1.61353 20.3402 5.15782 20.3402 9.53019C20.3402 13.9026 16.7959 17.4469 12.4235 17.4469C8.05113 17.4469 4.50684 13.9026 4.50684 9.53019C4.50684 5.15782 8.05113 1.61353 12.4235 1.61353ZM12.4235 3.19686C10.7438 3.19686 9.13289 3.86412 7.94516 5.05185C6.75743 6.23958 6.09017 7.85049 6.09017 9.53019C6.09017 11.2099 6.75743 12.8208 7.94516 14.0085C9.13289 15.1963 10.7438 15.8635 12.4235 15.8635C14.1032 15.8635 15.7141 15.1963 16.9018 14.0085C18.0896 12.8208 18.7568 11.2099 18.7568 9.53019C18.7568 7.85049 18.0896 6.23958 16.9018 5.05185C15.7141 3.86412 14.1032 3.19686 12.4235 3.19686ZM12.4235 4.78019C12.6174 4.78022 12.8046 4.85141 12.9495 4.98026C13.0944 5.10911 13.1869 5.28666 13.2096 5.47923L13.2152 5.57186V9.20244L15.3582 11.3455C15.5002 11.488 15.5826 11.6791 15.5888 11.8802C15.5949 12.0812 15.5243 12.277 15.3913 12.4279C15.2582 12.5788 15.0728 12.6734 14.8725 12.6924C14.6723 12.7115 14.4723 12.6536 14.3132 12.5306L14.2388 12.4649L11.8638 10.0899C11.7408 9.96675 11.6617 9.80649 11.639 9.6339L11.6318 9.53019V5.57186C11.6318 5.3619 11.7152 5.16053 11.8637 5.01207C12.0122 4.8636 12.2135 4.78019 12.4235 4.78019Z" fill="black" fill-opacity="0.5"/>
</g>
<defs>
<clipPath id="clip0_289_3517">
<rect width="19" height="19" fill="white" transform="translate(0.923584 0.0302734)"/>
</clipPath>
</defs>
</svg>
