<svg width="22" height="22" viewBox="0 0 22 22" fill="none" xmlns="http://www.w3.org/2000/svg">
<path fill-rule="evenodd" clip-rule="evenodd" d="M11 6.0501C9.39544 6.0501 7.8566 6.68751 6.722 7.8221C5.58741 8.9567 4.95 10.4955 4.95 12.1001C4.95 13.7047 5.58741 15.2435 6.722 16.3781C7.8566 17.5127 9.39544 18.1501 11 18.1501C12.6046 18.1501 14.1434 17.5127 15.278 16.3781C16.4126 15.2435 17.05 13.7047 17.05 12.1001C17.05 10.4955 16.4126 8.9567 15.278 7.8221C14.1434 6.68751 12.6046 6.0501 11 6.0501ZM2.75 12.1001C2.75 9.91206 3.61919 7.81364 5.16637 6.26647C6.71354 4.71929 8.81196 3.8501 11 3.8501C13.188 3.8501 15.2865 4.71929 16.8336 6.26647C18.3808 7.81364 19.25 9.91206 19.25 12.1001C19.25 14.2881 18.3808 16.3866 16.8336 17.9337C15.2865 19.4809 13.188 20.3501 11 20.3501C8.81196 20.3501 6.71354 19.4809 5.16637 17.9337C3.61919 16.3866 2.75 14.2881 2.75 12.1001Z" fill="#36AAD9"/>
<path fill-rule="evenodd" clip-rule="evenodd" d="M3.07206 20.0277C3.27835 20.2339 3.55808 20.3497 3.84976 20.3497C4.14145 20.3497 4.42118 20.2339 4.62746 20.0277L6.27746 18.3777C6.38253 18.2762 6.46633 18.1548 6.52398 18.0206C6.58163 17.8864 6.61197 17.742 6.61324 17.596C6.61451 17.4499 6.58668 17.3051 6.53137 17.1699C6.47606 17.0347 6.39438 16.9119 6.2911 16.8086C6.18782 16.7053 6.065 16.6237 5.92981 16.5683C5.79463 16.513 5.64978 16.4852 5.50372 16.4865C5.35767 16.4877 5.21332 16.5181 5.07912 16.5757C4.94492 16.6334 4.82354 16.7172 4.72207 16.8223L3.07206 18.4723C2.86585 18.6785 2.75 18.9583 2.75 19.25C2.75 19.5416 2.86585 19.8214 3.07206 20.0277ZM15.7221 16.8223C15.9283 16.616 16.2081 16.5002 16.4998 16.5002C16.7914 16.5002 17.0712 16.616 17.2775 16.8223L18.9275 18.4723C19.1278 18.6797 19.2387 18.9576 19.2362 19.246C19.2337 19.5344 19.118 19.8103 18.9141 20.0143C18.7101 20.2182 18.4342 20.3339 18.1458 20.3364C17.8574 20.3389 17.5795 20.228 17.3721 20.0277L15.7221 18.3777C15.5158 18.1714 15.4 17.8916 15.4 17.6C15.4 17.3083 15.5158 17.0285 15.7221 16.8223ZM10.9998 7.69995C11.2915 7.69995 11.5713 7.81584 11.7776 8.02213C11.9839 8.22842 12.0998 8.50821 12.0998 8.79995V12.1C12.0998 12.3917 11.9839 12.6715 11.7776 12.8778C11.5713 13.0841 11.2915 13.2 10.9998 13.2C10.708 13.2 10.4282 13.0841 10.2219 12.8778C10.0157 12.6715 9.89976 12.3917 9.89976 12.1V8.79995C9.89976 8.50821 10.0157 8.22842 10.2219 8.02213C10.4282 7.81584 10.708 7.69995 10.9998 7.69995Z" fill="#36AAD9"/>
<path fill-rule="evenodd" clip-rule="evenodd" d="M15.3998 12.1C15.3998 12.3917 15.2839 12.6715 15.0776 12.8778C14.8713 13.0841 14.5915 13.2 14.2998 13.2H10.9998C10.708 13.2 10.4282 13.0841 10.2219 12.8778C10.0157 12.6715 9.89977 12.3917 9.89977 12.1C9.89977 11.8082 10.0157 11.5285 10.2219 11.3222C10.4282 11.1159 10.708 11 10.9998 11H14.2998C14.5915 11 14.8713 11.1159 15.0776 11.3222C15.2839 11.5285 15.3998 11.8082 15.3998 12.1ZM6.96496 3.48918L2.83117 7.43598C2.83117 7.43598 2.74647 7.35898 2.62217 7.21818C2.33947 6.89698 1.85547 6.24908 1.71907 5.45708C1.59477 4.73768 1.75757 3.89838 2.61887 3.07558C3.48017 2.25388 4.32497 2.12958 5.03887 2.28688C5.82316 2.45958 6.44797 2.97328 6.75597 3.27028C6.89127 3.40008 6.96496 3.48918 6.96496 3.48918ZM15.0346 3.48918L19.1684 7.43598C19.1684 7.43598 19.2531 7.35898 19.3774 7.21818C19.6601 6.89698 20.1441 6.24908 20.2805 5.45708C20.4048 4.73768 20.242 3.89838 19.3807 3.07558C18.5194 2.25388 17.6746 2.12958 16.9607 2.28688C16.1764 2.45958 15.5516 2.97328 15.2436 3.27028C15.1083 3.40008 15.0346 3.48918 15.0346 3.48918Z" fill="#36AAD9"/>
</svg>
