<svg width="24" height="24" viewBox="0 0 24 24" fill="none" xmlns="http://www.w3.org/2000/svg">
<g clip-path="url(#clip0_145_10141)">
<path d="M7.52529 6.03383C7.11341 5.62195 6.44561 5.62195 6.03373 6.03383C5.62185 6.44571 5.62185 7.1135 6.03373 7.52539L10.5084 12L6.03378 16.4747C5.62189 16.8865 5.62189 17.5543 6.03378 17.9662C6.44566 18.3781 7.11345 18.3781 7.52533 17.9662L11.9999 13.4916L16.4746 17.9663C16.8865 18.3781 17.5543 18.3781 17.9662 17.9663C18.378 17.5544 18.378 16.8866 17.9662 16.4747L13.4915 12L17.9662 7.52534C18.3781 7.11346 18.3781 6.44566 17.9662 6.03378C17.5543 5.6219 16.8865 5.6219 16.4746 6.03378L11.9999 10.5085L7.52529 6.03383Z" fill="#464F60"/>
</g>
<defs>
<clipPath id="clip0_145_10141">
<rect width="22.5" height="22.5" fill="white" transform="translate(0.75 0.75)"/>
</clipPath>
</defs>
</svg>
