<svg width="13" height="14" viewBox="0 0 13 14" fill="none" xmlns="http://www.w3.org/2000/svg">
<path d="M12 2.5H1C0.723858 2.5 0.5 2.72386 0.5 3C0.5 3.27614 0.723858 3.5 1 3.5H12C12.2761 3.5 12.5 3.27614 12.5 3C12.5 2.72386 12.2761 2.5 12 2.5Z" fill="#454545"/>
<path d="M4.5 6V10C4.5 10.2761 4.72386 10.5 5 10.5C5.27614 10.5 5.5 10.2761 5.5 10V6C5.5 5.72386 5.27614 5.5 5 5.5C4.72386 5.5 4.5 5.72386 4.5 6Z" fill="#454545"/>
<path d="M7.5 6V10C7.5 10.2761 7.72386 10.5 8 10.5C8.27614 10.5 8.5 10.2761 8.5 10V6C8.5 5.72386 8.27614 5.5 8 5.5C7.72386 5.5 7.5 5.72386 7.5 6Z" fill="#454545"/>
<path d="M2.5 12.5V3C2.5 2.72386 2.27614 2.5 2 2.5C1.72386 2.5 1.5 2.72386 1.5 3V12.5C1.5 12.9142 1.79289 13.2071 1.79289 13.2071C2.08579 13.5 2.5 13.5 2.5 13.5H10.5C10.9142 13.5 11.2071 13.2071 11.2071 13.2071C11.5 12.9142 11.5 12.5 11.5 12.5V3C11.5 2.72386 11.2761 2.5 11 2.5C10.7239 2.5 10.5 2.72386 10.5 3V12.5H2.5Z" fill="#454545"/>
<path d="M3.93934 0.93934C3.5 1.37868 3.5 2 3.5 2V3C3.5 3.27614 3.72386 3.5 4 3.5C4.27614 3.5 4.5 3.27614 4.5 3V2C4.5 1.79289 4.64645 1.64645 4.64645 1.64645C4.79289 1.5 5 1.5 5 1.5H8C8.20711 1.5 8.35355 1.64645 8.35355 1.64645C8.5 1.79289 8.5 2 8.5 2V3C8.5 3.27614 8.72386 3.5 9 3.5C9.27614 3.5 9.5 3.27614 9.5 3V2C9.5 1.37868 9.06066 0.93934 9.06066 0.93934C8.62132 0.5 8 0.5 8 0.5H5C4.37868 0.5 3.93934 0.93934 3.93934 0.93934Z" fill="#454545"/>
</svg>
