<svg width="22" height="22" viewBox="0 0 22 22" fill="none" xmlns="http://www.w3.org/2000/svg">
<path d="M2.40625 4.125C2.13275 4.125 1.87044 4.23365 1.67705 4.42705C1.48365 4.62044 1.375 4.88275 1.375 5.15625C1.375 5.42975 1.48365 5.69206 1.67705 5.88545C1.87044 6.07885 2.13275 6.1875 2.40625 6.1875H19.5938C19.8673 6.1875 20.1296 6.07885 20.323 5.88545C20.5163 5.69206 20.625 5.42975 20.625 5.15625C20.625 4.88275 20.5163 4.62044 20.323 4.42705C20.1296 4.23365 19.8673 4.125 19.5938 4.125H2.40625ZM2.40625 8.25C2.13275 8.25 1.87044 8.35865 1.67705 8.55205C1.48365 8.74544 1.375 9.00775 1.375 9.28125C1.375 9.55475 1.48365 9.81706 1.67705 10.0105C1.87044 10.2039 2.13275 10.3125 2.40625 10.3125H19.5938C19.8673 10.3125 20.1296 10.2039 20.323 10.0105C20.5163 9.81706 20.625 9.55475 20.625 9.28125C20.625 9.00775 20.5163 8.74544 20.323 8.55205C20.1296 8.35865 19.8673 8.25 19.5938 8.25H2.40625ZM1.375 13.4062C1.375 13.1327 1.48365 12.8704 1.67705 12.677C1.87044 12.4837 2.13275 12.375 2.40625 12.375H19.5938C19.8673 12.375 20.1296 12.4837 20.323 12.677C20.5163 12.8704 20.625 13.1327 20.625 13.4062C20.625 13.6798 20.5163 13.9421 20.323 14.1355C20.1296 14.3288 19.8673 14.4375 19.5938 14.4375H2.40625C2.13275 14.4375 1.87044 14.3288 1.67705 14.1355C1.48365 13.9421 1.375 13.6798 1.375 13.4062ZM2.40625 16.5C2.13275 16.5 1.87044 16.6087 1.67705 16.802C1.48365 16.9954 1.375 17.2577 1.375 17.5312C1.375 17.8048 1.48365 18.0671 1.67705 18.2605C1.87044 18.4538 2.13275 18.5625 2.40625 18.5625H14.0938C14.3673 18.5625 14.6296 18.4538 14.823 18.2605C15.0163 18.0671 15.125 17.8048 15.125 17.5312C15.125 17.2577 15.0163 16.9954 14.823 16.802C14.6296 16.6087 14.3673 16.5 14.0938 16.5H2.40625Z" fill="#667085" fill-opacity="0.7"/>
</svg>
