<svg width="21" height="21" viewBox="0 0 21 21" fill="none" xmlns="http://www.w3.org/2000/svg">
<g clip-path="url(#clip0_617_1239)">
<path d="M5.65354 5.96118C7.06926 5.04118 8.71211 4.35547 10.4678 4.35547C14.4535 4.35547 17.8678 7.89118 19.3678 9.7069C19.605 10.0026 19.7364 10.3869 19.7364 10.784C19.7364 11.1826 19.605 11.5655 19.3678 11.8612C18.5407 12.8612 17.1321 14.3855 15.3678 15.5512M12.6107 16.884C11.9221 17.0926 11.205 17.2126 10.4678 17.2126C6.48211 17.2126 3.06783 13.6769 1.56783 11.8612C1.32666 11.5542 1.19673 11.1744 1.19925 10.784C1.19925 10.3869 1.33068 10.0026 1.56783 9.7069C2.04354 9.13261 2.71068 8.38404 3.52783 7.62975" stroke="#667085" stroke-width="1.42857" stroke-linecap="round" stroke-linejoin="round"/>
<path d="M12.4878 12.8038C13.0083 12.2649 13.2963 11.5432 13.2898 10.794C13.2833 10.0449 12.9828 9.3283 12.453 8.79857C11.9233 8.26883 11.2067 7.96835 10.4576 7.96184C9.70843 7.95533 8.98671 8.24331 8.44784 8.76376M19.7536 20.0695L1.18213 1.49805" stroke="#667085" stroke-width="1.42857" stroke-linecap="round" stroke-linejoin="round"/>
</g>
<defs>
<clipPath id="clip0_617_1239">
<rect width="20" height="20" fill="white" transform="translate(0.467896 0.78418)"/>
</clipPath>
</defs>
</svg>
