<svg width="18" height="15" viewBox="0 0 18 15" fill="none" xmlns="http://www.w3.org/2000/svg">
<path d="M3.77275 5.14828C3.66726 5.06647 3.52418 5.02051 3.375 5.02051C3.22582 5.02051 3.08274 5.06647 2.97725 5.14828C2.87176 5.23008 2.8125 5.34104 2.8125 5.45673C2.8125 5.57243 2.87176 5.68338 2.97725 5.76519L8.60225 10.1274C8.82192 10.2978 9.17808 10.2978 9.39775 10.1274L15.0227 5.76519C15.1282 5.68338 15.1875 5.57243 15.1875 5.45673C15.1875 5.34104 15.1282 5.23008 15.0227 5.14828C14.9173 5.06647 14.7742 5.02051 14.625 5.02051C14.4758 5.02051 14.3327 5.06647 14.2273 5.14828L9 9.20206L3.77275 5.14828Z" fill="#667085"/>
</svg>
