<svg width="17" height="17" viewBox="0 0 17 17" fill="none" xmlns="http://www.w3.org/2000/svg">
<path fill-rule="evenodd" clip-rule="evenodd" d="M14.4962 6.71081L6.85355 14.3535C6.75979 14.4473 6.63261 14.4999 6.5 14.4999H3.5C3.5 14.4999 3.08579 14.4999 2.79289 14.2071C2.79289 14.2071 2.5 13.9142 2.5 13.4999L2.5 10.7062C2.5 10.7062 2.49931 10.51 2.57451 10.3269C2.57451 10.3269 2.64971 10.1438 2.78932 10.0035L10.2902 2.50264C10.2902 2.50264 10.4285 2.36222 10.6138 2.28462C10.6138 2.28462 10.7991 2.20703 11 2.20703C11 2.20703 11.2009 2.20703 11.3862 2.28462C11.3862 2.28462 11.5715 2.36222 11.7125 2.50536L14.4973 5.29014C14.4973 5.29014 14.6377 5.42842 14.7153 5.61373C14.7153 5.61373 14.7929 5.79904 14.7929 5.99995C14.7929 5.99995 14.7929 6.20085 14.7153 6.38616C14.7153 6.38616 14.6385 6.56971 14.4973 6.70975L14.4962 6.71081ZM13.7929 5.99995L13.7902 5.99725L11 3.20703L10.9973 3.20975L3.5 10.707V13.4999H6.29289L13.7902 6.00264L13.7929 5.99995Z" fill="#454545"/>
<path d="M14 13.5H6.49999C6.22385 13.5 5.99999 13.7239 5.99999 14C5.99999 14.2761 6.22386 14.4999 6.5 14.4999L14 14.5C14.2761 14.5 14.5 14.2761 14.5 14C14.5 13.7239 14.2761 13.5 14 13.5Z" fill="#454545"/>
<path d="M12.1462 8.35329C12.24 8.44706 12.3674 8.5 12.5 8.5C12.6326 8.5 12.7598 8.44732 12.8535 8.35355C12.9473 8.25979 13 8.13261 13 8C13 7.86739 12.9473 7.74021 12.8535 7.64645L9.35361 4.14651C9.25978 4.05268 9.1326 4 8.99999 4C8.86739 4 8.74021 4.05268 8.64644 4.14645C8.55267 4.24021 8.49999 4.36739 8.49999 4.5C8.49999 4.63261 8.55267 4.75979 8.64644 4.85355L12.1462 8.35329Z" fill="#454545"/>
</svg>
