<svg width="23" height="22" viewBox="0 0 23 22" fill="none" xmlns="http://www.w3.org/2000/svg">
<path d="M17.9167 2.75008H17V0.916748H15.1667V2.75008H7.83333V0.916748H6V2.75008H5.08333C4.075 2.75008 3.25 3.57508 3.25 4.58341V17.4167C3.25 18.4251 4.075 19.2501 5.08333 19.2501H17.9167C18.925 19.2501 19.75 18.4251 19.75 17.4167V4.58341C19.75 3.57508 18.925 2.75008 17.9167 2.75008ZM17.9167 17.4167H5.08333V8.25008H17.9167V17.4167ZM5.08333 6.41675V4.58341H17.9167V6.41675H5.08333ZM6.91667 10.0834H16.0833V11.9167H6.91667V10.0834ZM6.91667 13.7501H13.3333V15.5834H6.91667V13.7501Z" fill="#36AAD9"/>
</svg>
