<svg width="300" height="290" viewBox="0 0 300 290" fill="none" xmlns="http://www.w3.org/2000/svg">
<path d="M275.901 152.095C276.963 137.649 266.101 125.212 251.647 124.354C237.242 123.498 224.736 134.471 223.677 148.868C222.272 167.989 214.096 186.721 199.176 201.25C167.117 232.467 116.265 232.087 85.592 200.588C54.9187 169.088 55.89 118.244 87.9486 87.0264C91.1949 83.8652 94.6197 81.0389 98.1827 78.5402C110.033 70.2295 113.108 53.9207 104.879 42.0732C96.6408 30.2121 80.3116 27.4822 68.4488 35.8015C62.5604 39.931 56.9348 44.5783 51.6373 49.7369C-1.17375 101.163 -2.94766 185.149 47.8623 237.328C98.6722 289.506 182.676 289.965 235.487 238.539C260.051 214.619 273.584 183.607 275.901 152.095Z" fill="#C893FD" stroke="#F7F9FB" stroke-width="8.88889" stroke-linecap="round" stroke-linejoin="round"/>
<path d="M100.222 77.5477C113.529 68.2657 129.683 62.8254 147.188 62.8254C164.693 62.8254 180.847 68.2657 194.154 77.5477C206.234 85.9733 222.856 83.0113 231.282 70.932C239.708 58.8526 236.746 42.2301 224.666 33.8044C202.699 18.4818 175.954 9.49208 147.188 9.49208C118.423 9.49208 91.6777 18.4818 69.7105 33.8044C57.6311 42.2301 54.6692 58.8526 63.0948 70.932C71.5204 83.0113 88.143 85.9733 100.222 77.5477Z" fill="#F0E5FC" stroke="#F7F9FB" stroke-width="8.88889" stroke-linecap="round" stroke-linejoin="round"/>
<path d="M250.786 54.4398C240.939 43.4881 224.078 42.5925 213.127 52.4395C202.175 62.2864 201.279 79.147 211.126 90.0988C224.236 104.68 232.182 123.903 232.182 145.047C232.182 190.457 195.37 227.268 149.96 227.268C135.233 227.268 123.294 239.208 123.294 253.935C123.294 268.663 135.233 280.602 149.96 280.602C224.825 280.602 285.515 219.912 285.515 145.047C285.515 110.234 272.357 78.431 250.786 54.4398Z" fill="#C6D2FD" stroke="#F7F9FB" stroke-width="8.88889" stroke-linecap="round" stroke-linejoin="round"/>
<path d="M147.738 253.454C157.74 253.454 167.427 252.106 176.627 249.581" stroke="#F7F9FB" stroke-width="62.2222" stroke-linecap="round" stroke-linejoin="round"/>
<path d="M85.5164 233.937C103.154 246.239 124.603 253.454 147.738 253.454C157.74 253.454 167.427 252.106 176.627 249.581" stroke="#C893FD" stroke-width="44.4444" stroke-linecap="round" stroke-linejoin="round"/>
</svg>
