<svg width="20" height="20" viewBox="0 0 20 20" fill="none" xmlns="http://www.w3.org/2000/svg">
<path fill-rule="evenodd" clip-rule="evenodd" d="M7.49999 1.66675C7.44511 1.66675 7.39037 1.67217 7.33656 1.68293L4.05519 2.3392C3.22676 2.50489 2.53805 3.07777 2.22429 3.86218L0.892923 7.19059C0.784912 7.46062 0.82549 7.76742 0.999987 8.00008L7.99999 17.3334C8.47212 17.9629 9.21309 18.3334 9.99999 18.3334C10.7869 18.3334 11.5279 17.9629 12 17.3334L19 8.00008C19.1745 7.76742 19.2151 7.46062 19.107 7.19059L17.7757 3.86218C17.4619 3.07777 16.7732 2.50489 15.9448 2.3392L12.6634 1.68293C12.6096 1.67217 12.5549 1.66675 12.5 1.66675H7.49999ZM16.358 8.74499L12.6442 13.6967L14.7487 9.06685L16.358 8.74499ZM17.1875 6.8794L14.7568 7.36555L13.6767 3.58526L15.6179 3.97351C15.8941 4.02873 16.1236 4.21969 16.2282 4.48116L17.1875 6.8794ZM6.93809 7.50008L8.12857 3.33341H11.8714L13.0619 7.50008H6.93809ZM9.99999 15.4862L7.12749 9.16675H12.8725L9.99999 15.4862ZM7.35581 13.6967L5.25132 9.06685L3.642 8.74499L7.35581 13.6967ZM3.77175 4.48116L2.81245 6.8794L5.24317 7.36555L6.32325 3.58526L4.38205 3.97351C4.10591 4.02873 3.87634 4.21969 3.77175 4.48116Z" fill="#454545" fill-opacity="0.7"/>
</svg>
