<svg width="20" height="20" viewBox="0 0 20 20" fill="none" xmlns="http://www.w3.org/2000/svg">
<g clip-path="url(#clip0_289_3417)">
<path d="M17.7292 1.65477H16.8346V0.163818H15.3437V1.65477H5.50349V0.163818H4.01256V1.65477H3.11799C1.88484 1.65477 0.881592 2.65802 0.881592 3.89119V17.0115C0.881592 18.2447 1.88484 19.2479 3.11799 19.2479H17.7292C18.9623 19.2479 19.9656 18.2447 19.9656 17.0115V3.89119C19.9656 2.65802 18.9623 1.65477 17.7292 1.65477ZM18.4746 17.0115C18.4746 17.4226 18.1402 17.757 17.7292 17.757H3.11799C2.70694 17.757 2.37253 17.4226 2.37253 17.0115V7.17127H18.4746V17.0115ZM18.4746 5.68032H2.37253V3.89119C2.37253 3.48013 2.70694 3.14571 3.11799 3.14571H4.01256V4.63666H5.50349V3.14571H15.3437V4.63666H16.8346V3.14571H17.7292C18.1402 3.14571 18.4746 3.48013 18.4746 3.89119V5.68032Z" fill="black" fill-opacity="0.5"/>
<path d="M5.20529 8.73682H3.71436V10.2278H5.20529V8.73682Z" fill="black" fill-opacity="0.5"/>
<path d="M8.18698 8.73657H6.69604V10.2275H8.18698V8.73657Z" fill="black" fill-opacity="0.5"/>
<path d="M11.1692 8.73682H9.67822V10.2278H11.1692V8.73682Z" fill="black" fill-opacity="0.5"/>
<path d="M14.1508 8.73682H12.6599V10.2278H14.1508V8.73682Z" fill="black" fill-opacity="0.5"/>
<path d="M17.1325 8.73682H15.6416V10.2278H17.1325V8.73682Z" fill="black" fill-opacity="0.5"/>
<path d="M5.20553 11.7185H3.7146V13.2095H5.20553V11.7185Z" fill="black" fill-opacity="0.5"/>
<path d="M8.18698 11.7185H6.69604V13.2095H8.18698V11.7185Z" fill="black" fill-opacity="0.5"/>
<path d="M11.1692 11.7185H9.67822V13.2095H11.1692V11.7185Z" fill="black" fill-opacity="0.5"/>
<path d="M14.1511 11.7185H12.6602V13.2095H14.1511V11.7185Z" fill="black" fill-opacity="0.5"/>
<path d="M5.20553 14.7002H3.7146V16.1911H5.20553V14.7002Z" fill="black" fill-opacity="0.5"/>
<path d="M8.18698 14.7002H6.69604V16.1911H8.18698V14.7002Z" fill="black" fill-opacity="0.5"/>
<path d="M11.1692 14.7002H9.67822V16.1911H11.1692V14.7002Z" fill="black" fill-opacity="0.5"/>
<path d="M14.1511 14.7002H12.6602V16.1911H14.1511V14.7002Z" fill="black" fill-opacity="0.5"/>
<path d="M17.1325 11.7185H15.6416V13.2095H17.1325V11.7185Z" fill="black" fill-opacity="0.5"/>
</g>
<defs>
<clipPath id="clip0_289_3417">
<rect width="19.084" height="19.0841" fill="white" transform="translate(0.881592 0.163818)"/>
</clipPath>
</defs>
</svg>
