<svg width="24" height="24" viewBox="0 0 24 24" fill="none" xmlns="http://www.w3.org/2000/svg">
<path fill-rule="evenodd" clip-rule="evenodd" d="M3.75 5.25C3.75 5.25 3.75 4.62868 4.18934 4.18934C4.18934 4.18934 4.62868 3.75 5.25 3.75H9.75C9.75 3.75 10.3713 3.75 10.8107 4.18934C10.8107 4.18934 11.25 4.62868 11.25 5.25V9.75C11.25 9.75 11.25 10.3713 10.8107 10.8107C10.8107 10.8107 10.3713 11.25 9.75 11.25H5.25C5.25 11.25 4.62868 11.25 4.18934 10.8107C4.18934 10.8107 3.75 10.3713 3.75 9.75V5.25ZM5.25 5.25V9.75L9.75 9.75L9.75 5.25H5.25Z" fill="#5F5F5F"/>
<path fill-rule="evenodd" clip-rule="evenodd" d="M3.75 14.25C3.75 14.25 3.75 13.6287 4.18934 13.1893C4.18934 13.1893 4.62868 12.75 5.25 12.75H9.75C9.75 12.75 10.3713 12.75 10.8107 13.1893C10.8107 13.1893 11.25 13.6287 11.25 14.25V18.75C11.25 18.75 11.25 19.3713 10.8107 19.8107C10.8107 19.8107 10.3713 20.25 9.75 20.25H5.25C5.25 20.25 4.62868 20.25 4.18934 19.8107C4.18934 19.8107 3.75 19.3713 3.75 18.75V14.25ZM5.25 14.25V18.75L9.75 18.75L9.75 14.25H5.25Z" fill="#5F5F5F"/>
<path fill-rule="evenodd" clip-rule="evenodd" d="M12.75 5.25C12.75 5.25 12.75 4.62868 13.1893 4.18934C13.1893 4.18934 13.6287 3.75 14.25 3.75H18.75C18.75 3.75 19.3713 3.75 19.8107 4.18934C19.8107 4.18934 20.25 4.62868 20.25 5.25V9.75C20.25 9.75 20.25 10.3713 19.8107 10.8107C19.8107 10.8107 19.3713 11.25 18.75 11.25H14.25C14.25 11.25 13.6287 11.25 13.1893 10.8107C13.1893 10.8107 12.75 10.3713 12.75 9.75V5.25ZM14.25 5.25V9.75L18.75 9.75L18.75 5.25H14.25Z" fill="#5F5F5F"/>
<path d="M12.75 13.5V16.5C12.75 16.9142 13.0858 17.25 13.5 17.25C13.9142 17.25 14.25 16.9142 14.25 16.5V13.5C14.25 13.0858 13.9142 12.75 13.5 12.75C13.0858 12.75 12.75 13.0858 12.75 13.5Z" fill="#5F5F5F"/>
<path d="M17.25 19.5V13.5C17.25 13.0858 16.9142 12.75 16.5 12.75C16.0858 12.75 15.75 13.0858 15.75 13.5V18.75H13.5C13.0858 18.75 12.75 19.0858 12.75 19.5C12.75 19.9142 13.0858 20.25 13.5 20.25H16.5C16.9142 20.25 17.25 19.9142 17.25 19.5Z" fill="#5F5F5F"/>
<path d="M16.5 15.75H19.5C19.9142 15.75 20.25 15.4142 20.25 15C20.25 14.5858 19.9142 14.25 19.5 14.25H16.5C16.0858 14.25 15.75 14.5858 15.75 15C15.75 15.4142 16.0858 15.75 16.5 15.75Z" fill="#5F5F5F"/>
<path d="M19.5 17.25C19.0858 17.25 18.75 17.5858 18.75 18V19.5C18.75 19.9142 19.0858 20.25 19.5 20.25C19.9142 20.25 20.25 19.9142 20.25 19.5V18C20.25 17.5858 19.9142 17.25 19.5 17.25Z" fill="#5F5F5F"/>
</svg>
