<svg width="47" height="46" viewBox="0 0 47 46" fill="none" xmlns="http://www.w3.org/2000/svg">
<g clip-path="url(#clip0_1308_18709)">
<path d="M23.2368 45.6834C35.8328 45.6834 46.0438 35.4723 46.0438 22.8764C46.0438 10.2804 35.8328 0.0693359 23.2368 0.0693359C10.6409 0.0693359 0.42981 10.2804 0.42981 22.8764C0.42981 35.4723 10.6409 45.6834 23.2368 45.6834Z" fill="#FECB32"/>
<path fill-rule="evenodd" clip-rule="evenodd" d="M7.54067 15.6418L7.13446 17.212L15.222 13.7021L7.54067 15.6418Z" fill="#FF7200"/>
<path d="M7.51959 20.0529V21.0699H10.1623V17.6494L7.51959 20.0529Z" fill="#D43264"/>
<path d="M7.51953 20.056V21.0692H9.68108V18.2715L7.51953 20.056Z" fill="#FF7200"/>
<path d="M27.7618 13.1829C27.9172 13.1405 28.2139 13.0981 28.6518 13.0981C29.7255 13.0981 30.333 13.621 30.333 14.4973C30.333 15.4726 29.6266 16.0521 28.4823 16.0521C28.1715 16.0521 27.9454 16.038 27.7618 15.9955V13.1829ZM25.6285 21.0697H27.7618V17.6634C27.9595 17.6917 28.2139 17.7058 28.4964 17.7058C29.7679 17.7058 30.8558 17.3948 31.5904 16.7022C32.1555 16.1651 32.4663 15.3736 32.4663 14.4408C32.4663 13.508 32.0566 12.7165 31.4491 12.2359C30.8134 11.7271 29.8668 11.4727 28.5388 11.4727C27.2249 11.4727 26.2925 11.5575 25.6285 11.6705V21.0697Z" fill="#005EC2"/>
<path d="M38.6246 15.2885H35.1209V13.3097H38.8365V11.543H32.9594V21.0693H39.0343V19.3026H35.1209V17.0411H38.6246V15.2885Z" fill="#005EC2"/>
<path d="M7.51959 11.543V16.8162L8.83925 16.2813L15.2291 13.6915C14.5618 14.2423 13.8945 14.7932 13.2272 15.3441V21.0693H15.3746V11.543H13.2272C13.2272 12.1778 13.2272 12.8127 13.2272 13.4475C13.2272 13.7882 13.059 14.2423 12.2922 14.3876L9.68117 14.8824V11.543H7.51959Z" fill="#005EC2"/>
<path fill-rule="evenodd" clip-rule="evenodd" d="M20.4553 11.6416C23.1713 11.6416 25.3731 13.8444 25.3731 16.5616C25.3731 19.2789 23.1713 21.4817 20.4553 21.4817C17.7392 21.4817 15.5374 19.2789 15.5374 16.5616C15.5374 13.8444 17.7392 11.6416 20.4553 11.6416ZM20.4553 14.0371C21.8489 14.0371 22.9787 15.1674 22.9787 16.5616C22.9787 17.9559 21.8489 19.0862 20.4553 19.0862C19.0617 19.0862 17.9319 17.9559 17.9319 16.5616C17.9319 15.1674 19.0617 14.0371 20.4553 14.0371Z" fill="#005EC2"/>
<path d="M7.80225 23.8063V22.6176H8.25637C8.33616 22.6176 8.39718 22.6215 8.43949 22.6289C8.49857 22.6386 8.54813 22.6571 8.58818 22.6842C8.62821 22.7117 8.66041 22.7498 8.68478 22.7988C8.70914 22.8478 8.72118 22.9017 8.72118 22.9607C8.72118 23.0614 8.68869 23.1469 8.62347 23.2167C8.55851 23.2867 8.44063 23.3215 8.27042 23.3215H7.96189V23.8063H7.8023H7.80225ZM7.96184 23.1821H8.27263C8.37567 23.1821 8.44845 23.1633 8.49184 23.1253C8.53495 23.0874 8.55652 23.0343 8.55652 22.9654C8.55652 22.9159 8.54391 22.8732 8.51843 22.8378C8.49298 22.8024 8.45935 22.7789 8.41792 22.7676C8.39102 22.7607 8.34149 22.757 8.26952 22.757H7.96181L7.96184 23.1821ZM9.79755 23.8063L10.259 22.6176H10.434L10.9237 23.8063H10.7425L10.6034 23.4461H10.0969L9.96641 23.8063H9.79755ZM10.1436 23.3182H10.5535L10.4281 22.9886C10.3903 22.8885 10.3617 22.8057 10.3418 22.7404C10.3253 22.8179 10.3032 22.894 10.2755 22.9693L10.1436 23.3182ZM12.3957 23.8063V23.3027L11.932 22.6176H12.1235L12.3612 22.9773C12.4055 23.044 12.4466 23.1107 12.4842 23.1774C12.5208 23.1151 12.5654 23.0454 12.6172 22.9679L12.8501 22.6176H13.0357L12.5553 23.3027V23.8063H12.3957ZM14.3051 23.8063V22.6176H14.5436L14.8281 23.4591C14.8544 23.5374 14.8734 23.596 14.8855 23.6351C14.8992 23.5919 14.9207 23.5282 14.9499 23.4444L15.2394 22.6176H15.4525V23.8064H15.2996V22.8119L14.9485 23.8064H14.8051L14.458 22.7936V23.8064L14.3051 23.8063ZM16.8424 23.8063V22.6176H17.711V22.757H17.002V23.1223H17.6656V23.2617H17.002V23.6669H17.7395V23.8063H16.8424ZM19.0892 23.8063V22.6176H19.2527L19.8838 23.5506V22.6176H20.0367V23.8063H19.8732L19.2421 22.8733V23.8063H19.0892ZM21.7411 23.8063V22.757H21.3447V22.6176H22.2971V22.757H21.9007V23.8063H21.7411ZM24.444 23.4245L24.5935 23.4112C24.6005 23.471 24.617 23.5199 24.6431 23.5584C24.6691 23.5966 24.7094 23.6276 24.764 23.6514C24.8186 23.6749 24.8802 23.6868 24.9485 23.6868C25.0093 23.6868 25.0627 23.678 25.1092 23.66C25.1557 23.642 25.1901 23.6174 25.2128 23.5861C25.2355 23.5548 25.247 23.5208 25.247 23.4843C25.247 23.4472 25.2361 23.4148 25.2142 23.3868C25.1924 23.3592 25.1563 23.336 25.1059 23.3168C25.0737 23.3047 25.0023 23.2853 24.8917 23.259C24.7811 23.2327 24.7038 23.2081 24.6596 23.1849C24.6022 23.155 24.5596 23.1179 24.5316 23.0739C24.5033 23.0299 24.4893 22.9804 24.4893 22.9259C24.4893 22.8655 24.5067 22.8094 24.5411 22.7574C24.5756 22.7051 24.6257 22.6655 24.692 22.6384C24.7581 22.6112 24.8317 22.5977 24.9127 22.5977C25.0017 22.5977 25.0804 22.6118 25.1484 22.6403C25.2164 22.6685 25.2688 22.7103 25.3055 22.7656C25.3422 22.8207 25.3618 22.8832 25.3645 22.953L25.2117 22.9646C25.2035 22.8896 25.1758 22.8329 25.1285 22.7947C25.0812 22.7562 25.0112 22.7372 24.9188 22.7372C24.8225 22.7372 24.7522 22.7546 24.7083 22.7895C24.6643 22.8243 24.6422 22.8664 24.6422 22.9156C24.6422 22.9583 24.6579 22.9934 24.689 23.0211C24.7198 23.0485 24.7996 23.0769 24.9289 23.1057C25.0583 23.1348 25.147 23.16 25.1952 23.1816C25.2649 23.2134 25.3167 23.2535 25.35 23.3025C25.3833 23.3512 25.3999 23.4073 25.3999 23.471C25.3999 23.5344 25.3817 23.5936 25.345 23.6495C25.3083 23.7054 25.256 23.7488 25.1874 23.7798C25.1187 23.8108 25.0417 23.8263 24.9558 23.8263C24.8472 23.8263 24.7562 23.8105 24.6828 23.7793C24.6092 23.748 24.5518 23.701 24.5101 23.6379C24.4681 23.5751 24.4462 23.5039 24.444 23.4245V23.4245ZM26.7512 23.8063V22.6176H27.6197V22.757H26.9108V23.1223H27.5744V23.2617H26.9108V23.6669H27.6483V23.8063H26.7512ZM29.003 23.8063V22.6176H29.5361C29.6434 22.6176 29.7249 22.6284 29.7806 22.6497C29.8363 22.671 29.8808 22.7086 29.9141 22.7625C29.9474 22.8165 29.964 22.8763 29.964 22.9416C29.964 23.026 29.9362 23.0971 29.8811 23.1549C29.8259 23.2127 29.7408 23.2493 29.6255 23.2651C29.6677 23.285 29.6997 23.3049 29.7215 23.3243C29.768 23.3664 29.8119 23.4192 29.8531 23.4826L30.0611 23.8063H29.8623L29.7033 23.559C29.6571 23.4873 29.6188 23.4328 29.5888 23.3949C29.5585 23.357 29.5317 23.3307 29.5079 23.3154C29.4844 23.3005 29.46 23.29 29.4354 23.2839C29.4175 23.2803 29.388 23.2784 29.3469 23.2784H29.1627V23.8063L29.003 23.8063ZM29.1626 23.1422H29.5042C29.577 23.1422 29.6336 23.1348 29.6745 23.1198C29.7153 23.1051 29.7464 23.0813 29.7674 23.0484C29.7887 23.0158 29.7993 22.9803 29.7993 22.9419C29.7993 22.8857 29.7789 22.8392 29.7377 22.803C29.6966 22.7667 29.6316 22.7487 29.5429 22.7487H29.1627L29.1626 23.1422ZM31.6566 23.8063L31.1919 22.6176H31.3643L31.6768 23.4815C31.7017 23.5507 31.723 23.6154 31.7398 23.676C31.7582 23.611 31.7798 23.5462 31.8044 23.4815L32.1287 22.6176H32.291L31.8221 23.8063H31.6566ZM33.5926 23.8063V22.6176H33.8515V23.8063H33.5926ZM36.0205 23.3893L36.1801 23.4292C36.1468 23.5584 36.0868 23.6566 36.0003 23.7244C35.9138 23.7922 35.808 23.8263 35.6828 23.8263C35.5535 23.8263 35.4482 23.8003 35.367 23.748C35.2858 23.696 35.2242 23.6204 35.1819 23.5216C35.1397 23.4226 35.1184 23.3166 35.1184 23.2031C35.1184 23.0794 35.1422 22.9715 35.1901 22.8794C35.2379 22.7872 35.306 22.7172 35.3942 22.6693C35.4824 22.6215 35.5795 22.5977 35.6853 22.5977C35.8057 22.5977 35.9068 22.6278 35.9886 22.6884C36.0706 22.749 36.1277 22.834 36.1599 22.9436L36.0037 22.9801C35.9759 22.8938 35.9353 22.8307 35.8824 22.7914C35.8295 22.7518 35.7629 22.7321 35.6825 22.7321C35.5904 22.7321 35.5131 22.754 35.4512 22.7977C35.3894 22.8415 35.3457 22.9004 35.3208 22.974C35.2956 23.0479 35.283 23.124 35.283 23.2023C35.283 23.3033 35.2978 23.3915 35.3275 23.4668C35.3572 23.5423 35.4034 23.5985 35.4661 23.6359C35.5288 23.6732 35.5965 23.6918 35.6696 23.6918C35.7587 23.6918 35.8337 23.6663 35.8953 23.6157C35.9569 23.5648 35.9986 23.4895 36.0204 23.3893L36.0205 23.3893ZM37.5116 23.8063V22.6176H38.3801V22.757H37.6712V23.1223H38.3347V23.2617H37.6712V23.6669H38.4086V23.8063H37.5116Z" fill="#4B4B4D"/>
<path d="M7.24579 34.28H10.8C12.759 34.28 14.3822 33.4659 14.3822 31.5853C14.3822 30.3783 13.7385 29.7046 12.4512 29.452V29.3958C13.5146 29.1151 13.9624 28.2169 13.9624 27.4309C13.9624 25.6345 12.4232 25.1573 10.5201 25.1573H7.24579V34.28ZM9.65259 28.7502V27.0099H10.4642C11.2478 27.0099 11.6116 27.2344 11.6116 27.7959C11.6116 28.3573 11.2478 28.7502 10.4642 28.7502H9.65259ZM9.65259 32.4274V30.4344H10.6321C11.5836 30.4344 12.0314 30.7151 12.0314 31.3888C12.0314 32.0625 11.5836 32.4274 10.6321 32.4274H9.65259ZM17.4942 30.4765L17.6481 29.8449C17.8608 28.972 18.0958 27.8801 18.2917 26.9537H18.3477C18.5716 27.866 18.8067 28.9721 19.0194 29.8449L19.1733 30.4765H17.4942ZM20.0549 34.28H22.6015L19.8309 25.1573H16.9204L14.1498 34.28H16.6126L17.0603 32.3432H19.607L20.0548 34.28H20.0549ZM23.2117 34.28H25.5066V31.6414C25.5066 30.5186 25.3107 29.1993 25.1987 28.1607H25.2547L26.1223 30.1958L28.1373 34.28H30.6V25.1572H28.3052V27.7958C28.3052 28.918 28.5011 30.294 28.613 31.2765H28.557L27.6895 29.2274L25.6745 25.1572H23.2117V34.28ZM31.379 34.28H33.7858V32.0063L34.6533 30.7712L36.6683 34.28H39.299L36.0527 28.8625L38.7673 25.1573H36.1366L33.8417 28.5537H33.7858V25.1573H31.379V34.28Z" fill="#005EC2"/>
</g>
<defs>
<clipPath id="clip0_1308_18709">
<rect width="45.614" height="45.614" fill="white" transform="translate(0.42981 0.0703125)"/>
</clipPath>
</defs>
</svg>
