<svg width="19" height="19" viewBox="0 0 19 19" fill="none" xmlns="http://www.w3.org/2000/svg">
<path d="M9.49988 2C5.37488 2 1.99988 5.375 1.99988 9.5C1.99988 13.625 5.37488 17 9.49988 17C13.6249 17 16.9999 13.625 16.9999 9.5C16.9999 5.375 13.6249 2 9.49988 2ZM9.49988 15.5C6.19238 15.5 3.49988 12.8075 3.49988 9.5C3.49988 6.1925 6.19238 3.5 9.49988 3.5C12.8074 3.5 15.4999 6.1925 15.4999 9.5C15.4999 12.8075 12.8074 15.5 9.49988 15.5ZM9.87488 5.75H8.74988V10.25L12.6499 12.65L13.2499 11.675L9.87488 9.65V5.75Z" fill="#667085"/>
</svg>
