<svg width="20" height="20" viewBox="0 0 20 20" fill="none" xmlns="http://www.w3.org/2000/svg">
<path d="M3.82743 8.02582C4.22833 8.15946 4.54291 8.47405 4.67655 8.87495C4.81255 9.28296 5.38967 9.28296 5.52567 8.87495C5.65931 8.47405 5.97389 8.15946 6.37479 8.02582C6.7828 7.88982 6.7828 7.3127 6.37479 7.1767C5.97389 7.04307 5.65931 6.72848 5.52567 6.32758C5.38967 5.91957 4.81255 5.91957 4.67655 6.32758C4.54291 6.72848 4.22833 7.04307 3.82743 7.1767C3.41942 7.3127 3.41942 7.88982 3.82743 8.02582Z" fill="#5A6376"/>
<path fill-rule="evenodd" clip-rule="evenodd" d="M4.16666 3.3335C2.32571 3.3335 0.833328 4.82588 0.833328 6.66683V13.3335C0.833328 15.1744 2.32571 16.6668 4.16666 16.6668H12.5C14.077 16.6668 15.3983 15.5717 15.7447 14.1004L16.5 14.6668C17.5987 15.4909 19.1667 14.7069 19.1667 13.3335V6.66683C19.1667 5.29342 17.5987 4.50945 16.5 5.3335L15.7447 5.89997C15.3983 4.42867 14.077 3.3335 12.5 3.3335H4.16666ZM17.5 13.3335L15.8333 12.0835V7.91683L17.5 6.66683V13.3335ZM2.49999 6.66683C2.49999 5.74636 3.24619 5.00016 4.16666 5.00016H12.5C13.4205 5.00016 14.1667 5.74636 14.1667 6.66683V13.3335C14.1667 14.254 13.4205 15.0002 12.5 15.0002H4.16666C3.24619 15.0002 2.49999 14.254 2.49999 13.3335V6.66683Z" fill="#5A6376"/>
</svg>
