<svg width="18" height="20" viewBox="0 0 18 20" fill="none" xmlns="http://www.w3.org/2000/svg">
<path d="M8.61883 3.25017L10.1524 1.4645C10.5512 1.0002 11.0246 0.631892 11.5456 0.380612C12.0666 0.129332 12.625 6.91868e-09 13.1889 0C13.7528 -6.91868e-09 14.3112 0.129332 14.8322 0.380612C15.3532 0.631892 15.8266 1.0002 16.2254 1.4645C16.6241 1.92881 16.9404 2.48002 17.1562 3.08666C17.372 3.69331 17.4831 4.3435 17.4831 5.00013C17.4831 5.65675 17.372 6.30695 17.1562 6.91359C16.9404 7.52024 16.6241 8.07145 16.2254 8.53575L13.1582 12.1071C12.7595 12.5714 12.2861 12.9398 11.7651 13.1911C11.2441 13.4424 10.6857 13.5717 10.1217 13.5717C9.5578 13.5717 8.99939 13.4424 8.47839 13.1911C7.95739 12.9398 7.484 12.5714 7.08526 12.1071C6.92281 11.9039 6.83435 11.6352 6.83847 11.3576C6.84259 11.08 6.93896 10.8151 7.10734 10.6186C7.27616 10.4225 7.50368 10.3103 7.74208 10.3055C7.98048 10.3007 8.21119 10.4037 8.38573 10.5928C8.61345 10.8588 8.88401 11.0699 9.18191 11.2139C9.47981 11.3578 9.79919 11.432 10.1217 11.432C10.4443 11.432 10.7637 11.3578 11.0616 11.2139C11.3595 11.0699 11.63 10.8588 11.8577 10.5928L14.9249 7.0215C15.3629 6.48016 15.6026 5.76143 15.5931 5.01776C15.5836 4.27409 15.3256 3.56399 14.8739 3.03807C14.4223 2.51216 13.8124 2.21181 13.1737 2.20074C12.5351 2.18966 11.9178 2.46873 11.4529 2.97875L9.9193 4.76442C9.74477 4.95357 9.51405 5.05657 9.27565 5.05178C9.03726 5.04698 8.80974 4.93476 8.64092 4.73871C8.47254 4.54213 8.37616 4.27721 8.37204 3.99962C8.36792 3.72204 8.45639 3.4534 8.61883 3.25017ZM2.86486 17.0212C3.09258 17.2872 3.36315 17.4983 3.66104 17.6423C3.95894 17.7863 4.27832 17.8604 4.60087 17.8604C4.92342 17.8604 5.24279 17.7863 5.54069 17.6423C5.83859 17.4983 6.10915 17.2872 6.33687 17.0212L7.87045 15.2356C8.04498 15.0464 8.2757 14.9434 8.5141 14.9482C8.7525 14.953 8.98001 15.0652 9.14883 15.2613C9.31721 15.4579 9.41359 15.7228 9.41771 16.0004C9.42183 16.278 9.33337 16.5466 9.17092 16.7498L7.63735 18.5355C7.23859 18.9998 6.7652 19.3681 6.2442 19.6194C5.7232 19.8707 5.16479 20 4.60087 20C4.03694 20 3.47854 19.8707 2.95754 19.6194C2.43654 19.3681 1.96315 18.9998 1.56439 18.5355C1.16563 18.0712 0.849324 17.52 0.633519 16.9133C0.417714 16.3067 0.306641 15.6565 0.306641 14.9999C0.306641 14.3432 0.417714 13.693 0.633519 13.0864C0.849324 12.4798 1.16563 11.9286 1.56439 11.4642L4.63154 7.89291C5.03028 7.42858 5.50367 7.06024 6.02467 6.80894C6.54567 6.55764 7.10408 6.4283 7.66802 6.4283C8.23195 6.4283 8.79036 6.55764 9.31136 6.80894C9.83236 7.06024 10.3058 7.42858 10.7045 7.89291C10.8669 8.09614 10.9554 8.36477 10.9513 8.64236C10.9472 8.91995 10.8508 9.18487 10.6824 9.38144C10.5136 9.5775 10.2861 9.68972 10.0477 9.69452C9.80927 9.69931 9.57856 9.59631 9.40402 9.40716C9.1763 9.14118 8.90574 8.93014 8.60784 8.78615C8.30994 8.64215 7.99056 8.56803 7.66802 8.56803C7.34547 8.56803 7.02609 8.64215 6.72819 8.78615C6.43029 8.93014 6.15973 9.14118 5.93201 9.40716L2.86486 12.9785C2.63643 13.2436 2.45519 13.5587 2.33152 13.9056C2.20786 14.2524 2.1442 14.6243 2.1442 14.9999C2.1442 15.3754 2.20786 15.7473 2.33152 16.0942C2.45519 16.4411 2.63643 16.7561 2.86486 17.0212Z" fill="#1F1F1F" fill-opacity="0.6"/>
</svg>
