<svg width="20" height="20" viewBox="0 0 20 20" fill="none" xmlns="http://www.w3.org/2000/svg">
<path d="M10.7916 7.62516C10.7916 7.83513 10.7082 8.03649 10.5597 8.18496C10.4112 8.33342 10.2099 8.41683 9.99992 8.41683C9.78996 8.41683 9.58859 8.33342 9.44013 8.18496C9.29166 8.03649 9.20825 7.83513 9.20825 7.62516C9.20825 7.4152 9.29166 7.21384 9.44013 7.06537C9.58859 6.9169 9.78996 6.8335 9.99992 6.8335C10.2099 6.8335 10.4112 6.9169 10.5597 7.06537C10.7082 7.21384 10.7916 7.4152 10.7916 7.62516Z" stroke="#667085" stroke-width="1.58333" stroke-linejoin="round"/>
<path d="M14.3541 8.02091C14.3541 10.426 12.7708 13.1667 9.99992 16.3334C7.22909 13.1667 5.64575 10.426 5.64575 8.02091C5.64575 6.86612 6.10449 5.75862 6.92106 4.94205C7.73762 4.12549 8.84512 3.66675 9.99992 3.66675C11.1547 3.66675 12.2622 4.12549 13.0788 4.94205C13.8953 5.75862 14.3541 6.86612 14.3541 8.02091Z" stroke="#667085" stroke-width="1.58333" stroke-linejoin="round"/>
</svg>
