<svg width="32" height="32" viewBox="0 0 32 32" fill="none" xmlns="http://www.w3.org/2000/svg">
<path fill-rule="evenodd" clip-rule="evenodd" d="M16 14C16 14 17.4497 14 18.4749 15.0251C18.4749 15.0251 19.5 16.0503 19.5 17.5C19.5 17.5 19.5 18.9497 18.4749 19.9749C18.4749 19.9749 17.4497 21 16 21C16 21 14.5503 21 13.5251 19.9749C13.5251 19.9749 12.5 18.9497 12.5 17.5C12.5 17.5 12.5 16.0503 13.5251 15.0251C13.5251 15.0251 14.5503 14 16 14ZM16 16C16 16 15.3787 16 14.9393 16.4393C14.9393 16.4393 14.5 16.8787 14.5 17.5C14.5 17.5 14.5 18.1213 14.9393 18.5607C14.9393 18.5607 15.3787 19 16 19C16 19 16.6213 19 17.0607 18.5607C17.0607 18.5607 17.5 18.1213 17.5 17.5C17.5 17.5 17.5 16.8787 17.0607 16.4393C17.0607 16.4393 16.6213 16 16 16Z" fill="white"/>
<path d="M15 20V23C15 23.5523 15.4477 24 16 24C16.5523 24 17 23.5523 17 23V20C17 19.4477 16.5523 19 16 19C15.4477 19 15 19.4477 15 20Z" fill="white"/>
<path fill-rule="evenodd" clip-rule="evenodd" d="M4 12C4 12 4 11.1716 4.58579 10.5858C4.58579 10.5858 5.17157 10 6 10H26C26 10 26.8284 10 27.4142 10.5858C27.4142 10.5858 28 11.1716 28 12V26C28 26 28 26.8284 27.4142 27.4142C27.4142 27.4142 26.8284 28 26 28H6C6 28 5.17157 28 4.58579 27.4142C4.58579 27.4142 4 26.8284 4 26V12ZM6 12V26L26 26V12H6Z" fill="white"/>
<path d="M19.5 6.5V11C19.5 11.5523 19.9477 12 20.5 12C21.0523 12 21.5 11.5523 21.5 11V6.5C21.5 4.22182 19.8891 2.61091 19.8891 2.61091C18.2782 1 16 1 16 1C13.7218 1 12.1109 2.61091 12.1109 2.61091C10.5 4.22183 10.5 6.5 10.5 6.5V11C10.5 11.5523 10.9477 12 11.5 12C12.0523 12 12.5 11.5523 12.5 11V6.5C12.5 5.05025 13.5251 4.02513 13.5251 4.02513C14.5503 3 16 3 16 3C17.4497 3 18.4749 4.02513 18.4749 4.02513C19.5 5.05025 19.5 6.5 19.5 6.5Z" fill="white"/>
</svg>
