<svg width="24" height="24" viewBox="0 0 24 24" fill="none" xmlns="http://www.w3.org/2000/svg">
<path fill-rule="evenodd" clip-rule="evenodd" d="M6.93056 19.7619L11.4306 14.5119C11.56 14.3609 11.7442 14.2675 11.9425 14.2522C12.1408 14.237 12.3371 14.3011 12.4881 14.4306C12.5173 14.4556 12.5444 14.4827 12.5694 14.5119L17.0694 19.7619C17.339 20.0764 17.3026 20.5499 16.9881 20.8194C16.8522 20.936 16.679 21 16.5 21H7.5C7.08579 21 6.75 20.6642 6.75 20.25C6.75 20.071 6.81404 19.8978 6.93056 19.7619ZM12 16.1524L14.8693 19.5H9.13066L12 16.1524Z" fill="#5F5F5F"/>
<path d="M20.0303 17.0303C19.8107 17.25 19.5 17.25 19.5 17.25H18C17.5858 17.25 17.25 17.5858 17.25 18C17.25 18.4142 17.5858 18.75 18 18.75H19.5C20.432 18.75 21.091 18.091 21.091 18.091C21.75 17.432 21.75 16.5 21.75 16.5V6C21.75 5.06802 21.091 4.40901 21.091 4.40901C20.432 3.75 19.5 3.75 19.5 3.75H4.5C3.56802 3.75 2.90901 4.40901 2.90901 4.40901C2.25 5.06802 2.25 6 2.25 6V16.5C2.25 17.432 2.90901 18.091 2.90901 18.091C3.56802 18.75 4.5 18.75 4.5 18.75H6C6.41421 18.75 6.75 18.4142 6.75 18C6.75 17.5858 6.41421 17.25 6 17.25H4.5C4.18934 17.25 3.96967 17.0303 3.96967 17.0303C3.75 16.8107 3.75 16.5 3.75 16.5V6C3.75 5.68934 3.96967 5.46967 3.96967 5.46967C4.18934 5.25 4.5 5.25 4.5 5.25H19.5C19.8107 5.25 20.0303 5.46967 20.0303 5.46967C20.25 5.68934 20.25 6 20.25 6V16.5C20.25 16.8107 20.0303 17.0303 20.0303 17.0303Z" fill="#5F5F5F"/>
</svg>
