<svg width="22" height="22" viewBox="0 0 22 22" fill="none" xmlns="http://www.w3.org/2000/svg">
<path fill-rule="evenodd" clip-rule="evenodd" d="M3.30017 5.50022C3.30017 5.2085 3.41606 4.92872 3.62235 4.72244C3.82864 4.51616 4.10843 4.40027 4.40017 4.40027H17.6002C17.8919 4.40027 18.1717 4.51616 18.378 4.72244C18.5843 4.92872 18.7002 5.2085 18.7002 5.50022C18.7002 5.79195 18.5843 6.07173 18.378 6.27801C18.1717 6.48429 17.8919 6.60018 17.6002 6.60018H4.40017C4.10843 6.60018 3.82864 6.48429 3.62235 6.27801C3.41606 6.07173 3.30017 5.79195 3.30017 5.50022ZM3.30017 11C3.30017 10.7083 3.41606 10.4285 3.62235 10.2222C3.82864 10.0159 4.10843 9.90004 4.40017 9.90004H11.0002C11.2919 9.90004 11.5717 10.0159 11.778 10.2222C11.9843 10.4285 12.1002 10.7083 12.1002 11C12.1002 11.2917 11.9843 11.5715 11.778 11.7778C11.5717 11.9841 11.2919 12.1 11.0002 12.1H4.40017C4.10843 12.1 3.82864 11.9841 3.62235 11.7778C3.41606 11.5715 3.30017 11.2917 3.30017 11ZM3.30017 16.4998C3.30017 16.208 3.41606 15.9283 3.62235 15.722C3.82864 15.5157 4.10843 15.3998 4.40017 15.3998H17.6002C17.8919 15.3998 18.1717 15.5157 18.378 15.722C18.5843 15.9283 18.7002 16.208 18.7002 16.4998C18.7002 16.7915 18.5843 17.0713 18.378 17.2776C18.1717 17.4838 17.8919 17.5997 17.6002 17.5997H4.40017C4.10843 17.5997 3.82864 17.4838 3.62235 17.2776C3.41606 17.0713 3.30017 16.7915 3.30017 16.4998Z" fill="#C5C5C5"/>
</svg>
