<svg width="56" height="56" viewBox="0 0 56 56" fill="none" xmlns="http://www.w3.org/2000/svg">
<circle cx="28.0003" cy="28" r="27.0455" stroke="white" stroke-width="1.90909"/>
<path d="M25.8793 23.7572C26.4651 23.7572 26.9399 24.232 26.9399 24.8178V29.0602C26.9399 29.646 26.4651 30.1208 25.8793 30.1208C25.2935 30.1208 24.8187 29.646 24.8187 29.0602V24.8178C24.8187 24.232 25.2935 23.7572 25.8793 23.7572Z" fill="white"/>
<path d="M31.1823 24.8178C31.1823 24.232 30.7075 23.7572 30.1217 23.7572C29.536 23.7572 29.0611 24.232 29.0611 24.8178V29.0602C29.0611 29.646 29.536 30.1208 30.1217 30.1208C30.7075 30.1208 31.1823 29.646 31.1823 29.0602V24.8178Z" fill="white"/>
<path fill-rule="evenodd" clip-rule="evenodd" d="M28.0005 17.3936C23.9002 17.3936 20.5763 20.7175 20.5763 24.8178V29.0602C20.5763 33.1605 23.9002 36.4845 28.0005 36.4845C32.1008 36.4845 35.4248 33.1605 35.4248 29.0602V24.8178C35.4248 20.7175 32.1008 17.3936 28.0005 17.3936ZM22.6975 24.8178C22.6975 21.889 25.0717 19.5148 28.0005 19.5148C30.9293 19.5148 33.3035 21.889 33.3035 24.8178V29.0602C33.3035 31.989 30.9293 34.3633 28.0005 34.3633C25.0717 34.3633 22.6975 31.989 22.6975 29.0602V24.8178Z" fill="white"/>
<path d="M20.5218 31.9066C20.3366 31.351 19.736 31.0506 19.1803 31.2359C18.6246 31.4211 18.3243 32.0217 18.5095 32.5774C21.5498 41.6984 34.4512 41.6984 37.4915 32.5774C37.6768 32.0217 37.3765 31.4211 36.8208 31.2359C36.2651 31.0506 35.6644 31.351 35.4792 31.9066C33.0835 39.0937 22.9175 39.0937 20.5218 31.9066Z" fill="white"/>
</svg>
