<svg width="56" height="56" viewBox="0 0 56 56" fill="none" xmlns="http://www.w3.org/2000/svg">
<circle cx="28" cy="28" r="28" fill="#FF394E"/>
<path d="M38.4935 16.6437C38.9077 16.2295 39.5793 16.2295 39.9935 16.6437C40.4076 17.0578 40.4076 17.7294 39.9935 18.1436L18.7813 39.3557C18.3671 39.7699 17.6956 39.7699 17.2814 39.3557C16.8672 38.9415 16.8672 38.27 17.2814 37.8558L38.4935 16.6437Z" fill="white"/>
<path d="M21.3107 32.3266C21.2571 32.1895 21.2064 32.0495 21.1588 31.9067C20.9736 31.351 20.3729 31.0507 19.8172 31.2359C19.2615 31.4212 18.9612 32.0218 19.1464 32.5775C19.3056 33.055 19.4918 33.5076 19.7022 33.9351L21.3107 32.3266Z" fill="white"/>
<path d="M22.3688 37.2682C27.3794 41.2583 35.7561 39.6948 38.1285 32.5775C38.3137 32.0218 38.0134 31.4212 37.4577 31.2359C36.902 31.0507 36.3014 31.351 36.1161 31.9067C34.2764 37.426 27.8543 38.7068 23.8878 35.7492L22.3688 37.2682Z" fill="white"/>
<path d="M28.6374 17.3936C30.7339 17.3936 32.6273 18.2625 33.9774 19.6599L32.4771 21.1601C31.5112 20.1465 30.1481 19.5148 28.6374 19.5148C25.7086 19.5148 23.3344 21.8891 23.3344 24.8179V29.0603C23.3344 29.4457 23.3755 29.8216 23.4536 30.1836L21.7644 31.8728C21.4091 31.0054 21.2132 30.0557 21.2132 29.0603V24.8179C21.2132 20.7176 24.5371 17.3936 28.6374 17.3936Z" fill="white"/>
<path d="M28.6374 34.3633C27.6708 34.3633 26.7645 34.1047 25.9841 33.6528L24.4471 35.1898C25.6397 36.0067 27.0828 36.4845 28.6374 36.4845C32.7377 36.4845 36.0617 33.1606 36.0617 29.0603V24.8179C36.0617 24.4255 36.0312 24.0403 35.9726 23.6644L33.9405 25.6965V29.0603C33.9405 31.9891 31.5662 34.3633 28.6374 34.3633Z" fill="white"/>
</svg>
