<svg width="10" height="10" viewBox="0 0 10 10" fill="none" xmlns="http://www.w3.org/2000/svg">
<path d="M1.71857 0.922051C1.41652 0.620005 0.926809 0.620005 0.624763 0.922051C0.322716 1.2241 0.322716 1.71381 0.624763 2.01586L3.90618 5.29727L0.624793 8.57866C0.322747 8.8807 0.322747 9.37042 0.624793 9.67246C0.92684 9.97451 1.41655 9.97451 1.7186 9.67246L4.99998 6.39108L8.2814 9.6725C8.58345 9.97454 9.07316 9.97454 9.37521 9.6725C9.67725 9.37045 9.67725 8.88074 9.37521 8.57869L6.09379 5.29727L9.37524 2.01582C9.67729 1.71378 9.67729 1.22406 9.37524 0.922016C9.07319 0.619969 8.58348 0.61997 8.28143 0.922016L4.99998 4.20347L1.71857 0.922051Z" fill="#C5C5C5"/>
</svg>
