<svg width="140" height="562" viewBox="0 0 140 562" fill="none" xmlns="http://www.w3.org/2000/svg">
<path d="M0 4.92925C0 2.25382 2.16886 0.0849609 4.84429 0.0849609H135.156C137.831 0.0849609 140 2.25382 140 4.92925V33.0261H0V4.92925Z" fill="white"/>
<circle cx="19.1349" cy="16.3129" r="3.14879" fill="#ED6A5F"/>
<circle cx="29.308" cy="16.3129" r="3.14879" fill="#F5BE4F"/>
<circle cx="39.481" cy="16.3129" r="3.14879" fill="#61C554"/>
<path d="M64.0506 12.6499V19.008H62.1432C62.0588 19.008 61.978 18.9745 61.9184 18.9149C61.8588 18.8553 61.8253 18.7744 61.8253 18.6901V12.9678C61.8253 12.8835 61.8588 12.8026 61.9184 12.743C61.978 12.6834 62.0588 12.6499 62.1432 12.6499H64.0506Z" fill="#1C1C1C" fill-opacity="0.1"/>
<path d="M69.5529 12.1953H61.7275C61.5388 12.1953 61.3578 12.2742 61.2244 12.4146C61.091 12.555 61.0161 12.7454 61.0161 12.944V19.6819C61.0161 19.8805 61.091 20.0709 61.2244 20.2113C61.3578 20.3517 61.5388 20.4306 61.7275 20.4306H69.5529C69.7415 20.4306 69.9225 20.3517 70.0559 20.2113C70.1893 20.0709 70.2643 19.8805 70.2643 19.6819V12.944C70.2643 12.7454 70.1893 12.555 70.0559 12.4146C69.9225 12.2742 69.7415 12.1953 69.5529 12.1953ZM61.7275 17.436H62.4389C62.5332 17.436 62.6237 17.3965 62.6904 17.3263C62.7571 17.2561 62.7946 17.1609 62.7946 17.0616C62.7946 16.9623 62.7571 16.8671 62.6904 16.7969C62.6237 16.7267 62.5332 16.6873 62.4389 16.6873H61.7275V15.9386H62.4389C62.5332 15.9386 62.6237 15.8992 62.6904 15.829C62.7571 15.7588 62.7946 15.6636 62.7946 15.5643C62.7946 15.465 62.7571 15.3698 62.6904 15.2996C62.6237 15.2294 62.5332 15.19 62.4389 15.19H61.7275V14.4413H62.4389C62.5332 14.4413 62.6237 14.4019 62.6904 14.3317C62.7571 14.2615 62.7946 14.1662 62.7946 14.067C62.7946 13.9677 62.7571 13.8725 62.6904 13.8023C62.6237 13.7321 62.5332 13.6926 62.4389 13.6926H61.7275V12.944H63.506V19.6819H61.7275V17.436ZM69.5529 19.6819H64.2174V12.944H69.5529V19.6819Z" fill="#898686"/>
<g clip-path="url(#clip0_1730_10039)">
<path d="M90.2976 16.3133L94.0035 20.0192L94.5799 19.4015L91.5329 16.3133L94.5799 13.2251L94.0035 12.6074L90.2976 16.3133Z" fill="#898686"/>
</g>
<g clip-path="url(#clip1_1730_10039)">
<path d="M107.035 12.6074L106.458 13.2251L109.505 16.3133L106.458 19.4015L107.035 20.0192L110.74 16.3133L107.035 12.6074Z" fill="#898686" fill-opacity="0.4"/>
</g>
<g clip-path="url(#clip2_1730_10039)">
<rect width="140" height="528.889" transform="translate(0 33.0259)" fill="#F6F6F6"/>
<mask id="path-9-inside-1_1730_10039" fill="white">
<path d="M0 37.8702C0 35.1947 2.16886 33.0259 4.84429 33.0259H133.702C136.378 33.0259 138.547 35.1947 138.547 37.8702V81.9532H0V37.8702Z"/>
</mask>
<path d="M0 37.8702C0 35.1947 2.16886 33.0259 4.84429 33.0259H133.702C136.378 33.0259 138.547 35.1947 138.547 37.8702V81.9532H0V37.8702Z" fill="#F6F6F6"/>
<path d="M0 33.0259H138.547H0ZM138.547 82.3408H0V81.5657H138.547V82.3408ZM0 81.9532V33.0259V81.9532ZM138.547 33.0259V81.9532V33.0259Z" fill="#E6E6E6" mask="url(#path-9-inside-1_1730_10039)"/>
<g clip-path="url(#clip3_1730_10039)">
<path d="M95.6967 61.1641L44.9759 61.1226C44.9175 61.1226 44.8614 61.1459 44.8201 61.1874C44.7788 61.2289 44.7556 61.2853 44.7556 61.344C44.7556 61.4027 44.7788 61.4591 44.8201 61.5006C44.8614 61.5421 44.9175 61.5655 44.9759 61.5655L95.6967 61.607C95.7551 61.607 95.8111 61.5837 95.8524 61.5421C95.8937 61.5006 95.917 61.4443 95.917 61.3855C95.917 61.3268 95.8937 61.2705 95.8524 61.2289C95.8111 61.1874 95.7551 61.1641 95.6967 61.1641Z" fill="#231F20"/>
<path d="M53.1273 49.0294V50.3664H49.8429V58.6211H48.2879V50.3664H45.0035V49.0294H53.1273ZM63.782 49.0294V58.6211H62.3432V53.0695L62.4595 50.4246H62.445L59.5238 58.6211H58.2304L55.3093 50.4246H55.2948L55.411 53.0695V58.6211H53.9723V49.0294H56.283L58.2159 54.581L58.8844 56.8626H58.9135L59.5965 54.581L61.5148 49.0294H63.782Z" fill="#231F20"/>
<path d="M64.586 59.5898V52.8078H65.8746L65.9424 53.9472C66.1775 53.5132 66.4895 53.1922 66.8783 52.9842C67.2762 52.7762 67.6967 52.6722 68.1398 52.6722C68.6281 52.6722 69.0757 52.7852 69.4826 53.0113C69.8986 53.2283 70.2106 53.5584 70.4185 54.0015C70.5632 53.7031 70.7622 53.4544 71.0154 53.2554C71.2686 53.0565 71.5489 52.9118 71.8563 52.8214C72.1638 52.7219 72.4667 52.6722 72.7651 52.6722C73.1992 52.6722 73.6061 52.7626 73.9859 52.9435C74.3657 53.1243 74.6731 53.4001 74.9082 53.7709C75.1433 54.1416 75.2609 54.6164 75.2609 55.1951V59.5898H73.8095V55.4257C73.8095 54.8741 73.6784 54.4762 73.4162 54.2321C73.154 53.9879 72.8194 53.8658 72.4125 53.8658C72.096 53.8658 71.8021 53.9427 71.5308 54.0964C71.2686 54.2501 71.0561 54.4807 70.8933 54.7882C70.7305 55.0866 70.6491 55.4573 70.6491 55.9004V59.5898H69.1978V55.4257C69.1978 54.8741 69.0667 54.4762 68.8044 54.2321C68.5422 53.9879 68.2076 53.8658 67.8007 53.8658C67.5294 53.8658 67.2581 53.9382 66.9868 54.0829C66.7156 54.2275 66.4895 54.4536 66.3086 54.7611C66.1278 55.0685 66.0374 55.4754 66.0374 55.9818V59.5898H64.586ZM79.4958 59.7255C78.8176 59.7255 78.2208 59.5853 77.7054 59.305C77.19 59.0247 76.7876 58.6223 76.4982 58.0978C76.2179 57.5643 76.0777 56.9313 76.0777 56.1988C76.0777 55.4664 76.2179 54.8379 76.4982 54.3134C76.7876 53.7799 77.1854 53.373 77.6918 53.0927C78.1982 52.8124 78.7724 52.6722 79.4145 52.6722C80.0746 52.6722 80.6352 52.8078 81.0964 53.0791C81.5576 53.3504 81.9102 53.7211 82.1544 54.1914C82.3985 54.6616 82.5206 55.1951 82.5206 55.7919C82.5206 55.9547 82.5161 56.1084 82.507 56.2531C82.498 56.3978 82.4844 56.5244 82.4664 56.6329H77.0136V55.5206H81.8288L81.11 55.7377C81.11 55.1228 80.9562 54.6525 80.6488 54.327C80.3413 53.9924 79.9208 53.8251 79.3873 53.8251C78.9985 53.8251 78.6594 53.9156 78.37 54.0964C78.0807 54.2773 77.8591 54.5486 77.7054 54.9103C77.5517 55.2629 77.4748 55.697 77.4748 56.2124C77.4748 56.7188 77.5562 57.1483 77.7189 57.501C77.8817 57.8536 78.1123 58.1204 78.4107 58.3013C78.7091 58.4821 79.0618 58.5725 79.4687 58.5725C79.9208 58.5725 80.2871 58.4866 80.5674 58.3148C80.8477 58.143 81.0693 57.9034 81.232 57.5959L82.385 58.1385C82.2222 58.464 82.0007 58.7489 81.7203 58.993C81.4491 59.2281 81.1235 59.409 80.7437 59.5356C80.3639 59.6622 79.948 59.7255 79.4958 59.7255ZM86.3881 59.7255C85.7098 59.7255 85.113 59.5853 84.5976 59.305C84.0822 59.0247 83.6798 58.6223 83.3904 58.0978C83.1101 57.5643 82.9699 56.9313 82.9699 56.1988C82.9699 55.4664 83.1101 54.8379 83.3904 54.3134C83.6798 53.7799 84.0776 53.373 84.584 53.0927C85.0904 52.8124 85.6646 52.6722 86.3067 52.6722C86.9668 52.6722 87.5274 52.8078 87.9886 53.0791C88.4498 53.3504 88.8024 53.7211 89.0466 54.1914C89.2907 54.6616 89.4128 55.1951 89.4128 55.7919C89.4128 55.9547 89.4083 56.1084 89.3993 56.2531C89.3902 56.3978 89.3767 56.5244 89.3586 56.6329H83.9058V55.5206H88.7211L88.0022 55.7377C88.0022 55.1228 87.8484 54.6525 87.541 54.327C87.2335 53.9924 86.8131 53.8251 86.2795 53.8251C85.8907 53.8251 85.5516 53.9156 85.2622 54.0964C84.9729 54.2773 84.7513 54.5486 84.5976 54.9103C84.4439 55.2629 84.367 55.697 84.367 56.2124C84.367 56.7188 84.4484 57.1483 84.6112 57.501C84.7739 57.8536 85.0045 58.1204 85.3029 58.3013C85.6013 58.4821 85.954 58.5725 86.3609 58.5725C86.8131 58.5725 87.1793 58.4866 87.4596 58.3148C87.7399 58.143 87.9615 57.9034 88.1242 57.5959L89.2772 58.1385C89.1144 58.464 88.8929 58.7489 88.6125 58.993C88.3413 59.2281 88.0157 59.409 87.6359 59.5356C87.2561 59.6622 86.8402 59.7255 86.3881 59.7255ZM92.1176 50.8139V57.5552C92.1176 57.8898 92.2035 58.134 92.3753 58.2877C92.5561 58.4414 92.7958 58.5183 93.0942 58.5183C93.3383 58.5183 93.5508 58.4821 93.7317 58.4098C93.9125 58.3284 94.0798 58.2199 94.2336 58.0842L94.5591 59.1422C94.3511 59.3231 94.0934 59.4678 93.7859 59.5763C93.4875 59.6757 93.153 59.7255 92.7822 59.7255C92.3934 59.7255 92.0362 59.6622 91.7107 59.5356C91.3851 59.409 91.1319 59.2055 90.9511 58.9252C90.7702 58.6358 90.6753 58.2606 90.6662 57.7994V51.2208L92.1176 50.8139ZM94.4506 52.8078V53.9472H89.3641V52.8078H94.4506Z" fill="#36AAD9"/>
<path d="M48.975 64.6052C48.7928 64.6052 48.6349 64.5655 48.5012 64.4861C48.3694 64.4047 48.2667 64.2904 48.1931 64.1431C48.1214 63.9958 48.0856 63.8205 48.0856 63.617C48.0856 63.4135 48.1234 63.2382 48.1989 63.0909C48.2764 62.9436 48.384 62.8303 48.5216 62.7508C48.6591 62.6695 48.8171 62.6288 48.9953 62.6288C49.1852 62.6288 49.3393 62.6646 49.4575 62.7363C49.5776 62.808 49.6745 62.9185 49.7481 63.0677L49.536 63.1839C49.4933 63.0735 49.4255 62.9902 49.3325 62.934C49.2414 62.8758 49.129 62.8468 48.9953 62.8468C48.8655 62.8468 48.7502 62.8778 48.6494 62.9398C48.5506 62.9998 48.4721 63.088 48.414 63.2043C48.3578 63.3186 48.3297 63.4562 48.3297 63.617C48.3297 63.7778 48.3539 63.9164 48.4024 64.0326C48.4528 64.147 48.5264 64.2351 48.6233 64.2971C48.7221 64.3572 48.8422 64.3872 48.9837 64.3872C49.0631 64.3872 49.1368 64.3776 49.2046 64.3582C49.2744 64.3369 49.3344 64.3059 49.3848 64.2652C49.4371 64.2245 49.4778 64.1731 49.5069 64.1111C49.536 64.0491 49.5505 63.9764 49.5505 63.8931V63.8263H48.9401V63.6083H49.7627V64.5762H49.5796L49.5679 64.2187L49.6173 64.2274C49.567 64.3475 49.4875 64.4405 49.379 64.5064C49.2705 64.5723 49.1358 64.6052 48.975 64.6052ZM51.8747 64.3582H52.9734V64.5762H51.6422V62.6578H51.8747V64.3582ZM55.4213 62.6288C55.6035 62.6288 55.7604 62.6695 55.8922 62.7508C56.0259 62.8303 56.1286 62.9436 56.2003 63.0909C56.2739 63.2382 56.3107 63.4135 56.3107 63.617C56.3107 63.8205 56.2739 63.9958 56.2003 64.1431C56.1286 64.2904 56.0259 64.4047 55.8922 64.4861C55.7604 64.5655 55.6035 64.6052 55.4213 64.6052C55.2392 64.6052 55.0813 64.5655 54.9476 64.4861C54.8158 64.4047 54.7131 64.2904 54.6395 64.1431C54.5678 63.9958 54.5319 63.8205 54.5319 63.617C54.5319 63.4135 54.5678 63.2382 54.6395 63.0909C54.7131 62.9436 54.8158 62.8303 54.9476 62.7508C55.0813 62.6695 55.2392 62.6288 55.4213 62.6288ZM55.4213 62.8468C55.2896 62.8468 55.1752 62.8778 55.0784 62.9398C54.9815 62.9998 54.9069 63.088 54.8546 63.2043C54.8022 63.3186 54.7761 63.4562 54.7761 63.617C54.7761 63.7778 54.8022 63.9164 54.8546 64.0326C54.9069 64.147 54.9815 64.2351 55.0784 64.2971C55.1752 64.3572 55.2896 64.3872 55.4213 64.3872C55.555 64.3872 55.6694 64.3572 55.7643 64.2971C55.8612 64.2351 55.9358 64.147 55.9881 64.0326C56.0404 63.9164 56.0666 63.7778 56.0666 63.617C56.0666 63.4562 56.0404 63.3186 55.9881 63.2043C55.9358 63.088 55.8612 62.9998 55.7643 62.9398C55.6694 62.8778 55.555 62.8468 55.4213 62.8468ZM58.1595 64.5762V62.6578H58.8425C59.0692 62.6578 59.2349 62.7053 59.3395 62.8003C59.4442 62.8952 59.4965 63.0241 59.4965 63.1868C59.4965 63.2837 59.4684 63.3719 59.4122 63.4513C59.356 63.5288 59.2766 63.5782 59.1739 63.5996V63.6025C59.2882 63.6238 59.3783 63.6761 59.4442 63.7594C59.512 63.8408 59.5459 63.9338 59.5459 64.0385C59.5459 64.2012 59.4849 64.332 59.3628 64.4308C59.2407 64.5277 59.0663 64.5762 58.8396 64.5762H58.1595ZM58.392 64.3582H58.8948C59.0324 64.3582 59.1341 64.3301 59.2 64.2739C59.2678 64.2177 59.3017 64.1392 59.3017 64.0385C59.3017 63.9358 59.2678 63.8573 59.2 63.803C59.1341 63.7468 59.0324 63.7187 58.8948 63.7187H58.392V64.3582ZM58.392 63.5007H58.8454C59.1167 63.5007 59.2523 63.3961 59.2523 63.1868C59.2523 62.9795 59.1167 62.8758 58.8454 62.8758H58.392V63.5007ZM62.8959 64.5762H62.6488L62.4454 64.0443H61.5763L61.3728 64.5762H61.1287L61.8757 62.6578H62.1518L62.8959 64.5762ZM61.6606 63.8263H62.3611L62.0094 62.8816L61.6606 63.8263ZM64.8554 64.3582H65.9541V64.5762H64.6228V62.6578H64.8554V64.3582ZM70.1777 64.3582H71.2764V64.5762H69.9452V62.6578H70.1777V64.3582ZM73.2518 62.6578V64.5762H73.0193V62.6578H73.2518ZM77.0708 62.6578V64.5762H76.8499V63.3699L76.8761 62.8642H76.8731L76.2424 64.5762H76.0448L75.414 62.8642H75.4111L75.4373 63.3699V64.5762H75.2164V62.6578H75.5739L75.9954 63.8234L76.1407 64.303H76.1465L76.2947 63.8263L76.7133 62.6578H77.0708ZM79.2668 62.6578V64.5762H79.0342V62.6578H79.2668ZM82.58 62.6578V62.8758H81.9114V64.5762H81.6789V62.8758H81.0104V62.6578H82.58ZM84.3225 64.5762V62.6578H85.6682V62.8758H84.555V63.4949H85.4212V63.7129H84.555V64.3582H85.7118V64.5762H84.3225ZM88.1321 62.6578C88.4325 62.6578 88.6679 62.7412 88.8384 62.9078C89.0109 63.0725 89.0971 63.3089 89.0971 63.617C89.0971 63.9251 89.0109 64.1625 88.8384 64.3291C88.6679 64.4938 88.4325 64.5762 88.1321 64.5762H87.513V62.6578H88.1321ZM88.1554 64.3582C88.3743 64.3582 88.5449 64.2933 88.6669 64.1634C88.7909 64.0317 88.853 63.8495 88.853 63.617C88.853 63.3845 88.7909 63.2033 88.6669 63.0735C88.5449 62.9417 88.3743 62.8758 88.1554 62.8758H87.7456V64.3582H88.1554Z" fill="black"/>
</g>
<mask id="path-15-inside-2_1730_10039" fill="white">
<path d="M0 444.401H138.547V561.633H0V444.401Z"/>
</mask>
<path d="M0 444.401H138.547V561.633H0V444.401Z" fill="#F6F6F6"/>
<path d="M0 444.788H138.547V444.013H0V444.788Z" fill="#E6E6E6" mask="url(#path-15-inside-2_1730_10039)"/>
<path d="M18.2721 524.44C18.25 524.245 18.1592 524.094 17.9996 523.986C17.8399 523.878 17.639 523.823 17.3968 523.823C17.2234 523.823 17.0734 523.851 16.9468 523.906C16.8201 523.959 16.7217 524.034 16.6516 524.129C16.5827 524.222 16.5483 524.329 16.5483 524.449C16.5483 524.549 16.5717 524.636 16.6185 524.709C16.6667 524.782 16.7293 524.843 16.8064 524.893C16.8848 524.941 16.9688 524.981 17.0582 525.014C17.1477 525.046 17.2337 525.072 17.3163 525.093L17.7291 525.2C17.864 525.233 18.0023 525.278 18.1441 525.334C18.2858 525.391 18.4172 525.465 18.5384 525.557C18.6595 525.649 18.7572 525.764 18.8315 525.9C18.9072 526.036 18.945 526.199 18.945 526.389C18.945 526.629 18.8831 526.841 18.7592 527.027C18.6368 527.213 18.4585 527.359 18.2246 527.467C17.992 527.574 17.7106 527.628 17.3803 527.628C17.0637 527.628 16.7899 527.578 16.5587 527.477C16.3275 527.377 16.1465 527.234 16.0157 527.05C15.885 526.864 15.8127 526.644 15.799 526.389H16.4389C16.4513 526.542 16.5009 526.669 16.5876 526.771C16.6756 526.872 16.7878 526.947 16.924 526.996C17.0617 527.044 17.2124 527.068 17.3761 527.068C17.5564 527.068 17.7167 527.04 17.8571 526.984C17.9989 526.926 18.1103 526.846 18.1915 526.744C18.2727 526.641 18.3133 526.521 18.3133 526.383C18.3133 526.258 18.2776 526.155 18.206 526.075C18.1358 525.996 18.0402 525.93 17.9191 525.877C17.7993 525.825 17.6638 525.779 17.5124 525.739L17.0128 525.603C16.6743 525.51 16.4059 525.375 16.2077 525.196C16.0109 525.017 15.9125 524.78 15.9125 524.486C15.9125 524.242 15.9786 524.03 16.1107 523.848C16.2428 523.666 16.4217 523.525 16.6474 523.425C16.8731 523.323 17.1277 523.272 17.4112 523.272C17.6975 523.272 17.95 523.322 18.1688 523.423C18.389 523.523 18.5624 523.662 18.689 523.838C18.8157 524.012 18.8817 524.213 18.8872 524.44H18.2721ZM20.0479 528.747C19.9557 528.747 19.8717 528.739 19.796 528.724C19.7204 528.71 19.6639 528.695 19.6268 528.679L19.7754 528.173C19.8882 528.203 19.9887 528.216 20.0768 528.212C20.1649 528.208 20.2426 528.175 20.3101 528.113C20.3789 528.051 20.4394 527.95 20.4917 527.809L20.5681 527.599L19.4079 524.387H20.0685L20.8716 526.847H20.9046L21.7076 524.387H22.3703L21.0635 527.981C21.003 528.146 20.9259 528.286 20.8323 528.4C20.7388 528.515 20.6273 528.602 20.4979 528.66C20.3686 528.718 20.2185 528.747 20.0479 528.747ZM25.3264 525.161L24.7669 525.26C24.7436 525.188 24.7064 525.12 24.6555 525.056C24.6059 524.991 24.5385 524.938 24.4532 524.897C24.3678 524.855 24.2612 524.835 24.1332 524.835C23.9584 524.835 23.8125 524.874 23.6956 524.952C23.5786 525.03 23.5201 525.129 23.5201 525.252C23.5201 525.358 23.5593 525.443 23.6378 525.508C23.7162 525.572 23.8428 525.625 24.0176 525.667L24.5213 525.782C24.813 525.85 25.0305 525.954 25.1736 526.094C25.3167 526.234 25.3883 526.417 25.3883 526.641C25.3883 526.831 25.3333 527 25.2232 527.149C25.1144 527.296 24.9624 527.412 24.7669 527.496C24.5729 527.58 24.3479 527.622 24.0919 527.622C23.7368 527.622 23.4472 527.546 23.2228 527.395C22.9985 527.242 22.8609 527.025 22.81 526.744L23.4066 526.653C23.4437 526.809 23.5201 526.927 23.6357 527.006C23.7513 527.085 23.902 527.124 24.0878 527.124C24.2901 527.124 24.4518 527.082 24.5729 526.998C24.694 526.913 24.7546 526.809 24.7546 526.686C24.7546 526.587 24.7174 526.504 24.6431 526.437C24.5701 526.369 24.458 526.318 24.3066 526.284L23.7699 526.166C23.474 526.099 23.2552 525.991 23.1134 525.844C22.973 525.697 22.9029 525.51 22.9029 525.285C22.9029 525.098 22.9552 524.934 23.0597 524.793C23.1643 524.653 23.3088 524.544 23.4933 524.465C23.6777 524.385 23.8889 524.346 24.127 524.346C24.4697 524.346 24.7394 524.42 24.9362 524.568C25.133 524.716 25.2631 524.913 25.3264 525.161ZM27.5471 524.387V524.882H25.8151V524.387H27.5471ZM26.2796 523.627H26.8968V526.627C26.8968 526.746 26.9147 526.836 26.9505 526.897C26.9863 526.956 27.0324 526.997 27.0888 527.019C27.1466 527.039 27.2092 527.05 27.2767 527.05C27.3262 527.05 27.3695 527.046 27.4067 527.039C27.4439 527.033 27.4728 527.027 27.4934 527.023L27.6049 527.533C27.5691 527.547 27.5182 527.56 27.4521 527.574C27.3861 527.589 27.3035 527.598 27.2044 527.599C27.042 527.602 26.8906 527.573 26.7502 527.512C26.6099 527.452 26.4963 527.358 26.4096 527.231C26.3229 527.105 26.2796 526.946 26.2796 526.755V523.627ZM29.5624 527.622C29.25 527.622 28.9809 527.555 28.7552 527.421C28.5309 527.287 28.3575 527.097 28.235 526.854C28.1139 526.609 28.0534 526.322 28.0534 525.993C28.0534 525.668 28.1139 525.382 28.235 525.134C28.3575 524.886 28.5282 524.693 28.747 524.554C28.9672 524.415 29.2245 524.346 29.519 524.346C29.6979 524.346 29.8713 524.375 30.0392 524.434C30.2071 524.493 30.3578 524.586 30.4913 524.713C30.6248 524.84 30.7301 525.004 30.8072 525.206C30.8842 525.407 30.9228 525.652 30.9228 525.939V526.158H28.4022V525.696H30.3179C30.3179 525.533 30.2849 525.389 30.2188 525.264C30.1528 525.138 30.0599 525.038 29.9402 524.965C29.8218 524.892 29.6828 524.855 29.5232 524.855C29.3498 524.855 29.1984 524.898 29.069 524.983C28.941 525.067 28.8419 525.177 28.7717 525.314C28.7029 525.449 28.6685 525.595 28.6685 525.753V526.115C28.6685 526.327 28.7057 526.507 28.78 526.656C28.8557 526.804 28.961 526.918 29.0958 526.996C29.2307 527.073 29.3883 527.112 29.5686 527.112C29.6856 527.112 29.7922 527.095 29.8885 527.062C29.9849 527.028 30.0681 526.977 30.1383 526.909C30.2085 526.842 30.2622 526.759 30.2993 526.66L30.8836 526.765C30.8368 526.937 30.7528 527.088 30.6317 527.217C30.512 527.345 30.3613 527.445 30.1796 527.516C29.9993 527.587 29.7936 527.622 29.5624 527.622ZM31.6076 527.558V524.387H32.2001V524.903H32.2393C32.3054 524.728 32.4134 524.592 32.5634 524.494C32.7134 524.395 32.893 524.346 33.1022 524.346C33.3141 524.346 33.4917 524.395 33.6348 524.494C33.7793 524.593 33.8859 524.729 33.9548 524.903H33.9878C34.0635 524.734 34.1839 524.599 34.349 524.498C34.5142 524.396 34.711 524.346 34.9394 524.346C35.2271 524.346 35.4617 524.436 35.6434 524.616C35.8264 524.796 35.9179 525.068 35.9179 525.431V527.558H35.3007V525.489C35.3007 525.274 35.2422 525.119 35.1252 525.023C35.0083 524.926 34.8686 524.878 34.7062 524.878C34.5052 524.878 34.349 524.94 34.2376 525.064C34.1261 525.186 34.0704 525.344 34.0704 525.537V527.558H33.4552V525.45C33.4552 525.278 33.4015 525.14 33.2942 525.035C33.1868 524.93 33.0471 524.878 32.8751 524.878C32.7581 524.878 32.6501 524.909 32.551 524.971C32.4533 525.032 32.3742 525.116 32.3136 525.225C32.2544 525.334 32.2248 525.46 32.2248 525.603V527.558H31.6076ZM38.6903 527.558H38.0132L39.5346 523.33H40.2716L41.793 527.558H41.1159L39.9207 524.098H39.8876L38.6903 527.558ZM38.8039 525.902H41.0003V526.439H38.8039V525.902ZM43.4899 527.62C43.2339 527.62 43.0055 527.554 42.8045 527.423C42.605 527.291 42.4481 527.103 42.3339 526.86C42.221 526.615 42.1646 526.321 42.1646 525.978C42.1646 525.636 42.2217 525.343 42.3359 525.099C42.4515 524.855 42.6098 524.669 42.8107 524.54C43.0117 524.41 43.2394 524.346 43.494 524.346C43.6908 524.346 43.8491 524.379 43.9688 524.445C44.0899 524.509 44.1835 524.585 44.2496 524.672C44.317 524.758 44.3693 524.835 44.4064 524.901H44.4436V523.33H45.0608V527.558H44.4581V527.064H44.4064C44.3693 527.132 44.3156 527.209 44.2454 527.295C44.1766 527.382 44.0817 527.458 43.9606 527.523C43.8394 527.587 43.6826 527.62 43.4899 527.62ZM43.6261 527.093C43.8037 527.093 43.9537 527.046 44.0762 526.953C44.2 526.858 44.2936 526.726 44.3569 526.558C44.4216 526.391 44.4539 526.195 44.4539 525.972C44.4539 525.752 44.4223 525.559 44.359 525.394C44.2957 525.229 44.2028 525.1 44.0803 525.008C43.9578 524.916 43.8064 524.87 43.6261 524.87C43.4403 524.87 43.2855 524.918 43.1617 525.014C43.0378 525.111 42.9442 525.242 42.8809 525.409C42.819 525.575 42.788 525.763 42.788 525.972C42.788 526.184 42.8197 526.375 42.883 526.544C42.9463 526.713 43.0399 526.847 43.1637 526.947C43.289 527.044 43.4431 527.093 43.6261 527.093ZM45.9418 527.558V524.387H46.5343V524.903H46.5735C46.6395 524.728 46.7476 524.592 46.8976 524.494C47.0476 524.395 47.2272 524.346 47.4364 524.346C47.6483 524.346 47.8258 524.395 47.969 524.494C48.1135 524.593 48.2201 524.729 48.2889 524.903H48.322C48.3977 524.734 48.5181 524.599 48.6832 524.498C48.8484 524.396 49.0452 524.346 49.2736 524.346C49.5612 524.346 49.7959 524.436 49.9776 524.616C50.1606 524.796 50.2521 525.068 50.2521 525.431V527.558H49.6349V525.489C49.6349 525.274 49.5764 525.119 49.4594 525.023C49.3424 524.926 49.2027 524.878 49.0404 524.878C48.8394 524.878 48.6832 524.94 48.5717 525.064C48.4603 525.186 48.4045 525.344 48.4045 525.537V527.558H47.7894V525.45C47.7894 525.278 47.7357 525.14 47.6283 525.035C47.521 524.93 47.3813 524.878 47.2093 524.878C47.0923 524.878 46.9843 524.909 46.8852 524.971C46.7875 525.032 46.7083 525.116 46.6478 525.225C46.5886 525.334 46.559 525.46 46.559 525.603V527.558H45.9418ZM51.0794 527.558V524.387H51.6966V527.558H51.0794ZM51.3911 523.898C51.2838 523.898 51.1916 523.862 51.1145 523.79C51.0388 523.717 51.0009 523.631 51.0009 523.53C51.0009 523.428 51.0388 523.342 51.1145 523.27C51.1916 523.197 51.2838 523.161 51.3911 523.161C51.4984 523.161 51.59 523.197 51.6657 523.27C51.7427 523.342 51.7813 523.428 51.7813 523.53C51.7813 523.631 51.7427 523.717 51.6657 523.79C51.59 523.862 51.4984 523.898 51.3911 523.898ZM53.1442 525.675V527.558H52.527V524.387H53.1195V524.903H53.1587C53.2316 524.735 53.3459 524.6 53.5014 524.498C53.6583 524.396 53.8557 524.346 54.0938 524.346C54.3099 524.346 54.4991 524.391 54.6615 524.482C54.8239 524.571 54.9498 524.705 55.0393 524.882C55.1287 525.06 55.1735 525.279 55.1735 525.541V527.558H54.5562V525.615C54.5562 525.385 54.4964 525.206 54.3766 525.076C54.2569 524.946 54.0925 524.88 53.8833 524.88C53.7401 524.88 53.6128 524.911 53.5014 524.973C53.3913 525.035 53.3039 525.126 53.2392 525.246C53.1759 525.364 53.1442 525.507 53.1442 525.675Z" fill="#36AAD9"/>
<rect x="106.574" y="516.581" width="16.955" height="16.955" rx="2.42215" fill="#36AAD9"/>
<path d="M117.258 526.965L119.023 525.058M119.023 525.058L117.258 523.152M119.023 525.058H112.845M115.493 526.965V527.441C115.493 527.821 115.354 528.184 115.105 528.452C114.857 528.721 114.52 528.871 114.169 528.871H112.404C112.053 528.871 111.716 528.721 111.468 528.452C111.22 528.184 111.08 527.821 111.08 527.441V522.675C111.08 522.296 111.22 521.933 111.468 521.664C111.716 521.396 112.053 521.246 112.404 521.246H114.169C114.52 521.246 114.857 521.396 115.105 521.664C115.354 521.933 115.493 522.296 115.493 522.675V523.152" stroke="white" stroke-width="0.635463" stroke-linecap="round" stroke-linejoin="round"/>
<g clip-path="url(#clip4_1730_10039)">
<path fill-rule="evenodd" clip-rule="evenodd" d="M30.5188 460.231C29.1811 460.231 28.0966 461.316 28.0966 462.654C28.0966 463.991 29.1811 465.076 30.5188 465.076C31.8565 465.076 32.9409 463.991 32.9409 462.654C32.9409 461.316 31.8565 460.231 30.5188 460.231ZM28.904 462.654C28.904 461.762 29.627 461.039 30.5188 461.039C31.4106 461.039 32.1335 461.762 32.1335 462.654C32.1335 463.545 31.4106 464.268 30.5188 464.268C29.627 464.268 28.904 463.545 28.904 462.654Z" fill="#454545" fill-opacity="0.7"/>
<path fill-rule="evenodd" clip-rule="evenodd" d="M31.5287 458.628C30.9656 458.084 30.0719 458.084 29.5088 458.628C29.3658 458.767 29.1669 458.831 28.9699 458.803C28.1941 458.694 27.4711 459.219 27.3357 459.991C27.3013 460.187 27.1784 460.356 27.0026 460.449C26.3105 460.816 26.0344 461.666 26.3785 462.37C26.4659 462.549 26.4659 462.758 26.3785 462.937C26.0344 463.641 26.3105 464.491 27.0026 464.858C27.1784 464.951 27.3013 465.12 27.3357 465.316C27.4711 466.088 28.1941 466.613 28.9699 466.504C29.1669 466.476 29.3658 466.54 29.5088 466.679C30.0719 467.224 30.9656 467.224 31.5287 466.679C31.6718 466.54 31.8706 466.476 32.0677 466.504C32.8435 466.613 33.5665 466.088 33.7018 465.316C33.7362 465.12 33.8591 464.951 34.0349 464.858C34.727 464.491 35.0032 463.641 34.6591 462.937C34.5717 462.758 34.5717 462.549 34.6591 462.37C35.0032 461.666 34.727 460.816 34.0349 460.449C33.8591 460.356 33.7362 460.187 33.7018 459.991C33.5665 459.219 32.8435 458.694 32.0677 458.803C31.8706 458.831 31.6718 458.767 31.5287 458.628ZM30.0702 459.209C30.3203 458.967 30.7173 458.967 30.9674 459.209C31.2894 459.52 31.7371 459.666 32.1808 459.603C32.5253 459.554 32.8465 459.787 32.9066 460.13C32.984 460.571 33.2607 460.952 33.6565 461.162C33.9639 461.325 34.0866 461.703 33.9338 462.016C33.737 462.418 33.737 462.889 33.9338 463.291C34.0866 463.604 33.9639 463.982 33.6565 464.145C33.2607 464.355 32.984 464.736 32.9066 465.177C32.8465 465.52 32.5253 465.753 32.1808 465.704C31.7371 465.641 31.2894 465.787 30.9674 466.098C30.7173 466.34 30.3203 466.34 30.0702 466.098C29.7482 465.787 29.3004 465.641 28.8568 465.704C28.5122 465.753 28.1911 465.52 28.131 465.177C28.0536 464.736 27.7768 464.355 27.3811 464.145C27.0736 463.982 26.951 463.604 27.1038 463.291C27.3006 462.889 27.3006 462.418 27.1038 462.016C26.951 461.703 27.0736 461.325 27.3811 461.162C27.7768 460.952 28.0536 460.571 28.131 460.13C28.1911 459.787 28.5122 459.554 28.8568 459.603C29.3004 459.666 29.7482 459.52 30.0702 459.209Z" fill="#454545" fill-opacity="0.7"/>
</g>
<path d="M46.4089 461.11C46.38 460.866 46.2628 460.677 46.0572 460.542C45.8517 460.407 45.5996 460.34 45.301 460.34C45.0826 460.34 44.8916 460.375 44.7278 460.446C44.5656 460.516 44.4388 460.613 44.3473 460.737C44.2574 460.861 44.2124 461.001 44.2124 461.158C44.2124 461.29 44.2437 461.403 44.3063 461.498C44.3706 461.591 44.4525 461.669 44.552 461.732C44.6515 461.793 44.7559 461.843 44.8651 461.883C44.9743 461.922 45.0746 461.953 45.1661 461.977L45.6671 462.112C45.7955 462.146 45.9384 462.192 46.0958 462.252C46.2547 462.311 46.4065 462.392 46.551 462.495C46.6971 462.596 46.8175 462.726 46.9122 462.885C47.0069 463.044 47.0543 463.239 47.0543 463.471C47.0543 463.737 46.9845 463.978 46.8448 464.193C46.7067 464.408 46.5044 464.579 46.2379 464.706C45.9729 464.833 45.651 464.896 45.2721 464.896C44.9189 464.896 44.613 464.839 44.3545 464.725C44.0976 464.611 43.8953 464.452 43.7476 464.248C43.6015 464.045 43.5188 463.808 43.4995 463.538H44.1161C44.1321 463.724 44.1948 463.878 44.3039 464C44.4147 464.121 44.5544 464.211 44.723 464.27C44.8932 464.328 45.0762 464.357 45.2721 464.357C45.5001 464.357 45.7048 464.32 45.8862 464.246C46.0677 464.171 46.2114 464.066 46.3173 463.933C46.4233 463.798 46.4763 463.641 46.4763 463.461C46.4763 463.297 46.4305 463.164 46.339 463.061C46.2475 462.958 46.1271 462.875 45.9778 462.811C45.8284 462.746 45.6671 462.69 45.4937 462.642L44.8868 462.469C44.5014 462.358 44.1964 462.2 43.9716 461.994C43.7468 461.789 43.6344 461.52 43.6344 461.187C43.6344 460.911 43.7091 460.67 43.8584 460.465C44.0093 460.258 44.2116 460.097 44.4653 459.983C44.7206 459.868 45.0056 459.81 45.3203 459.81C45.6382 459.81 45.9208 459.867 46.168 459.981C46.4153 460.093 46.6112 460.247 46.7557 460.443C46.9018 460.639 46.9788 460.861 46.9869 461.11H46.4089ZM49.5103 464.887C49.1538 464.887 48.8463 464.808 48.5878 464.651C48.331 464.492 48.1327 464.27 47.993 463.986C47.8549 463.7 47.7859 463.368 47.7859 462.989C47.7859 462.61 47.8549 462.276 47.993 461.987C48.1327 461.696 48.3269 461.47 48.5758 461.308C48.8263 461.144 49.1185 461.062 49.4525 461.062C49.6451 461.062 49.8354 461.094 50.0232 461.158C50.2111 461.223 50.3821 461.327 50.5362 461.472C50.6904 461.614 50.8132 461.804 50.9047 462.04C50.9962 462.276 51.042 462.567 51.042 462.912V463.153H48.1905V462.661H50.464C50.464 462.453 50.4222 462.266 50.3387 462.103C50.2569 461.939 50.1397 461.81 49.9871 461.715C49.8362 461.62 49.658 461.573 49.4525 461.573C49.2261 461.573 49.0302 461.629 48.8648 461.741C48.701 461.852 48.575 461.997 48.4867 462.175C48.3984 462.353 48.3542 462.544 48.3542 462.748V463.076C48.3542 463.355 48.4024 463.592 48.4987 463.786C48.5967 463.979 48.7324 464.126 48.9058 464.227C49.0792 464.326 49.2807 464.376 49.5103 464.376C49.6596 464.376 49.7944 464.355 49.9149 464.313C50.0369 464.27 50.1421 464.206 50.2304 464.121C50.3187 464.034 50.3869 463.926 50.4351 463.798L50.9842 463.952C50.9264 464.138 50.8293 464.302 50.6928 464.443C50.5563 464.583 50.3877 464.692 50.187 464.771C49.9863 464.848 49.7607 464.887 49.5103 464.887ZM53.5154 461.11V461.592H51.5983V461.11H53.5154ZM52.1571 460.224H52.7255V463.75C52.7255 463.91 52.7487 464.031 52.7953 464.111C52.8435 464.19 52.9045 464.243 52.9783 464.27C53.0538 464.296 53.1333 464.309 53.2168 464.309C53.2794 464.309 53.3308 464.305 53.3709 464.299C53.411 464.291 53.4431 464.285 53.4672 464.28L53.5828 464.79C53.5443 464.805 53.4905 464.819 53.4215 464.834C53.3524 464.85 53.2649 464.858 53.159 464.858C52.9984 464.858 52.8411 464.823 52.6869 464.754C52.5344 464.685 52.4075 464.58 52.3064 464.439C52.2068 464.297 52.1571 464.119 52.1571 463.904V460.224ZM55.9792 461.11V461.592H54.0621V461.11H55.9792ZM54.6208 460.224H55.1892V463.75C55.1892 463.91 55.2125 464.031 55.2591 464.111C55.3072 464.19 55.3683 464.243 55.4421 464.27C55.5176 464.296 55.597 464.309 55.6805 464.309C55.7432 464.309 55.7945 464.305 55.8347 464.299C55.8748 464.291 55.9069 464.285 55.931 464.28L56.0466 464.79C56.0081 464.805 55.9543 464.819 55.8853 464.834C55.8162 464.85 55.7287 464.858 55.6227 464.858C55.4622 464.858 55.3048 464.823 55.1507 464.754C54.9982 464.685 54.8713 464.58 54.7702 464.439C54.6706 464.297 54.6208 464.119 54.6208 463.904V460.224ZM56.8342 464.81V461.11H57.4025V464.81H56.8342ZM57.1232 460.494C57.0124 460.494 56.9168 460.456 56.8366 460.381C56.7579 460.305 56.7186 460.214 56.7186 460.108C56.7186 460.002 56.7579 459.912 56.8366 459.836C56.9168 459.761 57.0124 459.723 57.1232 459.723C57.2339 459.723 57.3287 459.761 57.4073 459.836C57.4876 459.912 57.5278 460.002 57.5278 460.108C57.5278 460.214 57.4876 460.305 57.4073 460.381C57.3287 460.456 57.2339 460.494 57.1232 460.494ZM59.0119 462.584V464.81H58.4436V461.11H58.9927V461.688H59.0408C59.1275 461.5 59.2592 461.35 59.4358 461.236C59.6124 461.12 59.8404 461.062 60.1198 461.062C60.3703 461.062 60.5894 461.114 60.7773 461.216C60.9651 461.317 61.1112 461.472 61.2156 461.679C61.32 461.884 61.3721 462.144 61.3721 462.459V464.81H60.8038V462.498C60.8038 462.207 60.7283 461.981 60.5774 461.818C60.4265 461.655 60.2193 461.573 59.956 461.573C59.7746 461.573 59.6124 461.612 59.4695 461.691C59.3282 461.769 59.2166 461.884 59.1348 462.035C59.0529 462.186 59.0119 462.369 59.0119 462.584ZM63.904 466.274C63.6294 466.274 63.3934 466.239 63.1959 466.168C62.9984 466.099 62.8338 466.007 62.7022 465.893C62.5721 465.781 62.4686 465.661 62.3915 465.532L62.8443 465.214C62.8957 465.282 62.9607 465.359 63.0394 465.445C63.118 465.534 63.2256 465.61 63.3621 465.674C63.5002 465.74 63.6808 465.773 63.904 465.773C64.2026 465.773 64.4491 465.701 64.6433 465.556C64.8376 465.412 64.9347 465.185 64.9347 464.877V464.126H64.8866C64.8448 464.193 64.7854 464.277 64.7084 464.376C64.6329 464.474 64.5237 464.562 64.3808 464.639C64.2395 464.714 64.0485 464.752 63.8076 464.752C63.509 464.752 63.2409 464.681 63.0032 464.54C62.7672 464.399 62.5802 464.193 62.4421 463.923C62.3056 463.654 62.2374 463.326 62.2374 462.941C62.2374 462.562 62.304 462.232 62.4373 461.951C62.5705 461.668 62.756 461.45 62.9936 461.296C63.2312 461.14 63.5058 461.062 63.8173 461.062C64.0581 461.062 64.2492 461.102 64.3905 461.183C64.5334 461.261 64.6425 461.351 64.718 461.452C64.7951 461.552 64.8545 461.634 64.8962 461.698H64.954V461.11H65.5031V464.916C65.5031 465.233 65.4309 465.492 65.2864 465.691C65.1435 465.892 64.9508 466.039 64.7084 466.132C64.4675 466.227 64.1994 466.274 63.904 466.274ZM63.8847 464.241C64.1127 464.241 64.3054 464.189 64.4627 464.085C64.6201 463.98 64.7397 463.83 64.8216 463.634C64.9034 463.438 64.9444 463.204 64.9444 462.931C64.9444 462.665 64.9042 462.429 64.824 462.225C64.7437 462.021 64.6249 461.862 64.4675 461.746C64.3102 461.631 64.1159 461.573 63.8847 461.573C63.6439 461.573 63.4432 461.634 63.2826 461.756C63.1236 461.878 63.004 462.042 62.9237 462.247C62.8451 462.453 62.8057 462.681 62.8057 462.931C62.8057 463.188 62.8459 463.415 62.9262 463.613C63.008 463.808 63.1285 463.963 63.2874 464.075C63.448 464.186 63.6471 464.241 63.8847 464.241ZM69.1639 461.939L68.6533 462.083C68.6212 461.998 68.5738 461.915 68.5112 461.835C68.4502 461.753 68.3667 461.686 68.2607 461.633C68.1548 461.58 68.0191 461.553 67.8537 461.553C67.6273 461.553 67.4387 461.606 67.2877 461.71C67.1384 461.813 67.0638 461.944 67.0638 462.103C67.0638 462.244 67.1151 462.355 67.2179 462.437C67.3207 462.519 67.4812 462.587 67.6996 462.642L68.2487 462.777C68.5794 462.857 68.8259 462.98 68.9881 463.145C69.1502 463.309 69.2313 463.52 69.2313 463.779C69.2313 463.991 69.1703 464.18 69.0483 464.347C68.9278 464.514 68.7593 464.646 68.5425 464.742C68.3258 464.838 68.0737 464.887 67.7863 464.887C67.409 464.887 67.0967 464.805 66.8494 464.641C66.6022 464.477 66.4456 464.238 66.3798 463.923L66.9193 463.788C66.9706 463.988 67.0678 464.137 67.2107 464.236C67.3552 464.336 67.5438 464.386 67.7766 464.386C68.0416 464.386 68.2519 464.329 68.4076 464.217C68.565 464.103 68.6437 463.967 68.6437 463.808C68.6437 463.679 68.5987 463.572 68.5088 463.485C68.4189 463.397 68.2808 463.331 68.0945 463.287L67.478 463.143C67.1392 463.063 66.8904 462.938 66.7314 462.77C66.5741 462.599 66.4954 462.387 66.4954 462.131C66.4954 461.923 66.554 461.738 66.6712 461.578C66.79 461.417 66.9514 461.291 67.1553 461.199C67.3608 461.108 67.5936 461.062 67.8537 461.062C68.2198 461.062 68.5072 461.142 68.7159 461.303C68.9262 461.464 69.0756 461.675 69.1639 461.939Z" fill="#454545"/>
<path d="M16.1528 95.2634H16.8657L18.542 99.3577H18.5998L20.276 95.2634H20.9889V100.196H20.4301V96.4484H20.382L18.8406 100.196H18.3011L16.7597 96.4484H16.7116V100.196H16.1528V95.2634ZM23.198 100.283C22.9635 100.283 22.7508 100.238 22.5597 100.15C22.3687 100.06 22.2169 99.9309 22.1046 99.7623C21.9922 99.5921 21.936 99.3866 21.936 99.1457C21.936 98.9338 21.9777 98.762 22.0612 98.6304C22.1447 98.4971 22.2563 98.3927 22.396 98.3173C22.5357 98.2418 22.6898 98.1856 22.8584 98.1487C23.0286 98.1101 23.1996 98.0796 23.3714 98.0572C23.5961 98.0283 23.7784 98.0066 23.9181 97.9921C24.0594 97.9761 24.1621 97.9496 24.2263 97.9127C24.2922 97.8757 24.3251 97.8115 24.3251 97.72V97.7007C24.3251 97.4631 24.2601 97.2784 24.13 97.1468C24.0016 97.0151 23.8065 96.9493 23.5448 96.9493C23.2734 96.9493 23.0607 97.0087 22.9065 97.1275C22.7524 97.2463 22.644 97.3732 22.5814 97.508L22.0419 97.3154C22.1383 97.0906 22.2667 96.9156 22.4273 96.7903C22.5894 96.6635 22.7661 96.5752 22.9571 96.5254C23.1498 96.474 23.3393 96.4484 23.5255 96.4484C23.6443 96.4484 23.7808 96.4628 23.9349 96.4917C24.0907 96.519 24.2408 96.576 24.3853 96.6627C24.5314 96.7494 24.6526 96.8803 24.749 97.0553C24.8453 97.2303 24.8935 97.4647 24.8935 97.7585V100.196H24.3251V99.6949H24.2962C24.2576 99.7751 24.1934 99.861 24.1035 99.9526C24.0136 100.044 23.894 100.122 23.7447 100.186C23.5953 100.25 23.4131 100.283 23.198 100.283ZM23.2847 99.7719C23.5094 99.7719 23.6989 99.7278 23.853 99.6395C24.0088 99.5512 24.126 99.4372 24.2047 99.2975C24.2849 99.1578 24.3251 99.0109 24.3251 98.8567V98.3365C24.301 98.3654 24.248 98.3919 24.1661 98.416C24.0858 98.4385 23.9927 98.4586 23.8868 98.4762C23.7824 98.4923 23.6804 98.5067 23.5809 98.5196C23.483 98.5308 23.4035 98.5404 23.3425 98.5485C23.1947 98.5677 23.0567 98.599 22.9282 98.6424C22.8014 98.6841 22.6986 98.7476 22.6199 98.8327C22.5429 98.9161 22.5043 99.0301 22.5043 99.1746C22.5043 99.3721 22.5774 99.5215 22.7235 99.6226C22.8712 99.7222 23.0583 99.7719 23.2847 99.7719ZM25.9309 100.196V96.4965H26.4992V100.196H25.9309ZM26.2199 95.88C26.1091 95.88 26.0136 95.8422 25.9333 95.7668C25.8546 95.6913 25.8153 95.6006 25.8153 95.4946C25.8153 95.3887 25.8546 95.298 25.9333 95.2225C26.0136 95.147 26.1091 95.1093 26.2199 95.1093C26.3307 95.1093 26.4254 95.147 26.5041 95.2225C26.5843 95.298 26.6245 95.3887 26.6245 95.4946C26.6245 95.6006 26.5843 95.6913 26.5041 95.7668C26.4254 95.8422 26.3307 95.88 26.2199 95.88ZM28.1087 97.9705V100.196H27.5403V96.4965H28.0894V97.0745H28.1376C28.2243 96.8867 28.3559 96.7358 28.5325 96.6218C28.7091 96.5062 28.9371 96.4484 29.2165 96.4484C29.467 96.4484 29.6861 96.4997 29.874 96.6025C30.0619 96.7036 30.208 96.8578 30.3123 97.0649C30.4167 97.2704 30.4689 97.5305 30.4689 97.8452V100.196H29.9005V97.8838C29.9005 97.5931 29.825 97.3668 29.6741 97.2046C29.5232 97.0408 29.3161 96.9589 29.0527 96.9589C28.8713 96.9589 28.7091 96.9983 28.5662 97.0769C28.425 97.1556 28.3134 97.2704 28.2315 97.4213C28.1496 97.5723 28.1087 97.7553 28.1087 97.9705Z" fill="#98A2B3"/>
<rect x="15.5556" y="113.822" width="107.543" height="20.346" rx="2.42215" fill="white"/>
<path d="M30.4517 119.999H28.2718C27.8705 119.999 27.5452 120.324 27.5452 120.725V122.905C27.5452 123.306 27.8705 123.632 28.2718 123.632H30.4517C30.8531 123.632 31.1784 123.306 31.1784 122.905V120.725C31.1784 120.324 30.8531 119.999 30.4517 119.999Z" fill="#36AAD9"/>
<path d="M30.4517 124.358H28.2718C27.8705 124.358 27.5452 124.684 27.5452 125.085V127.265C27.5452 127.666 27.8705 127.992 28.2718 127.992H30.4517C30.8531 127.992 31.1784 127.666 31.1784 127.265V125.085C31.1784 124.684 30.8531 124.358 30.4517 124.358Z" fill="#36AAD9"/>
<path d="M34.8116 119.999H32.6317C32.2304 119.999 31.905 120.324 31.905 120.725V122.905C31.905 123.306 32.2304 123.632 32.6317 123.632H34.8116C35.2129 123.632 35.5382 123.306 35.5382 122.905V120.725C35.5382 120.324 35.2129 119.999 34.8116 119.999Z" fill="#36AAD9"/>
<path d="M32.2683 126.538C32.3647 126.538 32.4571 126.5 32.5253 126.432C32.5934 126.364 32.6317 126.271 32.6317 126.175V124.722C32.6317 124.625 32.5934 124.533 32.5253 124.465C32.4571 124.397 32.3647 124.358 32.2683 124.358C32.172 124.358 32.0796 124.397 32.0114 124.465C31.9433 124.533 31.905 124.625 31.905 124.722V126.175C31.905 126.271 31.9433 126.364 32.0114 126.432C32.0796 126.5 32.172 126.538 32.2683 126.538Z" fill="#36AAD9"/>
<path d="M35.1749 125.085H34.085V124.722C34.085 124.625 34.0467 124.533 33.9785 124.465C33.9104 124.397 33.818 124.358 33.7216 124.358C33.6253 124.358 33.5329 124.397 33.4647 124.465C33.3966 124.533 33.3583 124.625 33.3583 124.722V127.265H32.2683C32.172 127.265 32.0796 127.303 32.0114 127.371C31.9433 127.44 31.905 127.532 31.905 127.628C31.905 127.725 31.9433 127.817 32.0114 127.885C32.0796 127.953 32.172 127.992 32.2683 127.992H33.7216C33.818 127.992 33.9104 127.953 33.9785 127.885C34.0467 127.817 34.085 127.725 34.085 127.628V125.812H35.1749C35.2713 125.812 35.3637 125.773 35.4318 125.705C35.5 125.637 35.5382 125.545 35.5382 125.448C35.5382 125.352 35.5 125.26 35.4318 125.191C35.3637 125.123 35.2713 125.085 35.1749 125.085Z" fill="#36AAD9"/>
<path d="M35.1749 126.538C35.0786 126.538 34.9862 126.577 34.918 126.645C34.8499 126.713 34.8116 126.805 34.8116 126.902V127.628C34.8116 127.725 34.8499 127.817 34.918 127.885C34.9862 127.953 35.0786 127.992 35.1749 127.992C35.2713 127.992 35.3637 127.953 35.4318 127.885C35.5 127.817 35.5382 127.725 35.5382 127.628V126.902C35.5382 126.805 35.5 126.713 35.4318 126.645C35.3637 126.577 35.2713 126.538 35.1749 126.538Z" fill="#36AAD9"/>
<path d="M47.2829 125.995H45.5344V121.063H47.2974C47.7935 121.063 48.2206 121.161 48.5786 121.359C48.9367 121.555 49.212 121.837 49.4047 122.204C49.599 122.572 49.6961 123.012 49.6961 123.524C49.6961 124.038 49.599 124.479 49.4047 124.849C49.212 125.218 48.9351 125.501 48.5738 125.699C48.2141 125.896 47.7839 125.995 47.2829 125.995ZM46.5773 125.102H47.2396C47.5478 125.102 47.8071 125.047 48.0175 124.938C48.2294 124.827 48.3884 124.656 48.4943 124.425C48.6019 124.192 48.6557 123.892 48.6557 123.524C48.6557 123.16 48.6019 122.862 48.4943 122.631C48.3884 122.399 48.2302 122.229 48.0199 122.12C47.8095 122.011 47.5502 121.956 47.242 121.956H46.5773V125.102ZM51.5042 126.065C51.2682 126.065 51.0578 126.024 50.8732 125.942C50.6886 125.859 50.5425 125.736 50.4349 125.574C50.3289 125.41 50.2759 125.206 50.2759 124.962C50.2759 124.756 50.3137 124.584 50.3891 124.444C50.4646 124.304 50.5673 124.192 50.6974 124.107C50.8274 124.022 50.9752 123.958 51.1405 123.914C51.3075 123.871 51.4825 123.84 51.6656 123.823C51.8807 123.8 52.0541 123.779 52.1858 123.76C52.3174 123.739 52.413 123.709 52.4724 123.669C52.5318 123.628 52.5615 123.569 52.5615 123.49V123.476C52.5615 123.323 52.5133 123.205 52.417 123.122C52.3222 123.038 52.1874 122.997 52.0124 122.997C51.8277 122.997 51.6808 123.038 51.5716 123.12C51.4625 123.2 51.3902 123.301 51.3549 123.423L50.406 123.346C50.4541 123.121 50.5489 122.927 50.6902 122.763C50.8315 122.598 51.0137 122.471 51.2369 122.383C51.4617 122.293 51.7218 122.248 52.0172 122.248C52.2227 122.248 52.4194 122.272 52.6072 122.32C52.7967 122.368 52.9645 122.443 53.1106 122.544C53.2583 122.645 53.3747 122.775 53.4598 122.934C53.5449 123.091 53.5875 123.28 53.5875 123.5V125.995H52.6145V125.482H52.5856C52.5262 125.598 52.4467 125.7 52.3471 125.788C52.2476 125.875 52.128 125.943 51.9883 125.993C51.8486 126.041 51.6872 126.065 51.5042 126.065ZM51.798 125.357C51.9489 125.357 52.0822 125.327 52.1978 125.268C52.3134 125.207 52.4041 125.125 52.47 125.022C52.5358 124.919 52.5687 124.803 52.5687 124.673V124.28C52.5366 124.301 52.4924 124.32 52.4362 124.338C52.3817 124.354 52.3198 124.369 52.2508 124.384C52.1818 124.397 52.1127 124.409 52.0437 124.42C51.9746 124.43 51.912 124.438 51.8558 124.447C51.7354 124.464 51.6302 124.492 51.5403 124.531C51.4504 124.569 51.3806 124.622 51.3308 124.687C51.281 124.752 51.2561 124.832 51.2561 124.928C51.2561 125.068 51.3067 125.175 51.4079 125.249C51.5106 125.321 51.6407 125.357 51.798 125.357ZM57.4613 123.351L56.5221 123.409C56.506 123.328 56.4715 123.256 56.4185 123.192C56.3655 123.126 56.2957 123.074 56.209 123.035C56.1239 122.995 56.0219 122.975 55.9031 122.975C55.7442 122.975 55.6101 123.009 55.5009 123.076C55.3917 123.142 55.3371 123.23 55.3371 123.341C55.3371 123.429 55.3725 123.504 55.4431 123.565C55.5138 123.626 55.635 123.675 55.8068 123.712L56.4763 123.847C56.836 123.921 57.1041 124.04 57.2807 124.203C57.4573 124.367 57.5456 124.582 57.5456 124.849C57.5456 125.091 57.4742 125.304 57.3313 125.487C57.19 125.67 56.9957 125.813 56.7485 125.916C56.5028 126.017 56.2194 126.067 55.8983 126.067C55.4086 126.067 55.0184 125.965 54.7278 125.762C54.4388 125.556 54.2694 125.277 54.2197 124.923L55.2288 124.87C55.2593 125.02 55.3331 125.134 55.4503 125.212C55.5675 125.289 55.7177 125.328 55.9007 125.328C56.0805 125.328 56.225 125.293 56.3342 125.224C56.445 125.154 56.5012 125.063 56.5028 124.952C56.5012 124.859 56.4619 124.783 56.3848 124.723C56.3077 124.662 56.1889 124.616 56.0283 124.584L55.3877 124.456C55.0265 124.384 54.7575 124.259 54.5809 124.08C54.4059 123.902 54.3184 123.675 54.3184 123.399C54.3184 123.161 54.3826 122.957 54.5111 122.785C54.6411 122.613 54.8234 122.48 55.0578 122.387C55.2938 122.294 55.57 122.248 55.8863 122.248C56.3535 122.248 56.7212 122.346 56.9893 122.544C57.259 122.741 57.4164 123.01 57.4613 123.351ZM59.2176 123.856V125.995H58.1917V121.063H59.1887V122.949H59.2321C59.3156 122.73 59.4505 122.559 59.6367 122.436C59.823 122.31 60.0566 122.248 60.3375 122.248C60.5944 122.248 60.8184 122.304 61.0095 122.416C61.2022 122.527 61.3515 122.687 61.4574 122.896C61.565 123.103 61.618 123.351 61.6164 123.64V125.995H60.5904V123.823C60.592 123.595 60.5342 123.417 60.417 123.291C60.3014 123.164 60.1393 123.1 59.9305 123.1C59.7908 123.1 59.6672 123.13 59.5596 123.189C59.4537 123.249 59.3702 123.335 59.3092 123.449C59.2498 123.562 59.2193 123.698 59.2176 123.856ZM62.4431 125.995V121.063H63.469V122.917H63.5004C63.5453 122.818 63.6103 122.717 63.6954 122.614C63.7821 122.509 63.8945 122.423 64.0326 122.354C64.1723 122.283 64.3457 122.248 64.5528 122.248C64.8226 122.248 65.0714 122.318 65.2994 122.46C65.5274 122.599 65.7096 122.81 65.8461 123.093C65.9826 123.374 66.0508 123.726 66.0508 124.15C66.0508 124.563 65.9842 124.911 65.8509 125.196C65.7193 125.478 65.5395 125.692 65.3115 125.839C65.0851 125.983 64.8314 126.055 64.5504 126.055C64.3513 126.055 64.1819 126.022 64.0422 125.957C63.9042 125.891 63.791 125.808 63.7027 125.709C63.6144 125.607 63.5469 125.505 63.5004 125.403H63.4546V125.995H62.4431ZM63.4474 124.145C63.4474 124.365 63.4779 124.557 63.5389 124.721C63.5999 124.885 63.6882 125.012 63.8038 125.104C63.9194 125.194 64.0599 125.239 64.2253 125.239C64.3923 125.239 64.5336 125.193 64.6492 125.102C64.7648 125.008 64.8523 124.88 64.9117 124.716C64.9727 124.551 65.0032 124.361 65.0032 124.145C65.0032 123.932 64.9735 123.744 64.9141 123.582C64.8547 123.42 64.7672 123.293 64.6516 123.201C64.536 123.11 64.3939 123.064 64.2253 123.064C64.0583 123.064 63.917 123.108 63.8014 123.197C63.6874 123.285 63.5999 123.41 63.5389 123.572C63.4779 123.734 63.4474 123.926 63.4474 124.145ZM68.4068 126.067C68.0327 126.067 67.7092 125.988 67.4363 125.829C67.1649 125.668 66.9554 125.445 66.8077 125.159C66.66 124.872 66.5861 124.539 66.5861 124.16C66.5861 123.778 66.66 123.444 66.8077 123.158C66.9554 122.871 67.1649 122.647 67.4363 122.489C67.7092 122.328 68.0327 122.248 68.4068 122.248C68.7809 122.248 69.1037 122.328 69.375 122.489C69.648 122.647 69.8583 122.871 70.006 123.158C70.1537 123.444 70.2276 123.778 70.2276 124.16C70.2276 124.539 70.1537 124.872 70.006 125.159C69.8583 125.445 69.648 125.668 69.375 125.829C69.1037 125.988 68.7809 126.067 68.4068 126.067ZM68.4117 125.273C68.5818 125.273 68.7239 125.224 68.8379 125.128C68.9519 125.03 69.0378 124.897 69.0956 124.728C69.155 124.56 69.1847 124.368 69.1847 124.153C69.1847 123.938 69.155 123.746 69.0956 123.577C69.0378 123.409 68.9519 123.275 68.8379 123.177C68.7239 123.079 68.5818 123.03 68.4117 123.03C68.2399 123.03 68.0953 123.079 67.9781 123.177C67.8625 123.275 67.775 123.409 67.7156 123.577C67.6578 123.746 67.6289 123.938 67.6289 124.153C67.6289 124.368 67.6578 124.56 67.7156 124.728C67.775 124.897 67.8625 125.03 67.9781 125.128C68.0953 125.224 68.2399 125.273 68.4117 125.273ZM71.9496 126.065C71.7135 126.065 71.5032 126.024 71.3186 125.942C71.1339 125.859 70.9878 125.736 70.8802 125.574C70.7743 125.41 70.7213 125.206 70.7213 124.962C70.7213 124.756 70.759 124.584 70.8345 124.444C70.9099 124.304 71.0127 124.192 71.1428 124.107C71.2728 124.022 71.4205 123.958 71.5859 123.914C71.7529 123.871 71.9279 123.84 72.1109 123.823C72.3261 123.8 72.4995 123.779 72.6311 123.76C72.7628 123.739 72.8583 123.709 72.9177 123.669C72.9771 123.628 73.0068 123.569 73.0068 123.49V123.476C73.0068 123.323 72.9587 123.205 72.8623 123.122C72.7676 123.038 72.6327 122.997 72.4577 122.997C72.2731 122.997 72.1262 123.038 72.017 123.12C71.9078 123.2 71.8356 123.301 71.8002 123.423L70.8513 123.346C70.8995 123.121 70.9942 122.927 71.1355 122.763C71.2768 122.598 71.4591 122.471 71.6822 122.383C71.907 122.293 72.1671 122.248 72.4626 122.248C72.6681 122.248 72.8648 122.272 73.0526 122.32C73.2421 122.368 73.4098 122.443 73.556 122.544C73.7037 122.645 73.8201 122.775 73.9052 122.934C73.9903 123.091 74.0328 123.28 74.0328 123.5V125.995H73.0598V125.482H73.0309C72.9715 125.598 72.892 125.7 72.7925 125.788C72.693 125.875 72.5733 125.943 72.4337 125.993C72.294 126.041 72.1326 126.065 71.9496 126.065ZM72.2434 125.357C72.3943 125.357 72.5276 125.327 72.6432 125.268C72.7588 125.207 72.8495 125.125 72.9153 125.022C72.9812 124.919 73.0141 124.803 73.0141 124.673V124.28C72.982 124.301 72.9378 124.32 72.8816 124.338C72.827 124.354 72.7652 124.369 72.6962 124.384C72.6271 124.397 72.5581 124.409 72.489 124.42C72.42 124.43 72.3574 124.438 72.3012 124.447C72.1808 124.464 72.0756 124.492 71.9857 124.531C71.8958 124.569 71.8259 124.622 71.7762 124.687C71.7264 124.752 71.7015 124.832 71.7015 124.928C71.7015 125.068 71.7521 125.175 71.8532 125.249C71.956 125.321 72.086 125.357 72.2434 125.357ZM74.8288 125.995V122.296H75.8235V122.941H75.862C75.9294 122.712 76.0426 122.538 76.2016 122.421C76.3605 122.302 76.5436 122.243 76.7507 122.243C76.8021 122.243 76.8574 122.246 76.9169 122.252C76.9763 122.259 77.0284 122.268 77.0734 122.279V123.189C77.0252 123.175 76.9586 123.162 76.8735 123.151C76.7884 123.14 76.7105 123.134 76.6399 123.134C76.489 123.134 76.3541 123.167 76.2353 123.233C76.1181 123.297 76.025 123.387 75.9559 123.502C75.8885 123.618 75.8548 123.751 75.8548 123.902V125.995H74.8288ZM78.7948 126.055C78.5138 126.055 78.2593 125.983 78.0313 125.839C77.8049 125.692 77.6251 125.478 77.4919 125.196C77.3602 124.911 77.2944 124.563 77.2944 124.15C77.2944 123.726 77.3626 123.374 77.4991 123.093C77.6356 122.81 77.817 122.599 78.0434 122.46C78.2714 122.318 78.521 122.248 78.7924 122.248C78.9995 122.248 79.1721 122.283 79.3102 122.354C79.4499 122.423 79.5623 122.509 79.6474 122.614C79.7341 122.717 79.7999 122.818 79.8448 122.917H79.8762V121.063H80.8997V125.995H79.8882V125.403H79.8448C79.7967 125.505 79.7284 125.607 79.6401 125.709C79.5534 125.808 79.4402 125.891 79.3006 125.957C79.1625 126.022 78.9939 126.055 78.7948 126.055ZM79.1199 125.239C79.2853 125.239 79.425 125.194 79.539 125.104C79.6546 125.012 79.7429 124.885 79.8039 124.721C79.8665 124.557 79.8978 124.365 79.8978 124.145C79.8978 123.926 79.8673 123.734 79.8063 123.572C79.7453 123.41 79.657 123.285 79.5414 123.197C79.4258 123.108 79.2853 123.064 79.1199 123.064C78.9513 123.064 78.8092 123.11 78.6936 123.201C78.578 123.293 78.4905 123.42 78.4311 123.582C78.3717 123.744 78.342 123.932 78.342 124.145C78.342 124.361 78.3717 124.551 78.4311 124.716C78.4921 124.88 78.5796 125.008 78.6936 125.102C78.8092 125.193 78.9513 125.239 79.1199 125.239Z" fill="#1A1A1A"/>
<path fill-rule="evenodd" clip-rule="evenodd" d="M29.7251 148.943C29.7251 148.943 30.8538 148.943 31.6519 149.741C31.6519 149.741 32.45 150.539 32.45 151.668C32.45 151.668 32.45 152.796 31.6519 153.595C31.6519 153.595 30.8538 154.393 29.7251 154.393C29.7251 154.393 28.5964 154.393 27.7983 153.595C27.7983 153.595 27.0002 152.796 27.0002 151.668C27.0002 151.668 27.0002 150.539 27.7983 149.741C27.7983 149.741 28.5964 148.943 29.7251 148.943ZM29.7251 149.67C29.7251 149.67 28.8974 149.67 28.3121 150.255C28.3121 150.255 27.7268 150.84 27.7268 151.668C27.7268 151.668 27.7268 152.495 28.3121 153.081C28.3121 153.081 28.8974 153.666 29.7251 153.666C29.7251 153.666 30.5528 153.666 31.1381 153.081C31.1381 153.081 31.7234 152.495 31.7234 151.668C31.7234 151.668 31.7234 150.84 31.1381 150.255C31.1381 150.255 30.5528 149.67 29.7251 149.67Z" fill="#5F5F5F"/>
<path d="M34.8394 153.081C34.2542 153.666 33.4264 153.666 33.4264 153.666C33.2258 153.666 33.0631 153.829 33.0631 154.029C33.0631 154.23 33.2258 154.393 33.4264 154.393C34.5551 154.393 35.3532 153.595 35.3532 153.595C36.1514 152.796 36.1514 151.668 36.1514 151.668C36.1514 150.539 35.3532 149.741 35.3532 149.741C34.5551 148.943 33.4264 148.943 33.4264 148.943C33.0518 148.944 32.6912 149.042 32.6912 149.042C32.5329 149.085 32.4228 149.228 32.4228 149.392L32.4228 149.396C32.4231 149.427 32.4274 149.458 32.4354 149.488C32.4784 149.646 32.6221 149.756 32.7861 149.756L32.7898 149.756C32.8207 149.755 32.8514 149.751 32.8812 149.743C33.1495 149.67 33.4264 149.67 33.4264 149.67C34.2542 149.67 34.8394 150.255 34.8394 150.255C35.4247 150.84 35.4247 151.668 35.4247 151.668C35.4247 152.495 34.8394 153.081 34.8394 153.081Z" fill="#5F5F5F"/>
<path d="M31.4 154.802C32.1875 155.211 32.6977 155.937 32.6977 155.937C32.7658 156.034 32.8767 156.091 32.995 156.091C32.9991 156.091 33.0031 156.091 33.0072 156.091C33.0778 156.089 33.1461 156.066 33.2039 156.025C33.2827 155.97 33.3363 155.885 33.3529 155.79C33.3565 155.77 33.3583 155.749 33.3583 155.728L33.3582 155.72C33.3567 155.648 33.3337 155.578 33.2923 155.519C32.68 154.648 31.735 154.157 31.735 154.157C30.79 153.666 29.7251 153.666 29.7251 153.666C28.6602 153.666 27.7152 154.157 27.7152 154.157C26.7703 154.648 26.158 155.519 26.158 155.519C26.115 155.58 26.0919 155.653 26.0919 155.728C26.0919 155.736 26.0922 155.745 26.0928 155.753C26.1004 155.862 26.1568 155.962 26.2463 156.025C26.3075 156.068 26.3804 156.091 26.4552 156.091L26.4563 156.091C26.4769 156.091 26.4974 156.089 26.5177 156.086C26.6126 156.069 26.6971 156.016 26.7525 155.937C27.2627 155.211 28.0502 154.802 28.0502 154.802C28.8377 154.393 29.7251 154.393 29.7251 154.393C30.6125 154.393 31.4 154.802 31.4 154.802Z" fill="#5F5F5F"/>
<path d="M36.3988 155.936C36.4668 156.033 36.578 156.091 36.6963 156.091C36.7003 156.091 36.7043 156.091 36.7083 156.091C36.7789 156.089 36.8473 156.066 36.9051 156.025C37.002 155.957 37.0597 155.846 37.0597 155.728C37.0597 155.724 37.0596 155.72 37.0595 155.716C37.0571 155.645 37.0343 155.577 36.9937 155.519C36.9935 155.519 36.9932 155.518 36.9932 155.518C36.3814 154.647 35.4366 154.156 35.4366 154.156C34.4915 153.665 33.4264 153.666 33.4264 153.666C33.3301 153.666 33.2375 153.704 33.1694 153.773C33.1013 153.841 33.0631 153.933 33.0631 154.029C33.0631 154.23 33.2258 154.393 33.4264 154.393C34.3139 154.392 35.1016 154.801 35.1016 154.801C35.889 155.21 36.3988 155.936 36.3988 155.936Z" fill="#5F5F5F"/>
<path d="M45.703 154.576V149.644H47.3696C47.7566 149.644 48.0729 149.714 48.3185 149.853C48.5658 149.991 48.7488 150.178 48.8676 150.414C48.9864 150.651 49.0458 150.914 49.0458 151.204C49.0458 151.495 48.9864 151.759 48.8676 151.997C48.7504 152.234 48.569 152.424 48.3233 152.565C48.0777 152.705 47.763 152.775 47.3792 152.775H46.1847V152.245H47.36C47.6249 152.245 47.8376 152.199 47.9982 152.108C48.1588 152.016 48.2752 151.892 48.3474 151.737C48.4213 151.579 48.4582 151.402 48.4582 151.204C48.4582 151.007 48.4213 150.83 48.3474 150.675C48.2752 150.519 48.158 150.397 47.9958 150.309C47.8336 150.219 47.6185 150.174 47.3503 150.174H46.3003V154.576H45.703ZM51.0195 154.663C50.7851 154.663 50.5724 154.619 50.3813 154.53C50.1902 154.44 50.0385 154.311 49.9261 154.143C49.8137 153.972 49.7575 153.767 49.7575 153.526C49.7575 153.314 49.7993 153.142 49.8828 153.011C49.9662 152.877 50.0778 152.773 50.2175 152.698C50.3572 152.622 50.5113 152.566 50.6799 152.529C50.8501 152.491 51.0211 152.46 51.1929 152.438C51.4177 152.409 51.5999 152.387 51.7396 152.373C51.8809 152.356 51.9837 152.33 52.0479 152.293C52.1137 152.256 52.1466 152.192 52.1466 152.1V152.081C52.1466 151.843 52.0816 151.659 51.9516 151.527C51.8231 151.396 51.628 151.33 51.3663 151.33C51.095 151.33 50.8822 151.389 50.7281 151.508C50.574 151.627 50.4656 151.754 50.403 151.888L49.8635 151.696C49.9598 151.471 50.0883 151.296 50.2488 151.171C50.411 151.044 50.5876 150.956 50.7787 150.906C50.9713 150.854 51.1608 150.829 51.3471 150.829C51.4659 150.829 51.6023 150.843 51.7565 150.872C51.9122 150.899 52.0623 150.956 52.2068 151.043C52.353 151.13 52.4742 151.261 52.5705 151.436C52.6668 151.611 52.715 151.845 52.715 152.139V154.576H52.1466V154.075H52.1177C52.0792 154.156 52.015 154.241 51.9251 154.333C51.8352 154.424 51.7155 154.502 51.5662 154.567C51.4169 154.631 51.2347 154.663 51.0195 154.663ZM51.1062 154.152C51.331 154.152 51.5205 154.108 51.6746 154.02C51.8303 153.932 51.9475 153.818 52.0262 153.678C52.1065 153.538 52.1466 153.391 52.1466 153.237V152.717C52.1226 152.746 52.0696 152.772 51.9877 152.796C51.9074 152.819 51.8143 152.839 51.7083 152.857C51.6039 152.873 51.502 152.887 51.4024 152.9C51.3045 152.911 51.225 152.921 51.164 152.929C51.0163 152.948 50.8782 152.979 50.7498 153.023C50.6229 153.065 50.5202 153.128 50.4415 153.213C50.3644 153.297 50.3259 153.411 50.3259 153.555C50.3259 153.753 50.399 153.902 50.5451 154.003C50.6928 154.103 50.8798 154.152 51.1062 154.152ZM53.7524 154.576V150.877H54.3015V151.436H54.3401C54.4075 151.253 54.5295 151.104 54.7061 150.99C54.8828 150.876 55.0819 150.819 55.3034 150.819C55.3452 150.819 55.3974 150.82 55.46 150.822C55.5226 150.823 55.57 150.826 55.6021 150.829V151.407C55.5828 151.402 55.5386 151.395 55.4696 151.385C55.4022 151.374 55.3307 151.368 55.2553 151.368C55.0754 151.368 54.9149 151.406 54.7736 151.481C54.6339 151.555 54.5231 151.658 54.4412 151.79C54.3609 151.92 54.3208 152.068 54.3208 152.235V154.576H53.7524ZM58.1164 150.877V151.359H56.1993V150.877H58.1164ZM56.7581 149.991H57.3265V153.516C57.3265 153.677 57.3497 153.797 57.3963 153.878C57.4445 153.956 57.5055 154.009 57.5793 154.037C57.6548 154.062 57.7343 154.075 57.8178 154.075C57.8804 154.075 57.9318 154.072 57.9719 154.066C58.0121 154.058 58.0442 154.051 58.0682 154.046L58.1839 154.557C58.1453 154.571 58.0915 154.586 58.0225 154.6C57.9534 154.616 57.8659 154.624 57.76 154.624C57.5994 154.624 57.4421 154.59 57.2879 154.521C57.1354 154.452 57.0086 154.347 56.9074 154.205C56.8079 154.064 56.7581 153.886 56.7581 153.671V149.991ZM58.9714 154.576V150.877H59.5398V154.576H58.9714ZM59.2604 150.26C59.1496 150.26 59.0541 150.223 58.9738 150.147C58.8951 150.072 58.8558 149.981 58.8558 149.875C58.8558 149.769 58.8951 149.678 58.9738 149.603C59.0541 149.527 59.1496 149.49 59.2604 149.49C59.3712 149.49 59.4659 149.527 59.5446 149.603C59.6249 149.678 59.665 149.769 59.665 149.875C59.665 149.981 59.6249 150.072 59.5446 150.147C59.4659 150.223 59.3712 150.26 59.2604 150.26ZM62.0836 154.653C61.7368 154.653 61.4382 154.571 61.1877 154.408C60.9372 154.244 60.7446 154.018 60.6097 153.731C60.4748 153.443 60.4074 153.115 60.4074 152.746C60.4074 152.37 60.4764 152.039 60.6145 151.751C60.7542 151.462 60.9485 151.237 61.1973 151.074C61.4478 150.911 61.74 150.829 62.074 150.829C62.3341 150.829 62.5685 150.877 62.7772 150.973C62.986 151.07 63.157 151.204 63.2902 151.378C63.4235 151.551 63.5062 151.754 63.5383 151.985H62.9699C62.9266 151.816 62.8302 151.667 62.6809 151.537C62.5332 151.405 62.3341 151.339 62.0836 151.339C61.8621 151.339 61.6678 151.397 61.5008 151.513C61.3354 151.627 61.2062 151.788 61.113 151.997C61.0215 152.204 60.9758 152.447 60.9758 152.727C60.9758 153.012 61.0207 153.261 61.1106 153.473C61.2022 153.685 61.3306 153.85 61.496 153.967C61.663 154.084 61.8588 154.143 62.0836 154.143C62.2313 154.143 62.3654 154.117 62.4858 154.066C62.6062 154.014 62.7082 153.94 62.7917 153.844C62.8752 153.748 62.9346 153.632 62.9699 153.497H63.5383C63.5062 153.716 63.4267 153.912 63.2999 154.087C63.1746 154.261 63.0084 154.399 62.8013 154.502C62.5958 154.603 62.3566 154.653 62.0836 154.653ZM64.3692 154.576V150.877H64.9376V154.576H64.3692ZM64.6582 150.26C64.5474 150.26 64.4519 150.223 64.3716 150.147C64.2929 150.072 64.2536 149.981 64.2536 149.875C64.2536 149.769 64.2929 149.678 64.3716 149.603C64.4519 149.527 64.5474 149.49 64.6582 149.49C64.769 149.49 64.8637 149.527 64.9424 149.603C65.0227 149.678 65.0628 149.769 65.0628 149.875C65.0628 149.981 65.0227 150.072 64.9424 150.147C64.8637 150.223 64.769 150.26 64.6582 150.26ZM65.9786 155.963V150.877H66.5277V151.465H66.5951C66.6369 151.4 66.6947 151.318 66.7685 151.219C66.844 151.118 66.9516 151.028 67.0913 150.949C67.2325 150.869 67.4236 150.829 67.6644 150.829C67.9759 150.829 68.2505 150.907 68.4881 151.062C68.7257 151.218 68.9112 151.439 69.0445 151.725C69.1777 152.01 69.2443 152.348 69.2443 152.736C69.2443 153.128 69.1777 153.468 69.0445 153.755C68.9112 154.041 68.7265 154.262 68.4905 154.42C68.2545 154.575 67.9824 154.653 67.6741 154.653C67.4365 154.653 67.2462 154.614 67.1033 154.535C66.9604 154.455 66.8504 154.364 66.7733 154.263C66.6963 154.16 66.6369 154.075 66.5951 154.008H66.547V155.963H65.9786ZM66.5373 152.727C66.5373 153.006 66.5783 153.252 66.6602 153.466C66.742 153.678 66.8617 153.844 67.019 153.964C67.1764 154.083 67.369 154.143 67.597 154.143C67.8346 154.143 68.0329 154.08 68.1919 153.955C68.3524 153.828 68.4729 153.658 68.5531 153.444C68.635 153.229 68.676 152.99 68.676 152.727C68.676 152.466 68.6358 152.232 68.5556 152.023C68.4769 151.813 68.3573 151.647 68.1967 151.525C68.0377 151.401 67.8379 151.339 67.597 151.339C67.3658 151.339 67.1715 151.398 67.0142 151.515C66.8568 151.631 66.738 151.793 66.6577 152.002C66.5775 152.209 66.5373 152.45 66.5373 152.727ZM71.2 154.663C70.9655 154.663 70.7528 154.619 70.5617 154.53C70.3707 154.44 70.2189 154.311 70.1065 154.143C69.9942 153.972 69.938 153.767 69.938 153.526C69.938 153.314 69.9797 153.142 70.0632 153.011C70.1467 152.877 70.2583 152.773 70.398 152.698C70.5377 152.622 70.6918 152.566 70.8604 152.529C71.0306 152.491 71.2016 152.46 71.3734 152.438C71.5981 152.409 71.7804 152.387 71.9201 152.373C72.0614 152.356 72.1641 152.33 72.2283 152.293C72.2942 152.256 72.3271 152.192 72.3271 152.1V152.081C72.3271 151.843 72.2621 151.659 72.132 151.527C72.0036 151.396 71.8085 151.33 71.5468 151.33C71.2754 151.33 71.0627 151.389 70.9085 151.508C70.7544 151.627 70.646 151.754 70.5834 151.888L70.0439 151.696C70.1403 151.471 70.2687 151.296 70.4293 151.171C70.5914 151.044 70.7681 150.956 70.9591 150.906C71.1518 150.854 71.3412 150.829 71.5275 150.829C71.6463 150.829 71.7828 150.843 71.9369 150.872C72.0927 150.899 72.2428 150.956 72.3873 151.043C72.5334 151.13 72.6546 151.261 72.751 151.436C72.8473 151.611 72.8955 151.845 72.8955 152.139V154.576H72.3271V154.075H72.2982C72.2596 154.156 72.1954 154.241 72.1055 154.333C72.0156 154.424 71.896 154.502 71.7467 154.567C71.5973 154.631 71.4151 154.663 71.2 154.663ZM71.2867 154.152C71.5114 154.152 71.7009 154.108 71.855 154.02C72.0108 153.932 72.128 153.818 72.2067 153.678C72.2869 153.538 72.3271 153.391 72.3271 153.237V152.717C72.303 152.746 72.25 152.772 72.1681 152.796C72.0878 152.819 71.9947 152.839 71.8888 152.857C71.7844 152.873 71.6824 152.887 71.5829 152.9C71.4849 152.911 71.4055 152.921 71.3445 152.929C71.1967 152.948 71.0587 152.979 70.9302 153.023C70.8034 153.065 70.7006 153.128 70.6219 153.213C70.5449 153.297 70.5063 153.411 70.5063 153.555C70.5063 153.753 70.5794 153.902 70.7255 154.003C70.8732 154.103 71.0603 154.152 71.2867 154.152ZM74.5012 152.351V154.576H73.9329V150.877H74.482V151.455H74.5301C74.6169 151.267 74.7485 151.116 74.9251 151.002C75.1017 150.887 75.3297 150.829 75.6091 150.829C75.8596 150.829 76.0787 150.88 76.2666 150.983C76.4544 151.084 76.6006 151.238 76.7049 151.445C76.8093 151.651 76.8615 151.911 76.8615 152.226V154.576H76.2931V152.264C76.2931 151.974 76.2176 151.747 76.0667 151.585C75.9158 151.421 75.7087 151.339 75.4453 151.339C75.2639 151.339 75.1017 151.379 74.9588 151.457C74.8175 151.536 74.706 151.651 74.6241 151.802C74.5422 151.953 74.5012 152.136 74.5012 152.351ZM79.5089 150.877V151.359H77.5918V150.877H79.5089ZM78.1506 149.991H78.7189V153.516C78.7189 153.677 78.7422 153.797 78.7888 153.878C78.8369 153.956 78.898 154.009 78.9718 154.037C79.0473 154.062 79.1267 154.075 79.2102 154.075C79.2729 154.075 79.3242 154.072 79.3644 154.066C79.4045 154.058 79.4366 154.051 79.4607 154.046L79.5763 154.557C79.5378 154.571 79.484 154.586 79.415 154.6C79.3459 154.616 79.2584 154.624 79.1524 154.624C78.9919 154.624 78.8345 154.59 78.6804 154.521C78.5279 154.452 78.401 154.347 78.2999 154.205C78.2003 154.064 78.1506 153.886 78.1506 153.671V149.991ZM82.9179 151.705L82.4074 151.85C82.3753 151.765 82.3279 151.682 82.2653 151.602C82.2043 151.52 82.1208 151.452 82.0148 151.4C81.9088 151.347 81.7732 151.32 81.6078 151.32C81.3814 151.32 81.1927 151.372 81.0418 151.477C80.8925 151.579 80.8178 151.71 80.8178 151.869C80.8178 152.01 80.8692 152.122 80.972 152.204C81.0747 152.286 81.2353 152.354 81.4536 152.409L82.0028 152.543C82.3335 152.624 82.58 152.747 82.7421 152.912C82.9043 153.076 82.9854 153.287 82.9854 153.545C82.9854 153.757 82.9244 153.947 82.8023 154.114C82.6819 154.281 82.5133 154.412 82.2966 154.509C82.0798 154.605 81.8277 154.653 81.5403 154.653C81.163 154.653 80.8507 154.571 80.6035 154.408C80.3562 154.244 80.1997 154.005 80.1339 153.69L80.6733 153.555C80.7247 153.754 80.8218 153.903 80.9647 154.003C81.1092 154.103 81.2979 154.152 81.5307 154.152C81.7956 154.152 82.006 154.096 82.1617 153.984C82.3191 153.87 82.3977 153.733 82.3977 153.574C82.3977 153.446 82.3528 153.338 82.2629 153.252C82.173 153.163 82.0349 153.097 81.8486 153.054L81.2321 152.91C80.8933 152.829 80.6444 152.705 80.4855 152.536C80.3281 152.366 80.2495 152.153 80.2495 151.898C80.2495 151.689 80.3081 151.505 80.4253 151.344C80.5441 151.184 80.7054 151.058 80.9094 150.966C81.1149 150.874 81.3477 150.829 81.6078 150.829C81.9739 150.829 82.2613 150.909 82.47 151.07C82.6803 151.23 82.8296 151.442 82.9179 151.705Z" fill="#5F5F5F"/>
<path fill-rule="evenodd" clip-rule="evenodd" d="M29.0859 184.918L31.2659 182.375C31.3286 182.301 31.4178 182.256 31.5138 182.249C31.6099 182.241 31.705 182.272 31.7782 182.335C31.7923 182.347 31.8055 182.36 31.8176 182.375L33.9975 184.918C34.1281 185.07 34.1104 185.299 33.9581 185.43C33.8922 185.487 33.8084 185.518 33.7216 185.518H29.3618C29.1611 185.518 28.9985 185.355 28.9985 185.154C28.9985 185.067 29.0295 184.984 29.0859 184.918ZM31.5417 183.169L32.9317 184.791H30.1517L31.5417 183.169Z" fill="#5F5F5F"/>
<path d="M35.4318 183.595C35.3254 183.701 35.1749 183.701 35.1749 183.701H34.4483C34.2476 183.701 34.085 183.864 34.085 184.064C34.085 184.265 34.2476 184.428 34.4483 184.428H35.1749C35.6264 184.428 35.9457 184.108 35.9457 184.108C36.2649 183.789 36.2649 183.338 36.2649 183.338V178.251C36.2649 177.8 35.9457 177.48 35.9457 177.48C35.6264 177.161 35.1749 177.161 35.1749 177.161H27.9085C27.457 177.161 27.1378 177.48 27.1378 177.48C26.8185 177.8 26.8185 178.251 26.8185 178.251V183.338C26.8185 183.789 27.1378 184.108 27.1378 184.108C27.457 184.428 27.9085 184.428 27.9085 184.428H28.6351C28.8358 184.428 28.9985 184.265 28.9985 184.064C28.9985 183.864 28.8358 183.701 28.6351 183.701H27.9085C27.758 183.701 27.6516 183.595 27.6516 183.595C27.5452 183.488 27.5452 183.338 27.5452 183.338V178.251C27.5452 178.101 27.6516 177.994 27.6516 177.994C27.758 177.888 27.9085 177.888 27.9085 177.888H35.1749C35.3254 177.888 35.4318 177.994 35.4318 177.994C35.5382 178.101 35.5382 178.251 35.5382 178.251V183.338C35.5382 183.488 35.4318 183.595 35.4318 183.595Z" fill="#5F5F5F"/>
<path d="M45.703 178.225H46.4159L48.0921 182.32H48.1499L49.8262 178.225H50.539V183.158H49.9803V179.41H49.9321L48.3908 183.158H47.8513L46.3099 179.41H46.2618V183.158H45.703V178.225ZM53.2105 183.235C52.8541 183.235 52.5466 183.156 52.2881 182.999C52.0312 182.84 51.8329 182.618 51.6933 182.334C51.5552 182.048 51.4861 181.716 51.4861 181.337C51.4861 180.958 51.5552 180.624 51.6933 180.335C51.8329 180.044 52.0272 179.818 52.2761 179.656C52.5266 179.492 52.8188 179.41 53.1527 179.41C53.3454 179.41 53.5357 179.442 53.7235 179.507C53.9114 179.571 54.0824 179.675 54.2365 179.82C54.3906 179.963 54.5135 180.152 54.605 180.388C54.6965 180.624 54.7423 180.915 54.7423 181.26V181.501H51.8907V181.009H54.1643C54.1643 180.801 54.1225 180.614 54.039 180.451C53.9571 180.287 53.8399 180.158 53.6874 180.063C53.5365 179.968 53.3583 179.921 53.1527 179.921C52.9264 179.921 52.7305 179.977 52.5651 180.089C52.4013 180.2 52.2753 180.345 52.187 180.523C52.0987 180.701 52.0545 180.892 52.0545 181.096V181.424C52.0545 181.703 52.1027 181.94 52.199 182.134C52.297 182.327 52.4326 182.474 52.606 182.575C52.7794 182.674 52.9809 182.724 53.2105 182.724C53.3599 182.724 53.4947 182.703 53.6151 182.662C53.7372 182.618 53.8423 182.554 53.9306 182.469C54.019 182.382 54.0872 182.275 54.1354 182.146L54.6845 182.3C54.6267 182.487 54.5295 182.65 54.3931 182.792C54.2566 182.931 54.088 183.041 53.8873 183.119C53.6866 183.196 53.461 183.235 53.2105 183.235ZM57.1579 183.235C56.8014 183.235 56.494 183.156 56.2355 182.999C55.9786 182.84 55.7803 182.618 55.6406 182.334C55.5025 182.048 55.4335 181.716 55.4335 181.337C55.4335 180.958 55.5025 180.624 55.6406 180.335C55.7803 180.044 55.9746 179.818 56.2234 179.656C56.4739 179.492 56.7661 179.41 57.1001 179.41C57.2927 179.41 57.483 179.442 57.6709 179.507C57.8587 179.571 58.0297 179.675 58.1839 179.82C58.338 179.963 58.4608 180.152 58.5523 180.388C58.6439 180.624 58.6896 180.915 58.6896 181.26V181.501H55.8381V181.009H58.1116C58.1116 180.801 58.0699 180.614 57.9864 180.451C57.9045 180.287 57.7873 180.158 57.6347 180.063C57.4838 179.968 57.3056 179.921 57.1001 179.921C56.8737 179.921 56.6778 179.977 56.5124 180.089C56.3487 180.2 56.2226 180.345 56.1343 180.523C56.046 180.701 56.0019 180.892 56.0019 181.096V181.424C56.0019 181.703 56.05 181.94 56.1464 182.134C56.2443 182.327 56.38 182.474 56.5534 182.575C56.7268 182.674 56.9283 182.724 57.1579 182.724C57.3072 182.724 57.4421 182.703 57.5625 182.662C57.6845 182.618 57.7897 182.554 57.878 182.469C57.9663 182.382 58.0345 182.275 58.0827 182.146L58.6318 182.3C58.574 182.487 58.4769 182.65 58.3404 182.792C58.2039 182.931 58.0353 183.041 57.8346 183.119C57.6339 183.196 57.4084 183.235 57.1579 183.235ZM61.163 179.458V179.94H59.2459V179.458H61.163ZM59.8047 178.572H60.3731V182.098C60.3731 182.259 60.3964 182.379 60.4429 182.459C60.4911 182.538 60.5521 182.591 60.626 182.618C60.7014 182.644 60.7809 182.657 60.8644 182.657C60.927 182.657 60.9784 182.654 61.0185 182.647C61.0587 182.639 61.0908 182.633 61.1149 182.628L61.2305 183.138C61.1919 183.153 61.1381 183.167 61.0691 183.182C61.0001 183.198 60.9125 183.206 60.8066 183.206C60.646 183.206 60.4887 183.171 60.3345 183.102C60.182 183.033 60.0552 182.928 59.954 182.787C59.8545 182.646 59.8047 182.467 59.8047 182.252V178.572ZM62.018 183.158V179.458H62.5864V183.158H62.018ZM62.307 178.842C62.1962 178.842 62.1007 178.804 62.0204 178.729C61.9417 178.653 61.9024 178.563 61.9024 178.457C61.9024 178.351 61.9417 178.26 62.0204 178.184C62.1007 178.109 62.1962 178.071 62.307 178.071C62.4178 178.071 62.5125 178.109 62.5912 178.184C62.6715 178.26 62.7116 178.351 62.7116 178.457C62.7116 178.563 62.6715 178.653 62.5912 178.729C62.5125 178.804 62.4178 178.842 62.307 178.842ZM64.1958 180.932V183.158H63.6274V179.458H64.1765V180.036H64.2247C64.3114 179.849 64.443 179.698 64.6197 179.584C64.7963 179.468 65.0243 179.41 65.3036 179.41C65.5541 179.41 65.7733 179.462 65.9611 179.564C66.149 179.666 66.2951 179.82 66.3994 180.027C66.5038 180.232 66.556 180.492 66.556 180.807V183.158H65.9876V180.846C65.9876 180.555 65.9122 180.329 65.7612 180.167C65.6103 180.003 65.4032 179.921 65.1399 179.921C64.9584 179.921 64.7963 179.96 64.6534 180.039C64.5121 180.118 64.4005 180.232 64.3186 180.383C64.2367 180.534 64.1958 180.717 64.1958 180.932ZM69.0878 184.622C68.8132 184.622 68.5772 184.587 68.3797 184.516C68.1823 184.447 68.0177 184.355 67.886 184.241C67.756 184.129 67.6524 184.009 67.5753 183.88L68.0281 183.562C68.0795 183.63 68.1445 183.707 68.2232 183.794C68.3019 183.882 68.4094 183.958 68.5459 184.022C68.684 184.088 68.8646 184.121 69.0878 184.121C69.3864 184.121 69.6329 184.049 69.8272 183.904C70.0215 183.76 70.1186 183.533 70.1186 183.225V182.474H70.0704C70.0287 182.541 69.9693 182.625 69.8922 182.724C69.8167 182.822 69.7076 182.91 69.5647 182.987C69.4234 183.062 69.2323 183.1 68.9915 183.1C68.6928 183.1 68.4247 183.029 68.1871 182.888C67.951 182.747 67.764 182.541 67.6259 182.271C67.4894 182.002 67.4212 181.674 67.4212 181.289C67.4212 180.91 67.4878 180.58 67.6211 180.299C67.7544 180.016 67.9398 179.798 68.1774 179.644C68.4151 179.488 68.6896 179.41 69.0011 179.41C69.2419 179.41 69.433 179.45 69.5743 179.531C69.7172 179.609 69.8264 179.699 69.9018 179.8C69.9789 179.9 70.0383 179.982 70.0801 180.046H70.1379V179.458H70.687V183.264C70.687 183.582 70.6147 183.84 70.4702 184.039C70.3273 184.24 70.1346 184.387 69.8922 184.48C69.6514 184.575 69.3832 184.622 69.0878 184.622ZM69.0685 182.589C69.2965 182.589 69.4892 182.537 69.6465 182.433C69.8039 182.328 69.9235 182.178 70.0054 181.982C70.0873 181.787 70.1282 181.552 70.1282 181.279C70.1282 181.013 70.0881 180.777 70.0078 180.574C69.9275 180.37 69.8087 180.21 69.6514 180.094C69.494 179.979 69.2997 179.921 69.0685 179.921C68.8277 179.921 68.627 179.982 68.4664 180.104C68.3075 180.226 68.1879 180.39 68.1076 180.595C68.0289 180.801 67.9896 181.029 67.9896 181.279C67.9896 181.536 68.0297 181.763 68.11 181.961C68.1919 182.157 68.3123 182.311 68.4713 182.423C68.6318 182.534 68.8309 182.589 69.0685 182.589ZM74.3477 180.287L73.8371 180.431C73.805 180.346 73.7577 180.264 73.695 180.183C73.634 180.101 73.5505 180.034 73.4446 179.981C73.3386 179.928 73.2029 179.902 73.0376 179.902C72.8112 179.902 72.6225 179.954 72.4716 180.058C72.3223 180.161 72.2476 180.292 72.2476 180.451C72.2476 180.592 72.299 180.704 72.4017 180.785C72.5045 180.867 72.6651 180.936 72.8834 180.99L73.4325 181.125C73.7633 181.205 74.0097 181.328 74.1719 181.494C74.3341 181.657 74.4151 181.868 74.4151 182.127C74.4151 182.339 74.3541 182.528 74.2321 182.695C74.1117 182.862 73.9431 182.994 73.7264 183.09C73.5096 183.187 73.2575 183.235 72.9701 183.235C72.5928 183.235 72.2805 183.153 72.0333 182.989C71.786 182.825 71.6295 182.586 71.5636 182.271L72.1031 182.137C72.1545 182.336 72.2516 182.485 72.3945 182.585C72.539 182.684 72.7277 182.734 72.9605 182.734C73.2254 182.734 73.4357 182.678 73.5915 182.565C73.7488 182.451 73.8275 182.315 73.8275 182.156C73.8275 182.027 73.7825 181.92 73.6926 181.833C73.6027 181.745 73.4646 181.679 73.2784 181.636L72.6618 181.491C72.3231 181.411 72.0742 181.286 71.9152 181.118C71.7579 180.948 71.6792 180.735 71.6792 180.48C71.6792 180.271 71.7378 180.086 71.855 179.926C71.9739 179.765 72.1352 179.639 72.3391 179.548C72.5446 179.456 72.7774 179.41 73.0376 179.41C73.4036 179.41 73.691 179.491 73.8998 179.651C74.1101 179.812 74.2594 180.024 74.3477 180.287Z" fill="#5F5F5F"/>
<path d="M28.0901 210.466H30.2701C30.4707 210.466 30.6334 210.303 30.6334 210.103C30.6334 209.902 30.4707 209.739 30.2701 209.739H27.7268C27.5262 209.739 27.3635 209.902 27.3635 210.103V213.372C27.3635 213.573 27.5262 213.736 27.7268 213.736C27.9275 213.736 28.0901 213.573 28.0901 213.372V210.466Z" fill="#5F5F5F"/>
<path d="M36.0832 213.009H27.0002C26.7995 213.009 26.6369 213.172 26.6369 213.372C26.6369 213.573 26.7995 213.736 27.0002 213.736H36.0832C36.2839 213.736 36.4465 213.573 36.4465 213.372C36.4465 213.172 36.2839 213.009 36.0832 213.009Z" fill="#5F5F5F"/>
<path d="M30.6334 208.286H32.8133C33.014 208.286 33.1766 208.123 33.1766 207.923C33.1766 207.722 33.014 207.559 32.8133 207.559H30.2701C30.0694 207.559 29.9068 207.722 29.9068 207.923V213.372C29.9068 213.573 30.0694 213.736 30.2701 213.736C30.4707 213.736 30.6334 213.573 30.6334 213.372V208.286Z" fill="#5F5F5F"/>
<path fill-rule="evenodd" clip-rule="evenodd" d="M32.45 213.372V205.743C32.45 205.542 32.6127 205.379 32.8133 205.379H35.3566C35.5572 205.379 35.7199 205.542 35.7199 205.743V213.372C35.7199 213.573 35.5572 213.736 35.3566 213.736H32.8133C32.6127 213.736 32.45 213.573 32.45 213.372ZM34.9933 213.009H33.1766V206.106H34.9933V213.009Z" fill="#5F5F5F"/>
<path d="M45.703 211.739V206.807H47.3696C47.7549 206.807 48.0712 206.873 48.3185 207.004C48.5658 207.134 48.7488 207.313 48.8676 207.541C48.9864 207.769 49.0458 208.029 49.0458 208.319C49.0458 208.61 48.9864 208.868 48.8676 209.092C48.7488 209.317 48.5666 209.494 48.3209 209.622C48.0752 209.749 47.7614 209.813 47.3792 209.813H46.0305V209.273H47.36C47.6233 209.273 47.8352 209.235 47.9958 209.157C48.1579 209.08 48.2751 208.971 48.3474 208.83C48.4213 208.687 48.4582 208.517 48.4582 208.319C48.4582 208.122 48.4213 207.949 48.3474 207.802C48.2735 207.654 48.1555 207.54 47.9934 207.46C47.8312 207.378 47.6169 207.337 47.3503 207.337H46.3003V211.739H45.703ZM48.0247 209.524L49.2385 211.739H48.5449L47.3503 209.524H48.0247ZM51.4753 211.816C51.1188 211.816 50.8114 211.738 50.5529 211.58C50.296 211.421 50.0977 211.2 49.958 210.916C49.8199 210.63 49.7509 210.297 49.7509 209.919C49.7509 209.54 49.8199 209.206 49.958 208.917C50.0977 208.626 50.292 208.4 50.5408 208.237C50.7913 208.074 51.0835 207.992 51.4175 207.992C51.6102 207.992 51.8004 208.024 51.9883 208.088C52.1761 208.152 52.3471 208.257 52.5013 208.401C52.6554 208.544 52.7782 208.734 52.8697 208.97C52.9613 209.206 53.007 209.496 53.007 209.841V210.082H50.1555V209.591H52.429C52.429 209.382 52.3873 209.196 52.3038 209.032C52.2219 208.868 52.1047 208.739 51.9521 208.644C51.8012 208.55 51.623 208.502 51.4175 208.502C51.1911 208.502 50.9952 208.559 50.8298 208.671C50.6661 208.782 50.54 208.926 50.4517 209.104C50.3634 209.283 50.3193 209.474 50.3193 209.678V210.005C50.3193 210.285 50.3674 210.521 50.4638 210.716C50.5617 210.908 50.6974 211.055 50.8708 211.156C51.0442 211.256 51.2457 211.306 51.4753 211.306C51.6246 211.306 51.7595 211.285 51.8799 211.243C52.0019 211.2 52.1071 211.136 52.1954 211.05C52.2837 210.964 52.3519 210.856 52.4001 210.728L52.9492 210.882C52.8914 211.068 52.7943 211.232 52.6578 211.373C52.5213 211.513 52.3527 211.622 52.152 211.701C51.9513 211.778 51.7258 211.816 51.4753 211.816ZM53.8716 213.126V208.04H54.4207V208.628H54.4882C54.5299 208.563 54.5877 208.482 54.6616 208.382C54.737 208.281 54.8446 208.191 54.9843 208.112C55.1256 208.032 55.3167 207.992 55.5575 207.992C55.869 207.992 56.1435 208.07 56.3812 208.225C56.6188 208.381 56.8042 208.602 56.9375 208.888C57.0708 209.174 57.1374 209.511 57.1374 209.899C57.1374 210.291 57.0708 210.631 56.9375 210.918C56.8042 211.204 56.6196 211.425 56.3836 211.583C56.1475 211.738 55.8754 211.816 55.5671 211.816C55.3295 211.816 55.1392 211.777 54.9963 211.698C54.8534 211.618 54.7435 211.527 54.6664 211.426C54.5893 211.323 54.5299 211.238 54.4882 211.171H54.44V213.126H53.8716ZM54.4304 209.89C54.4304 210.169 54.4713 210.415 54.5532 210.629C54.6351 210.841 54.7547 211.007 54.912 211.128C55.0694 211.246 55.2621 211.306 55.4901 211.306C55.7277 211.306 55.926 211.243 56.0849 211.118C56.2455 210.991 56.3659 210.821 56.4462 210.607C56.5281 210.392 56.569 210.153 56.569 209.89C56.569 209.63 56.5289 209.395 56.4486 209.186C56.3699 208.976 56.2503 208.81 56.0897 208.688C55.9308 208.564 55.7309 208.502 55.4901 208.502C55.2589 208.502 55.0646 208.561 54.9072 208.678C54.7499 208.794 54.6311 208.956 54.5508 209.165C54.4705 209.372 54.4304 209.613 54.4304 209.89ZM59.5072 211.816C59.1733 211.816 58.8803 211.737 58.6282 211.578C58.3777 211.419 58.1818 211.197 58.0405 210.911C57.9008 210.625 57.831 210.291 57.831 209.909C57.831 209.524 57.9008 209.187 58.0405 208.9C58.1818 208.612 58.3777 208.389 58.6282 208.23C58.8803 208.071 59.1733 207.992 59.5072 207.992C59.8412 207.992 60.1334 208.071 60.3839 208.23C60.636 208.389 60.8319 208.612 60.9715 208.9C61.1128 209.187 61.1835 209.524 61.1835 209.909C61.1835 210.291 61.1128 210.625 60.9715 210.911C60.8319 211.197 60.636 211.419 60.3839 211.578C60.1334 211.737 59.8412 211.816 59.5072 211.816ZM59.5072 211.306C59.7609 211.306 59.9697 211.241 60.1334 211.111C60.2972 210.981 60.4184 210.81 60.4971 210.598C60.5758 210.386 60.6151 210.156 60.6151 209.909C60.6151 209.662 60.5758 209.431 60.4971 209.218C60.4184 209.004 60.2972 208.832 60.1334 208.7C59.9697 208.568 59.7609 208.502 59.5072 208.502C59.2536 208.502 59.0448 208.568 58.8811 208.7C58.7173 208.832 58.5961 209.004 58.5174 209.218C58.4387 209.431 58.3994 209.662 58.3994 209.909C58.3994 210.156 58.4387 210.386 58.5174 210.598C58.5961 210.81 58.7173 210.981 58.8811 211.111C59.0448 211.241 59.2536 211.306 59.5072 211.306ZM62.0511 211.739V208.04H62.6002V208.599H62.6387C62.7062 208.416 62.8282 208.267 63.0048 208.153C63.1814 208.039 63.3805 207.982 63.6021 207.982C63.6438 207.982 63.696 207.983 63.7586 207.985C63.8213 207.986 63.8686 207.989 63.9007 207.992V208.57C63.8815 208.565 63.8373 208.558 63.7683 208.548C63.7008 208.537 63.6294 208.531 63.5539 208.531C63.3741 208.531 63.2135 208.569 63.0723 208.644C62.9326 208.718 62.8218 208.821 62.7399 208.953C62.6596 209.083 62.6195 209.231 62.6195 209.398V211.739H62.0511ZM66.4151 208.04V208.522H64.498V208.04H66.4151ZM65.0568 207.154H65.6251V210.68C65.6251 210.84 65.6484 210.961 65.695 211.041C65.7431 211.12 65.8042 211.172 65.878 211.2C65.9535 211.225 66.033 211.238 66.1164 211.238C66.1791 211.238 66.2304 211.235 66.2706 211.229C66.3107 211.221 66.3428 211.214 66.3669 211.209L66.4825 211.72C66.444 211.734 66.3902 211.749 66.3212 211.763C66.2521 211.779 66.1646 211.787 66.0586 211.787C65.8981 211.787 65.7407 211.753 65.5866 211.684C65.4341 211.615 65.3072 211.51 65.2061 211.368C65.1065 211.227 65.0568 211.049 65.0568 210.834V207.154ZM70.5744 211.807C70.25 211.807 69.9707 211.747 69.7362 211.628C69.5018 211.51 69.3212 211.347 69.1944 211.14C69.0675 210.932 69.0041 210.696 69.0041 210.429C69.0041 210.224 69.0474 210.041 69.1342 209.882C69.2225 209.722 69.3437 209.573 69.4978 209.437C69.6536 209.299 69.8326 209.161 70.0349 209.023L70.7478 208.493C70.8875 208.401 70.999 208.303 71.0825 208.199C71.1676 208.095 71.2102 207.958 71.2102 207.79C71.2102 207.664 71.1548 207.543 71.044 207.426C70.9348 207.309 70.7911 207.25 70.6129 207.25C70.4877 207.25 70.3769 207.282 70.2805 207.346C70.1858 207.409 70.1112 207.489 70.0566 207.587C70.0036 207.684 69.9771 207.783 69.9771 207.886C69.9771 208.001 70.0084 208.119 70.071 208.237C70.1352 208.355 70.2163 208.475 70.3143 208.599C70.4138 208.721 70.5166 208.846 70.6225 208.974L72.8864 211.739H72.2024L70.3335 209.485C70.1601 209.276 70.0028 209.087 69.8615 208.917C69.7202 208.746 69.6078 208.579 69.5243 208.413C69.4408 208.248 69.3991 208.069 69.3991 207.876C69.3991 207.655 69.448 207.46 69.546 207.293C69.6455 207.125 69.7844 206.994 69.9626 206.901C70.1425 206.806 70.3528 206.759 70.5936 206.759C70.8409 206.759 71.0536 206.807 71.2319 206.903C71.4101 206.998 71.5474 207.124 71.6437 207.281C71.74 207.437 71.7882 207.606 71.7882 207.79C71.7882 208.026 71.7296 208.23 71.6124 208.404C71.4952 208.577 71.3354 208.738 71.1331 208.888L70.1505 209.62C69.9289 209.784 69.7788 209.943 69.7001 210.097C69.6214 210.251 69.5821 210.362 69.5821 210.429C69.5821 210.583 69.6223 210.727 69.7025 210.86C69.7828 210.993 69.896 211.101 70.0421 211.183C70.1882 211.265 70.3592 211.306 70.5551 211.306C70.7413 211.306 70.9228 211.266 71.0994 211.188C71.276 211.107 71.4358 210.992 71.5787 210.841C71.7232 210.69 71.8372 210.509 71.9207 210.297C72.0057 210.085 72.0483 209.846 72.0483 209.581H72.5974C72.5974 209.909 72.5597 210.176 72.4842 210.383C72.4087 210.59 72.3237 210.753 72.2289 210.87C72.1342 210.987 72.0579 211.075 72.0001 211.132C71.9809 211.156 71.9632 211.181 71.9471 211.205C71.9311 211.229 71.9134 211.253 71.8942 211.277C71.7352 211.455 71.5345 211.588 71.2921 211.677C71.0496 211.763 70.8104 211.807 70.5744 211.807ZM75.7024 211.739H75.0762L76.8873 206.807H77.5039L79.315 211.739H78.6888L77.2149 207.587H77.1763L75.7024 211.739ZM75.9336 209.813H78.4576V210.342H75.9336V209.813ZM80.5746 209.514V211.739H80.0062V208.04H80.5553V208.618H80.6035C80.6902 208.43 80.8218 208.279 80.9984 208.165C81.1751 208.05 81.4031 207.992 81.6824 207.992C81.9329 207.992 82.1521 208.043 82.3399 208.146C82.5278 208.247 82.6739 208.401 82.7782 208.608C82.8826 208.814 82.9348 209.074 82.9348 209.389V211.739H82.3664V209.427C82.3664 209.137 82.2909 208.91 82.14 208.748C81.9891 208.584 81.782 208.502 81.5187 208.502C81.3372 208.502 81.1751 208.542 81.0322 208.62C80.8909 208.699 80.7793 208.814 80.6974 208.965C80.6155 209.116 80.5746 209.299 80.5746 209.514ZM85.062 211.826C84.8276 211.826 84.6148 211.782 84.4238 211.693C84.2327 211.604 84.081 211.474 83.9686 211.306C83.8562 211.136 83.8 210.93 83.8 210.689C83.8 210.477 83.8417 210.305 83.9252 210.174C84.0087 210.041 84.1203 209.936 84.26 209.861C84.3997 209.785 84.5538 209.729 84.7224 209.692C84.8926 209.654 85.0636 209.623 85.2354 209.601C85.4602 209.572 85.6424 209.55 85.7821 209.536C85.9234 209.52 86.0261 209.493 86.0904 209.456C86.1562 209.419 86.1891 209.355 86.1891 209.263V209.244C86.1891 209.007 86.1241 208.822 85.994 208.69C85.8656 208.559 85.6705 208.493 85.4088 208.493C85.1375 208.493 84.9247 208.552 84.7706 208.671C84.6164 208.79 84.5081 208.917 84.4454 209.052L83.906 208.859C84.0023 208.634 84.1308 208.459 84.2913 208.334C84.4535 208.207 84.6301 208.119 84.8212 208.069C85.0138 208.018 85.2033 207.992 85.3895 207.992C85.5083 207.992 85.6448 208.006 85.799 208.035C85.9547 208.062 86.1048 208.119 86.2493 208.206C86.3954 208.293 86.5167 208.424 86.613 208.599C86.7093 208.774 86.7575 209.008 86.7575 209.302V211.739H86.1891V211.238H86.1602C86.1217 211.319 86.0575 211.404 85.9675 211.496C85.8776 211.588 85.758 211.665 85.6087 211.73C85.4594 211.794 85.2771 211.826 85.062 211.826ZM85.1487 211.315C85.3735 211.315 85.5629 211.271 85.7171 211.183C85.8728 211.095 85.99 210.981 86.0687 210.841C86.149 210.701 86.1891 210.554 86.1891 210.4V209.88C86.165 209.909 86.112 209.935 86.0302 209.959C85.9499 209.982 85.8568 210.002 85.7508 210.02C85.6464 210.036 85.5445 210.05 85.4449 210.063C85.347 210.074 85.2675 210.084 85.2065 210.092C85.0588 210.111 84.9207 210.142 84.7923 210.186C84.6654 210.228 84.5627 210.291 84.484 210.376C84.4069 210.46 84.3684 210.574 84.3684 210.718C84.3684 210.916 84.4414 211.065 84.5875 211.166C84.7353 211.266 84.9223 211.315 85.1487 211.315ZM88.3633 206.807V211.739H87.7949V206.807H88.3633ZM89.7704 213.126C89.674 213.126 89.5881 213.118 89.5127 213.102C89.4372 213.088 89.385 213.074 89.3561 213.059L89.5006 212.558C89.6387 212.593 89.7607 212.606 89.8667 212.597C89.9727 212.587 90.0666 212.54 90.1485 212.455C90.232 212.371 90.3083 212.235 90.3773 212.048L90.4833 211.759L89.1153 208.04H89.7318L90.753 210.988H90.7915L91.8127 208.04H92.4292L90.859 212.279C90.7883 212.47 90.7008 212.628 90.5965 212.753C90.4921 212.88 90.3709 212.974 90.2328 213.035C90.0963 213.096 89.9422 213.126 89.7704 213.126ZM94.7882 208.04V208.522H92.8712V208.04H94.7882ZM93.4299 207.154H93.9983V210.68C93.9983 210.84 94.0216 210.961 94.0681 211.041C94.1163 211.12 94.1773 211.172 94.2512 211.2C94.3266 211.225 94.4061 211.238 94.4896 211.238C94.5522 211.238 94.6036 211.235 94.6437 211.229C94.6839 211.221 94.716 211.214 94.7401 211.209L94.8557 211.72C94.8171 211.734 94.7634 211.749 94.6943 211.763C94.6253 211.779 94.5378 211.787 94.4318 211.787C94.2712 211.787 94.1139 211.753 93.9598 211.684C93.8072 211.615 93.6804 211.51 93.5792 211.368C93.4797 211.227 93.4299 211.049 93.4299 210.834V207.154ZM95.6432 211.739V208.04H96.2116V211.739H95.6432ZM95.9322 207.423C95.8214 207.423 95.7259 207.386 95.6456 207.31C95.567 207.235 95.5276 207.144 95.5276 207.038C95.5276 206.932 95.567 206.841 95.6456 206.766C95.7259 206.69 95.8214 206.653 95.9322 206.653C96.043 206.653 96.1377 206.69 96.2164 206.766C96.2967 206.841 96.3368 206.932 96.3368 207.038C96.3368 207.144 96.2967 207.235 96.2164 207.31C96.1377 207.386 96.043 207.423 95.9322 207.423ZM98.7555 211.816C98.4086 211.816 98.11 211.734 97.8595 211.571C97.6091 211.407 97.4164 211.181 97.2815 210.894C97.1467 210.607 97.0792 210.278 97.0792 209.909C97.0792 209.533 97.1483 209.202 97.2863 208.914C97.426 208.625 97.6203 208.4 97.8692 208.237C98.1196 208.074 98.4119 207.992 98.7458 207.992C99.0059 207.992 99.2403 208.04 99.4491 208.136C99.6578 208.233 99.8288 208.368 99.9621 208.541C100.095 208.714 100.178 208.917 100.21 209.148H99.6417C99.5984 208.979 99.5021 208.83 99.3527 208.7C99.205 208.568 99.0059 208.502 98.7555 208.502C98.5339 208.502 98.3396 208.56 98.1726 208.676C98.0073 208.79 97.878 208.951 97.7849 209.16C97.6934 209.367 97.6476 209.61 97.6476 209.89C97.6476 210.175 97.6926 210.424 97.7825 210.636C97.874 210.848 98.0024 211.013 98.1678 211.13C98.3348 211.247 98.5307 211.306 98.7555 211.306C98.9032 211.306 99.0372 211.28 99.1577 211.229C99.2781 211.177 99.38 211.103 99.4635 211.007C99.547 210.911 99.6064 210.795 99.6417 210.66H100.21C100.178 210.879 100.099 211.075 99.9717 211.25C99.8465 211.424 99.6803 211.562 99.4732 211.665C99.2676 211.766 99.0284 211.816 98.7555 211.816ZM103.661 208.868L103.151 209.013C103.119 208.928 103.071 208.845 103.009 208.765C102.948 208.683 102.864 208.616 102.758 208.563C102.652 208.51 102.517 208.483 102.351 208.483C102.125 208.483 101.936 208.535 101.785 208.64C101.636 208.742 101.561 208.873 101.561 209.032C101.561 209.174 101.613 209.285 101.715 209.367C101.818 209.449 101.979 209.517 102.197 209.572L102.746 209.707C103.077 209.787 103.323 209.91 103.486 210.075C103.648 210.239 103.729 210.45 103.729 210.708C103.729 210.92 103.668 211.11 103.546 211.277C103.425 211.444 103.257 211.575 103.04 211.672C102.823 211.768 102.571 211.816 102.284 211.816C101.906 211.816 101.594 211.734 101.347 211.571C101.1 211.407 100.943 211.168 100.877 210.853L101.417 210.718C101.468 210.917 101.565 211.067 101.708 211.166C101.853 211.266 102.041 211.315 102.274 211.315C102.539 211.315 102.749 211.259 102.905 211.147C103.062 211.033 103.141 210.896 103.141 210.737C103.141 210.609 103.096 210.501 103.006 210.415C102.916 210.326 102.778 210.261 102.592 210.217L101.975 210.073C101.637 209.992 101.388 209.868 101.229 209.699C101.072 209.529 100.993 209.316 100.993 209.061C100.993 208.852 101.051 208.668 101.169 208.507C101.287 208.347 101.449 208.221 101.653 208.129C101.858 208.038 102.091 207.992 102.351 207.992C102.717 207.992 103.005 208.072 103.213 208.233C103.424 208.393 103.573 208.605 103.661 208.868Z" fill="#5F5F5F"/>
</g>
<defs>
<clipPath id="clip0_1730_10039">
<rect width="8.23529" height="8.23529" fill="white" transform="translate(88.6505 12.1953)"/>
</clipPath>
<clipPath id="clip1_1730_10039">
<rect width="8.23529" height="8.23529" fill="white" transform="translate(104.152 12.1953)"/>
</clipPath>
<clipPath id="clip2_1730_10039">
<rect width="140" height="528.889" fill="white" transform="translate(0 33.0259)"/>
</clipPath>
<clipPath id="clip3_1730_10039">
<rect width="53.7716" height="20.8305" fill="white" transform="translate(42.1453 47.0742)"/>
</clipPath>
<clipPath id="clip4_1730_10039">
<rect width="9.68858" height="9.68858" fill="white" transform="translate(25.6747 457.81)"/>
</clipPath>
</defs>
</svg>
