<svg width="18" height="19" viewBox="0 0 18 19" fill="none" xmlns="http://www.w3.org/2000/svg">
<path fill-rule="evenodd" clip-rule="evenodd" d="M9 18.5474C13.9706 18.5474 18 14.5179 18 9.54736C18 4.5768 13.9706 0.547363 9 0.547363C4.02944 0.547363 0 4.5768 0 9.54736C0 14.5179 4.02944 18.5474 9 18.5474ZM7.58575 6.71894C7.19523 6.32841 6.56206 6.32841 6.17154 6.71894C5.78101 7.10946 5.78101 7.74263 6.17154 8.13315L7.58575 9.54736L6.17154 10.9616C5.78101 11.3521 5.78101 11.9853 6.17154 12.3758C6.56206 12.7663 7.19523 12.7663 7.58575 12.3758L8.99996 10.9616L10.4142 12.3758C10.8047 12.7663 11.4379 12.7663 11.8284 12.3758C12.2189 11.9853 12.2189 11.3521 11.8284 10.9616L10.4142 9.54736L11.8284 8.13315C12.2189 7.74263 12.2189 7.10946 11.8284 6.71894C11.4379 6.32841 10.8047 6.32841 10.4142 6.71894L8.99996 8.13315L7.58575 6.71894Z" fill="#6F6F77" fill-opacity="0.8"/>
</svg>
