<svg width="18" height="20" viewBox="0 0 18 20" fill="none" xmlns="http://www.w3.org/2000/svg">
<path d="M15.4167 2.75008H14.5V0.916748H12.6667V2.75008H5.33333V0.916748H3.5V2.75008H2.58333C1.575 2.75008 0.75 3.57508 0.75 4.58341V17.4167C0.75 18.4251 1.575 19.2501 2.58333 19.2501H15.4167C16.425 19.2501 17.25 18.4251 17.25 17.4167V4.58341C17.25 3.57508 16.425 2.75008 15.4167 2.75008ZM15.4167 17.4167H2.58333V8.25008H15.4167V17.4167ZM2.58333 6.41675V4.58341H15.4167V6.41675H2.58333ZM4.41667 10.0834H13.5833V11.9167H4.41667V10.0834ZM4.41667 13.7501H10.8333V15.5834H4.41667V13.7501Z" fill="#667085" fill-opacity="0.7"/>
</svg>
