<svg width="112" height="74" viewBox="0 0 112 74" fill="none" xmlns="http://www.w3.org/2000/svg">
<circle cx="56" cy="25" r="25" fill="#D9D9D9"/>
<path d="M56.8029 22.8645C57.474 21.9268 57.8348 20.8027 57.8348 19.6496C57.8348 18.4965 57.474 17.3723 56.8029 16.4346C57.431 16.0059 58.1747 15.7785 58.9351 15.7828C59.9607 15.7828 60.9442 16.1902 61.6694 16.9153C62.3945 17.6405 62.8019 18.624 62.8019 19.6496C62.8019 20.6751 62.3945 21.6586 61.6694 22.3838C60.9442 23.109 59.9607 23.5164 58.9351 23.5164C58.1747 23.5206 57.431 23.2932 56.8029 22.8645ZM48.4395 19.6496C48.4395 18.8848 48.6663 18.1372 49.0912 17.5013C49.5161 16.8654 50.12 16.3698 50.8266 16.0771C51.5331 15.7844 52.3106 15.7079 53.0607 15.8571C53.8108 16.0063 54.4998 16.3745 55.0406 16.9153C55.5814 17.4561 55.9496 18.1451 56.0988 18.8952C56.248 19.6453 56.1715 20.4228 55.8788 21.1293C55.5861 21.8359 55.0905 22.4398 54.4546 22.8647C53.8187 23.2896 53.0711 23.5164 52.3063 23.5164C51.2808 23.5164 50.2973 23.109 49.5721 22.3838C48.8469 21.6586 48.4395 20.6751 48.4395 19.6496ZM50.6491 19.6496C50.6491 19.9773 50.7463 20.2977 50.9284 20.5703C51.1105 20.8428 51.3693 21.0552 51.6722 21.1806C51.975 21.306 52.3082 21.3389 52.6296 21.2749C52.9511 21.211 53.2464 21.0531 53.4782 20.8214C53.7099 20.5896 53.8678 20.2943 53.9317 19.9729C53.9956 19.6514 53.9628 19.3182 53.8374 19.0154C53.712 18.7126 53.4996 18.4538 53.227 18.2717C52.9545 18.0896 52.6341 17.9924 52.3063 17.9924C51.8668 17.9924 51.4453 18.167 51.1345 18.4778C50.8237 18.7885 50.6491 19.2101 50.6491 19.6496ZM60.0399 30.1451V32.3547H44.5728V30.1451C44.5728 30.1451 44.5728 25.726 52.3063 25.726C60.0399 25.726 60.0399 30.1451 60.0399 30.1451ZM57.8303 30.1451C57.6757 29.2834 56.3609 27.9356 52.3063 27.9356C48.2517 27.9356 46.8597 29.3828 46.7823 30.1451M59.9847 25.726C60.6618 26.2526 61.2155 26.9212 61.6067 27.6846C61.998 28.4481 62.2174 29.2879 62.2495 30.1451V32.3547H66.6687V30.1451C66.6687 30.1451 66.6687 26.1347 59.9736 25.726H59.9847Z" fill="white"/>
<path d="M0.852 70V61.6H2.124L6.336 67.924V61.6H7.608V70H6.336L2.124 63.676V70H0.852ZM12.0489 70.144C11.4809 70.144 10.9689 70.016 10.5129 69.76C10.0649 69.496 9.70894 69.132 9.44494 68.668C9.18094 68.196 9.04894 67.648 9.04894 67.024C9.04894 66.4 9.18094 65.856 9.44494 65.392C9.71694 64.92 10.0809 64.556 10.5369 64.3C10.9929 64.036 11.5009 63.904 12.0609 63.904C12.6289 63.904 13.1369 64.036 13.5849 64.3C14.0409 64.556 14.4009 64.92 14.6649 65.392C14.9369 65.856 15.0729 66.4 15.0729 67.024C15.0729 67.648 14.9369 68.196 14.6649 68.668C14.4009 69.132 14.0409 69.496 13.5849 69.76C13.1289 70.016 12.6169 70.144 12.0489 70.144ZM12.0489 69.052C12.3529 69.052 12.6329 68.976 12.8889 68.824C13.1529 68.672 13.3649 68.448 13.5249 68.152C13.6849 67.848 13.7649 67.472 13.7649 67.024C13.7649 66.576 13.6849 66.204 13.5249 65.908C13.3729 65.604 13.1649 65.376 12.9009 65.224C12.6449 65.072 12.3649 64.996 12.0609 64.996C11.7569 64.996 11.4729 65.072 11.2089 65.224C10.9529 65.376 10.7449 65.604 10.5849 65.908C10.4249 66.204 10.3449 66.576 10.3449 67.024C10.3449 67.472 10.4249 67.848 10.5849 68.152C10.7449 68.448 10.9529 68.672 11.2089 68.824C11.4649 68.976 11.7449 69.052 12.0489 69.052ZM21.908 68.176C21.596 68.176 21.308 68.14 21.044 68.068L20.528 68.572C20.616 68.628 20.724 68.676 20.852 68.716C20.98 68.756 21.16 68.792 21.392 68.824C21.624 68.856 21.94 68.888 22.34 68.92C23.132 68.992 23.704 69.184 24.056 69.496C24.408 69.8 24.584 70.208 24.584 70.72C24.584 71.072 24.488 71.404 24.296 71.716C24.112 72.036 23.82 72.292 23.42 72.484C23.028 72.684 22.524 72.784 21.908 72.784C21.076 72.784 20.4 72.624 19.88 72.304C19.368 71.992 19.112 71.516 19.112 70.876C19.112 70.628 19.176 70.38 19.304 70.132C19.44 69.892 19.652 69.664 19.94 69.448C19.772 69.376 19.624 69.3 19.496 69.22C19.376 69.132 19.268 69.044 19.172 68.956V68.668L20.204 67.612C19.74 67.212 19.508 66.688 19.508 66.04C19.508 65.648 19.6 65.292 19.784 64.972C19.976 64.644 20.252 64.384 20.612 64.192C20.972 64 21.404 63.904 21.908 63.904C22.244 63.904 22.556 63.952 22.844 64.048H25.064V64.888L24.008 64.948C24.2 65.276 24.296 65.64 24.296 66.04C24.296 66.44 24.2 66.8 24.008 67.12C23.824 67.44 23.552 67.696 23.192 67.888C22.84 68.08 22.412 68.176 21.908 68.176ZM21.908 67.18C22.276 67.18 22.572 67.084 22.796 66.892C23.028 66.692 23.144 66.412 23.144 66.052C23.144 65.684 23.028 65.404 22.796 65.212C22.572 65.02 22.276 64.924 21.908 64.924C21.532 64.924 21.228 65.02 20.996 65.212C20.772 65.404 20.66 65.684 20.66 66.052C20.66 66.412 20.772 66.692 20.996 66.892C21.228 67.084 21.532 67.18 21.908 67.18ZM20.312 70.756C20.312 71.1 20.464 71.356 20.768 71.524C21.072 71.7 21.452 71.788 21.908 71.788C22.348 71.788 22.704 71.692 22.976 71.5C23.248 71.316 23.384 71.068 23.384 70.756C23.384 70.524 23.292 70.324 23.108 70.156C22.924 69.996 22.576 69.896 22.064 69.856C21.68 69.832 21.34 69.796 21.044 69.748C20.764 69.9 20.572 70.064 20.468 70.24C20.364 70.416 20.312 70.588 20.312 70.756ZM28.3945 70.144C27.6745 70.144 27.1065 69.92 26.6905 69.472C26.2825 69.024 26.0785 68.356 26.0785 67.468V64.048H27.3505V67.336C27.3505 68.488 27.8225 69.064 28.7665 69.064C29.2385 69.064 29.6265 68.896 29.9305 68.56C30.2345 68.224 30.3865 67.744 30.3865 67.12V64.048H31.6585V70H30.5305L30.4345 68.956C30.2505 69.324 29.9785 69.616 29.6185 69.832C29.2665 70.04 28.8585 70.144 28.3945 70.144ZM36.0607 70.144C35.4767 70.144 34.9567 70.016 34.5007 69.76C34.0527 69.496 33.7007 69.132 33.4447 68.668C33.1887 68.204 33.0607 67.664 33.0607 67.048C33.0607 66.424 33.1847 65.876 33.4327 65.404C33.6887 64.932 34.0407 64.564 34.4887 64.3C34.9447 64.036 35.4727 63.904 36.0727 63.904C36.6567 63.904 37.1647 64.036 37.5967 64.3C38.0287 64.556 38.3647 64.9 38.6047 65.332C38.8447 65.764 38.9647 66.24 38.9647 66.76C38.9647 66.84 38.9607 66.928 38.9527 67.024C38.9527 67.112 38.9487 67.212 38.9407 67.324H34.3087C34.3487 67.9 34.5367 68.34 34.8727 68.644C35.2167 68.94 35.6127 69.088 36.0607 69.088C36.4207 69.088 36.7207 69.008 36.9607 68.848C37.2087 68.68 37.3927 68.456 37.5127 68.176H38.7847C38.6247 68.736 38.3047 69.204 37.8247 69.58C37.3527 69.956 36.7647 70.144 36.0607 70.144ZM36.0607 64.948C35.6367 64.948 35.2607 65.076 34.9327 65.332C34.6047 65.58 34.4047 65.956 34.3327 66.46H37.6927C37.6687 65.996 37.5047 65.628 37.2007 65.356C36.8967 65.084 36.5167 64.948 36.0607 64.948ZM42.6605 70.144C41.9085 70.144 41.2885 69.96 40.8005 69.592C40.3125 69.224 40.0325 68.736 39.9605 68.128H41.2445C41.3085 68.4 41.4605 68.636 41.7005 68.836C41.9405 69.028 42.2565 69.124 42.6485 69.124C43.0325 69.124 43.3125 69.044 43.4885 68.884C43.6645 68.724 43.7525 68.54 43.7525 68.332C43.7525 68.028 43.6285 67.824 43.3805 67.72C43.1405 67.608 42.8045 67.508 42.3725 67.42C42.0365 67.348 41.7005 67.252 41.3645 67.132C41.0365 67.012 40.7605 66.844 40.5365 66.628C40.3205 66.404 40.2125 66.104 40.2125 65.728C40.2125 65.208 40.4125 64.776 40.8125 64.432C41.2125 64.08 41.7725 63.904 42.4925 63.904C43.1565 63.904 43.6925 64.064 44.1005 64.384C44.5165 64.704 44.7605 65.156 44.8325 65.74H43.6085C43.5685 65.484 43.4485 65.284 43.2485 65.14C43.0565 64.996 42.7965 64.924 42.4685 64.924C42.1485 64.924 41.9005 64.992 41.7245 65.128C41.5485 65.256 41.4605 65.424 41.4605 65.632C41.4605 65.84 41.5805 66.004 41.8205 66.124C42.0685 66.244 42.3925 66.352 42.7925 66.448C43.1925 66.536 43.5605 66.64 43.8965 66.76C44.2405 66.872 44.5165 67.04 44.7245 67.264C44.9325 67.488 45.0365 67.816 45.0365 68.248C45.0445 68.792 44.8325 69.244 44.4005 69.604C43.9765 69.964 43.3965 70.144 42.6605 70.144ZM48.6984 70C48.1144 70 47.6504 69.86 47.3064 69.58C46.9624 69.292 46.7904 68.784 46.7904 68.056V65.116H45.7704V64.048H46.7904L46.9464 62.536H48.0624V64.048H49.7424V65.116H48.0624V68.056C48.0624 68.384 48.1304 68.612 48.2664 68.74C48.4104 68.86 48.6544 68.92 48.9984 68.92H49.6824V70H48.6984ZM56.0934 70.144C55.5894 70.144 55.1734 70.06 54.8454 69.892C54.5174 69.724 54.2734 69.504 54.1134 69.232C53.9534 68.952 53.8734 68.648 53.8734 68.32C53.8734 67.744 54.0974 67.288 54.5454 66.952C54.9934 66.616 55.6334 66.448 56.4654 66.448H58.0254V66.34C58.0254 65.876 57.8974 65.528 57.6414 65.296C57.3934 65.064 57.0694 64.948 56.6694 64.948C56.3174 64.948 56.0094 65.036 55.7454 65.212C55.4894 65.38 55.3334 65.632 55.2774 65.968H54.0054C54.0454 65.536 54.1894 65.168 54.4374 64.864C54.6934 64.552 55.0134 64.316 55.3974 64.156C55.7894 63.988 56.2174 63.904 56.6814 63.904C57.5134 63.904 58.1574 64.124 58.6134 64.564C59.0694 64.996 59.2974 65.588 59.2974 66.34V70H58.1934L58.0854 68.98C57.9174 69.308 57.6734 69.584 57.3534 69.808C57.0334 70.032 56.6134 70.144 56.0934 70.144ZM56.3454 69.112C56.6894 69.112 56.9774 69.032 57.2094 68.872C57.4494 68.704 57.6334 68.484 57.7614 68.212C57.8974 67.94 57.9814 67.64 58.0134 67.312H56.5974C56.0934 67.312 55.7334 67.4 55.5174 67.576C55.3094 67.752 55.2054 67.972 55.2054 68.236C55.2054 68.508 55.3054 68.724 55.5054 68.884C55.7134 69.036 55.9934 69.112 56.3454 69.112ZM63.4926 70.144C62.9166 70.144 62.4086 70.008 61.9686 69.736C61.5286 69.464 61.1846 69.092 60.9366 68.62C60.6886 68.148 60.5646 67.612 60.5646 67.012C60.5646 66.412 60.6886 65.88 60.9366 65.416C61.1846 64.944 61.5286 64.576 61.9686 64.312C62.4166 64.04 62.9286 63.904 63.5046 63.904C63.9766 63.904 64.3886 63.996 64.7406 64.18C65.1006 64.364 65.3806 64.624 65.5806 64.96V61.36H66.8526V70H65.7126L65.5806 69.076C65.3886 69.356 65.1246 69.604 64.7886 69.82C64.4526 70.036 64.0206 70.144 63.4926 70.144ZM63.7206 69.04C64.2646 69.04 64.7086 68.852 65.0526 68.476C65.4046 68.1 65.5806 67.616 65.5806 67.024C65.5806 66.424 65.4046 65.94 65.0526 65.572C64.7086 65.196 64.2646 65.008 63.7206 65.008C63.1766 65.008 62.7286 65.196 62.3766 65.572C62.0246 65.94 61.8486 66.424 61.8486 67.024C61.8486 67.416 61.9286 67.764 62.0886 68.068C62.2486 68.372 62.4686 68.612 62.7486 68.788C63.0366 68.956 63.3606 69.04 63.7206 69.04ZM71.1683 70.144C70.5923 70.144 70.0843 70.008 69.6443 69.736C69.2043 69.464 68.8603 69.092 68.6123 68.62C68.3643 68.148 68.2403 67.612 68.2403 67.012C68.2403 66.412 68.3643 65.88 68.6123 65.416C68.8603 64.944 69.2043 64.576 69.6443 64.312C70.0923 64.04 70.6043 63.904 71.1803 63.904C71.6523 63.904 72.0643 63.996 72.4163 64.18C72.7763 64.364 73.0563 64.624 73.2563 64.96V61.36H74.5283V70H73.3883L73.2563 69.076C73.0643 69.356 72.8003 69.604 72.4643 69.82C72.1283 70.036 71.6963 70.144 71.1683 70.144ZM71.3963 69.04C71.9403 69.04 72.3843 68.852 72.7283 68.476C73.0803 68.1 73.2563 67.616 73.2563 67.024C73.2563 66.424 73.0803 65.94 72.7283 65.572C72.3843 65.196 71.9403 65.008 71.3963 65.008C70.8523 65.008 70.4043 65.196 70.0523 65.572C69.7003 65.94 69.5243 66.424 69.5243 67.024C69.5243 67.416 69.6043 67.764 69.7643 68.068C69.9243 68.372 70.1443 68.612 70.4243 68.788C70.7123 68.956 71.0363 69.04 71.3963 69.04ZM78.9161 70.144C78.3321 70.144 77.8121 70.016 77.3561 69.76C76.9081 69.496 76.5561 69.132 76.3001 68.668C76.0441 68.204 75.9161 67.664 75.9161 67.048C75.9161 66.424 76.0401 65.876 76.2881 65.404C76.5441 64.932 76.8961 64.564 77.3441 64.3C77.8001 64.036 78.3281 63.904 78.9281 63.904C79.5121 63.904 80.0201 64.036 80.4521 64.3C80.8841 64.556 81.2201 64.9 81.4601 65.332C81.7001 65.764 81.8201 66.24 81.8201 66.76C81.8201 66.84 81.8161 66.928 81.8081 67.024C81.8081 67.112 81.8041 67.212 81.7961 67.324H77.1641C77.2041 67.9 77.3921 68.34 77.7281 68.644C78.0721 68.94 78.4681 69.088 78.9161 69.088C79.2761 69.088 79.5761 69.008 79.8161 68.848C80.0641 68.68 80.2481 68.456 80.3681 68.176H81.6401C81.4801 68.736 81.1601 69.204 80.6801 69.58C80.2081 69.956 79.6201 70.144 78.9161 70.144ZM78.9161 64.948C78.4921 64.948 78.1161 65.076 77.7881 65.332C77.4601 65.58 77.2601 65.956 77.1881 66.46H80.5481C80.5241 65.996 80.3601 65.628 80.0561 65.356C79.7521 65.084 79.3721 64.948 78.9161 64.948ZM85.8519 70.144C85.2759 70.144 84.7679 70.008 84.3279 69.736C83.8879 69.464 83.5439 69.092 83.2959 68.62C83.0479 68.148 82.9239 67.612 82.9239 67.012C82.9239 66.412 83.0479 65.88 83.2959 65.416C83.5439 64.944 83.8879 64.576 84.3279 64.312C84.7759 64.04 85.2879 63.904 85.8639 63.904C86.3359 63.904 86.7479 63.996 87.0999 64.18C87.4599 64.364 87.7399 64.624 87.9399 64.96V61.36H89.2119V70H88.0719L87.9399 69.076C87.7479 69.356 87.4839 69.604 87.1479 69.82C86.8119 70.036 86.3799 70.144 85.8519 70.144ZM86.0799 69.04C86.6239 69.04 87.0679 68.852 87.4119 68.476C87.7639 68.1 87.9399 67.616 87.9399 67.024C87.9399 66.424 87.7639 65.94 87.4119 65.572C87.0679 65.196 86.6239 65.008 86.0799 65.008C85.5359 65.008 85.0879 65.196 84.7359 65.572C84.3839 65.94 84.2079 66.424 84.2079 67.024C84.2079 67.416 84.2879 67.764 84.4479 68.068C84.6079 68.372 84.8279 68.612 85.1079 68.788C85.3959 68.956 85.7199 69.04 86.0799 69.04ZM94.5352 72.64L95.9632 69.508H95.6152L93.2632 64.048H94.6432L96.4672 68.452L98.3752 64.048H99.7192L95.8792 72.64H94.5352ZM103.01 70.144C102.426 70.144 101.906 70.016 101.45 69.76C101.002 69.496 100.65 69.132 100.394 68.668C100.138 68.204 100.01 67.664 100.01 67.048C100.01 66.424 100.134 65.876 100.382 65.404C100.638 64.932 100.99 64.564 101.438 64.3C101.894 64.036 102.422 63.904 103.022 63.904C103.606 63.904 104.114 64.036 104.546 64.3C104.978 64.556 105.314 64.9 105.554 65.332C105.794 65.764 105.914 66.24 105.914 66.76C105.914 66.84 105.91 66.928 105.902 67.024C105.902 67.112 105.898 67.212 105.89 67.324H101.258C101.298 67.9 101.486 68.34 101.822 68.644C102.166 68.94 102.562 69.088 103.01 69.088C103.37 69.088 103.67 69.008 103.91 68.848C104.158 68.68 104.342 68.456 104.462 68.176H105.734C105.574 68.736 105.254 69.204 104.774 69.58C104.302 69.956 103.714 70.144 103.01 70.144ZM103.01 64.948C102.586 64.948 102.21 65.076 101.882 65.332C101.554 65.58 101.354 65.956 101.282 66.46H104.642C104.618 65.996 104.454 65.628 104.15 65.356C103.846 65.084 103.466 64.948 103.01 64.948ZM109.577 70C108.993 70 108.529 69.86 108.185 69.58C107.841 69.292 107.669 68.784 107.669 68.056V65.116H106.649V64.048H107.669L107.825 62.536H108.941V64.048H110.621V65.116H108.941V68.056C108.941 68.384 109.009 68.612 109.145 68.74C109.289 68.86 109.533 68.92 109.877 68.92H110.561V70H109.577Z" fill="#667085"/>
</svg>
