<svg width="44" height="49" viewBox="0 0 44 49" fill="none" xmlns="http://www.w3.org/2000/svg">
<path fill-rule="evenodd" clip-rule="evenodd" d="M16 31C16 31 17.4497 31 18.4749 32.0251C18.4749 32.0251 19.5 33.0503 19.5 34.5C19.5 34.5 19.5 35.9497 18.4749 36.9749C18.4749 36.9749 17.4497 38 16 38C16 38 14.5503 38 13.5251 36.9749C13.5251 36.9749 12.5 35.9497 12.5 34.5C12.5 34.5 12.5 33.0503 13.5251 32.0251C13.5251 32.0251 14.5503 31 16 31ZM16 33C16 33 15.3787 33 14.9393 33.4393C14.9393 33.4393 14.5 33.8787 14.5 34.5C14.5 34.5 14.5 35.1213 14.9393 35.5607C14.9393 35.5607 15.3787 36 16 36C16 36 16.6213 36 17.0607 35.5607C17.0607 35.5607 17.5 35.1213 17.5 34.5C17.5 34.5 17.5 33.8787 17.0607 33.4393C17.0607 33.4393 16.6213 33 16 33Z" fill="white"/>
<path d="M15 37V40C15 40.5523 15.4477 41 16 41C16.5523 41 17 40.5523 17 40V37C17 36.4477 16.5523 36 16 36C15.4477 36 15 36.4477 15 37Z" fill="white"/>
<path fill-rule="evenodd" clip-rule="evenodd" d="M4 29C4 29 4 28.1716 4.58579 27.5858C4.58579 27.5858 5.17157 27 6 27H26C26 27 26.8284 27 27.4142 27.5858C27.4142 27.5858 28 28.1716 28 29V43C28 43 28 43.8284 27.4142 44.4142C27.4142 44.4142 26.8284 45 26 45H6C6 45 5.17157 45 4.58579 44.4142C4.58579 44.4142 4 43.8284 4 43V29ZM6 29V43L26 43V29H6Z" fill="white"/>
<path d="M19.5 23.5V28C19.5 28.5523 19.9477 29 20.5 29C21.0523 29 21.5 28.5523 21.5 28V23.5C21.5 21.2218 19.8891 19.6109 19.8891 19.6109C18.2782 18 16 18 16 18C13.7218 18 12.1109 19.6109 12.1109 19.6109C10.5 21.2218 10.5 23.5 10.5 23.5V28C10.5 28.5523 10.9477 29 11.5 29C12.0523 29 12.5 28.5523 12.5 28V23.5C12.5 22.0503 13.5251 21.0251 13.5251 21.0251C14.5503 20 16 20 16 20C17.4497 20 18.4749 21.0251 18.4749 21.0251C19.5 22.0503 19.5 23.5 19.5 23.5Z" fill="white"/>
<rect x="25" width="19" height="19" rx="3" fill="#36383C"/>
<path d="M34.5 7.55416L38.856 11.4953C38.944 11.5749 39.0632 11.6196 39.1875 11.6196C39.3118 11.6196 39.431 11.5749 39.519 11.4953C39.6069 11.4158 39.6562 11.3079 39.6562 11.1955C39.6562 11.083 39.6069 10.9751 39.519 10.8956L34.8315 6.65449C34.7435 6.57496 34.6243 6.53027 34.5 6.53027C34.3757 6.53027 34.2565 6.57496 34.1685 6.65449L29.4812 10.8954L29.481 10.8956C29.3931 10.9751 29.3438 11.083 29.3438 11.1955C29.3438 11.3079 29.3931 11.4158 29.481 11.4953C29.569 11.5749 29.6882 11.6196 29.8125 11.6196C29.9368 11.6196 30.056 11.5749 30.144 11.4953L30.1441 11.4952L34.5 7.55416Z" fill="white"/>
</svg>
