<svg width="837" height="307" viewBox="0 0 837 307" fill="none" xmlns="http://www.w3.org/2000/svg">
<path d="M39.2202 280.747H40.4808L43.4449 287.987H43.5471L46.5112 280.747H47.7717V289.469H46.7837V282.842H46.6985L43.9729 289.469H43.019L40.2934 282.842H40.2082V289.469H39.2202V280.747ZM50.9667 289.469H49.8594L53.062 280.747H54.1522L57.3548 289.469H56.2475L53.6412 282.127H53.573L50.9667 289.469ZM51.3755 286.062H55.8387V286.999H51.3755V286.062ZM57.7933 280.747H59.0028L61.4217 284.818H61.5239L63.9429 280.747H65.1524L62.0009 285.874V289.469H60.9447V285.874L57.7933 280.747ZM74.073 289.588C73.7153 289.582 73.3576 289.514 72.9998 289.384C72.6421 289.253 72.3156 289.033 72.0203 288.723C71.7251 288.411 71.488 287.99 71.3091 287.459C71.1302 286.925 71.0408 286.255 71.0408 285.448C71.0408 284.676 71.1132 283.992 71.258 283.396C71.4028 282.797 71.6129 282.293 71.8883 281.884C72.1637 281.472 72.4959 281.16 72.8849 280.947C73.2767 280.734 73.7181 280.628 74.2093 280.628C74.6977 280.628 75.132 280.726 75.5125 280.921C75.8958 281.115 76.2081 281.384 76.4494 281.731C76.6907 282.077 76.8469 282.476 76.9179 282.927H75.8787C75.7822 282.536 75.5948 282.21 75.3166 281.952C75.0384 281.694 74.6693 281.565 74.2093 281.565C73.5336 281.565 73.0013 281.858 72.6123 282.446C72.2262 283.034 72.0317 283.859 72.0288 284.92H72.097C72.256 284.679 72.4448 284.473 72.6634 284.303C72.8849 284.13 73.129 283.996 73.3959 283.903C73.6628 283.809 73.9453 283.762 74.2434 283.762C74.7431 283.762 75.2002 283.887 75.6147 284.137C76.0292 284.384 76.3614 284.726 76.6112 285.163C76.8611 285.598 76.986 286.096 76.986 286.658C76.986 287.197 76.8654 287.691 76.624 288.14C76.3827 288.586 76.0434 288.941 75.6062 289.205C75.1718 289.466 74.6607 289.594 74.073 289.588ZM74.073 288.651C74.4308 288.651 74.7516 288.562 75.0355 288.383C75.3223 288.204 75.548 287.964 75.7127 287.663C75.8802 287.362 75.9639 287.027 75.9639 286.658C75.9639 286.297 75.883 285.969 75.7212 285.674C75.5622 285.376 75.3421 285.139 75.0611 284.963C74.7828 284.787 74.4648 284.699 74.1071 284.699C73.8374 284.699 73.5861 284.753 73.3533 284.861C73.1205 284.966 72.9161 285.111 72.7401 285.295C72.5669 285.48 72.4306 285.691 72.3312 285.93C72.2318 286.165 72.1822 286.414 72.1822 286.675C72.1822 287.021 72.2631 287.345 72.4249 287.646C72.5896 287.947 72.8139 288.19 73.0978 288.374C73.3845 288.559 73.7096 288.651 74.073 288.651Z" fill="#615E83"/>
<path d="M107.081 280.747H108.341L111.306 287.987H111.408L114.372 280.747H115.632V289.469H114.644V282.842H114.559L111.834 289.469H110.88L108.154 282.842H108.069V289.469H107.081V280.747ZM118.827 289.469H117.72L120.923 280.747H122.013L125.215 289.469H124.108L121.502 282.127H121.434L118.827 289.469ZM119.236 286.062H123.699V286.999H119.236V286.062ZM125.654 280.747H126.863L129.282 284.818H129.385L131.804 280.747H133.013L129.862 285.874V289.469H128.805V285.874L125.654 280.747ZM139.31 289.469L143.211 281.752V281.684H138.714V280.747H144.302V281.735L140.418 289.469H139.31Z" fill="#615E83"/>
<path d="M174.859 280.747H176.119L179.083 287.987H179.186L182.15 280.747H183.41V289.469H182.422V282.842H182.337L179.612 289.469H178.658L175.932 282.842H175.847V289.469H174.859V280.747ZM186.605 289.469H185.498L188.701 280.747H189.791L192.993 289.469H191.886L189.28 282.127H189.212L186.605 289.469ZM187.014 286.062H191.477V286.999H187.014V286.062ZM193.432 280.747H194.641L197.06 284.818H197.163L199.582 280.747H200.791L197.64 285.874V289.469H196.583V285.874L193.432 280.747ZM209.609 289.588C209.025 289.588 208.508 289.484 208.059 289.277C207.614 289.067 207.266 288.779 207.016 288.413C206.766 288.043 206.643 287.623 206.645 287.152C206.643 286.783 206.715 286.442 206.863 286.13C207.01 285.815 207.212 285.552 207.467 285.342C207.726 285.129 208.014 284.994 208.332 284.937V284.886C207.914 284.778 207.582 284.544 207.335 284.184C207.088 283.82 206.966 283.407 206.969 282.944C206.966 282.501 207.078 282.105 207.305 281.756C207.533 281.407 207.845 281.132 208.242 280.93C208.643 280.728 209.098 280.628 209.609 280.628C210.115 280.628 210.566 280.728 210.964 280.93C211.361 281.132 211.674 281.407 211.901 281.756C212.131 282.105 212.247 282.501 212.25 282.944C212.247 283.407 212.121 283.82 211.871 284.184C211.624 284.544 211.296 284.778 210.887 284.886V284.937C211.202 284.994 211.486 285.129 211.739 285.342C211.991 285.552 212.193 285.815 212.344 286.13C212.494 286.442 212.571 286.783 212.574 287.152C212.571 287.623 212.443 288.043 212.19 288.413C211.94 288.779 211.593 289.067 211.147 289.277C210.704 289.484 210.191 289.588 209.609 289.588ZM209.609 288.651C210.004 288.651 210.345 288.587 210.632 288.459C210.918 288.332 211.14 288.151 211.296 287.919C211.452 287.686 211.532 287.413 211.534 287.101C211.532 286.772 211.446 286.481 211.279 286.228C211.111 285.975 210.883 285.776 210.593 285.632C210.306 285.487 209.979 285.414 209.609 285.414C209.238 285.414 208.905 285.487 208.613 285.632C208.323 285.776 208.095 285.975 207.927 286.228C207.763 286.481 207.682 286.772 207.684 287.101C207.682 287.413 207.757 287.686 207.91 287.919C208.066 288.151 208.289 288.332 208.579 288.459C208.868 288.587 209.212 288.651 209.609 288.651ZM209.609 284.512C209.922 284.512 210.199 284.449 210.44 284.324C210.684 284.199 210.876 284.025 211.015 283.8C211.154 283.576 211.225 283.313 211.228 283.012C211.225 282.717 211.155 282.46 211.019 282.242C210.883 282.02 210.694 281.85 210.453 281.731C210.211 281.609 209.93 281.547 209.609 281.547C209.283 281.547 208.998 281.609 208.753 281.731C208.509 281.85 208.32 282.02 208.187 282.242C208.054 282.46 207.988 282.717 207.991 283.012C207.988 283.313 208.055 283.576 208.191 283.8C208.33 284.025 208.522 284.199 208.766 284.324C209.01 284.449 209.291 284.512 209.609 284.512Z" fill="#615E83"/>
<path d="M239.637 280.747H240.897L243.861 287.987H243.963L246.928 280.747H248.188V289.469H247.2V282.842H247.115L244.389 289.469H243.435L240.71 282.842H240.625V289.469H239.637V280.747ZM251.383 289.469H250.276L253.478 280.747H254.569L257.771 289.469H256.664L254.058 282.127H253.989L251.383 289.469ZM251.792 286.062H256.255V286.999H251.792V286.062ZM258.21 280.747H259.419L261.838 284.818H261.94L264.359 280.747H265.569L262.417 285.874V289.469H261.361V285.874L258.21 280.747ZM274.37 280.628C274.728 280.63 275.086 280.699 275.443 280.832C275.801 280.965 276.128 281.187 276.423 281.496C276.718 281.803 276.955 282.222 277.134 282.753C277.313 283.284 277.402 283.949 277.402 284.75C277.402 285.525 277.329 286.214 277.181 286.816C277.036 287.415 276.826 287.92 276.551 288.332C276.278 288.743 275.946 289.056 275.554 289.269C275.165 289.482 274.725 289.588 274.234 289.588C273.746 289.588 273.31 289.491 272.926 289.298C272.546 289.102 272.234 288.831 271.99 288.485C271.748 288.136 271.593 287.731 271.525 287.271H272.564C272.658 287.672 272.844 288.002 273.122 288.264C273.403 288.522 273.774 288.651 274.234 288.651C274.907 288.651 275.438 288.357 275.827 287.77C276.218 287.182 276.414 286.351 276.414 285.278H276.346C276.187 285.517 275.998 285.722 275.78 285.896C275.561 286.069 275.318 286.202 275.052 286.296C274.785 286.39 274.501 286.437 274.2 286.437C273.7 286.437 273.242 286.313 272.824 286.066C272.41 285.816 272.078 285.474 271.828 285.04C271.581 284.602 271.457 284.103 271.457 283.541C271.457 283.007 271.576 282.518 271.815 282.076C272.056 281.63 272.394 281.275 272.829 281.011C273.266 280.747 273.78 280.619 274.37 280.628ZM274.37 281.565C274.012 281.565 273.69 281.654 273.403 281.833C273.12 282.009 272.894 282.247 272.726 282.548C272.562 282.846 272.479 283.177 272.479 283.541C272.479 283.904 272.559 284.235 272.718 284.533C272.88 284.828 273.1 285.064 273.378 285.24C273.659 285.413 273.978 285.5 274.336 285.5C274.606 285.5 274.857 285.447 275.09 285.342C275.323 285.234 275.526 285.088 275.699 284.903C275.875 284.716 276.013 284.504 276.112 284.269C276.211 284.03 276.261 283.782 276.261 283.524C276.261 283.183 276.179 282.863 276.014 282.565C275.852 282.267 275.628 282.026 275.341 281.841C275.057 281.657 274.734 281.565 274.37 281.565Z" fill="#615E83"/>
<path d="M311 280.747H312.933L315.522 287.067H315.625L318.214 280.747H320.147V289.469H318.631V283.477H318.55L316.14 289.443H315.007L312.597 283.464H312.516V289.469H311V280.747ZM323.708 289.469H322.021L325.092 280.747H327.042L330.117 289.469H328.431L326.101 282.536H326.033L323.708 289.469ZM323.763 286.049H328.362V287.318H323.763V286.049ZM330.499 280.747H332.283L334.417 284.605H334.502L336.636 280.747H338.42L335.248 286.215V289.469H333.672V286.215L330.499 280.747ZM347.416 280.747V289.469H345.836V282.284H345.784L343.744 283.587V282.139L345.912 280.747H347.416ZM353.573 289.635C352.872 289.635 352.27 289.457 351.768 289.102C351.268 288.745 350.883 288.229 350.614 287.557C350.347 286.881 350.213 286.067 350.213 285.116C350.216 284.165 350.351 283.356 350.618 282.689C350.888 282.019 351.272 281.508 351.772 281.156C352.275 280.804 352.875 280.628 353.573 280.628C354.272 280.628 354.872 280.804 355.375 281.156C355.877 281.508 356.262 282.019 356.529 282.689C356.799 283.359 356.934 284.168 356.934 285.116C356.934 286.07 356.799 286.885 356.529 287.561C356.262 288.234 355.877 288.748 355.375 289.102C354.875 289.457 354.275 289.635 353.573 289.635ZM353.573 288.302C354.119 288.302 354.549 288.034 354.864 287.497C355.182 286.958 355.341 286.164 355.341 285.116C355.341 284.424 355.268 283.842 355.124 283.37C354.979 282.899 354.774 282.544 354.51 282.306C354.246 282.064 353.934 281.944 353.573 281.944C353.031 281.944 352.602 282.213 352.287 282.753C351.972 283.289 351.813 284.077 351.81 285.116C351.808 285.812 351.877 286.397 352.019 286.871C352.164 287.345 352.368 287.703 352.632 287.944C352.896 288.183 353.21 288.302 353.573 288.302Z" fill="#615E83"/>
<path d="M394.041 280.747H395.301L398.265 287.987H398.367L401.332 280.747H402.592V289.469H401.604V282.842H401.519L398.793 289.469H397.839L395.114 282.842H395.029V289.469H394.041V280.747ZM405.787 289.469H404.68L407.882 280.747H408.973L412.175 289.469H411.068L408.462 282.127H408.393L405.787 289.469ZM406.196 286.062H410.659V286.999H406.196V286.062ZM412.614 280.747H413.823L416.242 284.818H416.344L418.763 280.747H419.973L416.821 285.874V289.469H415.765V285.874L412.614 280.747ZM429.064 280.747V289.469H428.008V281.854H427.957L425.827 283.268V282.195L428.008 280.747H429.064ZM435.358 280.747V289.469H434.302V281.854H434.251L432.121 283.268V282.195L434.302 280.747H435.358Z" fill="#615E83"/>
<path d="M458.475 280.747H459.736L462.7 287.987H462.802L465.766 280.747H467.027V289.469H466.039V282.842H465.953L463.228 289.469H462.274L459.548 282.842H459.463V289.469H458.475V280.747ZM470.222 289.469H469.114L472.317 280.747H473.407L476.61 289.469H475.502L472.896 282.127H472.828L470.222 289.469ZM470.63 286.062H475.094V286.999H470.63V286.062ZM477.048 280.747H478.258L480.677 284.818H480.779L483.198 280.747H484.407L481.256 285.874V289.469H480.2V285.874L477.048 280.747ZM493.498 280.747V289.469H492.442V281.854H492.391L490.262 283.268V282.195L492.442 280.747H493.498ZM496.726 289.469V288.702L499.605 285.551C499.943 285.182 500.221 284.861 500.44 284.588C500.658 284.313 500.82 284.054 500.925 283.813C501.033 283.569 501.087 283.313 501.087 283.047C501.087 282.74 501.013 282.474 500.866 282.25C500.721 282.026 500.522 281.853 500.269 281.731C500.017 281.609 499.733 281.547 499.418 281.547C499.083 281.547 498.79 281.617 498.54 281.756C498.293 281.892 498.102 282.084 497.965 282.331C497.832 282.578 497.765 282.868 497.765 283.2H496.76C496.76 282.689 496.878 282.24 497.114 281.854C497.349 281.468 497.67 281.167 498.076 280.951C498.485 280.735 498.944 280.628 499.452 280.628C499.963 280.628 500.416 280.735 500.81 280.951C501.205 281.167 501.514 281.458 501.739 281.824C501.963 282.191 502.075 282.598 502.075 283.047C502.075 283.367 502.017 283.681 501.901 283.988C501.787 284.292 501.588 284.631 501.304 285.006C501.023 285.378 500.633 285.832 500.133 286.368L498.174 288.464V288.532H502.228V289.469H496.726Z" fill="#615E83"/>
<path d="M525.27 280.747H526.531L529.495 287.987H529.597L532.561 280.747H533.822V289.469H532.834V282.842H532.749L530.023 289.469H529.069L526.343 282.842H526.258V289.469H525.27V280.747ZM537.017 289.469H535.909L539.112 280.747H540.202L543.405 289.469H542.298L539.691 282.127H539.623L537.017 289.469ZM537.426 286.062H541.889V286.999H537.426V286.062ZM543.843 280.747H545.053L547.472 284.818H547.574L549.993 280.747H551.202L548.051 285.874V289.469H546.995V285.874L543.843 280.747ZM560.293 280.747V289.469H559.237V281.854H559.186L557.057 283.268V282.195L559.237 280.747H560.293ZM566.468 289.588C565.906 289.588 565.405 289.491 564.965 289.298C564.528 289.105 564.18 288.837 563.922 288.493C563.666 288.147 563.527 287.745 563.504 287.288H564.577C564.6 287.569 564.697 287.812 564.867 288.017C565.037 288.218 565.26 288.374 565.536 288.485C565.811 288.596 566.116 288.651 566.451 288.651C566.826 288.651 567.158 288.586 567.448 288.455C567.737 288.325 567.965 288.143 568.129 287.91C568.294 287.677 568.376 287.408 568.376 287.101C568.376 286.78 568.297 286.498 568.138 286.253C567.979 286.006 567.746 285.813 567.439 285.674C567.133 285.535 566.758 285.466 566.315 285.466H565.617V284.529H566.315C566.661 284.529 566.965 284.466 567.226 284.341C567.49 284.216 567.696 284.04 567.844 283.813C567.994 283.586 568.07 283.319 568.07 283.012C568.07 282.717 568.004 282.46 567.874 282.242C567.743 282.023 567.559 281.853 567.32 281.731C567.084 281.609 566.806 281.547 566.485 281.547C566.184 281.547 565.901 281.603 565.634 281.714C565.37 281.821 565.154 281.979 564.986 282.186C564.819 282.391 564.728 282.638 564.714 282.927H563.692C563.709 282.47 563.846 282.07 564.105 281.726C564.363 281.38 564.701 281.11 565.118 280.917C565.539 280.724 566 280.628 566.502 280.628C567.042 280.628 567.505 280.737 567.891 280.956C568.277 281.171 568.574 281.457 568.781 281.812C568.988 282.166 569.092 282.55 569.092 282.961C569.092 283.453 568.963 283.871 568.704 284.218C568.449 284.564 568.101 284.804 567.661 284.937V285.006C568.212 285.096 568.642 285.331 568.951 285.708C569.261 286.083 569.415 286.547 569.415 287.101C569.415 287.575 569.286 288.001 569.028 288.379C568.772 288.753 568.423 289.049 567.98 289.264C567.537 289.48 567.033 289.588 566.468 289.588Z" fill="#615E83"/>
<path d="M590.936 280.747H592.197L595.161 287.987H595.263L598.227 280.747H599.488V289.469H598.5V282.842H598.415L595.689 289.469H594.735L592.009 282.842H591.924V289.469H590.936V280.747ZM602.683 289.469H601.576L604.778 280.747H605.868L609.071 289.469H607.964L605.357 282.127H605.289L602.683 289.469ZM603.092 286.062H607.555V286.999H603.092V286.062ZM609.509 280.747H610.719L613.138 284.818H613.24L615.659 280.747H616.868L613.717 285.874V289.469H612.661V285.874L609.509 280.747ZM625.959 280.747V289.469H624.903V281.854H624.852L622.723 283.268V282.195L624.903 280.747H625.959ZM628.983 287.68V286.811L632.816 280.747H633.446V282.093H633.02L630.124 286.675V286.743H635.286V287.68H628.983ZM633.088 289.469V287.416V287.011V280.747H634.094V289.469H633.088Z" fill="#615E83"/>
<path d="M655.117 280.747H656.378L659.342 287.987H659.444L662.408 280.747H663.669V289.469H662.681V282.842H662.595L659.87 289.469H658.916L656.19 282.842H656.105V289.469H655.117V280.747ZM666.864 289.469H665.756L668.959 280.747H670.049L673.252 289.469H672.144L669.538 282.127H669.47L666.864 289.469ZM667.272 286.062H671.736V286.999H667.272V286.062ZM673.69 280.747H674.9L677.319 284.818H677.421L679.84 280.747H681.049L677.898 285.874V289.469H676.842V285.874L673.69 280.747ZM690.14 280.747V289.469H689.084V281.854H689.033L686.904 283.268V282.195L689.084 280.747H690.14ZM696.094 289.588C695.594 289.588 695.144 289.489 694.744 289.29C694.343 289.091 694.023 288.819 693.781 288.472C693.54 288.126 693.408 287.731 693.385 287.288H694.407C694.447 287.683 694.626 288.009 694.944 288.268C695.265 288.523 695.648 288.651 696.094 288.651C696.452 288.651 696.77 288.567 697.048 288.4C697.329 288.232 697.549 288.002 697.708 287.71C697.87 287.415 697.951 287.081 697.951 286.709C697.951 286.329 697.867 285.989 697.699 285.691C697.535 285.39 697.308 285.153 697.018 284.98C696.728 284.807 696.398 284.719 696.026 284.716C695.759 284.713 695.485 284.754 695.204 284.839C694.923 284.922 694.691 285.028 694.51 285.159L693.522 285.04L694.05 280.747H698.581V281.684H694.935L694.629 284.256H694.68C694.859 284.114 695.083 283.996 695.353 283.903C695.623 283.809 695.904 283.762 696.196 283.762C696.73 283.762 697.205 283.89 697.623 284.145C698.043 284.398 698.372 284.744 698.611 285.184C698.852 285.625 698.973 286.127 698.973 286.692C698.973 287.249 698.848 287.745 698.598 288.183C698.351 288.617 698.01 288.961 697.576 289.213C697.141 289.463 696.647 289.588 696.094 289.588Z" fill="#615E83"/>
<path d="M722.918 280.747H724.179L727.143 287.987H727.245L730.209 280.747H731.47V289.469H730.482V282.842H730.397L727.671 289.469H726.717L723.991 282.842H723.906V289.469H722.918V280.747ZM734.665 289.469H733.557L736.76 280.747H737.85L741.053 289.469H739.945L737.339 282.127H737.271L734.665 289.469ZM735.073 286.062H739.537V286.999H735.073V286.062ZM741.491 280.747H742.701L745.12 284.818H745.222L747.641 280.747H748.85L745.699 285.874V289.469H744.643V285.874L741.491 280.747ZM757.941 280.747V289.469H756.885V281.854H756.834L754.705 283.268V282.195L756.885 280.747H757.941ZM764.065 289.588C763.708 289.582 763.35 289.514 762.992 289.384C762.634 289.253 762.308 289.033 762.013 288.723C761.717 288.411 761.48 287.99 761.301 287.459C761.122 286.925 761.033 286.255 761.033 285.448C761.033 284.676 761.105 283.992 761.25 283.396C761.395 282.797 761.605 282.293 761.881 281.884C762.156 281.472 762.488 281.16 762.877 280.947C763.269 280.734 763.71 280.628 764.202 280.628C764.69 280.628 765.124 280.726 765.505 280.921C765.888 281.115 766.2 281.384 766.442 281.731C766.683 282.077 766.839 282.476 766.91 282.927H765.871C765.774 282.536 765.587 282.21 765.309 281.952C765.031 281.694 764.661 281.565 764.202 281.565C763.526 281.565 762.993 281.858 762.605 282.446C762.218 283.034 762.024 283.859 762.021 284.92H762.089C762.248 284.679 762.437 284.473 762.656 284.303C762.877 284.13 763.121 283.996 763.388 283.903C763.655 283.809 763.937 283.762 764.236 283.762C764.735 283.762 765.192 283.887 765.607 284.137C766.021 284.384 766.354 284.726 766.603 285.163C766.853 285.598 766.978 286.096 766.978 286.658C766.978 287.197 766.858 287.691 766.616 288.14C766.375 288.586 766.036 288.941 765.598 289.205C765.164 289.466 764.653 289.594 764.065 289.588ZM764.065 288.651C764.423 288.651 764.744 288.562 765.028 288.383C765.314 288.204 765.54 287.964 765.705 287.663C765.872 287.362 765.956 287.027 765.956 286.658C765.956 286.297 765.875 285.969 765.713 285.674C765.554 285.376 765.334 285.139 765.053 284.963C764.775 284.787 764.457 284.699 764.099 284.699C763.83 284.699 763.578 284.753 763.346 284.861C763.113 284.966 762.908 285.111 762.732 285.295C762.559 285.48 762.423 285.691 762.323 285.93C762.224 286.165 762.174 286.414 762.174 286.675C762.174 287.021 762.255 287.345 762.417 287.646C762.582 287.947 762.806 288.19 763.09 288.374C763.377 288.559 763.702 288.651 764.065 288.651Z" fill="#615E83"/>
<path d="M788.99 280.747H790.251L793.215 287.987H793.317L796.281 280.747H797.542V289.469H796.554V282.842H796.469L793.743 289.469H792.789L790.063 282.842H789.978V289.469H788.99V280.747ZM800.737 289.469H799.629L802.832 280.747H803.922L807.125 289.469H806.018L803.411 282.127H803.343L800.737 289.469ZM801.146 286.062H805.609V286.999H801.146V286.062ZM807.563 280.747H808.773L811.192 284.818H811.294L813.713 280.747H814.922L811.771 285.874V289.469H810.715V285.874L807.563 280.747ZM824.013 280.747V289.469H822.957V281.854H822.906L820.777 283.268V282.195L822.957 280.747H824.013ZM827.514 289.469L831.415 281.752V281.684H826.918V280.747H832.505V281.735L828.621 289.469H827.514Z" fill="#615E83"/>
<path d="M14.7147 271.318C13.9814 271.318 13.3568 271.118 12.8409 270.719C12.325 270.317 11.9307 269.734 11.6582 268.972C11.3856 268.206 11.2493 267.281 11.2493 266.198C11.2493 265.12 11.3856 264.201 11.6582 263.438C11.934 262.672 12.3298 262.088 12.8457 261.686C13.3649 261.28 13.9879 261.077 14.7147 261.077C15.4416 261.077 16.0629 261.28 16.5788 261.686C17.098 262.088 17.4939 262.672 17.7664 263.438C18.0422 264.201 18.1801 265.12 18.1801 266.198C18.1801 267.281 18.0438 268.206 17.7713 268.972C17.4987 269.734 17.1045 270.317 16.5886 270.719C16.0727 271.118 15.448 271.318 14.7147 271.318ZM14.7147 270.247C15.4416 270.247 16.0061 269.897 16.4085 269.196C16.8108 268.495 17.012 267.496 17.012 266.198C17.012 265.335 16.9195 264.6 16.7346 263.993C16.5529 263.386 16.2901 262.924 15.9461 262.606C15.6054 262.288 15.195 262.129 14.7147 262.129C13.9944 262.129 13.4314 262.484 13.0258 263.195C12.6202 263.902 12.4174 264.903 12.4174 266.198C12.4174 267.061 12.5083 267.794 12.69 268.398C12.8717 269.001 13.1329 269.46 13.4736 269.775C13.8176 270.09 14.2313 270.247 14.7147 270.247Z" fill="#615E83"/>
<path d="M6.40847 220.926V230.894H5.20142V222.191H5.14302L2.70945 223.807V222.58L5.20142 220.926H6.40847ZM9.45043 230.894V220.926H10.6575V225.364H15.9724V220.926H17.1794V230.894H15.9724V226.435H10.6575V230.894H9.45043Z" fill="#615E83"/>
<path d="M1.26353 187.181V186.305L4.55371 182.703C4.93984 182.281 5.25782 181.914 5.50767 181.603C5.75751 181.288 5.94246 180.993 6.06252 180.717C6.18582 180.438 6.24747 180.146 6.24747 179.841C6.24747 179.491 6.16311 179.187 5.99438 178.931C5.8289 178.675 5.60177 178.477 5.31298 178.337C5.0242 178.198 4.69972 178.128 4.33956 178.128C3.95667 178.128 3.62247 178.207 3.33693 178.366C3.05463 178.522 2.83561 178.741 2.67986 179.023C2.52736 179.306 2.45111 179.637 2.45111 180.016H1.30247C1.30247 179.432 1.43712 178.92 1.70644 178.478C1.97575 178.037 2.34241 177.693 2.80641 177.446C3.27365 177.2 3.79768 177.076 4.37849 177.076C4.96255 177.076 5.48009 177.2 5.93111 177.446C6.38213 177.693 6.73581 178.026 6.99214 178.444C7.24848 178.863 7.37665 179.328 7.37665 179.841C7.37665 180.208 7.31013 180.566 7.17709 180.917C7.0473 181.264 6.82017 181.652 6.49569 182.08C6.17446 182.505 5.72831 183.024 5.15723 183.637L2.91835 186.032V186.11H7.55186V187.181H1.26353ZM9.7372 187.181V177.213H10.9443V181.652H16.2592V177.213H17.4662V187.181H16.2592V182.722H10.9443V187.181H9.7372Z" fill="#615E83"/>
<path d="M4.20328 144.765C3.56082 144.765 2.98812 144.655 2.48518 144.434C1.98549 144.214 1.58801 143.907 1.29273 143.514C1.0007 143.118 0.841712 142.659 0.815754 142.137H2.04227C2.06823 142.458 2.17855 142.736 2.37324 142.969C2.56792 143.2 2.82263 143.378 3.13738 143.505C3.45212 143.631 3.80093 143.694 4.18381 143.694C4.61212 143.694 4.99175 143.62 5.32272 143.471C5.65368 143.321 5.91326 143.114 6.10146 142.848C6.28965 142.581 6.38375 142.273 6.38375 141.923C6.38375 141.556 6.2929 141.233 6.11119 140.954C5.92949 140.672 5.66342 140.451 5.31298 140.292C4.96255 140.133 4.53424 140.054 4.02806 140.054H3.22985V138.983H4.02806C4.42392 138.983 4.77111 138.912 5.06963 138.769C5.37139 138.626 5.60663 138.425 5.77536 138.165C5.94733 137.906 6.03332 137.601 6.03332 137.25C6.03332 136.913 5.95869 136.619 5.80943 136.369C5.66017 136.12 5.44926 135.925 5.1767 135.785C4.90739 135.646 4.5894 135.576 4.22275 135.576C3.8788 135.576 3.55433 135.639 3.24932 135.766C2.94756 135.889 2.70096 136.069 2.50952 136.306C2.31807 136.54 2.21424 136.822 2.19802 137.153H1.02991C1.04938 136.631 1.20675 136.173 1.50202 135.78C1.79729 135.385 2.18342 135.076 2.6604 134.856C3.14062 134.635 3.66789 134.525 4.24221 134.525C4.85872 134.525 5.38761 134.65 5.8289 134.9C6.27019 135.146 6.60926 135.472 6.84613 135.878C7.083 136.283 7.20143 136.721 7.20143 137.192C7.20143 137.753 7.05379 138.232 6.75852 138.628C6.46649 139.024 6.06901 139.298 5.56607 139.45V139.528C6.19556 139.632 6.68714 139.9 7.04081 140.331C7.39449 140.76 7.57133 141.29 7.57133 141.923C7.57133 142.465 7.4237 142.951 7.12842 143.383C6.8364 143.811 6.43729 144.149 5.93111 144.395C5.42493 144.642 4.84898 144.765 4.20328 144.765ZM9.7372 144.629V134.661H10.9443V139.1H16.2592V134.661H17.4662V144.629H16.2592V140.171H10.9443V144.629H9.7372Z" fill="#615E83"/>
<path d="M4.33834 101.051C3.76726 101.051 3.25297 100.938 2.79546 100.711C2.33795 100.483 1.97129 100.172 1.69549 99.7761C1.41968 99.3803 1.2688 98.9292 1.24284 98.4231H2.41096C2.45638 98.8741 2.6608 99.2472 3.02421 99.5425C3.39087 99.8345 3.82891 99.9805 4.33834 99.9805C4.74718 99.9805 5.11059 99.8848 5.42858 99.6934C5.74981 99.5019 6.00128 99.2391 6.18298 98.9049C6.36793 98.5675 6.46041 98.1862 6.46041 97.7611C6.46041 97.3263 6.36469 96.9386 6.17325 96.5979C5.98505 96.2539 5.72547 95.983 5.39451 95.7851C5.06354 95.5872 4.68553 95.4866 4.26047 95.4833C3.95546 95.4801 3.64234 95.5271 3.32111 95.6245C2.99988 95.7186 2.73543 95.8402 2.52777 95.9895L1.39859 95.8532L2.00212 90.9472H7.18074V92.0179H3.01448L2.66405 94.9577H2.72245C2.92687 94.7954 3.18321 94.6608 3.49146 94.5537C3.79971 94.4466 4.12094 94.3931 4.45515 94.3931C5.06516 94.3931 5.60866 94.5391 6.08564 94.8311C6.56586 95.1199 6.94225 95.5158 7.21481 96.0187C7.49062 96.5216 7.62852 97.096 7.62852 97.7417C7.62852 98.3776 7.48575 98.9455 7.20021 99.4452C6.91792 99.9416 6.52855 100.334 6.0321 100.623C5.53565 100.909 4.97107 101.051 4.33834 101.051ZM9.7372 100.915V90.9472H10.9443V95.386H16.2592V90.9472H17.4662V100.915H16.2592V96.4567H10.9443V100.915H9.7372Z" fill="#615E83"/>
<path d="M8.38332 51.2391V61.207H7.17627V52.5046H7.11787L4.6843 54.1205V52.894L7.17627 51.2391H8.38332ZM11.4253 61.207V51.2391H12.6323V56.1842H12.7491L17.2269 51.2391H18.8038L14.6181 55.7364L18.8038 61.207H17.3437L13.8783 56.5735L12.6323 57.9753V61.207H11.4253Z" fill="#615E83"/>
<path d="M3.20987 21.499V20.6229L6.50005 17.0213C6.88618 16.5994 7.20417 16.2328 7.45401 15.9213C7.70386 15.6066 7.88881 15.3113 8.00886 15.0355C8.13217 14.7564 8.19382 14.4644 8.19382 14.1594C8.19382 13.809 8.10945 13.5056 7.94072 13.2492C7.77524 12.9929 7.54811 12.795 7.25933 12.6554C6.97054 12.5159 6.64607 12.4462 6.2859 12.4462C5.90302 12.4462 5.56881 12.5257 5.28327 12.6846C5.00098 12.8404 4.78196 13.0594 4.62621 13.3417C4.47371 13.624 4.39745 13.955 4.39745 14.3346H3.24881C3.24881 13.7506 3.38347 13.2379 3.65278 12.7966C3.9221 12.3553 4.28875 12.0114 4.75275 11.7648C5.22 11.5182 5.74403 11.3949 6.32484 11.3949C6.90889 11.3949 7.42643 11.5182 7.87745 11.7648C8.32847 12.0114 8.68215 12.3439 8.93849 12.7625C9.19482 13.1811 9.32299 13.6467 9.32299 14.1594C9.32299 14.526 9.25647 14.8846 9.12344 15.235C8.99365 15.5822 8.76651 15.97 8.44204 16.3983C8.12081 16.8233 7.67465 17.3425 7.10358 17.9558L4.8647 20.3504V20.4283H9.49821V21.499H3.20987ZM11.6835 21.499V11.5311H12.8906V16.4761H13.0074L17.4852 11.5311H19.0621L14.8764 16.0284L19.0621 21.499H17.602L14.1366 16.8655L12.8906 18.2672V21.499H11.6835Z" fill="#615E83"/>
<line x1="31.368" y1="271.245" x2="835.94" y2="271.245" stroke="#E5E5EF" stroke-width="1.28492" stroke-linecap="round"/>
<line x1="31.368" y1="230.776" x2="835.94" y2="230.776" stroke="#E5E5EF" stroke-width="1.28492" stroke-linecap="round" stroke-dasharray="3.43 6"/>
<line x1="31.3678" y1="190.304" x2="835.94" y2="190.304" stroke="#E5E5EF" stroke-width="1.28492" stroke-linecap="round" stroke-dasharray="3.43 6"/>
<line x1="31.368" y1="149.832" x2="835.94" y2="149.832" stroke="#E5E5EF" stroke-width="1.28492" stroke-linecap="round" stroke-dasharray="3.43 6"/>
<line x1="31.368" y1="110.13" x2="835.94" y2="110.13" stroke="#E5E5EF" stroke-width="1.28492" stroke-linecap="round" stroke-dasharray="3.43 6"/>
<line x1="31.3682" y1="68.8878" x2="835.94" y2="68.8878" stroke="#E5E5EF" stroke-width="1.28492" stroke-linecap="round" stroke-dasharray="3.43 6"/>
<path d="M42.3484 226.354C42.3484 223.95 44.2979 222 46.7027 222H46.994C49.3988 222 51.3484 223.95 51.3484 226.354V271H42.3484V226.354Z" fill="#6036D9"/>
<path d="M57 141C57 138.791 58.7909 137 61 137C63.2091 137 65 138.791 65 141V271H57V141Z" fill="#76C6E6"/>
<path d="M71 131C71 128.791 72.7909 127 75 127C77.2091 127 79 128.791 79 131V271H71V131Z" fill="#4A71FD"/>
<path d="M108.61 193C108.61 190.791 110.4 189 112.61 189C114.819 189 116.61 190.791 116.61 193V270H108.61V193Z" fill="#6036D9"/>
<path d="M122 226.354C122 223.95 123.95 222 126.354 222H126.646C129.05 222 131 223.95 131 226.354V271H122V226.354Z" fill="#76C6E6"/>
<path d="M136 213.105C136 210.7 137.95 208.751 140.354 208.751H140.646C143.05 208.751 145 210.7 145 213.105V270.751H136V213.105Z" fill="#4A71FD"/>
<path d="M174.61 107C174.61 104.791 176.4 103 178.61 103C180.819 103 182.61 104.791 182.61 107V271H174.61V107Z" fill="#6036D9"/>
<path d="M188 208.354C188 205.95 189.95 204 192.354 204H192.646C195.05 204 197 205.95 197 208.354V271H188V208.354Z" fill="#76C6E6"/>
<path d="M202 247.105C202 244.7 203.95 242.751 206.354 242.751H206.646C209.05 242.751 211 244.7 211 247.105V270.751H202V247.105Z" fill="#4A71FD"/>
<path d="M240.61 182C240.61 179.791 242.4 178 244.61 178C246.819 178 248.61 179.791 248.61 182V271H240.61V182Z" fill="#6036D9"/>
<path d="M254 171C254 168.791 255.791 167 258 167C260.209 167 262 168.791 262 171V271H254V171Z" fill="#76C6E6"/>
<path d="M268 200.751C268 198.542 269.791 196.751 272 196.751C274.209 196.751 276 198.542 276 200.751V270.751H268V200.751Z" fill="#4A71FD"/>
<path d="M305.61 7.6281C305.61 3.78035 308.729 0.661133 312.577 0.661133H357.572C361.42 0.661133 364.539 3.78035 364.539 7.6281V270.697H305.61V7.6281Z" fill="#F7F7FB"/>
<path d="M319 156C319 153.791 320.791 152 323 152C325.209 152 327 153.791 327 156V271H319V156Z" fill="#6036D9"/>
<path d="M331 120C331 117.791 332.791 116 335 116C337.209 116 339 117.791 339 120V271H331V120Z" fill="#76C6E6"/>
<path d="M343 151.5C343 149.567 344.567 148 346.5 148C348.433 148 350 149.567 350 151.5V271H343V151.5Z" fill="#4A71FD"/>
<path d="M394.149 177.354C394.149 174.95 396.098 173 398.503 173H398.794C401.199 173 403.149 174.95 403.149 177.354V271H394.149V177.354Z" fill="#6036D9"/>
<path d="M408 163.354C408 160.95 409.95 159 412.354 159H412.646C415.05 159 417 160.95 417 163.354V271H408V163.354Z" fill="#76C6E6"/>
<path d="M422 134.354C422 131.95 423.95 130 426.354 130H426.646C429.05 130 431 131.95 431 134.354V270H422V134.354Z" fill="#4A71FD"/>
<path d="M460.61 182C460.61 179.791 462.4 178 464.61 178C466.819 178 468.61 179.791 468.61 182V271H460.61V182Z" fill="#6036D9"/>
<path d="M474 201.354C474 198.95 475.95 197 478.354 197H478.646C481.05 197 483 198.95 483 201.354V271H474V201.354Z" fill="#76C6E6"/>
<path d="M488 219.354C488 216.95 489.95 215 492.354 215H492.646C495.05 215 497 216.95 497 219.354V270H488V219.354Z" fill="#4A71FD"/>
<path d="M526.61 165.911C526.61 163.506 528.559 161.557 530.964 161.557C533.369 161.557 535.318 163.506 535.318 165.911V270.415H526.61V165.911Z" fill="#6036D9"/>
<path d="M540.544 123.823C540.544 121.418 542.493 119.469 544.898 119.469C547.303 119.469 549.252 121.418 549.252 123.823V271H540.544V123.823Z" fill="#76C6E6"/>
<path d="M554.477 165.911C554.477 163.506 556.427 161.557 558.832 161.557C561.237 161.557 563.186 163.506 563.186 165.911V270.415H554.477V165.911Z" fill="#4A71FD"/>
<path d="M592.796 211.354C592.796 208.95 594.745 207 597.15 207H597.441C599.846 207 601.796 208.95 601.796 211.354V270H592.796V211.354Z" fill="#6036D9"/>
<path d="M606 182.354C606 179.95 607.949 178 610.354 178H610.646C613.05 178 615 179.95 615 182.354V271H606V182.354Z" fill="#76C6E6"/>
<path d="M620 193.354C620 190.95 621.95 189 624.354 189H624.646C627.05 189 629 190.95 629 193.354V270H620V193.354Z" fill="#4A71FD"/>
<path d="M658.61 178.296C658.61 175.891 660.559 173.941 662.964 173.941C665.369 173.941 667.318 175.891 667.318 178.296V270.714H658.61V178.296Z" fill="#6036D9"/>
<path d="M673 148C673 145.791 674.791 144 677 144C679.209 144 681 145.791 681 148V271H673V148Z" fill="#76C6E6"/>
<path d="M686 134.354C686 131.95 687.95 130 690.354 130H690.646C693.05 130 695 131.95 695 134.354V270H686V134.354Z" fill="#4A71FD"/>
<path d="M724.61 166C724.61 163.791 726.4 162 728.61 162C730.819 162 732.61 163.791 732.61 166V271H724.61V166Z" fill="#6036D9"/>
<path d="M738 178.354C738 175.95 739.949 174 742.354 174H742.646C745.05 174 747 175.95 747 178.354V271H738V178.354Z" fill="#76C6E6"/>
<path d="M752 163.354C752 160.95 753.95 159 756.354 159H756.646C759.05 159 761 160.95 761 163.354V270H752V163.354Z" fill="#4A71FD"/>
<path d="M790.61 219C790.61 216.791 792.4 215 794.61 215C796.819 215 798.61 216.791 798.61 219V271H790.61V219Z" fill="#6036D9"/>
<path d="M804 187.354C804 184.95 805.949 183 808.354 183H808.646C811.05 183 813 184.95 813 187.354V271H804V187.354Z" fill="#76C6E6"/>
<path d="M818 159.354C818 156.95 819.95 155 822.354 155H822.646C825.05 155 827 156.95 827 159.354V270H818V159.354Z" fill="#4A71FD"/>
</svg>
