<svg width="47" height="47" viewBox="0 0 47 47" fill="none" xmlns="http://www.w3.org/2000/svg">
<rect x="1.1535" y="1.24993" width="45.0439" height="45.0439" rx="22.5219" stroke="#FF6700" stroke-width="0.570175"/>
<g clip-path="url(#clip0_1308_18747)">
<path d="M24.2081 14.0275C26.2191 13.6899 27.6664 11.4973 27.6664 9.51566C27.6664 7.31485 25.876 5.52441 23.6752 5.52441C21.4744 5.52441 19.684 7.31485 19.684 9.51563C19.684 11.4973 21.1313 13.6899 23.1423 14.0274L22.5919 14.7614C22.527 14.8477 22.5167 14.9632 22.5649 15.0598C22.6134 15.1564 22.7119 15.2174 22.8199 15.2174H23.3688C23.3298 15.4598 23.2414 15.6158 23.1426 15.7887C22.9914 16.0535 22.8199 16.3533 22.8199 16.9279C22.8199 17.5026 22.9914 17.8024 23.1426 18.0672C23.2754 18.2996 23.3901 18.5004 23.3901 18.9236C23.3901 19.0811 23.5176 19.2087 23.6752 19.2087C23.8328 19.2087 23.9603 19.0811 23.9603 18.9236C23.9603 18.3489 23.7888 18.0491 23.6376 17.7843C23.5048 17.5518 23.3901 17.3511 23.3901 16.9279C23.3901 16.5047 23.5048 16.304 23.6376 16.0715C23.7607 15.856 23.8921 15.6087 23.9386 15.2174H24.5304C24.6385 15.2174 24.737 15.1564 24.7855 15.0598C24.8336 14.9632 24.8233 14.8477 24.7585 14.7614L24.2081 14.0275ZM22.6618 7.47241C21.9627 7.82098 21.4941 8.48972 21.4087 9.26199C21.3925 9.40787 21.2689 9.51563 21.1255 9.51563C21.1152 9.51563 21.1044 9.51507 21.0938 9.51395C20.9373 9.49642 20.8246 9.35554 20.8418 9.19908C20.949 8.23357 21.5342 7.39723 22.4073 6.96235C22.5496 6.89193 22.7194 6.94955 22.7898 7.09013C22.86 7.23104 22.8027 7.40225 22.6618 7.47241Z" fill="#FF6700"/>
<path d="M30.5173 11.2259C30.5173 9.99842 29.7275 8.91403 28.5517 8.52788C28.4574 8.49725 28.3544 8.51673 28.2789 8.58077C28.2032 8.64481 28.1661 8.74308 28.1806 8.84079C28.2188 9.09609 28.2366 9.31047 28.2366 9.51538C28.2366 11.0466 27.4501 12.682 26.2332 13.682C26.1661 13.7371 26.1277 13.8201 26.1291 13.907C26.1305 13.9941 26.1717 14.0757 26.2407 14.1286C26.5518 14.3671 26.8884 14.5216 27.231 14.5952L27.1263 14.8045C27.082 14.8928 27.0868 14.9978 27.1388 15.0818C27.1909 15.1659 27.2825 15.2172 27.3813 15.2172H27.4118C27.4712 15.4965 27.6102 15.6745 27.7288 15.823C27.863 15.9906 27.9515 16.1011 27.9515 16.3575C27.9515 16.6139 27.863 16.7245 27.7288 16.8921C27.574 17.0858 27.3813 17.3266 27.3813 17.7829C27.3813 17.9405 27.5088 18.068 27.6664 18.068C27.824 18.068 27.9515 17.9405 27.9515 17.7829C27.9515 17.5265 28.0401 17.416 28.1742 17.2484C28.329 17.0546 28.5217 16.8138 28.5217 16.3575C28.5217 15.9012 28.329 15.6604 28.1742 15.4666C28.0998 15.3737 28.0418 15.2963 28.0027 15.2038C28.0803 15.1889 28.1515 15.1504 28.194 15.0819C28.2461 14.9978 28.2508 14.8928 28.2065 14.8046L28.1014 14.5944C29.4722 14.2933 30.5173 12.6299 30.5173 11.2259Z" fill="#FF6700"/>
<path d="M21.4134 13.9037C20.0381 12.9432 19.1138 11.1798 19.1138 9.51604C19.1138 8.93586 19.2251 8.3651 19.4445 7.81944C19.4865 7.71505 19.4632 7.59561 19.3849 7.51486C19.3059 7.43356 19.1867 7.40627 19.0823 7.44527C17.7371 7.93667 16.8331 9.22707 16.8331 10.6564C16.8331 12.3586 18.1051 14.3113 19.8138 14.6056L19.714 14.8052C19.6698 14.8935 19.6745 14.9984 19.7266 15.0825C19.7724 15.1566 19.8508 15.1986 19.936 15.2092C19.8956 15.3757 19.8216 15.4952 19.7318 15.6299C19.5834 15.8523 19.3989 16.1293 19.3989 16.6432C19.3989 17.1572 19.5834 17.4342 19.7318 17.6567C19.8643 17.8554 19.969 18.0125 19.969 18.3538C19.969 18.5114 20.0965 18.6389 20.2541 18.6389C20.4117 18.6389 20.5392 18.5114 20.5392 18.3538C20.5392 17.8398 20.3546 17.5628 20.2063 17.3404C20.0737 17.1416 19.9691 16.9845 19.9691 16.6432C19.9691 16.3019 20.0737 16.1449 20.2063 15.9461C20.3239 15.7698 20.4603 15.5536 20.5134 15.2178H20.5392C20.6381 15.2178 20.7296 15.1666 20.7817 15.0825C20.8338 14.9984 20.8385 14.8935 20.7942 14.8052L20.6909 14.5984C20.9179 14.5585 21.1444 14.4984 21.3678 14.3973C21.4613 14.355 21.5248 14.2659 21.5343 14.1637C21.5437 14.0619 21.4975 13.9625 21.4134 13.9037Z" fill="#FF6700"/>
</g>
<path d="M14.8063 28.3506V26.4091H16.3543C17.4833 26.4091 18.3728 25.7848 18.3728 24.5618C18.3728 23.2447 17.4833 22.6203 16.3543 22.6203H14.0622V28.3506H14.8063ZM16.2346 23.2789C16.9274 23.2789 17.603 23.5355 17.603 24.5618C17.603 25.494 16.9274 25.7506 16.2346 25.7506H14.8063V23.2789H16.2346ZM19.9519 28.4361C20.8071 28.4361 21.2519 27.8203 21.3887 27.273V27.5637C21.3887 28.1453 21.6966 28.3506 22.1242 28.3506H22.6032V27.6749H22.338C22.1841 27.6749 22.1071 27.6151 22.1071 27.4183V25.7164C22.1071 24.7328 21.5597 24.1256 20.542 24.1256C19.6183 24.1256 19.0025 24.6473 18.7545 25.0749L19.2591 25.5966C19.4729 25.1433 19.8663 24.8012 20.4565 24.8012C21.1065 24.8012 21.3374 25.1605 21.363 25.648L19.8663 26.3151C19.2762 26.5802 18.8571 26.9308 18.8571 27.4868C18.8571 28.0341 19.2505 28.4361 19.9519 28.4361ZM19.6097 27.367C19.6097 27.1105 19.7894 26.9394 20.1828 26.7512L21.3887 26.1868V26.7598C21.3887 27.3585 20.8926 27.8203 20.1913 27.8203C19.8065 27.8203 19.6097 27.6493 19.6097 27.367ZM24.2089 28.3506V26.0072C24.2089 25.2973 24.6878 24.673 25.2181 24.673C25.5174 24.673 25.6457 24.8782 25.6457 25.1177C25.6457 25.3486 25.5345 25.6052 25.3977 25.7249H26.2102C26.2786 25.6223 26.3727 25.3657 26.3727 25.0151C26.3727 24.4335 25.945 24.117 25.5003 24.117C24.799 24.117 24.3714 24.673 24.2089 25.3144V24.2111H23.4648V28.3506H24.2089ZM28.4501 28.4447C29.0231 28.4447 29.4165 28.1795 29.5961 27.8973L29.3481 27.1618C29.2369 27.4183 28.9804 27.7262 28.6126 27.7262C28.2876 27.7262 28.0396 27.598 28.0396 27.0677V24.7927H29.3994V24.2111H28.0396V23.1335L27.2955 23.6808V24.2111H26.6284V24.7927H27.2955V27.2901C27.2955 27.9999 27.7744 28.4447 28.4501 28.4447ZM30.6955 29.7019C31.2771 29.7019 31.7389 29.4539 32.004 28.6927L33.5948 24.2111H32.7994L31.9185 26.871L31.6277 27.7605L31.3369 26.871L30.4475 24.2111H29.6521L31.0462 28.1282L31.508 28.1197L31.4225 28.3848C31.26 28.8894 31.0376 29.0519 30.704 29.0519C30.3106 29.0519 30.0968 28.8039 29.9001 28.4703L29.4981 29.0348C29.6777 29.3769 30.1054 29.7019 30.6955 29.7019Z" fill="#FF6700"/>
<path d="M17.2723 39.1836V34.1119H19.0855V33.4533H14.7237V34.1119H16.5368V39.1836H17.2723ZM20.5634 34.377V33.4533H19.8194V34.377H20.5634ZM20.5634 39.1836V35.0441H19.8194V39.1836H20.5634ZM22.426 39.1836V36.8402C22.426 36.1474 22.7168 35.5915 23.3411 35.5915C23.9655 35.5915 24.2477 35.8908 24.2477 36.4981V39.1836H24.9918V36.8402C24.9918 36.1474 25.2826 35.5915 25.9155 35.5915C26.5312 35.5915 26.822 35.8908 26.822 36.4981V39.1836H27.5576V36.3185C27.5576 35.4461 27.1385 34.9586 26.326 34.9586C25.5733 34.9586 25.1457 35.5145 24.9832 36.1731C24.9405 35.3948 24.5214 34.9586 23.7602 34.9586C23.0161 34.9586 22.5885 35.506 22.426 36.1389V35.0441H21.6819V39.1836H22.426ZM30.4095 39.2691C31.3075 39.2691 31.8805 38.85 32.1884 38.354L31.7351 37.8408C31.5726 38.2 31.2391 38.6533 30.4095 38.6533C29.6739 38.6533 29.1864 38.1573 29.1437 37.2849H32.2141C32.2312 37.2079 32.2483 37.0796 32.2483 36.9514C32.2483 35.7369 31.5384 34.9586 30.3667 34.9586C29.2292 34.9586 28.4252 35.8053 28.4252 37.1139C28.4252 38.431 29.2377 39.2691 30.4095 39.2691ZM30.3667 35.5829C31.0595 35.5829 31.5042 35.9849 31.5812 36.7461H29.1608C29.2549 35.9764 29.6996 35.5829 30.3667 35.5829Z" fill="#FF6700"/>
<defs>
<clipPath id="clip0_1308_18747">
<rect width="13.6842" height="13.6842" fill="white" transform="translate(16.8333 5.52637)"/>
</clipPath>
</defs>
</svg>
