<svg width="23" height="23" viewBox="0 0 23 23" fill="none" xmlns="http://www.w3.org/2000/svg">
<path d="M11.685 16.3671C11.1988 16.3671 10.7325 16.174 10.3887 15.8301C10.0449 15.4863 9.85172 15.02 9.85172 14.5338C9.85172 13.5163 10.6675 12.7004 11.685 12.7004C12.1713 12.7004 12.6376 12.8936 12.9814 13.2374C13.3252 13.5812 13.5184 14.0475 13.5184 14.5338C13.5184 15.02 13.3252 15.4863 12.9814 15.8301C12.6376 16.174 12.1713 16.3671 11.685 16.3671ZM17.185 19.1171V9.95044H6.18505V19.1171H17.185ZM17.185 8.11711C17.6713 8.11711 18.1376 8.31026 18.4814 8.65408C18.8252 8.99789 19.0184 9.46421 19.0184 9.95044V19.1171C19.0184 19.6033 18.8252 20.0697 18.4814 20.4135C18.1376 20.7573 17.6713 20.9504 17.185 20.9504H6.18505C5.69882 20.9504 5.2325 20.7573 4.88869 20.4135C4.54487 20.0697 4.35172 19.6033 4.35172 19.1171V9.95044C4.35172 8.93294 5.16755 8.11711 6.18505 8.11711H7.10172V6.28377C7.10172 5.0682 7.5846 3.90241 8.44414 3.04287C9.30368 2.18332 10.4695 1.70044 11.685 1.70044C12.2869 1.70044 12.8829 1.81899 13.439 2.04932C13.9951 2.27966 14.5004 2.61726 14.926 3.04287C15.3516 3.46847 15.6892 3.97373 15.9195 4.52981C16.1498 5.08588 16.2684 5.68188 16.2684 6.28377V8.11711H17.185ZM11.685 3.53377C10.9557 3.53377 10.2562 3.8235 9.7405 4.33923C9.22478 4.85495 8.93505 5.55443 8.93505 6.28377V8.11711H14.435V6.28377C14.435 5.55443 14.1453 4.85495 13.6296 4.33923C13.1139 3.8235 12.4144 3.53377 11.685 3.53377Z" fill="#667085"/>
</svg>
