<svg width="20" height="20" viewBox="0 0 20 20" fill="none" xmlns="http://www.w3.org/2000/svg">
<path d="M11.2708 9.15373C11.7517 8.48181 12.0103 7.67625 12.0103 6.84998C12.0103 6.0237 11.7517 5.21814 11.2708 4.54623C11.7209 4.23902 12.2538 4.07611 12.7987 4.07914C13.5336 4.07914 14.2384 4.37107 14.758 4.8907C15.2777 5.41033 15.5696 6.11511 15.5696 6.84998C15.5696 7.58485 15.2777 8.28962 14.758 8.80925C14.2384 9.32888 13.5336 9.62081 12.7987 9.62081C12.2538 9.62384 11.7209 9.46093 11.2708 9.15373ZM5.27791 6.84998C5.27791 6.30196 5.44042 5.76625 5.74488 5.31058C6.04935 4.85492 6.48209 4.49978 6.98839 4.29006C7.4947 4.08034 8.05182 4.02547 8.58931 4.13238C9.1268 4.2393 9.62051 4.50319 10.008 4.8907C10.3955 5.27821 10.6594 5.77192 10.7663 6.30941C10.8733 6.8469 10.8184 7.40402 10.6087 7.91033C10.3989 8.41663 10.0438 8.84938 9.58814 9.15384C9.13248 9.4583 8.59677 9.62081 8.04875 9.62081C7.31388 9.62081 6.6091 9.32888 6.08947 8.80925C5.56984 8.28962 5.27791 7.58485 5.27791 6.84998ZM6.86125 6.84998C6.86125 7.08484 6.93089 7.31443 7.06138 7.50972C7.19186 7.705 7.37732 7.8572 7.59431 7.94708C7.8113 8.03696 8.05006 8.06048 8.28042 8.01466C8.51077 7.96884 8.72236 7.85574 8.88844 7.68967C9.05451 7.52359 9.16761 7.312 9.21343 7.08165C9.25925 6.85129 9.23573 6.61253 9.14585 6.39554C9.05597 6.17855 8.90377 5.99309 8.70849 5.86261C8.5132 5.73212 8.28361 5.66248 8.04875 5.66248C7.7338 5.66248 7.43176 5.78759 7.20906 6.01029C6.98636 6.23299 6.86125 6.53503 6.86125 6.84998ZM13.5904 14.3708V15.9541H2.50708V14.3708C2.50708 14.3708 2.50708 11.2041 8.04875 11.2041C13.5904 11.2041 13.5904 14.3708 13.5904 14.3708ZM12.0071 14.3708C11.8962 13.7533 10.9542 12.7875 8.04875 12.7875C5.14333 12.7875 4.14583 13.8246 4.09041 14.3708M13.5508 11.2041C14.036 11.5816 14.4328 12.0606 14.7131 12.6077C14.9935 13.1547 15.1507 13.7565 15.1737 14.3708V15.9541H18.3404V14.3708C18.3404 14.3708 18.3404 11.4971 13.5429 11.2041H13.5508Z" fill="#667085"/>
</svg>
