<svg width="43" height="42" viewBox="0 0 43 42" fill="none" xmlns="http://www.w3.org/2000/svg">
<path d="M41.964 15.9601C41.8004 15.4425 41.485 14.9861 41.0587 14.65C40.6324 14.314 40.115 14.1138 39.5735 14.0755L28.0696 13.1457L23.636 2.41502C23.4292 1.91205 23.0775 1.48189 22.6257 1.17918C22.1739 0.876463 21.6423 0.714844 21.0985 0.714844C20.5546 0.714844 20.023 0.876463 19.5712 1.17918C19.1194 1.48189 18.7678 1.91205 18.5609 2.41502L14.1274 13.1419L2.62341 14.0755C2.08148 14.1141 1.56369 14.3148 1.13736 14.6516C0.711027 14.9884 0.395876 15.4456 0.232877 15.9639C0.0629669 16.4808 0.049905 17.0364 0.195338 17.5607C0.340771 18.085 0.638188 18.5545 1.05009 18.9101L9.83318 26.4731L7.16007 37.7861C7.03463 38.3155 7.0691 38.8702 7.2591 39.3801C7.44909 39.8899 7.78608 40.3319 8.2274 40.6501C8.66327 40.973 9.18652 41.1568 9.72859 41.1772C10.2707 41.1976 10.8063 41.0539 11.2652 40.7647L21.0985 34.7196L30.947 40.7742C31.4059 41.0634 31.9415 41.2072 32.4836 41.1867C33.0257 41.1663 33.5489 40.9826 33.9848 40.6597C34.4261 40.3415 34.7631 39.8995 34.9531 39.3896C35.1431 38.8798 35.1776 38.3251 35.0521 37.7956L32.379 26.4826L41.1468 18.9101C41.5595 18.5542 41.8573 18.0841 42.0028 17.559C42.1483 17.0339 42.1348 16.4775 41.964 15.9601ZM39.6461 17.1763L30.3493 25.1957C30.1907 25.3326 30.0727 25.5103 30.008 25.7096C29.9434 25.9089 29.9347 26.1221 29.9827 26.326L32.8239 38.315C32.8488 38.4055 32.8447 38.5015 32.8121 38.5895C32.7796 38.6775 32.7203 38.7531 32.6425 38.8057C32.572 38.8602 32.4863 38.8913 32.3973 38.8947C32.3083 38.8981 32.2205 38.8737 32.1461 38.8248L21.698 32.4055C21.5176 32.2947 21.3101 32.2361 21.0985 32.2361C20.8868 32.2361 20.6793 32.2947 20.4989 32.4055L10.0509 38.8229C9.97642 38.8718 9.88857 38.8962 9.79958 38.8928C9.71058 38.8894 9.62488 38.8582 9.55442 38.8038C9.47494 38.7525 9.41369 38.6775 9.3794 38.5894C9.34511 38.5012 9.33954 38.4045 9.36348 38.3131L12.2046 26.3241C12.2527 26.1202 12.244 25.907 12.1793 25.7077C12.1147 25.5084 11.9966 25.3307 11.838 25.1938L2.5413 17.1744C2.46837 17.115 2.41575 17.0344 2.39077 16.9437C2.36579 16.853 2.36968 16.7568 2.40192 16.6685C2.42683 16.5813 2.47829 16.5042 2.54914 16.4477C2.61999 16.3912 2.70669 16.3583 2.79716 16.3534L15.0018 15.3682C15.2121 15.3511 15.4136 15.2763 15.5841 15.1519C15.7546 15.0276 15.8874 14.8586 15.968 14.6636L20.6708 3.28378C20.7035 3.19955 20.761 3.12717 20.8356 3.07615C20.9102 3.02512 20.9985 2.99782 21.0889 2.99782C21.1793 2.99782 21.2676 3.02512 21.3422 3.07615C21.4168 3.12717 21.4743 3.19955 21.5071 3.28378L26.2098 14.6636C26.2904 14.8586 26.4232 15.0276 26.5937 15.1519C26.7642 15.2763 26.9657 15.3511 27.176 15.3682L39.3807 16.3534C39.4711 16.3583 39.5578 16.3912 39.6287 16.4477C39.6995 16.5042 39.751 16.5813 39.7759 16.6685C39.8097 16.7561 39.8153 16.8521 39.792 16.9431C39.7688 17.0341 39.7177 17.1156 39.6461 17.1763Z" fill="#E6E6E6"/>
</svg>
