<svg width="20" height="20" viewBox="0 0 20 20" fill="none" xmlns="http://www.w3.org/2000/svg">
<path fill-rule="evenodd" clip-rule="evenodd" d="M10 1.875C10 1.875 11.6526 1.875 13.1628 2.51376C13.1628 2.51376 14.621 3.13053 15.7452 4.25476C15.7452 4.25476 16.8695 5.37899 17.4862 6.83719C17.4862 6.83719 18.125 8.34739 18.125 10C18.125 10 18.125 11.6526 17.4862 13.1628C17.4862 13.1628 16.8695 14.621 15.7452 15.7452C15.7452 15.7452 14.621 16.8695 13.1628 17.4862C13.1628 17.4862 11.6526 18.125 10 18.125C10 18.125 8.34739 18.125 6.83719 17.4862C6.83719 17.4862 5.37899 16.8695 4.25476 15.7452C4.25476 15.7452 3.13053 14.621 2.51376 13.1628C2.51376 13.1628 1.875 11.6526 1.875 10C1.875 10 1.875 8.34739 2.51376 6.83719C2.51376 6.83719 3.13053 5.37899 4.25476 4.25476C4.25476 4.25476 5.37899 3.13053 6.83719 2.51376C6.83719 2.51376 8.34739 1.875 10 1.875ZM10 3.125C10 3.125 8.60087 3.125 7.32413 3.66501C7.32413 3.66501 6.09047 4.18681 5.13864 5.13864C5.13864 5.13864 4.18681 6.09047 3.66502 7.32413C3.66502 7.32413 3.125 8.60087 3.125 10C3.125 10 3.125 11.3991 3.66502 12.6759C3.66502 12.6759 4.18681 13.9095 5.13864 14.8614C5.13864 14.8614 6.09047 15.8132 7.32413 16.335C7.32413 16.335 8.60087 16.875 10 16.875C10 16.875 11.3991 16.875 12.6759 16.335C12.6759 16.335 13.9095 15.8132 14.8614 14.8614C14.8614 14.8614 15.8132 13.9095 16.335 12.6759C16.335 12.6759 16.875 11.3991 16.875 10C16.875 10 16.875 8.60087 16.335 7.32413C16.335 7.32413 15.8132 6.09047 14.8614 5.13864C14.8614 5.13864 13.9095 4.18681 12.6759 3.66501C12.6759 3.66501 11.3991 3.125 10 3.125Z" fill="#667185"/>
<path fill-rule="evenodd" clip-rule="evenodd" d="M10 4.375C10 4.375 11.144 4.375 12.1897 4.8173C12.1897 4.8173 13.1993 5.24431 13.9775 6.02252C13.9775 6.02252 14.7557 6.80075 15.1827 7.8103C15.1827 7.8103 15.625 8.85601 15.625 10C15.625 10 15.625 11.144 15.1827 12.1897C15.1827 12.1897 14.7557 13.1993 13.9775 13.9775C13.9775 13.9775 13.1993 14.7557 12.1897 15.1827C12.1897 15.1827 11.144 15.625 10 15.625C10 15.625 8.85601 15.625 7.8103 15.1827C7.8103 15.1827 6.80075 14.7557 6.02252 13.9775C6.02252 13.9775 5.24431 13.1993 4.8173 12.1897C4.8173 12.1897 4.375 11.144 4.375 10C4.375 10 4.375 8.85601 4.8173 7.8103C4.8173 7.8103 5.24431 6.80074 6.02252 6.02252C6.02252 6.02252 6.80074 5.2443 7.8103 4.8173C7.8103 4.8173 8.85601 4.375 10 4.375ZM10 5.625C10 5.625 8.18782 5.625 6.90641 6.90641C6.90641 6.90641 5.625 8.18781 5.625 10C5.625 10 5.625 11.8122 6.90641 13.0936C6.90641 13.0936 8.18782 14.375 10 14.375C10 14.375 11.8122 14.375 13.0936 13.0936C13.0936 13.0936 14.375 11.8122 14.375 10C14.375 10 14.375 8.18782 13.0936 6.90641C13.0936 6.90641 11.8122 5.625 10 5.625Z" fill="#667185"/>
</svg>
