<svg width="40" height="40" viewBox="0 0 40 40" fill="none" xmlns="http://www.w3.org/2000/svg">
<path d="M20.8335 8.33301C17.5183 8.33301 14.3389 9.64997 11.9947 11.9942C9.65046 14.3384 8.3335 17.5178 8.3335 20.833C8.3335 24.1482 9.65046 27.3276 11.9947 29.6718C14.3389 32.016 17.5183 33.333 20.8335 33.333C24.1487 33.333 27.3281 32.016 29.6723 29.6718C32.0165 27.3276 33.3335 24.1482 33.3335 20.833C33.3335 17.5178 32.0165 14.3384 29.6723 11.9942C27.3281 9.64997 24.1487 8.33301 20.8335 8.33301ZM11.6668 16.6663H15.0002C15.4422 16.6663 15.8661 16.8419 16.1787 17.1545C16.4912 17.4671 16.6668 17.891 16.6668 18.333V19.9997C16.6668 20.833 16.0335 21.4997 15.2335 21.6163L17.1835 24.9997H15.2502L13.3335 21.6663V24.9997H11.6668M20.0002 16.6663H23.3335V18.333H20.0002V19.9997H23.3335V21.6663H20.0002V23.333H23.3335V24.9997H20.0002C19.5581 24.9997 19.1342 24.8241 18.8217 24.5115C18.5091 24.199 18.3335 23.775 18.3335 23.333V18.333C18.3335 17.891 18.5091 17.4671 18.8217 17.1545C19.1342 16.8419 19.5581 16.6663 20.0002 16.6663ZM26.6668 16.6663H30.0002V18.333H26.6668V23.333H30.0002V24.9997H26.6668C26.2248 24.9997 25.8009 24.8241 25.4883 24.5115C25.1758 24.199 25.0002 23.775 25.0002 23.333V18.333C25.0002 17.891 25.1758 17.4671 25.4883 17.1545C25.8009 16.8419 26.2248 16.6663 26.6668 16.6663ZM13.3335 18.333V19.9997H15.0002V18.333" fill="white"/>
</svg>
