<svg width="24" height="24" viewBox="0 0 24 24" fill="none" xmlns="http://www.w3.org/2000/svg">
<path d="M4.875 13.5H9.375C9.78921 13.5 10.125 13.1642 10.125 12.75C10.125 12.3358 9.78921 12 9.375 12H4.125C3.71079 12 3.375 12.3358 3.375 12.75V19.5C3.375 19.9142 3.71079 20.25 4.125 20.25C4.53921 20.25 4.875 19.9142 4.875 19.5V13.5Z" fill="#5F5F5F"/>
<path d="M21.375 18.75H2.625C2.21079 18.75 1.875 19.0858 1.875 19.5C1.875 19.9142 2.21079 20.25 2.625 20.25H21.375C21.7892 20.25 22.125 19.9142 22.125 19.5C22.125 19.0858 21.7892 18.75 21.375 18.75Z" fill="#5F5F5F"/>
<path d="M10.125 9H14.625C15.0392 9 15.375 8.66421 15.375 8.25C15.375 7.83579 15.0392 7.5 14.625 7.5H9.375C8.96079 7.5 8.625 7.83579 8.625 8.25V19.5C8.625 19.9142 8.96079 20.25 9.375 20.25C9.78921 20.25 10.125 19.9142 10.125 19.5V9Z" fill="#5F5F5F"/>
<path fill-rule="evenodd" clip-rule="evenodd" d="M13.875 19.5V3.75C13.875 3.33579 14.2108 3 14.625 3H19.875C20.2892 3 20.625 3.33579 20.625 3.75V19.5C20.625 19.9142 20.2892 20.25 19.875 20.25H14.625C14.2108 20.25 13.875 19.9142 13.875 19.5ZM19.125 18.75H15.375V4.5H19.125V18.75Z" fill="#5F5F5F"/>
</svg>
