<svg width="21" height="21" viewBox="0 0 21 21" fill="none" xmlns="http://www.w3.org/2000/svg">
<g clip-path="url(#clip0_470_2991)">
<path d="M19.585 8.98009C19.8222 9.2758 19.9536 9.66009 19.9536 10.0572C19.9536 10.4558 19.8222 10.8387 19.585 11.1344C18.085 12.9501 14.6708 16.4858 10.6851 16.4858C6.69934 16.4858 3.28505 12.9501 1.78505 11.1344C1.54389 10.8274 1.41396 10.4476 1.41648 10.0572C1.41648 9.66009 1.54791 9.2758 1.78505 8.98009C3.28505 7.16438 6.69934 3.62866 10.6851 3.62866C14.6708 3.62866 18.085 7.16438 19.585 8.98009Z" stroke="#667085" stroke-width="1.42857" stroke-linecap="round" stroke-linejoin="round"/>
<path d="M10.6851 12.9145C11.4428 12.9145 12.1696 12.6135 12.7054 12.0776C13.2412 11.5418 13.5422 10.8151 13.5422 10.0573C13.5422 9.29958 13.2412 8.57285 12.7054 8.03703C12.1696 7.50121 11.4428 7.2002 10.6851 7.2002C9.92732 7.2002 9.2006 7.50121 8.66478 8.03703C8.12896 8.57285 7.82794 9.29958 7.82794 10.0573C7.82794 10.8151 8.12896 11.5418 8.66478 12.0776C9.2006 12.6135 9.92732 12.9145 10.6851 12.9145Z" stroke="#667085" stroke-width="1.42857" stroke-linecap="round" stroke-linejoin="round"/>
</g>
<defs>
<clipPath id="clip0_470_2991">
<rect width="20" height="20" fill="white" transform="translate(0.685059 0.057373)"/>
</clipPath>
</defs>
</svg>
