<svg width="50" height="50" viewBox="0 0 50 50" fill="none" xmlns="http://www.w3.org/2000/svg">
<path d="M45.4779 22.202L36.8857 29.6161L39.5034 40.7038C39.6479 41.3057 39.6107 41.9369 39.3966 42.5177C39.1824 43.0984 38.801 43.6027 38.3004 43.9668C37.7998 44.3309 37.2026 44.5385 36.5841 44.5633C35.9656 44.5881 35.3536 44.4291 34.8255 44.1063L25.1832 38.172L15.5351 44.1063C15.0071 44.4272 14.3958 44.5848 13.7784 44.559C13.161 44.5333 12.565 44.3254 12.0654 43.9617C11.5659 43.5979 11.1852 43.0944 10.9712 42.5147C10.7572 41.935 10.7195 41.3049 10.8629 40.7038L13.4902 29.6161L4.89805 22.202C4.43082 21.7982 4.09291 21.2657 3.92653 20.671C3.76014 20.0763 3.77265 19.4457 3.96248 18.8581C4.15232 18.2704 4.51108 17.7517 4.99395 17.3668C5.47682 16.9818 6.06241 16.7476 6.67758 16.6935L17.9429 15.7846L22.2886 5.26782C22.5238 4.69466 22.9241 4.2044 23.4387 3.85935C23.9533 3.51431 24.5589 3.33008 25.1784 3.33008C25.798 3.33008 26.4035 3.51431 26.9181 3.85935C27.4327 4.2044 27.833 4.69466 28.0682 5.26782L32.412 15.7846L43.6773 16.6935C44.2937 16.7456 44.881 16.9785 45.3656 17.3629C45.8503 17.7474 46.2107 18.2663 46.4017 18.8546C46.5927 19.443 46.6059 20.0746 46.4395 20.6704C46.2731 21.2662 45.9346 21.7997 45.4664 22.2039L45.4779 22.202Z" fill="#FCBB06"/>
</svg>
