<svg width="30" height="20" viewBox="0 0 30 20" fill="none" xmlns="http://www.w3.org/2000/svg">
<path opacity="0.5" fill-rule="evenodd" clip-rule="evenodd" d="M26.4444 9.00011C26.4444 12.0334 24.0333 14.4446 21 14.4446H5.44444C2.41111 14.4446 0 12.0334 0 9.00011C0 5.96678 2.41111 3.55566 5.44444 3.55566H21C24.0333 3.55566 26.4444 5.96678 26.4444 9.00011Z" fill="#169D07"/>
<g filter="url(#filter0_dd_994_4159)">
<path fill-rule="evenodd" clip-rule="evenodd" d="M20.2221 16.7782C24.5177 16.7782 27.9999 13.296 27.9999 9.00043C27.9999 4.70489 24.5177 1.22266 20.2221 1.22266C15.9266 1.22266 12.4443 4.70489 12.4443 9.00043C12.4443 13.296 15.9266 16.7782 20.2221 16.7782Z" fill="#169D07"/>
<path d="M27.8054 9.00043C27.8054 13.1886 24.4103 16.5838 20.2221 16.5838C16.034 16.5838 12.6388 13.1886 12.6388 9.00043C12.6388 4.81227 16.034 1.4171 20.2221 1.4171C24.4103 1.4171 27.8054 4.81227 27.8054 9.00043Z" stroke="url(#paint0_linear_994_4159)" stroke-width="0.388889"/>
<path d="M27.8054 9.00043C27.8054 13.1886 24.4103 16.5838 20.2221 16.5838C16.034 16.5838 12.6388 13.1886 12.6388 9.00043C12.6388 4.81227 16.034 1.4171 20.2221 1.4171C24.4103 1.4171 27.8054 4.81227 27.8054 9.00043Z" stroke="url(#paint1_linear_994_4159)" stroke-width="0.388889"/>
</g>
<defs>
<filter id="filter0_dd_994_4159" x="10.4443" y="0.222656" width="19.5557" height="19.5557" filterUnits="userSpaceOnUse" color-interpolation-filters="sRGB">
<feFlood flood-opacity="0" result="BackgroundImageFix"/>
<feColorMatrix in="SourceAlpha" type="matrix" values="0 0 0 0 0 0 0 0 0 0 0 0 0 0 0 0 0 0 127 0" result="hardAlpha"/>
<feOffset dy="1"/>
<feGaussianBlur stdDeviation="1"/>
<feColorMatrix type="matrix" values="0 0 0 0 0 0 0 0 0 0 0 0 0 0 0 0 0 0 0.2 0"/>
<feBlend mode="normal" in2="BackgroundImageFix" result="effect1_dropShadow_994_4159"/>
<feColorMatrix in="SourceAlpha" type="matrix" values="0 0 0 0 0 0 0 0 0 0 0 0 0 0 0 0 0 0 127 0" result="hardAlpha"/>
<feOffset dy="0.1"/>
<feGaussianBlur stdDeviation="0.15"/>
<feColorMatrix type="matrix" values="0 0 0 0 0 0 0 0 0 0 0 0 0 0 0 0 0 0 0.1 0"/>
<feBlend mode="normal" in2="effect1_dropShadow_994_4159" result="effect2_dropShadow_994_4159"/>
<feBlend mode="normal" in="SourceGraphic" in2="effect2_dropShadow_994_4159" result="shape"/>
</filter>
<linearGradient id="paint0_linear_994_4159" x1="12.5204" y1="1.22266" x2="12.5204" y2="16.626" gradientUnits="userSpaceOnUse">
<stop stop-opacity="0.01"/>
<stop offset="0.8" stop-opacity="0.02"/>
<stop offset="1" stop-opacity="0.04"/>
</linearGradient>
<linearGradient id="paint1_linear_994_4159" x1="12.4443" y1="1.22266" x2="12.4443" y2="16.7782" gradientUnits="userSpaceOnUse">
<stop stop-color="white" stop-opacity="0.12"/>
<stop offset="0.2" stop-color="white" stop-opacity="0.06"/>
<stop offset="1" stop-color="white" stop-opacity="0.01"/>
</linearGradient>
</defs>
</svg>
