<svg width="23" height="23" viewBox="0 0 23 23" fill="none" xmlns="http://www.w3.org/2000/svg">
<path d="M6.75311 9.35076C6.75311 8.70237 7.01068 8.08054 7.46916 7.62206C7.92764 7.16358 8.54947 6.90601 9.19786 6.90601H17.1417C17.4627 6.90601 17.7807 6.96924 18.0773 7.0921C18.3739 7.21496 18.6434 7.39504 18.8704 7.62206C19.0974 7.84907 19.2775 8.11858 19.4004 8.41519C19.5232 8.7118 19.5864 9.02971 19.5864 9.35076V17.2946C19.5864 17.6156 19.5232 17.9335 19.4004 18.2302C19.2775 18.5268 19.0974 18.7963 18.8704 19.0233C18.6434 19.2503 18.3739 19.4304 18.0773 19.5532C17.7807 19.6761 17.4627 19.7393 17.1417 19.7393H9.19786C8.87681 19.7393 8.55891 19.6761 8.2623 19.5532C7.96569 19.4304 7.69618 19.2503 7.46916 19.0233C7.24215 18.7963 7.06207 18.5268 6.93921 18.2302C6.81635 17.9335 6.75311 17.6156 6.75311 17.2946V9.35076Z" stroke="#747474" stroke-width="1.83333" stroke-linecap="round" stroke-linejoin="round"/>
<path d="M4.01409 15.8315C3.73299 15.6713 3.49918 15.4396 3.33629 15.16C3.1734 14.8805 3.08721 14.5628 3.08643 14.2393V5.07259C3.08643 4.06426 3.91143 3.23926 4.91976 3.23926H14.0864C14.7739 3.23926 15.1479 3.59217 15.4614 4.15592" stroke="#747474" stroke-width="1.83333" stroke-linecap="round" stroke-linejoin="round"/>
</svg>
