<svg width="44" height="23" viewBox="0 0 44 23" fill="none" xmlns="http://www.w3.org/2000/svg">
<g clip-path="url(#clip0_1092_1176)">
<path d="M43.9995 10.869C43.9346 11.2584 43.8731 11.6444 43.8048 12.0304C43.6712 12.9744 43.3114 13.872 42.7562 14.647C42.461 15.0423 42.0817 15.3671 41.6458 15.5981C41.2098 15.8291 40.7281 15.9604 40.2352 15.9826C37.8031 16.1603 36.3035 15.0535 35.757 12.6863C35.2711 10.6623 35.2969 8.54911 35.8322 6.53759C36.324 4.69982 37.6767 3.53158 39.4837 3.46326C41.3625 3.4086 42.7186 4.14644 43.4222 6.09694C43.6633 6.91152 43.856 7.73961 43.9995 8.5769V10.869ZM42.3565 10.0799C42.1959 8.512 42.2472 7.27543 41.6084 6.17209C41.481 5.90707 41.2964 5.67367 41.0677 5.48877C40.8391 5.30386 40.5723 5.17206 40.2865 5.1029C38.9884 4.85354 38.0183 5.38643 37.6084 6.64007C36.9879 8.58671 36.9547 10.673 37.5128 12.6384C37.623 13.0519 37.8237 13.4358 38.1003 13.7623C38.3488 14.0545 38.6718 14.274 39.035 14.3974C39.3981 14.5209 39.788 14.5437 40.1631 14.4635C40.5382 14.3833 40.8846 14.2031 41.1655 13.9419C41.4464 13.6807 41.6514 13.3483 41.7587 12.98C42.0266 12.0287 42.2263 11.0596 42.3565 10.0799Z" fill="#808080"/>
<path d="M12.4135 5.03905V13.5789C12.4135 14.1493 12.4135 14.7198 12.4135 15.2868C12.4135 15.6284 12.2803 15.748 11.9592 15.7411C11.5288 15.7411 11.1018 15.7172 10.6748 15.7411C10.2478 15.7651 10.0941 15.5977 10.0975 15.1638C10.0975 12.7112 10.1351 10.2586 10.0975 7.80595C10.077 6.57963 9.93699 5.35331 9.81743 4.12699C9.77986 3.76832 9.85159 3.61802 10.2205 3.64535C10.4261 3.66585 10.6332 3.66585 10.8388 3.64535C11.0575 3.59818 11.2859 3.62949 11.4839 3.73379C11.6818 3.83808 11.8368 4.00872 11.9216 4.21581C12.0617 4.49933 12.2393 4.51299 12.4955 4.35928C13.345 3.82744 14.3084 3.50436 15.3068 3.41648C16.3315 3.34475 17.3085 3.51896 18.0395 4.31829C18.2615 4.5574 18.4186 4.47542 18.6577 4.3866C19.5117 4.04501 20.3657 3.63168 21.2401 3.47797C23.6313 3.05439 25.2777 4.39344 25.3392 6.8085C25.4007 9.62322 25.3392 12.4379 25.3597 15.2561C25.3597 15.5977 25.2333 15.7514 24.8849 15.7377C24.4579 15.7377 24.0275 15.7172 23.6005 15.7377C23.1735 15.7582 23.0369 15.6079 23.0437 15.1912C23.0437 13.8248 23.0437 12.4379 23.0437 11.0613C23.0437 9.78035 23.0642 8.49596 23.0437 7.21499C23.0261 6.77483 22.9479 6.33919 22.8115 5.92035C22.743 5.68837 22.5947 5.48808 22.3928 5.35492C22.1908 5.22177 21.9483 5.16433 21.7081 5.19276C21.2846 5.21667 20.8678 5.34989 20.4442 5.36356C19.8704 5.38064 19.2965 5.3294 18.7021 5.3089C18.7916 5.64502 18.8545 5.98768 18.89 6.33368C18.9413 7.50193 18.972 8.67359 18.9788 9.84184C18.9788 11.5498 18.9788 13.2578 18.9788 14.9657C18.9788 15.7377 18.9788 15.7377 18.1829 15.7377H17.4212C16.598 15.7377 16.598 15.7377 16.598 14.894V9.85209C16.598 8.82731 16.598 7.82644 16.598 6.81533C16.5942 6.53085 16.547 6.24862 16.4579 5.97843C16.397 5.72793 16.2459 5.50865 16.0336 5.36247C15.8212 5.21628 15.5625 5.15344 15.3068 5.18593C15.0527 5.194 14.7999 5.22602 14.5518 5.28158C13.7764 5.43529 13.0284 5.48995 12.4135 5.03905Z" fill="#808080"/>
<path d="M4.23898 4.0073V6.86643C4.23898 8.33527 4.20823 9.80754 4.25606 11.2764C4.27514 11.9062 4.39033 12.5294 4.59765 13.1244C4.92215 14.0399 5.578 14.378 6.5447 14.2551C6.8921 14.2145 7.2351 14.1425 7.56946 14.0399C7.91105 13.9374 8.12625 13.9818 8.19799 14.361C8.2067 14.3911 8.21696 14.4207 8.22873 14.4498C8.57032 15.5326 8.82651 15.4301 7.47382 15.8161C6.87586 16.0126 6.24191 16.0747 5.6172 15.998C4.99249 15.9212 4.39242 15.7075 3.85981 15.3721C2.80431 14.6889 2.34316 13.6197 2.23385 12.4446C2.11088 11.1568 2.14163 9.85536 2.12113 8.56072C2.12113 7.676 2.12113 6.79127 2.12113 5.90313C2.12113 5.50005 1.99816 5.31901 1.57459 5.34634C1.233 5.36683 0.891412 5.34634 0.529328 5.34634C0.290216 5.34634 0.00669812 5.34634 0.0237775 5.00475C0.040857 4.66315 -0.164096 4.23616 0.365366 4.08586C0.758301 3.96371 1.15737 3.86223 1.56093 3.78184C2.01182 3.70669 2.15529 3.47441 2.13479 3.03034C2.10063 2.34716 2.13479 1.66397 2.13479 0.980785C2.11515 0.847266 2.14897 0.711387 2.22892 0.602658C2.30886 0.49393 2.42848 0.421133 2.56178 0.400078C2.93753 0.31468 3.33377 0.195122 3.71976 0.0584853C4.10576 -0.0781517 4.24923 0.000414606 4.24239 0.423989C4.24239 1.32579 4.24239 2.2276 4.24239 3.12599C4.24239 3.52565 4.38586 3.65545 4.77186 3.64521C5.51652 3.62471 6.26118 3.64521 7.00584 3.64521C7.40209 3.64521 7.57288 3.75452 7.57971 4.18151C7.57971 5.41466 7.57971 5.45223 6.31583 5.36342C5.30473 5.28144 5.04513 5.1243 4.23898 4.0073Z" fill="#808080"/>
<path d="M32.4928 5.06947C30.918 5.35299 29.4185 5.08996 27.9189 5.17536C27.4782 5.20269 27.2972 5.02506 27.3484 4.59807V4.55025C27.3484 3.65527 27.3484 3.65527 28.2195 3.65527C30.0743 3.65527 31.9291 3.65527 33.784 3.65527C34.0402 3.65527 34.5013 3.76117 34.515 3.86023C34.5594 4.22915 34.5867 4.71763 34.3852 4.97724C33.5654 6.02251 32.6772 6.99605 31.7891 7.99691C31.6593 8.14721 31.55 8.3146 31.4168 8.48539C31.9428 8.67668 32.4415 8.8099 32.8822 9.02169C35.1264 10.0943 35.3006 12.5094 34.2929 14.1456C33.2853 15.7818 31.649 16.1951 29.8523 15.956C28.9094 15.7971 28.0208 15.4062 27.2665 14.8185C26.9249 14.5692 26.7917 14.3403 27.1128 13.9304C27.6798 13.1994 27.6525 13.1823 28.4347 13.6947C28.8707 14.0161 29.3734 14.2352 29.9056 14.3357C30.4378 14.4362 30.9858 14.4156 31.509 14.2754C31.9754 14.1642 32.3904 13.8983 32.6863 13.521C32.9822 13.1437 33.1415 12.6773 33.1383 12.1979C33.1352 11.7184 32.9697 11.2542 32.6688 10.8808C32.3679 10.5075 31.9495 10.2471 31.4817 10.1421C30.9731 10.0266 30.4553 9.95687 29.9343 9.93374C29.6405 9.91325 29.4151 9.86201 29.2921 9.55799C29.2161 9.42675 29.1835 9.27489 29.1988 9.12401C29.2141 8.97314 29.2767 8.83095 29.3775 8.71767C30.2884 7.67696 31.1993 6.63054 32.1102 5.57844C32.2571 5.42131 32.3698 5.24026 32.4928 5.06947Z" fill="#808080"/>
<path d="M43.2152 18.4048H0.786513C0.713131 18.4048 0.642755 18.4339 0.590866 18.4858C0.538977 18.5377 0.509827 18.6081 0.509827 18.6815C0.509827 18.7549 0.538977 18.8252 0.590866 18.8771C0.642755 18.929 0.713131 18.9582 0.786513 18.9582H43.2152C43.2886 18.9582 43.359 18.929 43.4109 18.8771C43.4627 18.8252 43.4919 18.7549 43.4919 18.6815C43.4919 18.6081 43.4627 18.5377 43.4109 18.4858C43.359 18.4339 43.2886 18.4048 43.2152 18.4048Z" fill="#808080"/>
<path d="M4.96363 22.6929H4.6767V22.3752C4.57138 22.4977 4.44012 22.5954 4.29242 22.6609C4.14472 22.7265 3.98428 22.7584 3.82273 22.7543C3.66354 22.7591 3.50506 22.7312 3.35703 22.6725C3.209 22.6137 3.07455 22.5254 2.96193 22.4128C2.73833 22.1708 2.61926 21.8504 2.63058 21.5212C2.61708 21.1775 2.73985 20.8423 2.97217 20.5886C3.08249 20.4675 3.21783 20.3717 3.36882 20.308C3.51982 20.2443 3.68285 20.2142 3.84664 20.2197C4.08262 20.2078 4.3165 20.2694 4.51598 20.396C4.71545 20.5227 4.87067 20.7082 4.96022 20.9268L4.61863 21.0191C4.56486 20.8629 4.46263 20.728 4.32685 20.634C4.19106 20.54 4.02881 20.4918 3.86372 20.4964C3.74436 20.4933 3.62584 20.5171 3.51701 20.5662C3.40817 20.6153 3.31184 20.6884 3.2352 20.7799C3.06407 20.9811 2.97718 21.2405 2.99267 21.5041C2.97964 21.7596 3.06524 22.0102 3.23178 22.2044C3.30933 22.2919 3.40529 22.3612 3.51277 22.4073C3.62026 22.4533 3.73661 22.475 3.85347 22.4708C3.98857 22.4735 4.12263 22.4467 4.2463 22.3923C4.35908 22.3451 4.45788 22.2699 4.53323 22.1736C4.62662 22.0354 4.67658 21.8725 4.6767 21.7057H3.83981V21.4187H4.96363V22.6929Z" fill="#808080"/>
<path d="M7.90135 22.6924H6.37103V20.3013H6.71262V22.4157H7.9116L7.90135 22.6924Z" fill="#808080"/>
<path d="M10.2062 20.2248C10.3694 20.2191 10.5319 20.2484 10.6827 20.3109C10.8336 20.3734 10.9693 20.4675 11.0807 20.5869C11.1954 20.7099 11.2847 20.8545 11.3434 21.0122C11.402 21.1699 11.4288 21.3377 11.4222 21.5058C11.4283 21.6692 11.4012 21.8322 11.3425 21.9849C11.2838 22.1375 11.1947 22.2767 11.0807 22.3939C10.9681 22.5076 10.8332 22.5967 10.6844 22.6555C10.5357 22.7143 10.3763 22.7416 10.2164 22.7355C10.055 22.7422 9.8939 22.7152 9.74338 22.6564C9.59286 22.5976 9.45618 22.5083 9.34197 22.3939C9.12199 22.1444 9.00061 21.8231 9.00061 21.4904C9.00061 21.1577 9.12199 20.8365 9.34197 20.5869C9.45272 20.4695 9.58684 20.3766 9.7357 20.3143C9.88456 20.2519 10.0448 20.2214 10.2062 20.2248ZM9.35564 21.4853C9.3468 21.7448 9.43032 21.999 9.59133 22.2026C9.66706 22.2922 9.76195 22.3635 9.86897 22.4114C9.97599 22.4593 10.0924 22.4825 10.2096 22.4793C10.3258 22.4825 10.4412 22.4592 10.5471 22.4113C10.653 22.3633 10.7467 22.292 10.8211 22.2026C10.9811 22.0113 11.0671 21.7689 11.0636 21.5195C11.077 21.2546 10.9918 20.9942 10.8245 20.7885C10.7506 20.6972 10.6567 20.6241 10.5501 20.575C10.4435 20.5258 10.327 20.5018 10.2096 20.5049C10.0918 20.5021 9.97486 20.5262 9.86772 20.5753C9.76059 20.6244 9.66606 20.6973 9.59133 20.7885C9.43255 20.9854 9.34901 21.2324 9.35564 21.4853Z" fill="#808080"/>
<path d="M13.9706 22.69H12.7546V20.2988H13.8989C14 20.2892 14.1019 20.3 14.1987 20.3305C14.2955 20.361 14.3852 20.4106 14.4625 20.4765C14.5232 20.533 14.5711 20.6019 14.6029 20.6785C14.6347 20.7551 14.6497 20.8376 14.647 20.9205C14.6501 21.0308 14.6189 21.1393 14.5577 21.2311C14.4965 21.3228 14.4084 21.3934 14.3054 21.4329C14.4318 21.4775 14.5414 21.5598 14.6196 21.6686C14.6913 21.7791 14.726 21.9095 14.7187 22.0409C14.7234 22.1362 14.7058 22.2312 14.6672 22.3183C14.6287 22.4055 14.5703 22.4825 14.4967 22.5431C14.3436 22.6515 14.1577 22.7034 13.9706 22.69ZM13.0723 20.5755V21.2963H13.8272C13.9476 21.304 14.0673 21.2729 14.1688 21.2075C14.2124 21.1739 14.2474 21.1303 14.2706 21.0803C14.2938 21.0304 14.3045 20.9755 14.302 20.9205C14.3053 20.8709 14.2969 20.8212 14.2773 20.7754C14.2577 20.7297 14.2275 20.6893 14.1892 20.6575C14.0931 20.5951 13.979 20.5663 13.8647 20.5755H13.0723ZM13.0723 21.573V22.3996H13.8818C14.0137 22.4101 14.1455 22.3778 14.2576 22.3074C14.2993 22.2693 14.3315 22.222 14.3517 22.1692C14.3719 22.1164 14.3794 22.0596 14.3737 22.0034C14.3737 21.7164 14.2097 21.573 13.8852 21.573H13.0723Z" fill="#808080"/>
<path d="M16.1339 22.6924H15.7924L16.7317 20.3013H17.0733L17.9512 22.6924H17.6096L17.3466 21.958H16.397L16.1339 22.6924ZM16.8752 20.7043L16.5336 21.6779H17.2168L16.8752 20.7043Z" fill="#808080"/>
<path d="M20.6394 22.6924H19.1296V20.3013H19.4712V22.4157H20.6667L20.6394 22.6924Z" fill="#808080"/>
<path d="M24.2525 22.6924H22.7188V20.3013H23.0604V22.4157H24.2525V22.6924Z" fill="#808080"/>
<path d="M25.7733 22.6924H25.4317V20.3013H25.7733V22.6924Z" fill="#808080"/>
<path d="M27.522 22.6919H27.2077V20.3008H27.6415L28.352 22.2308L29.0352 20.2871H29.4724V22.6783H29.1718V20.8166L28.4887 22.6919H28.2154L27.5322 20.8166L27.522 22.6919Z" fill="#808080"/>
<path d="M32.1355 22.6924H31.7939V20.3013H32.1355V22.6924Z" fill="#808080"/>
<path d="M34.3831 22.6919H34.0415V20.5775H33.3037V20.2871H35.1244V20.5775H34.3831V22.6919Z" fill="#808080"/>
<path d="M38.064 22.6924H36.3015V20.3013H38.0094V20.5916H36.643V21.326H37.842V21.613H36.643V22.4157H38.0743L38.064 22.6924Z" fill="#808080"/>
<path d="M40.2557 22.6916H39.3437V20.3004H40.2557C40.4135 20.2905 40.5714 20.3161 40.718 20.3752C40.8646 20.4343 40.9961 20.5255 41.1029 20.642C41.2926 20.8914 41.3871 21.2002 41.3693 21.5131C41.3801 21.6783 41.3579 21.8441 41.304 22.0007C41.25 22.1573 41.1654 22.3016 41.055 22.4251C40.9465 22.5209 40.8198 22.5938 40.6825 22.6396C40.5451 22.6853 40.4 22.703 40.2557 22.6916ZM39.675 20.5771V22.4012H40.2147C40.3409 22.4057 40.4668 22.3884 40.5871 22.35C40.6814 22.3119 40.7639 22.2494 40.8262 22.1689C40.9717 21.9722 41.042 21.7298 41.0243 21.4857C41.045 21.2243 40.9615 20.9652 40.792 20.765C40.7299 20.6953 40.6512 20.6424 40.5632 20.6113C40.4519 20.581 40.3368 20.5672 40.2216 20.5703L39.675 20.5771Z" fill="#808080"/>
</g>
<defs>
<clipPath id="clip0_1092_1176">
<rect width="44" height="22.7535" fill="white"/>
</clipPath>
</defs>
</svg>
