<svg width="111" height="43" viewBox="0 0 111 43" fill="none" xmlns="http://www.w3.org/2000/svg">
<g clip-path="url(#clip0_40_321)">
<path d="M110.545 29.0857L5.84302 29C5.72242 29 5.60676 29.0482 5.52149 29.1339C5.43621 29.2196 5.38831 29.3359 5.38831 29.4571C5.38831 29.5784 5.43621 29.6946 5.52149 29.7804C5.60676 29.8661 5.72242 29.9143 5.84302 29.9143L110.545 30C110.666 30 110.781 29.9518 110.867 29.8661C110.952 29.7804 111 29.6641 111 29.5429C111 29.4216 110.952 29.3054 110.867 29.2196C110.781 29.1339 110.666 29.0857 110.545 29.0857Z" fill="#231F20"/>
<path d="M22.67 5.2V7.96H15.89V25H12.68V7.96H5.9V5.2H22.67ZM44.6642 5.2V25H41.6942V13.54L41.9342 8.08H41.9042L35.8742 25H33.2042L27.1742 8.08H27.1442L27.3842 13.54V25H24.4142V5.2H29.1842L33.1742 16.66L34.5542 21.37H34.6142L36.0242 16.66L39.9842 5.2H44.6642Z" fill="#231F20"/>
<path d="M46.324 25V11H48.984L49.124 13.352C49.6093 12.456 50.2533 11.7933 51.056 11.364C51.8773 10.9347 52.7453 10.72 53.66 10.72C54.668 10.72 55.592 10.9533 56.432 11.42C57.2907 11.868 57.9347 12.5493 58.364 13.464C58.6627 12.848 59.0733 12.3347 59.596 11.924C60.1187 11.5133 60.6973 11.2147 61.332 11.028C61.9667 10.8227 62.592 10.72 63.208 10.72C64.104 10.72 64.944 10.9067 65.728 11.28C66.512 11.6533 67.1467 12.2227 67.632 12.988C68.1173 13.7533 68.36 14.7333 68.36 15.928V25H65.364V16.404C65.364 15.2653 65.0933 14.444 64.552 13.94C64.0107 13.436 63.32 13.184 62.48 13.184C61.8267 13.184 61.22 13.3427 60.66 13.66C60.1187 13.9773 59.68 14.4533 59.344 15.088C59.008 15.704 58.84 16.4693 58.84 17.384V25H55.844V16.404C55.844 15.2653 55.5733 14.444 55.032 13.94C54.4907 13.436 53.8 13.184 52.96 13.184C52.4 13.184 51.84 13.3333 51.28 13.632C50.72 13.9307 50.2533 14.3973 49.88 15.032C49.5067 15.6667 49.32 16.5067 49.32 17.552V25H46.324ZM77.1021 25.28C75.7021 25.28 74.4701 24.9907 73.4061 24.412C72.3421 23.8333 71.5115 23.0027 70.9141 21.92C70.3355 20.8187 70.0461 19.512 70.0461 18C70.0461 16.488 70.3355 15.1907 70.9141 14.108C71.5115 13.0067 72.3328 12.1667 73.3781 11.588C74.4235 11.0093 75.6088 10.72 76.9341 10.72C78.2968 10.72 79.4541 11 80.4061 11.56C81.3581 12.12 82.0861 12.8853 82.5901 13.856C83.0941 14.8267 83.3461 15.928 83.3461 17.16C83.3461 17.496 83.3368 17.8133 83.3181 18.112C83.2995 18.4107 83.2715 18.672 83.2341 18.896H71.9781V16.6H81.9181L80.4341 17.048C80.4341 15.7787 80.1168 14.808 79.4821 14.136C78.8475 13.4453 77.9795 13.1 76.8781 13.1C76.0755 13.1 75.3755 13.2867 74.7781 13.66C74.1808 14.0333 73.7235 14.5933 73.4061 15.34C73.0888 16.068 72.9301 16.964 72.9301 18.028C72.9301 19.0733 73.0981 19.96 73.4341 20.688C73.7701 21.416 74.2461 21.9667 74.8621 22.34C75.4781 22.7133 76.2061 22.9 77.0461 22.9C77.9795 22.9 78.7355 22.7227 79.3141 22.368C79.8928 22.0133 80.3501 21.5187 80.6861 20.884L83.0661 22.004C82.7301 22.676 82.2728 23.264 81.6941 23.768C81.1341 24.2533 80.4621 24.6267 79.6781 24.888C78.8941 25.1493 78.0355 25.28 77.1021 25.28ZM91.3296 25.28C89.9296 25.28 88.6976 24.9907 87.6336 24.412C86.5696 23.8333 85.739 23.0027 85.1416 21.92C84.563 20.8187 84.2736 19.512 84.2736 18C84.2736 16.488 84.563 15.1907 85.1416 14.108C85.739 13.0067 86.5603 12.1667 87.6056 11.588C88.651 11.0093 89.8363 10.72 91.1616 10.72C92.5243 10.72 93.6816 11 94.6336 11.56C95.5856 12.12 96.3136 12.8853 96.8176 13.856C97.3216 14.8267 97.5736 15.928 97.5736 17.16C97.5736 17.496 97.5643 17.8133 97.5456 18.112C97.527 18.4107 97.499 18.672 97.4616 18.896H86.2056V16.6H96.1456L94.6616 17.048C94.6616 15.7787 94.3443 14.808 93.7096 14.136C93.075 13.4453 92.207 13.1 91.1056 13.1C90.303 13.1 89.603 13.2867 89.0056 13.66C88.4083 14.0333 87.951 14.5933 87.6336 15.34C87.3163 16.068 87.1576 16.964 87.1576 18.028C87.1576 19.0733 87.3256 19.96 87.6616 20.688C87.9976 21.416 88.4736 21.9667 89.0896 22.34C89.7056 22.7133 90.4336 22.9 91.2736 22.9C92.207 22.9 92.963 22.7227 93.5416 22.368C94.1203 22.0133 94.5776 21.5187 94.9136 20.884L97.2936 22.004C96.9576 22.676 96.5003 23.264 95.9216 23.768C95.3616 24.2533 94.6896 24.6267 93.9056 24.888C93.1216 25.1493 92.263 25.28 91.3296 25.28ZM103.157 6.884V20.8C103.157 21.4907 103.334 21.9947 103.689 22.312C104.062 22.6293 104.557 22.788 105.173 22.788C105.677 22.788 106.116 22.7133 106.489 22.564C106.862 22.396 107.208 22.172 107.525 21.892L108.197 24.076C107.768 24.4493 107.236 24.748 106.601 24.972C105.985 25.1773 105.294 25.28 104.529 25.28C103.726 25.28 102.989 25.1493 102.317 24.888C101.645 24.6267 101.122 24.2067 100.749 23.628C100.376 23.0307 100.18 22.256 100.161 21.304V7.724L103.157 6.884ZM107.973 11V13.352H97.473V11H107.973Z" fill="#36AAD9"/>
<path d="M14.0984 38.06C13.7224 38.06 13.3964 37.978 13.1204 37.814C12.8484 37.646 12.6364 37.41 12.4844 37.106C12.3364 36.802 12.2624 36.44 12.2624 36.02C12.2624 35.6 12.3404 35.238 12.4964 34.934C12.6564 34.63 12.8784 34.396 13.1624 34.232C13.4464 34.064 13.7724 33.98 14.1404 33.98C14.5324 33.98 14.8504 34.054 15.0944 34.202C15.3424 34.35 15.5424 34.578 15.6944 34.886L15.2564 35.126C15.1684 34.898 15.0284 34.726 14.8364 34.61C14.6484 34.49 14.4164 34.43 14.1404 34.43C13.8724 34.43 13.6344 34.494 13.4264 34.622C13.2224 34.746 13.0604 34.928 12.9404 35.168C12.8244 35.404 12.7664 35.688 12.7664 36.02C12.7664 36.352 12.8164 36.638 12.9164 36.878C13.0204 37.114 13.1724 37.296 13.3724 37.424C13.5764 37.548 13.8244 37.61 14.1164 37.61C14.2804 37.61 14.4324 37.59 14.5724 37.55C14.7164 37.506 14.8404 37.442 14.9444 37.358C15.0524 37.274 15.1364 37.168 15.1964 37.04C15.2564 36.912 15.2864 36.762 15.2864 36.59V36.452H14.0264V36.002H15.7244V38H15.3464L15.3224 37.262L15.4244 37.28C15.3204 37.528 15.1564 37.72 14.9324 37.856C14.7084 37.992 14.4304 38.06 14.0984 38.06ZM20.0842 37.55H22.3522V38H19.6042V34.04H20.0842V37.55ZM27.4055 33.98C27.7815 33.98 28.1055 34.064 28.3775 34.232C28.6535 34.396 28.8655 34.63 29.0135 34.934C29.1655 35.238 29.2415 35.6 29.2415 36.02C29.2415 36.44 29.1655 36.802 29.0135 37.106C28.8655 37.41 28.6535 37.646 28.3775 37.814C28.1055 37.978 27.7815 38.06 27.4055 38.06C27.0295 38.06 26.7035 37.978 26.4275 37.814C26.1555 37.646 25.9435 37.41 25.7915 37.106C25.6435 36.802 25.5695 36.44 25.5695 36.02C25.5695 35.6 25.6435 35.238 25.7915 34.934C25.9435 34.63 26.1555 34.396 26.4275 34.232C26.7035 34.064 27.0295 33.98 27.4055 33.98ZM27.4055 34.43C27.1335 34.43 26.8975 34.494 26.6975 34.622C26.4975 34.746 26.3435 34.928 26.2355 35.168C26.1275 35.404 26.0735 35.688 26.0735 36.02C26.0735 36.352 26.1275 36.638 26.2355 36.878C26.3435 37.114 26.4975 37.296 26.6975 37.424C26.8975 37.548 27.1335 37.61 27.4055 37.61C27.6815 37.61 27.9175 37.548 28.1135 37.424C28.3135 37.296 28.4675 37.114 28.5755 36.878C28.6835 36.638 28.7375 36.352 28.7375 36.02C28.7375 35.688 28.6835 35.404 28.5755 35.168C28.4675 34.928 28.3135 34.746 28.1135 34.622C27.9175 34.494 27.6815 34.43 27.4055 34.43ZM33.0578 38V34.04H34.4678C34.9358 34.04 35.2778 34.138 35.4938 34.334C35.7098 34.53 35.8178 34.796 35.8178 35.132C35.8178 35.332 35.7598 35.514 35.6438 35.678C35.5278 35.838 35.3638 35.94 35.1518 35.984V35.99C35.3878 36.034 35.5738 36.142 35.7098 36.314C35.8498 36.482 35.9198 36.674 35.9198 36.89C35.9198 37.226 35.7938 37.496 35.5418 37.7C35.2898 37.9 34.9298 38 34.4618 38H33.0578ZM33.5378 37.55H34.5758C34.8598 37.55 35.0698 37.492 35.2058 37.376C35.3458 37.26 35.4158 37.098 35.4158 36.89C35.4158 36.678 35.3458 36.516 35.2058 36.404C35.0698 36.288 34.8598 36.23 34.5758 36.23H33.5378V37.55ZM33.5378 35.78H34.4738C35.0338 35.78 35.3138 35.564 35.3138 35.132C35.3138 34.704 35.0338 34.49 34.4738 34.49H33.5378V35.78ZM42.8351 38H42.3251L41.9051 36.902H40.1111L39.6911 38H39.1871L40.7291 34.04H41.2991L42.8351 38ZM40.2851 36.452H41.7311L41.0051 34.502L40.2851 36.452ZM46.88 37.55H49.148V38H46.4V34.04H46.88V37.55ZM57.8668 37.55H60.1348V38H57.3868V34.04H57.8668V37.55ZM64.2128 34.04V38H63.7328V34.04H64.2128ZM72.0962 34.04V38H71.6402V35.51L71.6942 34.466H71.6882L70.3862 38H69.9782L68.6762 34.466H68.6702L68.7242 35.51V38H68.2682V34.04H69.0062L69.8762 36.446L70.1762 37.436H70.1882L70.4942 36.452L71.3582 34.04H72.0962ZM76.6292 34.04V38H76.1492V34.04H76.6292ZM83.4686 34.04V34.49H82.0886V38H81.6086V34.49H80.2286V34.04H83.4686ZM87.0657 38V34.04H89.8437V34.49H87.5457V35.768H89.3337V36.218H87.5457V37.55H89.9337V38H87.0657ZM94.9299 34.04C95.5499 34.04 96.0359 34.212 96.3879 34.556C96.7439 34.896 96.9219 35.384 96.9219 36.02C96.9219 36.656 96.7439 37.146 96.3879 37.49C96.0359 37.83 95.5499 38 94.9299 38H93.6519V34.04H94.9299ZM94.9779 37.55C95.4299 37.55 95.7819 37.416 96.0339 37.148C96.2899 36.876 96.4179 36.5 96.4179 36.02C96.4179 35.54 96.2899 35.166 96.0339 34.898C95.7819 34.626 95.4299 34.49 94.9779 34.49H94.1319V37.55H94.9779Z" fill="black"/>
</g>
<defs>
<clipPath id="clip0_40_321">
<rect width="111" height="43" fill="white"/>
</clipPath>
</defs>
</svg>
