<svg width="31" height="17" viewBox="0 0 31 17" fill="none" xmlns="http://www.w3.org/2000/svg">
<g clip-path="url(#clip0_1763_6781)">
<path d="M30.4997 8.15381C30.4554 8.41932 30.4135 8.68251 30.3669 8.94569C30.2758 9.58929 30.0305 10.2013 29.6519 10.7297C29.4507 10.9992 29.1921 11.2207 28.8949 11.3782C28.5976 11.5357 28.2692 11.6252 27.9331 11.6404C26.2749 11.7615 25.2524 11.0069 24.8798 9.39286C24.5485 8.01287 24.5661 6.57208 24.931 5.20059C25.2664 3.94757 26.1887 3.15104 27.4207 3.10445C28.7017 3.06719 29.6263 3.57026 30.1061 4.90014C30.2704 5.45554 30.4019 6.02015 30.4997 6.59103V8.15381ZM29.3794 7.61581C29.27 6.54678 29.3049 5.70366 28.8694 4.95138C28.7825 4.77069 28.6566 4.61156 28.5007 4.48548C28.3449 4.35941 28.1629 4.26955 27.9681 4.22239C27.083 4.05237 26.4216 4.4157 26.1421 5.27046C25.719 6.59771 25.6964 8.02019 26.0769 9.36026C26.1521 9.64218 26.2889 9.9039 26.4775 10.1265C26.6469 10.3257 26.8671 10.4754 27.1148 10.5596C27.3624 10.6438 27.6282 10.6593 27.8839 10.6046C28.1397 10.55 28.3759 10.427 28.5674 10.249C28.759 10.0709 28.8987 9.84426 28.9719 9.59316C29.1545 8.94455 29.2907 8.28376 29.3794 7.61581Z" fill="#36AAD9"/>
<path d="M8.96374 4.17879V10.0014C8.96374 10.3903 8.96374 10.7793 8.96374 11.1659C8.96374 11.3988 8.87291 11.4803 8.65398 11.4757C8.36052 11.4757 8.0694 11.4594 7.77827 11.4757C7.48714 11.492 7.38234 11.3779 7.38467 11.0821C7.38467 9.40981 7.41029 7.73756 7.38467 6.06531C7.37069 5.22919 7.2752 4.39306 7.19369 3.55693C7.16807 3.31239 7.21698 3.20991 7.46851 3.22854C7.60868 3.24252 7.74989 3.24252 7.89006 3.22854C8.03921 3.19638 8.19491 3.21772 8.3299 3.28884C8.46488 3.35995 8.57054 3.4763 8.62836 3.61749C8.72385 3.8108 8.84496 3.82012 9.01963 3.71531C9.59884 3.3527 10.2557 3.13241 10.9364 3.07249C11.6351 3.02358 12.3012 3.14237 12.7996 3.68736C12.951 3.85039 13.0581 3.7945 13.2212 3.73394C13.8034 3.50104 14.3857 3.21922 14.9819 3.11442C16.6122 2.82562 17.7348 3.7386 17.7767 5.38523C17.8186 7.30436 17.7767 9.22349 17.7907 11.1449C17.7907 11.3779 17.7045 11.4827 17.467 11.4733C17.1758 11.4733 16.8824 11.4594 16.5912 11.4733C16.3001 11.4873 16.207 11.3848 16.2116 11.1007C16.2116 10.1691 16.2116 9.22349 16.2116 8.28489C16.2116 7.4115 16.2256 6.53578 16.2116 5.66239C16.1996 5.36228 16.1463 5.06525 16.0532 4.77968C16.0066 4.62151 15.9054 4.48495 15.7678 4.39416C15.6301 4.30337 15.4647 4.26421 15.301 4.28359C15.0122 4.2999 14.728 4.39073 14.4392 4.40005C14.048 4.41169 13.6567 4.37676 13.2514 4.36278C13.3125 4.59195 13.3553 4.82558 13.3795 5.06149C13.4145 5.85803 13.4354 6.65689 13.4401 7.45342C13.4401 8.61794 13.4401 9.78246 13.4401 10.947C13.4401 11.4733 13.4401 11.4733 12.8974 11.4733H12.3781C11.8168 11.4733 11.8168 11.4733 11.8168 10.8981V7.46041C11.8168 6.76169 11.8168 6.07928 11.8168 5.38989C11.8142 5.19593 11.782 5.0035 11.7213 4.81927C11.6797 4.64848 11.5768 4.49897 11.432 4.3993C11.2872 4.29963 11.1108 4.25678 10.9364 4.27894C10.7632 4.28444 10.5908 4.30627 10.4217 4.34415C9.89301 4.44896 9.38296 4.48622 8.96374 4.17879Z" fill="#231F20"/>
<path d="M3.39003 3.47497V5.42437C3.39003 6.42586 3.36907 7.42968 3.40167 8.43116C3.41469 8.86058 3.49323 9.28548 3.63458 9.69117C3.85583 10.3154 4.303 10.5459 4.96211 10.4621C5.19898 10.4344 5.43284 10.3853 5.66082 10.3154C5.89372 10.2455 6.04044 10.2758 6.08935 10.5343C6.0953 10.5548 6.10229 10.575 6.11032 10.5948C6.34322 11.3331 6.51789 11.2633 5.5956 11.5265C5.18791 11.6604 4.75566 11.7028 4.32972 11.6504C3.90378 11.5981 3.49465 11.4524 3.13151 11.2237C2.41184 10.7579 2.09743 10.0289 2.0229 9.2277C1.93905 8.34965 1.96002 7.46228 1.94604 6.57958C1.94604 5.97636 1.94604 5.37314 1.94604 4.76758C1.94604 4.49276 1.8622 4.36932 1.5734 4.38795C1.3405 4.40193 1.1076 4.38795 0.860723 4.38795C0.697692 4.38795 0.504384 4.38795 0.516029 4.15505C0.527674 3.92214 0.387933 3.63101 0.74893 3.52854C1.01684 3.44525 1.28893 3.37606 1.56408 3.32125C1.87151 3.27001 1.96933 3.11164 1.95536 2.80886C1.93207 2.34305 1.95536 1.87725 1.95536 1.41144C1.94196 1.3204 1.96502 1.22776 2.01953 1.15362C2.07404 1.07949 2.1556 1.02986 2.24648 1.0155C2.50268 0.957275 2.77284 0.875758 3.03602 0.782597C3.2992 0.689435 3.39702 0.743003 3.39236 1.0318C3.39236 1.64667 3.39236 2.26154 3.39236 2.87407C3.39236 3.14657 3.49018 3.23508 3.75336 3.22809C4.26108 3.21411 4.7688 3.22809 5.27653 3.22809C5.54669 3.22809 5.66315 3.30262 5.6678 3.59375C5.6678 4.43453 5.6678 4.46015 4.80607 4.3996C4.11668 4.3437 3.93968 4.23656 3.39003 3.47497Z" fill="#231F20"/>
<path d="M22.6542 4.19957C21.5805 4.39288 20.5581 4.21355 19.5356 4.27177C19.2352 4.29041 19.1117 4.1693 19.1467 3.87817V3.84556C19.1467 3.23535 19.1467 3.23535 19.7406 3.23535C21.0052 3.23535 22.2699 3.23535 23.5345 3.23535C23.7092 3.23535 24.0236 3.30755 24.0329 3.37509C24.0632 3.62663 24.0819 3.95968 23.9444 4.13669C23.3855 4.84938 22.7799 5.51315 22.1744 6.19556C22.0859 6.29804 22.0114 6.41216 21.9205 6.52861C22.2792 6.65904 22.6192 6.74987 22.9197 6.89427C24.4498 7.62559 24.5686 9.27222 23.8816 10.3878C23.1945 11.5034 22.0789 11.7853 20.8538 11.6222C20.2109 11.5139 19.6051 11.2474 19.0908 10.8467C18.8579 10.6766 18.7671 10.5206 18.986 10.2411C19.3726 9.74269 19.354 9.73104 19.8873 10.0804C20.1846 10.2995 20.5273 10.4489 20.8902 10.5175C21.2531 10.586 21.6267 10.5719 21.9834 10.4763C22.3014 10.4005 22.5844 10.2192 22.7861 9.962C22.9878 9.70476 23.0965 9.38677 23.0943 9.05986C23.0922 8.73295 22.9793 8.41642 22.7742 8.16188C22.5691 7.90733 22.2838 7.72979 21.9648 7.6582C21.6181 7.57944 21.265 7.53189 20.9097 7.51613C20.7094 7.50215 20.5557 7.46722 20.4719 7.25993C20.4201 7.17045 20.3978 7.06691 20.4083 6.96404C20.4187 6.86117 20.4614 6.76422 20.5301 6.68699C21.1512 5.97741 21.7723 5.26395 22.3933 4.5466C22.4935 4.43947 22.5703 4.31603 22.6542 4.19957Z" fill="#36AAD9"/>
<path d="M29.9649 13.292H1.03625C0.986212 13.292 0.938228 13.3119 0.90285 13.3472C0.867471 13.3826 0.847595 13.4306 0.847595 13.4806C0.847595 13.5307 0.867471 13.5787 0.90285 13.614C0.938228 13.6494 0.986212 13.6693 1.03625 13.6693H29.9649C30.0149 13.6693 30.0629 13.6494 30.0983 13.614C30.1337 13.5787 30.1536 13.5307 30.1536 13.4806C30.1536 13.4306 30.1337 13.3826 30.0983 13.3472C30.0629 13.3119 30.0149 13.292 29.9649 13.292Z" fill="#231F20"/>
<path d="M3.88431 16.2155H3.68867V15.9989C3.61686 16.0825 3.52737 16.1491 3.42666 16.1938C3.32596 16.2385 3.21657 16.2602 3.10642 16.2575C2.99788 16.2607 2.88983 16.2417 2.7889 16.2017C2.68797 16.1616 2.5963 16.1013 2.51951 16.0246C2.36706 15.8596 2.28587 15.6412 2.29359 15.4167C2.28439 15.1823 2.36809 14.9538 2.5265 14.7809C2.60171 14.6982 2.69399 14.6329 2.79694 14.5895C2.89989 14.5461 3.01105 14.5255 3.12272 14.5293C3.28362 14.5212 3.44308 14.5632 3.57909 14.6495C3.71509 14.7359 3.82093 14.8623 3.88198 15.0114L3.64908 15.0743C3.61242 14.9678 3.54272 14.8759 3.45014 14.8118C3.35755 14.7477 3.24693 14.7148 3.13437 14.718C3.05299 14.7158 2.97218 14.7321 2.89797 14.7656C2.82377 14.7991 2.75808 14.8489 2.70583 14.9113C2.58915 15.0484 2.52991 15.2253 2.54047 15.405C2.53159 15.5792 2.58995 15.7501 2.7035 15.8825C2.75637 15.9422 2.8218 15.9894 2.89509 16.0208C2.96837 16.0522 3.0477 16.067 3.12738 16.0642C3.21949 16.066 3.3109 16.0477 3.39522 16.0106C3.47211 15.9785 3.53948 15.9271 3.59085 15.8615C3.65453 15.7673 3.68859 15.6562 3.68867 15.5425H3.11806V15.3468H3.88431V16.2155Z" fill="#231F20"/>
<path d="M5.88727 16.2148H4.84387V14.5845H5.07677V16.0261H5.89426L5.88727 16.2148Z" fill="#231F20"/>
<path d="M7.45877 14.5327C7.57003 14.5288 7.68083 14.5488 7.78369 14.5914C7.88655 14.634 7.97907 14.6982 8.05499 14.7796C8.13326 14.8635 8.19414 14.962 8.23411 15.0695C8.27408 15.1771 8.29236 15.2915 8.28789 15.4061C8.29204 15.5175 8.27354 15.6287 8.23351 15.7327C8.19348 15.8368 8.13275 15.9317 8.05499 16.0116C7.97827 16.0892 7.88627 16.1499 7.78484 16.19C7.68341 16.2301 7.57475 16.2487 7.46575 16.2446C7.35567 16.2491 7.24584 16.2307 7.14322 16.1906C7.04059 16.1505 6.9474 16.0896 6.86953 16.0116C6.71954 15.8415 6.63678 15.6224 6.63678 15.3956C6.63678 15.1688 6.71954 14.9497 6.86953 14.7796C6.94503 14.6995 7.03648 14.6362 7.13798 14.5937C7.23947 14.5512 7.34875 14.5304 7.45877 14.5327ZM6.87884 15.3921C6.87282 15.569 6.92976 15.7424 7.03954 15.8812C7.09118 15.9422 7.15587 15.9909 7.22884 16.0235C7.30181 16.0562 7.38118 16.072 7.4611 16.0699C7.54033 16.072 7.61901 16.0561 7.69122 16.0235C7.76343 15.9908 7.82729 15.9421 7.87799 15.8812C7.98709 15.7508 8.04577 15.5855 8.04335 15.4154C8.05249 15.2348 7.99441 15.0573 7.88032 14.917C7.82996 14.8548 7.76595 14.805 7.69325 14.7714C7.62056 14.7379 7.54112 14.7216 7.4611 14.7237C7.38076 14.7218 7.30104 14.7382 7.22799 14.7717C7.15495 14.8051 7.0905 14.8549 7.03954 14.917C6.93129 15.0513 6.87432 15.2197 6.87884 15.3921Z" fill="#231F20"/>
<path d="M10.0254 16.2137H9.19629V14.5834H9.97651C10.0454 14.5768 10.1149 14.5842 10.1809 14.605C10.2469 14.6258 10.3081 14.6596 10.3608 14.7045C10.4022 14.7431 10.4348 14.79 10.4565 14.8423C10.4782 14.8945 10.4884 14.9507 10.4866 15.0073C10.4887 15.0824 10.4674 15.1564 10.4257 15.219C10.384 15.2816 10.3239 15.3297 10.2537 15.3566C10.3398 15.387 10.4146 15.4431 10.4679 15.5173C10.5168 15.5927 10.5404 15.6816 10.5355 15.7712C10.5387 15.8361 10.5267 15.9009 10.5004 15.9603C10.4741 16.0198 10.4343 16.0722 10.3841 16.1136C10.2797 16.1875 10.153 16.2229 10.0254 16.2137ZM9.41289 14.772V15.2635H9.9276C10.0097 15.2687 10.0914 15.2475 10.1605 15.2029C10.1903 15.18 10.2141 15.1503 10.2299 15.1162C10.2457 15.0822 10.2531 15.0448 10.2513 15.0073C10.2536 14.9734 10.2479 14.9395 10.2345 14.9083C10.2211 14.8772 10.2006 14.8496 10.1745 14.8279C10.1089 14.7854 10.0311 14.7657 9.95322 14.772H9.41289ZM9.41289 15.4521V16.0157H9.96486C10.0548 16.0229 10.1446 16.0008 10.2211 15.9529C10.2495 15.9269 10.2715 15.8946 10.2852 15.8586C10.299 15.8226 10.3041 15.7839 10.3002 15.7456C10.3002 15.5499 10.1884 15.4521 9.96719 15.4521H9.41289Z" fill="#231F20"/>
<path d="M11.5004 16.2148H11.2675L11.908 14.5845H12.1409L12.7395 16.2148H12.5066L12.3272 15.7141H11.6798L11.5004 16.2148ZM12.0058 14.8593L11.7729 15.5231H12.2387L12.0058 14.8593Z" fill="#231F20"/>
<path d="M14.5723 16.2148H13.5429V14.5845H13.7758V16.0261H14.591L14.5723 16.2148Z" fill="#231F20"/>
<path d="M17.0358 16.2148H15.9901V14.5845H16.223V16.0261H17.0358V16.2148Z" fill="#231F20"/>
<path d="M18.0727 16.2148H17.8398V14.5845H18.0727V16.2148Z" fill="#231F20"/>
<path d="M19.265 16.2148H19.0507V14.5845H19.3465L19.8309 15.9004L20.2967 14.5752H20.5949V16.2055H20.3899V14.9362L19.9241 16.2148H19.7378L19.272 14.9362L19.265 16.2148Z" fill="#231F20"/>
<path d="M22.4106 16.2148H22.1777V14.5845H22.4106V16.2148Z" fill="#231F20"/>
<path d="M23.9431 16.2148H23.7102V14.7732H23.2071V14.5752H24.4485V14.7732H23.9431V16.2148Z" fill="#231F20"/>
<path d="M26.4527 16.2148H25.251V14.5845H26.4155V14.7824H25.4839V15.2832H26.3014V15.4788H25.4839V16.0261H26.4597L26.4527 16.2148Z" fill="#231F20"/>
<path d="M27.9471 16.2148H27.3253V14.5844H27.9471C28.0547 14.5777 28.1624 14.5951 28.2623 14.6354C28.3622 14.6757 28.4519 14.7379 28.5247 14.8173C28.6541 14.9873 28.7185 15.1979 28.7064 15.4112C28.7137 15.5239 28.6986 15.637 28.6618 15.7437C28.625 15.8505 28.5673 15.9489 28.4921 16.0331C28.4181 16.0984 28.3317 16.1481 28.2381 16.1793C28.1444 16.2105 28.0455 16.2226 27.9471 16.2148ZM27.5512 14.7731V16.0168H27.9192C28.0052 16.0198 28.091 16.008 28.173 15.9818C28.2373 15.9559 28.2936 15.9133 28.336 15.8584C28.4352 15.7242 28.4832 15.559 28.4711 15.3926C28.4852 15.2143 28.4283 15.0377 28.3128 14.9012C28.2704 14.8536 28.2167 14.8176 28.1567 14.7964C28.0809 14.7757 28.0024 14.7663 27.9238 14.7684L27.5512 14.7731Z" fill="#231F20"/>
</g>
<defs>
<clipPath id="clip0_1763_6781">
<rect width="30" height="15.5137" fill="white" transform="translate(0.5 0.743164)"/>
</clipPath>
</defs>
</svg>
