<svg width="24" height="24" viewBox="0 0 24 24" fill="none" xmlns="http://www.w3.org/2000/svg">
<path fill-rule="evenodd" clip-rule="evenodd" d="M8.25 4.5C8.25 4.5 10.58 4.5 12.2275 6.14752C12.2275 6.14752 13.875 7.79505 13.875 10.125C13.875 10.125 13.875 12.455 12.2275 14.1025C12.2275 14.1025 10.58 15.75 8.25 15.75C8.25 15.75 5.92005 15.75 4.27252 14.1025C4.27252 14.1025 2.625 12.455 2.625 10.125C2.625 10.125 2.625 7.79505 4.27252 6.14752C4.27252 6.14752 5.92005 4.5 8.25 4.5ZM8.25 6C8.25 6 6.54137 6 5.33318 7.20818C5.33318 7.20818 4.125 8.41637 4.125 10.125C4.125 10.125 4.125 11.8336 5.33318 13.0418C5.33318 13.0418 6.54137 14.25 8.25 14.25C8.25 14.25 9.95863 14.25 11.1668 13.0418C11.1668 13.0418 12.375 11.8336 12.375 10.125C12.375 10.125 12.375 8.41637 11.1668 7.20818C11.1668 7.20818 9.95863 6 8.25 6Z" fill="#5F5F5F"/>
<path d="M18.8074 13.0418C17.5992 14.25 15.8906 14.25 15.8906 14.25C15.4764 14.25 15.1406 14.5858 15.1406 15C15.1406 15.4142 15.4764 15.75 15.8906 15.75C18.2206 15.75 19.8681 14.1025 19.8681 14.1025C21.5156 12.4549 21.5156 10.125 21.5156 10.125C21.5156 7.79505 19.8681 6.14752 19.8681 6.14752C18.2206 4.5 15.8906 4.5 15.8906 4.5C15.1172 4.50235 14.3729 4.70416 14.3729 4.70416C14.0461 4.79279 13.8187 5.08952 13.8187 5.42813L13.8188 5.43583C13.8194 5.49956 13.8282 5.56294 13.8449 5.62445C13.9335 5.95124 14.2301 6.17813 14.5687 6.17813L14.5764 6.17809C14.6402 6.17743 14.7036 6.16866 14.7651 6.15197C15.3189 6.0018 15.8906 6 15.8906 6C17.5992 6 18.8074 7.20818 18.8074 7.20818C20.0156 8.41637 20.0156 10.125 20.0156 10.125C20.0156 11.8336 18.8074 13.0418 18.8074 13.0418Z" fill="#5F5F5F"/>
<path d="M11.7075 16.5941C13.3331 17.4386 14.3864 18.9374 14.3864 18.9374C14.5268 19.1373 14.7557 19.2562 15 19.2562C15.0084 19.2562 15.0168 19.2561 15.0251 19.2558C15.1708 19.2509 15.3119 19.2037 15.4312 19.1199C15.594 19.0055 15.7046 18.8312 15.7388 18.6352C15.7463 18.5926 15.75 18.5495 15.75 18.5062L15.7498 18.49C15.7466 18.3412 15.6992 18.1968 15.6136 18.075C14.3497 16.2764 12.399 15.263 12.399 15.263C10.4483 14.2496 8.25 14.25 8.25 14.25C6.05174 14.25 4.10101 15.263 4.10101 15.263C2.15037 16.2764 0.886497 18.0748 0.886497 18.0748C0.797754 18.2011 0.75 18.3519 0.75 18.5062C0.75 18.5236 0.750602 18.5409 0.751805 18.5582C0.767469 18.7836 0.883915 18.9899 1.06878 19.1199C1.19506 19.2086 1.34565 19.2562 1.5 19.2562L1.50225 19.2562C1.54473 19.2561 1.58713 19.2523 1.62899 19.245C1.82494 19.2108 1.99927 19.1002 2.11364 18.9374C3.16689 17.4386 4.79251 16.5941 4.79251 16.5941C6.41812 15.7496 8.25 15.75 8.25 15.75C10.0819 15.75 11.7075 16.5941 11.7075 16.5941Z" fill="#5F5F5F"/>
<path d="M22.0264 18.9366C22.1668 19.1366 22.3962 19.2563 22.6406 19.2563C22.6489 19.2563 22.6571 19.2561 22.6654 19.2558C22.8111 19.251 22.9522 19.2039 23.0715 19.1201C23.2715 18.9797 23.3906 18.7506 23.3906 18.5063C23.3906 18.498 23.3905 18.4898 23.3902 18.4815C23.3854 18.3358 23.3382 18.1947 23.2545 18.0754C23.254 18.0746 23.2535 18.074 23.2535 18.074C21.9905 16.2753 20.0401 15.2622 20.0401 15.2622C18.0891 14.2487 15.8906 14.25 15.8906 14.25C15.6917 14.2501 15.5005 14.3293 15.36 14.47C15.2195 14.6106 15.1406 14.8012 15.1406 15C15.1406 15.4142 15.4764 15.75 15.8906 15.75C17.7225 15.7489 19.3486 16.5933 19.3486 16.5933C20.974 17.4376 22.0264 18.9366 22.0264 18.9366Z" fill="#5F5F5F"/>
</svg>
