<svg width="56" height="56" viewBox="0 0 56 56" fill="none" xmlns="http://www.w3.org/2000/svg">
<circle cx="28" cy="28" r="27.0455" stroke="white" stroke-width="1.90909"/>
<path d="M20.1439 25.4867C20.6541 25.6568 21.0545 26.0572 21.2246 26.5674C21.3977 27.0867 22.1322 27.0867 22.3053 26.5674C22.4754 26.0572 22.8758 25.6568 23.386 25.4867C23.9053 25.3136 23.9053 24.5791 23.386 24.406C22.8758 24.2359 22.4754 23.8355 22.3053 23.3253C22.1322 22.806 21.3977 22.806 21.2246 23.3253C21.0545 23.8355 20.6541 24.2359 20.1439 24.406C19.6246 24.5791 19.6246 25.3136 20.1439 25.4867Z" fill="white"/>
<path fill-rule="evenodd" clip-rule="evenodd" d="M20.5757 19.5146C18.2326 19.5146 16.3332 21.414 16.3332 23.7571V32.2419C16.3332 34.5849 18.2326 36.4843 20.5757 36.4843H31.1817C33.1889 36.4843 34.8705 35.0905 35.3113 33.2179L36.2726 33.9389C37.671 34.9877 39.6666 33.9899 39.6666 32.2419V23.7571C39.6666 22.0091 37.671 21.0113 36.2726 22.0601L35.3113 22.7811C34.8705 20.9085 33.1889 19.5146 31.1817 19.5146H20.5757ZM37.5454 32.2419L35.4241 30.651V25.348L37.5454 23.7571V32.2419ZM18.4544 23.7571C18.4544 22.5856 19.4041 21.6359 20.5757 21.6359H31.1817C32.3532 21.6359 33.3029 22.5856 33.3029 23.7571V32.2419C33.3029 33.4134 32.3532 34.3631 31.1817 34.3631H20.5757C19.4041 34.3631 18.4544 33.4134 18.4544 32.2419V23.7571Z" fill="white"/>
</svg>
