<svg width="80" height="31" viewBox="0 0 80 31" fill="none" xmlns="http://www.w3.org/2000/svg">
<g clip-path="url(#clip0_994_3915)">
<path d="M79.6723 20.9632L4.21127 20.9014C4.12435 20.9014 4.04099 20.9361 3.97953 20.9979C3.91807 21.0597 3.88354 21.1435 3.88354 21.2308C3.88354 21.3182 3.91807 21.402 3.97953 21.4638C4.04099 21.5256 4.12435 21.5603 4.21127 21.5603L79.6723 21.6221C79.7592 21.6221 79.8426 21.5874 79.9041 21.5256C79.9655 21.4638 80 21.38 80 21.2926C80 21.2052 79.9655 21.1214 79.9041 21.0597C79.8426 20.9979 79.7592 20.9632 79.6723 20.9632Z" fill="white"/>
<path d="M16.3388 3.56762V5.55681H11.4523V17.8379H9.13877V5.55681H4.25229V3.56762H16.3388ZM32.1905 3.56762V17.8379H30.0499V9.57843L30.2229 5.64329H30.2013L25.8553 17.8379H23.931L19.5851 5.64329H19.5634L19.7364 9.57843V17.8379H17.5959V3.56762H21.0337L23.9094 11.8271L24.904 15.2217H24.9472L25.9634 11.8271L28.8175 3.56762H32.1905Z" fill="white"/>
<path d="M33.3867 18.2793V8.18921H35.3039L35.4048 9.88434C35.7546 9.23858 36.2187 8.76098 36.7972 8.45155C37.3891 8.14212 38.0147 7.9874 38.674 7.9874C39.4004 7.9874 40.0664 8.15557 40.6718 8.49191C41.2907 8.81479 41.7548 9.30584 42.0642 9.96506C42.2795 9.5211 42.5755 9.15113 42.9522 8.85515C43.3289 8.55918 43.7459 8.34392 44.2033 8.20939C44.6607 8.0614 45.1114 7.9874 45.5554 7.9874C46.2012 7.9874 46.8066 8.12194 47.3716 8.39101C47.9367 8.66008 48.3941 9.07041 48.7439 9.622C49.0937 10.1736 49.2686 10.8799 49.2686 11.7409V18.2793H47.1093V12.084C47.1093 11.2633 46.9142 10.6714 46.524 10.3081C46.1339 9.94488 45.6361 9.76326 45.0307 9.76326C44.5598 9.76326 44.1226 9.87761 43.719 10.1063C43.3289 10.335 43.0127 10.6781 42.7705 11.1355C42.5284 11.5795 42.4073 12.1311 42.4073 12.7903V18.2793H40.248V12.084C40.248 11.2633 40.0529 10.6714 39.6628 10.3081C39.2726 9.94488 38.7749 9.76326 38.1695 9.76326C37.7658 9.76326 37.3622 9.87089 36.9586 10.0861C36.555 10.3014 36.2187 10.6377 35.9496 11.0952C35.6806 11.5526 35.546 12.158 35.546 12.9114V18.2793H33.3867ZM55.5692 18.4811C54.5602 18.4811 53.6722 18.2726 52.9054 17.8555C52.1386 17.4385 51.5399 16.8398 51.1094 16.0595C50.6923 15.2657 50.4838 14.324 50.4838 13.2343C50.4838 12.1445 50.6923 11.2095 51.1094 10.4292C51.5399 9.63545 52.1318 9.03005 52.8852 8.61299C53.6386 8.19593 54.4929 7.9874 55.4481 7.9874C56.4302 7.9874 57.2643 8.18921 57.9504 8.59281C58.6366 8.99641 59.1613 9.548 59.5245 10.2476C59.8877 10.9472 60.0694 11.7409 60.0694 12.6288C60.0694 12.871 60.0626 13.0997 60.0492 13.315C60.0357 13.5302 60.0155 13.7186 59.9886 13.88H51.8762V12.2252H59.0402L57.9706 12.5481C57.9706 11.6333 57.7419 10.9337 57.2845 10.4494C56.8271 9.95161 56.2015 9.70272 55.4077 9.70272C54.8292 9.70272 54.3247 9.83725 53.8942 10.1063C53.4637 10.3754 53.1341 10.779 52.9054 11.3171C52.6767 11.8418 52.5623 12.4876 52.5623 13.2544C52.5623 14.0078 52.6834 14.6469 52.9256 15.1715C53.1677 15.6962 53.5108 16.0931 53.9548 16.3622C54.3987 16.6312 54.9234 16.7658 55.5288 16.7658C56.2015 16.7658 56.7464 16.638 57.1634 16.3824C57.5805 16.1267 57.9101 15.7702 58.1522 15.3128L59.8676 16.12C59.6254 16.6043 59.2958 17.0281 58.8787 17.3914C58.4751 17.7412 57.9908 18.0102 57.4258 18.1986C56.8607 18.3869 56.2419 18.4811 55.5692 18.4811ZM65.8232 18.4811C64.8142 18.4811 63.9263 18.2726 63.1595 17.8555C62.3926 17.4385 61.7939 16.8398 61.3634 16.0595C60.9464 15.2657 60.7378 14.324 60.7378 13.2343C60.7378 12.1445 60.9464 11.2095 61.3634 10.4292C61.7939 9.63545 62.3859 9.03005 63.1393 8.61299C63.8927 8.19593 64.747 7.9874 65.7022 7.9874C66.6843 7.9874 67.5184 8.18921 68.2045 8.59281C68.8906 8.99641 69.4153 9.548 69.7786 10.2476C70.1418 10.9472 70.3234 11.7409 70.3234 12.6288C70.3234 12.871 70.3167 13.0997 70.3032 13.315C70.2898 13.5302 70.2696 13.7186 70.2427 13.88H62.1303V12.2252H69.2942L68.2247 12.5481C68.2247 11.6333 67.996 10.9337 67.5386 10.4494C67.0811 9.95161 66.4555 9.70272 65.6618 9.70272C65.0833 9.70272 64.5788 9.83725 64.1483 10.1063C63.7178 10.3754 63.3882 10.779 63.1595 11.3171C62.9307 11.8418 62.8164 12.4876 62.8164 13.2544C62.8164 14.0078 62.9375 14.6469 63.1796 15.1715C63.4218 15.6962 63.7649 16.0931 64.2088 16.3622C64.6528 16.6312 65.1775 16.7658 65.7829 16.7658C66.4555 16.7658 67.0004 16.638 67.4175 16.3824C67.8345 16.1267 68.1641 15.7702 68.4063 15.3128L70.1216 16.12C69.8795 16.6043 69.5498 17.0281 69.1328 17.3914C68.7292 17.7412 68.2449 18.0102 67.6798 18.1986C67.1148 18.3869 66.4959 18.4811 65.8232 18.4811ZM74.3475 5.22272V15.2523C74.3475 15.75 74.4753 16.1133 74.7309 16.342C75 16.5707 75.3565 16.6851 75.8004 16.6851C76.1637 16.6851 76.4798 16.6312 76.7489 16.5236C77.018 16.4025 77.2669 16.2411 77.4956 16.0393L77.9799 17.6134C77.6705 17.8824 77.287 18.0977 76.8296 18.2591C76.3857 18.4071 75.8879 18.4811 75.3363 18.4811C74.7578 18.4811 74.2264 18.3869 73.7421 18.1986C73.2577 18.0102 72.881 17.7075 72.612 17.2905C72.3429 16.86 72.2016 16.3016 72.1882 15.6155V5.82812L74.3475 5.22272ZM77.8185 8.18921V9.88434H70.2509V8.18921H77.8185Z" fill="#36AAD9"/>
<path d="M10.161 27.1067C9.89001 27.1067 9.65505 27.0476 9.45613 26.9294C9.2601 26.8083 9.1073 26.6383 8.99776 26.4192C8.89109 26.2001 8.83776 25.9392 8.83776 25.6364C8.83776 25.3337 8.89397 25.0728 9.0064 24.8537C9.12172 24.6346 9.28172 24.466 9.4864 24.3478C9.69109 24.2267 9.92604 24.1662 10.1913 24.1662C10.4738 24.1662 10.703 24.2195 10.8788 24.3262C11.0576 24.4328 11.2017 24.5972 11.3113 24.8192L10.9956 24.9921C10.9322 24.8278 10.8313 24.7038 10.6929 24.6202C10.5574 24.5337 10.3902 24.4905 10.1913 24.4905C9.99812 24.4905 9.82658 24.5366 9.67667 24.6289C9.52965 24.7183 9.41289 24.8494 9.3264 25.0224C9.2428 25.1925 9.201 25.3972 9.201 25.6364C9.201 25.8757 9.23703 26.0819 9.30911 26.2548C9.38406 26.4249 9.49361 26.5561 9.63776 26.6483C9.78478 26.7377 9.96352 26.7824 10.174 26.7824C10.2922 26.7824 10.4017 26.768 10.5026 26.7392C10.6064 26.7074 10.6958 26.6613 10.7707 26.6008C10.8486 26.5402 10.9091 26.4638 10.9524 26.3716C10.9956 26.2793 11.0172 26.1712 11.0172 26.0473V25.9478H10.1091V25.6235H11.3329V27.0635H11.0605L11.0432 26.5316L11.1167 26.5446C11.0417 26.7233 10.9235 26.8617 10.7621 26.9597C10.6006 27.0577 10.4003 27.1067 10.161 27.1067ZM14.4751 26.7392H16.1097V27.0635H14.1291V24.2094H14.4751V26.7392ZM19.7517 24.1662C20.0227 24.1662 20.2562 24.2267 20.4522 24.3478C20.6512 24.466 20.804 24.6346 20.9106 24.8537C21.0202 25.0728 21.075 25.3337 21.075 25.6364C21.075 25.9392 21.0202 26.2001 20.9106 26.4192C20.804 26.6383 20.6512 26.8083 20.4522 26.9294C20.2562 27.0476 20.0227 27.1067 19.7517 27.1067C19.4807 27.1067 19.2458 27.0476 19.0468 26.9294C18.8508 26.8083 18.698 26.6383 18.5885 26.4192C18.4818 26.2001 18.4285 25.9392 18.4285 25.6364C18.4285 25.3337 18.4818 25.0728 18.5885 24.8537C18.698 24.6346 18.8508 24.466 19.0468 24.3478C19.2458 24.2267 19.4807 24.1662 19.7517 24.1662ZM19.7517 24.4905C19.5557 24.4905 19.3856 24.5366 19.2414 24.6289C19.0973 24.7183 18.9863 24.8494 18.9085 25.0224C18.8306 25.1925 18.7917 25.3972 18.7917 25.6364C18.7917 25.8757 18.8306 26.0819 18.9085 26.2548C18.9863 26.4249 19.0973 26.5561 19.2414 26.6483C19.3856 26.7377 19.5557 26.7824 19.7517 26.7824C19.9506 26.7824 20.1207 26.7377 20.262 26.6483C20.4061 26.5561 20.5171 26.4249 20.595 26.2548C20.6728 26.0819 20.7117 25.8757 20.7117 25.6364C20.7117 25.3972 20.6728 25.1925 20.595 25.0224C20.5171 24.8494 20.4061 24.7183 20.262 24.6289C20.1207 24.5366 19.9506 24.4905 19.7517 24.4905ZM23.8254 27.0635V24.2094H24.8416C25.1789 24.2094 25.4254 24.2801 25.5811 24.4213C25.7368 24.5626 25.8146 24.7543 25.8146 24.9964C25.8146 25.1406 25.7728 25.2718 25.6892 25.39C25.6056 25.5053 25.4874 25.5788 25.3346 25.6105V25.6148C25.5047 25.6465 25.6388 25.7244 25.7368 25.8483C25.8377 25.9694 25.8881 26.1078 25.8881 26.2635C25.8881 26.5056 25.7973 26.7002 25.6157 26.8473C25.4341 26.9914 25.1746 27.0635 24.8373 27.0635H23.8254ZM24.1714 26.7392H24.9195C25.1242 26.7392 25.2755 26.6974 25.3735 26.6137C25.4744 26.5301 25.5249 26.4134 25.5249 26.2635C25.5249 26.1107 25.4744 25.9939 25.3735 25.9132C25.2755 25.8296 25.1242 25.7878 24.9195 25.7878H24.1714V26.7392ZM24.1714 25.4635H24.846C25.2496 25.4635 25.4514 25.3078 25.4514 24.9964C25.4514 24.688 25.2496 24.5337 24.846 24.5337H24.1714V25.4635ZM30.8721 27.0635H30.5046L30.2019 26.2721H28.9089L28.6062 27.0635H28.243L29.3543 24.2094H29.7651L30.8721 27.0635ZM29.0343 25.9478H30.0765L29.5532 24.5424L29.0343 25.9478ZM33.7874 26.7392H35.422V27.0635H33.4415V24.2094H33.7874V26.7392ZM41.7058 26.7392H43.3404V27.0635H41.3599V24.2094H41.7058V26.7392ZM46.2795 24.2094V27.0635H45.9335V24.2094H46.2795ZM51.9612 24.2094V27.0635H51.6326V25.2689L51.6715 24.5164H51.6671L50.7288 27.0635H50.4347L49.4963 24.5164H49.492L49.5309 25.2689V27.0635H49.2023V24.2094H49.7342L50.3612 25.9435L50.5774 26.657H50.5861L50.8066 25.9478L51.4293 24.2094H51.9612ZM55.2283 24.2094V27.0635H54.8824V24.2094H55.2283ZM60.1576 24.2094V24.5337H59.163V27.0635H58.817V24.5337H57.8225V24.2094H60.1576ZM62.7501 27.0635V24.2094H64.7523V24.5337H63.096V25.4548H64.3847V25.7792H63.096V26.7392H64.8171V27.0635H62.7501ZM68.418 24.2094C68.8648 24.2094 69.2151 24.3334 69.4688 24.5813C69.7253 24.8264 69.8536 25.1781 69.8536 25.6364C69.8536 26.0948 69.7253 26.448 69.4688 26.6959C69.2151 26.941 68.8648 27.0635 68.418 27.0635H67.4969V24.2094H68.418ZM68.4526 26.7392C68.7783 26.7392 69.032 26.6426 69.2136 26.4494C69.3981 26.2534 69.4904 25.9824 69.4904 25.6364C69.4904 25.2905 69.3981 25.021 69.2136 24.8278C69.032 24.6318 68.7783 24.5337 68.4526 24.5337H67.8428V26.7392H68.4526Z" fill="white"/>
</g>
<defs>
<clipPath id="clip0_994_3915">
<rect width="80" height="30.991" fill="white"/>
</clipPath>
</defs>
</svg>
