<svg width="56" height="56" viewBox="0 0 56 56" fill="none" xmlns="http://www.w3.org/2000/svg">
<circle cx="28" cy="28" r="28" fill="#FF394E"/>
<path d="M39.9935 16.6437C40.4076 17.0578 40.4076 17.7294 39.9935 18.1436L18.7813 39.3557C18.3671 39.7699 17.6956 39.7699 17.2814 39.3557C16.8672 38.9415 16.8672 38.27 17.2814 37.8558L38.4935 16.6437C38.9077 16.2295 39.5793 16.2295 39.9935 16.6437Z" fill="white"/>
<path d="M21.8621 26.5676C21.6921 26.0573 21.2917 25.657 20.7814 25.4869C20.2622 25.3138 20.2622 24.5793 20.7814 24.4062C21.2917 24.2361 21.6921 23.8357 21.8621 23.3255C22.0352 22.8062 22.7697 22.8062 22.9428 23.3255C23.1129 23.8357 23.5133 24.2361 24.0235 24.4062C24.5428 24.5793 24.5428 25.3138 24.0235 25.4869C23.5133 25.657 23.1129 26.0573 22.9428 26.5676C22.7697 27.0869 22.0352 27.0869 21.8621 26.5676Z" fill="white"/>
<path d="M31.8192 19.5148C32.4903 19.5148 33.1251 19.6707 33.6892 19.9481L31.9941 21.6431C31.9364 21.6384 31.8781 21.636 31.8192 21.636H21.2132C20.0417 21.636 19.092 22.5857 19.092 23.7572V32.2421C19.092 32.8742 19.3684 33.4416 19.807 33.8303L18.3057 35.3316C17.4839 34.5579 16.9708 33.4599 16.9708 32.2421V23.7572C16.9708 21.4142 18.8702 19.5148 21.2132 19.5148H31.8192Z" fill="white"/>
<path fill-rule="evenodd" clip-rule="evenodd" d="M31.8192 34.3633H25.2736L23.1524 36.4845H31.8192C33.8264 36.4845 35.508 35.0907 35.9489 33.2181L36.9102 33.9391C38.3085 34.9879 40.3041 33.9901 40.3041 32.2421V23.7572C40.3041 22.4337 39.1599 21.5402 37.9972 21.6397L33.9405 25.6965V32.2421C33.9405 33.4136 32.9908 34.3633 31.8192 34.3633ZM36.0617 30.6512L38.1829 32.2421V23.7572L36.0617 25.3482V30.6512Z" fill="white"/>
</svg>
