<svg width="22" height="23" viewBox="0 0 22 23" fill="none" xmlns="http://www.w3.org/2000/svg">
<path d="M1.83325 11.9784C1.83325 17.0412 5.93717 21.1451 10.9999 21.1451C16.0627 21.1451 20.1666 17.0412 20.1666 11.9784C20.1666 6.91568 16.0627 2.81177 10.9999 2.81177C5.93717 2.81177 1.83325 6.91568 1.83325 11.9784Z" stroke="#747474" stroke-width="1.375" stroke-linecap="round" stroke-linejoin="round"/>
<path d="M11.9166 2.85767C11.9166 2.85767 14.6666 6.4785 14.6666 11.9785C14.6666 17.4785 11.9166 21.0993 11.9166 21.0993M10.0833 21.0993C10.0833 21.0993 7.33327 17.4785 7.33327 11.9785C7.33327 6.4785 10.0833 2.85767 10.0833 2.85767M2.41077 15.1868H19.5891M2.41077 8.77017H19.5891" stroke="#747474" stroke-width="1.375" stroke-linecap="round" stroke-linejoin="round"/>
</svg>
